<svg width="500" height="500" viewBox="0 0 500 500" fill="none" xmlns="http://www.w3.org/2000/svg">
  <path
    d="M0 435.529C0 471.139 28.8652 500 64.4707 500H435.527C471.139 500 500 471.135 500 435.529V64.4727C500 28.8613 471.135 0 435.529 0H64.4727C28.8613 0 0 28.8652 0 64.4707V435.527V435.529Z"
    fill="#563D7C" />
  <path
    d="M207.338 221.168V150.361H269.664C275.602 150.361 281.324 150.855 286.836 151.846C292.348 152.834 297.225 154.6 301.465 157.145C305.703 159.689 309.096 163.223 311.641 167.744C314.184 172.268 315.457 178.063 315.457 185.127C315.457 197.848 311.641 207.035 304.008 212.688C296.377 218.342 286.625 221.168 274.752 221.168H207.338V221.168ZM140.77 98.6328V401.367H287.473C301.041 401.367 314.256 399.672 327.117 396.279C339.978 392.887 351.426 387.658 361.461 380.592C371.494 373.525 379.48 364.408 385.416 353.244C391.353 342.078 394.32 328.863 394.32 313.6C394.32 294.66 389.726 278.479 380.541 265.053C371.353 251.625 357.432 242.227 338.775 236.855C352.344 230.355 362.592 222.016 369.517 211.84C376.441 201.664 379.904 188.945 379.904 173.68C379.904 159.547 377.572 147.676 372.908 138.064C368.244 128.455 361.672 120.752 353.191 114.957C344.713 109.162 334.537 104.992 322.664 102.449C310.793 99.9043 297.648 98.6328 283.232 98.6328H140.77V98.6328ZM207.338 349.639V266.535H279.84C294.256 266.535 305.846 269.855 314.609 276.5C323.371 283.143 327.754 294.236 327.754 309.783C327.754 317.699 326.41 324.199 323.725 329.287C321.039 334.375 317.435 338.404 312.912 341.371C308.391 344.34 303.16 346.459 297.225 347.732C291.287 349.002 285.07 349.639 278.568 349.639H207.338V349.639Z"
    fill="white" />
</svg>