<svg width="500" height="500" viewBox="0 0 500 500" fill="none" xmlns="http://www.w3.org/2000/svg">
  <path d="M74.3594 444.826L35.2773 6.48633H464.715L425.59 444.76L249.734 493.51L74.3594 444.826Z" fill="#E44D26" />
  <path d="M250 456.25L392.102 416.852L425.535 42.3281H250V456.25Z" fill="#F16529" />
  <path
    d="M249.996 204.904H178.855L173.941 149.85H249.996V96.0918H115.188L116.477 110.514L129.687 258.666H249.996V204.904ZM249.996 344.525L249.758 344.592L189.887 328.42L186.062 285.549H132.09L139.621 369.959L249.75 400.529L249.996 400.463V344.525Z"
    fill="#EBEBEB" />
  <path
    d="M249.816 204.904V258.666H316.016L309.777 328.389L249.816 344.572V400.506L360.031 369.959L360.84 360.877L373.473 219.342L374.781 204.904H360.297H249.816ZM249.816 96.0918V149.85H379.676L380.754 137.771L383.207 110.514L384.492 96.0918H249.816Z"
    fill="white" />
</svg>