<svg width="512" height="512" viewBox="0 0 512 512" fill="none" xmlns="http://www.w3.org/2000/svg">
  <path d="M0 0H512V512H0V0Z" fill="#F7DF1E" />
  <path
    d="M134.623 427.865L173.803 404.153C181.363 417.555 188.239 428.895 204.733 428.895C220.543 428.895 230.513 422.711 230.513 398.655V235.059H278.627V399.335C278.627 449.169 249.415 471.853 206.795 471.853C168.305 471.853 145.963 451.919 134.621 427.861L134.623 427.865ZM304.761 422.709L343.937 400.027C354.251 416.869 367.655 429.241 391.367 429.241C411.305 429.241 424.017 419.273 424.017 405.525C424.017 389.029 410.957 383.185 388.961 373.565L376.935 368.405C342.221 353.631 319.195 335.071 319.195 295.891C319.195 259.803 346.689 232.307 389.651 232.307C420.239 232.307 442.235 242.963 458.043 270.801L420.579 294.861C412.329 280.083 403.397 274.241 389.649 274.241C375.557 274.241 366.621 283.177 366.621 294.861C366.621 309.295 375.557 315.141 396.177 324.077L408.205 329.231C449.105 346.761 472.131 364.631 472.131 404.839C472.131 448.147 438.107 471.859 392.397 471.859C347.719 471.859 318.849 450.551 304.759 422.711"
    fill="black" />
</svg>