<svg width="500" height="500" viewBox="0 0 500 500" fill="none" xmlns="http://www.w3.org/2000/svg">
  <path d="M10.418 52.084L72.918 93.7507V302.084L10.418 260.417V52.084Z" fill="#29B6F6" />
  <path d="M489.582 208.334L427.082 250.001V385.417L489.582 343.751V208.334Z" fill="#0288D1" />
  <path d="M489.582 62.5L427.082 104.167V177.083L489.582 135.417V62.5Z" fill="#0288D1" />
  <path d="M364.582 52.084L302.082 93.7507V302.084L364.582 260.417V52.084Z" fill="#0288D1" />
  <path d="M10.418 125.001L187.501 239.584V166.667L10.418 52.084V125.001Z" fill="#29B6F6" />
  <path d="M364.583 125.001L187.5 239.584V166.667L364.583 52.084V125.001Z" fill="#0288D1" />
  <path d="M364.583 270.833L187.5 385.416V312.499L364.583 197.916V270.833Z" fill="#0288D1" />
  <path d="M489.583 354.167L312.5 468.75V395.833L489.583 281.25V354.167Z" fill="#0288D1" />
  <path d="M312.5 393.385L187.5 312.5V385.417L312.5 466.302V393.385Z" fill="#29B6F6" />
</svg>