<svg width="512" height="512" viewBox="0 0 512 512" fill="none" xmlns="http://www.w3.org/2000/svg">
  <path d="M0 0H512V512H0V0Z" fill="#222222" />
  <path
    d="M255.604 298.503C279.25 298.503 298.419 279.334 298.419 255.688C298.419 232.042 279.25 212.873 255.604 212.873C231.958 212.873 212.789 232.042 212.789 255.688C212.789 279.334 231.958 298.503 255.604 298.503Z"
    fill="#00D8FF" />
  <path
    d="M255.603 168.643C313.077 168.643 366.476 176.892 406.73 190.743C455.233 207.439 485.059 232.752 485.059 255.674C485.059 279.557 453.45 306.455 401.367 323.703C361.99 336.748 310.162 343.568 255.603 343.568C199.658 343.568 146.697 337.173 106.868 323.561C56.4827 306.342 26.1328 279.105 26.1328 255.674C26.1328 232.936 54.615 207.821 102.439 191.154C142.849 177.075 197.564 168.643 255.603 168.643V168.643Z"
    stroke="#00D8FF" stroke-width="20" stroke-miterlimit="10" />
  <path
    d="M179.834 212.421C208.542 162.63 242.373 120.494 274.492 92.5499C313.189 58.8749 350.02 45.688 369.871 57.1346C390.557 69.0623 398.07 109.883 386.991 163.635C378.615 204.271 358.636 252.562 331.371 299.834C303.426 348.295 271.421 390.983 239.741 418.687C199.657 453.734 160.888 466.412 140.598 454.711C120.903 443.349 113.376 406.137 122.813 356.374C130.793 314.295 150.828 262.693 179.834 212.421V212.421Z"
    stroke="#00D8FF" stroke-width="20" stroke-miterlimit="10" />
  <path
    d="M179.904 299.932C151.111 250.184 131.5 199.842 123.322 158.059C113.474 107.717 120.436 69.2169 140.273 57.7419C160.945 45.7718 200.053 59.6521 241.085 96.086C272.114 123.634 303.964 165.063 331.3 212.293C359.329 260.711 380.341 309.752 388.505 351.025C398.848 403.263 390.472 443.178 370.196 454.908C350.514 466.298 314.519 454.243 276.118 421.204C243.689 393.288 208.981 350.162 179.904 299.932V299.932Z"
    stroke="#00D8FF" stroke-width="20" stroke-miterlimit="10" />
</svg>