<svg width="512" height="512" viewBox="0 0 512 512" fill="none" xmlns="http://www.w3.org/2000/svg">
  <path
    d="M511.85 0H0.15C0.0671573 0 0 0.0671573 0 0.15V511.85C0 511.933 0.0671573 512 0.15 512H511.85C511.933 512 512 511.933 512 511.85V0.15C512 0.0671573 511.933 0 511.85 0Z"
    fill="#CC6699" />
  <path
    d="M258.002 87.9998C162.002 121 100.002 188 106.002 228C112.002 268 172.002 300 199.002 321C164.002 339 120.002 366 121.002 401C123.002 449 175.002 434 197.002 420C219.002 406 241.002 367 227.002 326C258.002 318 285.002 328 293.002 334C324.002 356 308.002 381 297.002 385C286.002 389 293.002 391 300.002 389C307.002 387 322.002 377 322.002 360C322.002 317 276.002 297 219.002 312C186.002 277 141.002 261 143.002 223C144.002 209 149.002 173 238.002 128C327.002 82.9998 390.002 101 382.002 142C370.002 204 262.002 246 224.002 210C222.002 206 215.002 203 219.002 214C239.002 264 401.002 241 408.002 135C410.002 78.9998 329.002 63.9998 258.002 87.9998ZM172.002 408C147.002 416 148.002 400 149.002 394C152.002 377 166.002 356 208.002 335C220.002 373 193.002 402 172.002 408Z"
    fill="white" />
</svg>