<svg width="210" height="62" viewBox="0 0 210 62" fill="none" xmlns="http://www.w3.org/2000/svg">
  <path
    d="M64.9414 1.28125C64.9089 1.52539 64.8031 1.7207 64.624 1.86719C64.445 2.01367 64.2415 2.08691 64.0137 2.08691C63.9811 2.08691 63.9242 2.08691 63.8428 2.08691C63.7614 2.07064 63.5742 2.0625 63.2812 2.0625C62.972 2.0625 62.5732 2.09505 62.085 2.16016C61.613 2.22526 61.084 2.36361 60.498 2.5752C59.9284 2.77051 59.3262 3.06348 58.6914 3.4541C58.0729 3.84473 57.4626 4.3737 56.8604 5.04102C56.2581 5.69206 55.6885 6.50586 55.1514 7.48242C54.6143 8.44271 54.1585 9.60645 53.7842 10.9736C53.5889 11.6572 53.361 12.6419 53.1006 13.9277C52.8564 15.1973 52.5879 16.6296 52.2949 18.2246C52.0182 19.8197 51.7334 21.5205 51.4404 23.3271C51.1637 25.1338 50.8952 26.9079 50.6348 28.6494C50.3906 30.391 50.1628 32.0511 49.9512 33.6299C49.7396 35.1924 49.5768 36.5352 49.4629 37.6582C49.4303 37.8698 49.3327 38.057 49.1699 38.2197C49.0234 38.3988 48.8363 38.4883 48.6084 38.4883C48.3805 38.4883 48.1771 38.4313 47.998 38.3174C47.8353 38.2035 47.7214 38.0326 47.6562 37.8047C47.4447 37.0234 47.111 35.9411 46.6553 34.5576C46.1995 33.1742 45.6706 31.6198 45.0684 29.8945C44.4824 28.153 43.8395 26.3057 43.1396 24.3525C42.4398 22.3994 41.7399 20.4707 41.04 18.5664C40.3564 16.6458 39.6891 14.8148 39.0381 13.0732C38.4033 11.3154 37.8418 9.76921 37.3535 8.43457C37.2721 9.34603 37.1419 10.3633 36.9629 11.4863C36.8001 12.5931 36.5723 13.7894 36.2793 15.0752C36.0026 16.3447 35.6527 17.6956 35.2295 19.1279C34.8063 20.5439 34.3018 22.0169 33.7158 23.5469C32.8044 25.8906 31.7301 27.8926 30.4932 29.5527C29.2725 31.2129 27.9867 32.5964 26.6357 33.7031C25.2848 34.8099 23.9095 35.6888 22.5098 36.3398C21.1263 36.9746 19.8242 37.4548 18.6035 37.7803C17.3828 38.1058 16.2842 38.3092 15.3076 38.3906C14.3311 38.4883 13.5824 38.5371 13.0615 38.5371C11.2712 38.5371 9.61914 38.3011 8.10547 37.8291C6.60807 37.3571 5.30599 36.6898 4.19922 35.8271C3.10872 34.9482 2.25423 33.9066 1.63574 32.7021C1.03353 31.4814 0.732422 30.1387 0.732422 28.6738C0.732422 27.3555 1.02539 26.1266 1.61133 24.9873C2.21354 23.8317 3.01107 22.8307 4.00391 21.9844C5.01302 21.138 6.16048 20.4707 7.44629 19.9824C8.74837 19.4941 10.0993 19.25 11.499 19.25C12.6546 19.25 13.6882 19.3639 14.5996 19.5918C15.5273 19.8197 16.3411 20.1126 17.041 20.4707C17.7572 20.8125 18.3675 21.1868 18.8721 21.5938C19.3929 22.0007 19.8161 22.3913 20.1416 22.7656C20.4834 23.1237 20.7357 23.4329 20.8984 23.6934C21.0775 23.9538 21.1833 24.1084 21.2158 24.1572C21.2809 24.2874 21.3135 24.4339 21.3135 24.5967C21.3135 24.8245 21.224 25.0361 21.0449 25.2314C20.8822 25.4268 20.6624 25.5244 20.3857 25.5244C20.0277 25.5244 19.7591 25.3617 19.5801 25.0361C19.5638 24.9873 19.401 24.7594 19.0918 24.3525C18.7988 23.9294 18.335 23.4736 17.7002 22.9854C17.0817 22.4971 16.276 22.0576 15.2832 21.667C14.2904 21.2601 13.0859 21.0566 11.6699 21.0566C10.5143 21.0566 9.38314 21.252 8.27637 21.6426C7.18587 22.0332 6.21745 22.5703 5.37109 23.2539C4.52474 23.9375 3.84115 24.7513 3.32031 25.6953C2.81576 26.623 2.56348 27.6322 2.56348 28.7227C2.56348 29.9108 2.84017 31.0013 3.39355 31.9941C3.94694 32.9707 4.69564 33.8089 5.63965 34.5088C6.59993 35.2087 7.70671 35.7539 8.95996 36.1445C10.2295 36.5189 11.5804 36.7061 13.0127 36.7061C13.5661 36.7061 14.2985 36.6654 15.21 36.584C16.1214 36.5026 17.1387 36.3154 18.2617 36.0225C19.401 35.7295 20.5973 35.29 21.8506 34.7041C23.1038 34.1019 24.3408 33.2881 25.5615 32.2627C26.7822 31.2373 27.946 29.9596 29.0527 28.4297C30.1758 26.8997 31.1605 25.0443 32.0068 22.8633C32.8857 20.6172 33.5693 18.485 34.0576 16.4668C34.5622 14.4323 34.9365 12.6012 35.1807 10.9736C35.4248 9.34603 35.5713 7.96257 35.6201 6.82324C35.6852 5.66764 35.7178 4.8457 35.7178 4.35742V3.86914C35.7178 3.60872 35.7992 3.389 35.9619 3.20996C36.141 3.01465 36.3688 2.91699 36.6455 2.91699C37.0524 2.91699 37.3372 3.12044 37.5 3.52734C37.5488 3.64128 37.6872 4.02376 37.915 4.6748C38.1592 5.32585 38.4684 6.1722 38.8428 7.21387C39.2334 8.23926 39.6729 9.42741 40.1611 10.7783C40.6657 12.1292 41.1947 13.5697 41.748 15.0996C42.3014 16.6133 42.8711 18.1839 43.457 19.8115C44.043 21.4391 44.6126 23.0423 45.166 24.6211C45.7357 26.1999 46.2728 27.7217 46.7773 29.1865C47.2819 30.6514 47.7376 31.986 48.1445 33.1904C48.3236 31.8883 48.5189 30.513 48.7305 29.0645C48.9421 27.5996 49.1618 26.1266 49.3896 24.6455C49.6338 23.1481 49.8698 21.6833 50.0977 20.251C50.3418 18.8187 50.5778 17.4759 50.8057 16.2227C51.0498 14.9694 51.2695 13.8464 51.4648 12.8535C51.6602 11.8607 51.8392 11.0632 52.002 10.4609C52.36 9.02865 52.8727 7.69401 53.54 6.45703C54.2074 5.20378 55.013 4.11328 55.957 3.18555C56.9173 2.25781 58.0078 1.53353 59.2285 1.0127C60.4655 0.475586 61.8327 0.207031 63.3301 0.207031C63.8997 0.207031 64.3066 0.272135 64.5508 0.402344C64.8112 0.532552 64.9414 0.784831 64.9414 1.15918V1.28125ZM76.1963 31.1885C76.1312 31.3187 75.9928 31.5954 75.7812 32.0186C75.5859 32.4255 75.3255 32.8975 75 33.4346C74.6908 33.9717 74.3245 34.5332 73.9014 35.1191C73.4782 35.7051 73.0062 36.2422 72.4854 36.7305C71.9645 37.2188 71.403 37.6257 70.8008 37.9512C70.1986 38.2604 69.5638 38.415 68.8965 38.415C67.9525 38.415 67.1549 38.1139 66.5039 37.5117C65.8691 36.9095 65.4053 36.1527 65.1123 35.2412C64.5589 36.1689 63.8997 36.9095 63.1348 37.4629C62.3698 38 61.6048 38.2686 60.8398 38.2686C60.2376 38.2686 59.6924 38.1628 59.2041 37.9512C58.7158 37.7233 58.3008 37.4141 57.959 37.0234C57.6172 36.6165 57.3486 36.1445 57.1533 35.6074C56.9743 35.0703 56.8848 34.4844 56.8848 33.8496C56.8848 32.5801 57.0964 31.4652 57.5195 30.5049C57.959 29.5283 58.5124 28.7145 59.1797 28.0635C59.847 27.4124 60.5794 26.9242 61.377 26.5986C62.1908 26.2731 62.972 26.1104 63.7207 26.1104C64.2253 26.1104 64.6891 26.1836 65.1123 26.3301C65.5355 26.4603 65.8936 26.6068 66.1865 26.7695C66.4958 26.9323 66.7318 27.0869 66.8945 27.2334C67.0573 27.3636 67.1468 27.4368 67.1631 27.4531C67.3421 27.6647 67.4316 27.8844 67.4316 28.1123C67.4316 28.3564 67.3421 28.5762 67.1631 28.7715C66.984 28.9505 66.7725 29.04 66.5283 29.04C66.2679 29.04 66.0482 28.9505 65.8691 28.7715C65.8366 28.7389 65.7633 28.682 65.6494 28.6006C65.5355 28.5029 65.3809 28.4053 65.1855 28.3076C64.9902 28.21 64.7542 28.1286 64.4775 28.0635C64.2171 27.9821 63.916 27.9414 63.5742 27.9414C63.0697 27.9414 62.5326 28.0553 61.9629 28.2832C61.3932 28.5111 60.8724 28.8691 60.4004 29.3574C59.9284 29.8294 59.5296 30.4316 59.2041 31.1641C58.8949 31.8802 58.7402 32.7347 58.7402 33.7275C58.7402 34.0368 58.7728 34.3542 58.8379 34.6797C58.903 34.9889 59.0169 35.2738 59.1797 35.5342C59.3424 35.7946 59.5622 36.0062 59.8389 36.1689C60.1156 36.3317 60.4574 36.4131 60.8643 36.4131C61.1572 36.4131 61.4909 36.3154 61.8652 36.1201C62.2559 35.9248 62.6221 35.6237 62.9639 35.2168C63.3219 34.8099 63.6393 34.2972 63.916 33.6787C64.209 33.0602 64.4124 32.3278 64.5264 31.4814C64.5589 31.2536 64.6647 31.0664 64.8438 30.9199C65.0228 30.7572 65.2344 30.6758 65.4785 30.6758C65.7064 30.6758 65.9017 30.7653 66.0645 30.9443C66.2435 31.1234 66.3411 31.3268 66.3574 31.5547C66.3737 31.8639 66.4062 32.3034 66.4551 32.873C66.5039 33.4264 66.6097 33.9798 66.7725 34.5332C66.9515 35.0866 67.2119 35.5667 67.5537 35.9736C67.8955 36.3805 68.3675 36.584 68.9697 36.584C69.3604 36.584 69.7428 36.4782 70.1172 36.2666C70.5078 36.055 70.8822 35.7783 71.2402 35.4365C71.6146 35.0785 71.9645 34.6797 72.29 34.2402C72.6318 33.7845 72.9411 33.3288 73.2178 32.873C73.4945 32.4173 73.7386 31.9779 73.9502 31.5547C74.1618 31.1315 74.3408 30.7653 74.4873 30.4561C74.5687 30.277 74.6826 30.1387 74.8291 30.041C74.9919 29.9434 75.1628 29.8945 75.3418 29.8945C75.6185 29.8945 75.8382 30.0003 76.001 30.2119C76.18 30.4072 76.2695 30.6188 76.2695 30.8467C76.2695 30.9606 76.2451 31.0745 76.1963 31.1885ZM94.2871 13.5615C94.2871 13.8219 94.1976 14.0335 94.0186 14.1963C93.8395 14.3428 93.6198 14.416 93.3594 14.416H80.9814V14.6846C80.9814 15.6774 80.9082 16.7354 80.7617 17.8584C80.6152 18.9814 80.4118 20.1045 80.1514 21.2275C79.9072 22.3343 79.6224 23.4167 79.2969 24.4746C78.9876 25.5326 78.6621 26.5091 78.3203 27.4043C77.9948 28.2995 77.6693 29.0807 77.3438 29.748C77.0182 30.3991 76.7253 30.8874 76.4648 31.2129C76.6764 31.9616 76.9287 32.6615 77.2217 33.3125C77.5146 33.9473 77.8402 34.5088 78.1982 34.9971C78.5726 35.4691 78.9714 35.8434 79.3945 36.1201C79.8177 36.3968 80.2734 36.5352 80.7617 36.5352C81.3314 36.5352 81.8929 36.2992 82.4463 35.8271C83.016 35.3389 83.5368 34.7692 84.0088 34.1182C84.4971 33.4508 84.9202 32.7835 85.2783 32.1162C85.6527 31.4326 85.9212 30.8874 86.084 30.4805C86.2467 30.0898 86.5316 29.8945 86.9385 29.8945C87.2152 29.8945 87.4349 29.9922 87.5977 30.1875C87.7767 30.3828 87.8662 30.5944 87.8662 30.8223C87.8662 30.9362 87.8418 31.0501 87.793 31.1641C87.7441 31.278 87.6221 31.5384 87.4268 31.9453C87.2477 32.3522 87.0036 32.8242 86.6943 33.3613C86.4014 33.8984 86.0514 34.4681 85.6445 35.0703C85.2539 35.6562 84.8063 36.1934 84.3018 36.6816C83.8135 37.1699 83.2845 37.5768 82.7148 37.9023C82.1452 38.2279 81.543 38.3906 80.9082 38.3906C79.7852 38.3906 78.776 38.0244 77.8809 37.292C76.9857 36.5596 76.2207 35.5342 75.5859 34.2158C74.9674 32.8975 74.4954 31.335 74.1699 29.5283C73.8444 27.7217 73.6816 25.7441 73.6816 23.5957C73.6816 23.0586 73.6898 22.432 73.7061 21.7158C73.7223 20.9834 73.7549 20.2184 73.8037 19.4209C73.8525 18.6071 73.9258 17.777 74.0234 16.9307C74.1211 16.068 74.2513 15.2298 74.4141 14.416H65.6494C65.389 14.416 65.1693 14.3428 64.9902 14.1963C64.8112 14.0335 64.7217 13.8219 64.7217 13.5615C64.7217 13.3011 64.8112 13.0977 64.9902 12.9512C65.1693 12.7884 65.389 12.707 65.6494 12.707H74.8291C74.9919 12.1211 75.179 11.584 75.3906 11.0957C75.6185 10.6074 75.8708 10.1842 76.1475 9.82617C76.4404 9.4681 76.7578 9.19141 77.0996 8.99609C77.4577 8.78451 77.8483 8.67871 78.2715 8.67871C78.6784 8.67871 79.0283 8.78451 79.3213 8.99609C79.6305 9.19141 79.891 9.4681 80.1025 9.82617C80.3141 10.1842 80.4769 10.6074 80.5908 11.0957C80.721 11.584 80.8187 12.1211 80.8838 12.707H93.3594C93.6198 12.707 93.8395 12.7884 94.0186 12.9512C94.1976 13.0977 94.2871 13.3011 94.2871 13.5615ZM75.9033 28.7715C76.3916 27.6973 76.8311 26.5417 77.2217 25.3047C77.6286 24.0514 77.9704 22.79 78.2471 21.5205C78.54 20.251 78.7598 19.0059 78.9062 17.7852C79.069 16.5645 79.1504 15.4414 79.1504 14.416H76.2695C76.0417 15.4251 75.8545 16.6784 75.708 18.1758C75.5778 19.6569 75.5127 21.4635 75.5127 23.5957C75.5127 24.7839 75.5452 25.7848 75.6104 26.5986C75.6755 27.3962 75.7731 28.1204 75.9033 28.7715ZM78.1738 10.5098C78.0273 10.5098 77.8158 10.6725 77.5391 10.998C77.2624 11.3073 76.9857 11.877 76.709 12.707H79.0527C78.9714 12.0234 78.8493 11.4863 78.6865 11.0957C78.54 10.7051 78.3691 10.5098 78.1738 10.5098ZM76.2939 30.5293V30.5537V30.5293ZM95.2637 38.3418C95.8333 37.7721 96.4111 37.1943 96.9971 36.6084C97.583 36.0062 98.1527 35.3796 98.7061 34.7285C99.2594 34.0775 99.7721 33.402 100.244 32.7021C100.732 31.986 101.164 31.2292 101.538 30.4316C101.619 30.2526 101.733 30.1224 101.88 30.041C102.026 29.9434 102.189 29.8945 102.368 29.8945C102.645 29.8945 102.865 29.9922 103.027 30.1875C103.206 30.3828 103.296 30.6025 103.296 30.8467C103.296 30.9769 103.271 31.099 103.223 31.2129C102.718 32.2708 102.14 33.2393 101.489 34.1182C100.838 34.9971 100.155 35.8353 99.4385 36.6328C98.7223 37.4141 97.998 38.1709 97.2656 38.9033C96.5332 39.652 95.8333 40.4007 95.166 41.1494C95.1009 42.2725 95.1009 43.3955 95.166 44.5186C95.2311 45.6579 95.2637 46.8623 95.2637 48.1318C95.2637 49.1735 95.2311 50.2152 95.166 51.2568C95.1009 52.2985 94.9951 53.2913 94.8486 54.2354C94.7021 55.1956 94.4987 56.0908 94.2383 56.9209C93.9941 57.751 93.6768 58.4671 93.2861 59.0693C92.8955 59.6878 92.4398 60.168 91.9189 60.5098C91.3981 60.8678 90.7878 61.0469 90.0879 61.0469C88.9323 61.0469 88.0452 60.6481 87.4268 59.8506C86.8083 59.0531 86.499 57.9382 86.499 56.5059C86.499 55.7246 86.5804 54.8864 86.7432 53.9912C86.9222 53.096 87.1663 52.1683 87.4756 51.208C87.7848 50.264 88.151 49.3037 88.5742 48.3271C89.0137 47.3506 89.4857 46.3984 89.9902 45.4707C90.4948 44.543 91.0319 43.6559 91.6016 42.8096C92.1712 41.9795 92.749 41.2227 93.335 40.5391C93.3675 39.7578 93.4001 38.944 93.4326 38.0977C93.4814 37.2676 93.5303 36.4945 93.5791 35.7783C93.1559 36.527 92.627 37.1292 91.9922 37.585C91.3737 38.0407 90.6901 38.2686 89.9414 38.2686C88.7044 38.2686 87.736 37.8535 87.0361 37.0234C86.3363 36.1934 85.9863 35.054 85.9863 33.6055C85.9863 32.5475 86.084 31.5872 86.2793 30.7246C86.4909 29.8457 86.7106 29.097 86.9385 28.4785C87.1826 27.8438 87.4023 27.3636 87.5977 27.0381C87.793 26.6963 87.8906 26.5335 87.8906 26.5498C88.0697 26.2731 88.3219 26.1348 88.6475 26.1348C88.9242 26.1348 89.1439 26.2324 89.3066 26.4277C89.4857 26.6068 89.5752 26.8184 89.5752 27.0625C89.5752 27.2415 89.5264 27.4043 89.4287 27.5508C89.445 27.5345 89.3636 27.6729 89.1846 27.9658C89.0218 28.2425 88.8346 28.6494 88.623 29.1865C88.4277 29.7236 88.2406 30.3665 88.0615 31.1152C87.8988 31.8639 87.8174 32.6859 87.8174 33.5811C87.8174 34.4762 87.9801 35.1761 88.3057 35.6807C88.6312 36.1852 89.1602 36.4375 89.8926 36.4375C90.8203 36.4375 91.6585 35.7539 92.4072 34.3867C93.1559 33.0033 93.7907 31.0013 94.3115 28.3809C94.3441 28.1693 94.4417 27.9984 94.6045 27.8682C94.7673 27.7217 94.9626 27.6484 95.1904 27.6484C95.4508 27.6484 95.6706 27.738 95.8496 27.917C96.0286 28.096 96.1182 28.3158 96.1182 28.5762C96.1182 28.625 96.0856 28.918 96.0205 29.4551C95.9554 29.9759 95.874 30.6758 95.7764 31.5547C95.695 32.4336 95.6055 33.459 95.5078 34.6309C95.4102 35.7865 95.3288 37.0234 95.2637 38.3418ZM93.3105 43.5176C92.5781 44.5755 91.9027 45.6904 91.2842 46.8623C90.682 48.0342 90.1611 49.1979 89.7217 50.3535C89.2822 51.5091 88.9404 52.6159 88.6963 53.6738C88.4521 54.7318 88.3301 55.6758 88.3301 56.5059C88.3301 57.3522 88.4684 58.0114 88.7451 58.4834C89.0218 58.9717 89.4613 59.2158 90.0635 59.2158C90.6006 59.2158 91.0726 58.9473 91.4795 58.4102C91.9027 57.8893 92.2526 57.1406 92.5293 56.1641C92.8223 55.1875 93.042 53.9993 93.1885 52.5996C93.335 51.2161 93.4082 49.6618 93.4082 47.9365C93.4082 47.2367 93.3919 46.5286 93.3594 45.8125C93.3431 45.0964 93.3268 44.3314 93.3105 43.5176ZM126.904 35.2168C124.479 36.291 122.119 37.0804 119.824 37.585C117.546 38.0732 115.381 38.3174 113.33 38.3174C111.8 38.3174 110.482 38.2197 109.375 38.0244C108.285 37.8454 107.357 37.6094 106.592 37.3164C105.827 37.0234 105.216 36.6898 104.761 36.3154C104.305 35.9411 103.947 35.5586 103.687 35.168C103.442 34.7773 103.28 34.403 103.198 34.0449C103.117 33.6868 103.076 33.3695 103.076 33.0928C103.076 32.4092 103.239 31.8151 103.564 31.3105C103.89 30.806 104.297 30.3747 104.785 30.0166C105.29 29.6423 105.835 29.3411 106.421 29.1133C107.023 28.8691 107.593 28.6738 108.13 28.5273C106.812 27.1764 105.819 25.6872 105.151 24.0596C104.484 22.432 104.15 20.6904 104.15 18.835C104.15 17.2236 104.378 15.6774 104.834 14.1963C105.306 12.7152 105.949 11.3398 106.763 10.0703C107.593 8.78451 108.586 7.62077 109.741 6.5791C110.897 5.53743 112.158 4.65039 113.525 3.91797C114.909 3.16927 116.382 2.59961 117.944 2.20898C119.507 1.80208 121.11 1.59863 122.754 1.59863C124.398 1.59863 125.968 1.79395 127.466 2.18457C128.979 2.5752 130.379 3.12858 131.665 3.84473C132.967 4.5446 134.139 5.39095 135.181 6.38379C136.239 7.36035 137.142 8.45898 137.891 9.67969C138.639 10.8841 139.217 12.1781 139.624 13.5615C140.031 14.945 140.234 16.3854 140.234 17.8828C140.234 19.3151 140.063 20.6579 139.722 21.9111C139.396 23.1644 138.94 24.3281 138.354 25.4023C137.785 26.4766 137.118 27.4694 136.353 28.3809C135.604 29.276 134.806 30.0898 133.96 30.8223C133.13 31.5547 132.267 32.2057 131.372 32.7754C130.493 33.3451 129.647 33.8333 128.833 34.2402C129.712 34.7936 130.566 35.3551 131.396 35.9248C132.243 36.4782 133.065 37.0153 133.862 37.5361C134.676 38.057 135.474 38.5452 136.255 39.001C137.052 39.4567 137.834 39.8555 138.599 40.1973C139.575 40.6367 140.544 40.9378 141.504 41.1006C142.464 41.2633 143.384 41.3447 144.263 41.3447C145.142 41.3447 145.964 41.2796 146.729 41.1494C147.51 41.0355 148.177 40.9053 148.73 40.7588C149.3 40.6123 149.748 40.474 150.073 40.3438C150.415 40.2135 150.586 40.1484 150.586 40.1484C150.7 40.0996 150.822 40.0752 150.952 40.0752C151.196 40.0752 151.408 40.1566 151.587 40.3193C151.782 40.4984 151.88 40.7262 151.88 41.0029C151.88 41.182 151.831 41.3447 151.733 41.4912C151.652 41.6377 151.522 41.7516 151.343 41.833C151.294 41.8493 151.082 41.9307 150.708 42.0771C150.334 42.2236 149.829 42.3783 149.194 42.541C148.576 42.7038 147.843 42.8503 146.997 42.9805C146.167 43.127 145.264 43.2002 144.287 43.2002C143.294 43.2002 142.253 43.1025 141.162 42.9072C140.072 42.7119 138.965 42.362 137.842 41.8574C136.963 41.4668 136.076 41.0111 135.181 40.4902C134.302 39.9694 133.407 39.416 132.495 38.8301C131.584 38.2441 130.664 37.6419 129.736 37.0234C128.809 36.4049 127.865 35.8027 126.904 35.2168ZM127.1 33.1904C128.581 32.4906 129.997 31.6605 131.348 30.7002C132.715 29.7236 133.919 28.6006 134.961 27.3311C136.003 26.0615 136.833 24.6374 137.451 23.0586C138.07 21.4798 138.379 19.7383 138.379 17.834C138.379 15.8483 137.98 13.9847 137.183 12.2432C136.385 10.4854 135.286 8.9554 133.887 7.65332C132.487 6.33496 130.835 5.30143 128.931 4.55273C127.026 3.78776 124.967 3.40527 122.754 3.40527C121.257 3.40527 119.808 3.59245 118.408 3.9668C117.008 4.32487 115.682 4.83757 114.429 5.50488C113.192 6.15592 112.052 6.94531 111.011 7.87305C109.985 8.80078 109.098 9.83431 108.35 10.9736C107.601 12.113 107.015 13.3418 106.592 14.6602C106.185 15.9785 105.981 17.3457 105.981 18.7617C105.981 19.8685 106.104 20.8939 106.348 21.8379C106.608 22.7656 106.942 23.6201 107.349 24.4014C107.772 25.1826 108.252 25.8825 108.789 26.501C109.326 27.1195 109.88 27.6729 110.449 28.1611C110.661 28.1449 110.872 28.1367 111.084 28.1367C111.312 28.1204 111.54 28.1123 111.768 28.1123C112.5 28.1123 113.298 28.1611 114.16 28.2588C115.023 28.3564 115.951 28.5192 116.943 28.7471C118.783 29.1702 120.549 29.7887 122.241 30.6025C123.95 31.4163 125.57 32.279 127.1 33.1904ZM125 34.0693C124.023 33.4346 123.055 32.8812 122.095 32.4092C121.151 31.9372 120.19 31.5384 119.214 31.2129C118.237 30.8711 117.228 30.6025 116.187 30.4072C115.145 30.1956 114.046 30.041 112.891 29.9434C113.363 30.2689 113.794 30.513 114.185 30.6758C114.591 30.8223 114.852 30.9199 114.966 30.9688C115.373 31.1478 115.576 31.4245 115.576 31.7988C115.576 32.0755 115.487 32.2952 115.308 32.458C115.129 32.6045 114.917 32.6777 114.673 32.6777C114.494 32.6777 114.299 32.637 114.087 32.5557C114.054 32.5557 113.924 32.5068 113.696 32.4092C113.468 32.3115 113.159 32.165 112.769 31.9697C112.378 31.7581 111.93 31.4977 111.426 31.1885C110.921 30.863 110.384 30.4805 109.814 30.041C109.391 30.041 108.895 30.1061 108.325 30.2363C107.772 30.3503 107.243 30.5293 106.738 30.7734C106.234 31.0176 105.802 31.335 105.444 31.7256C105.086 32.0999 104.907 32.5557 104.907 33.0928C104.907 33.4834 105.029 33.8822 105.273 34.2891C105.534 34.696 105.981 35.0703 106.616 35.4121C107.267 35.7376 108.138 36.0062 109.229 36.2178C110.319 36.4294 111.702 36.5352 113.379 36.5352C114.014 36.5352 114.746 36.5026 115.576 36.4375C116.423 36.3724 117.334 36.2503 118.311 36.0713C119.303 35.8923 120.361 35.6481 121.484 35.3389C122.607 35.0133 123.779 34.5902 125 34.0693ZM201.514 6.55469C200.814 7.58008 200.033 8.80892 199.17 10.2412C198.307 11.6735 197.388 13.2767 196.411 15.0508C195.581 16.5319 194.759 18.1107 193.945 19.7871C193.148 21.4473 192.383 23.0993 191.65 24.7432C190.918 26.3708 190.243 27.9414 189.624 29.4551C189.006 30.9525 188.468 32.279 188.013 33.4346C187.557 34.5739 187.199 35.4935 186.938 36.1934C186.678 36.877 186.548 37.2269 186.548 37.2432C186.385 37.6501 186.092 37.8535 185.669 37.8535C185.457 37.8535 185.27 37.7884 185.107 37.6582C184.945 37.5117 184.839 37.3327 184.79 37.1211C184.79 37.1048 184.709 36.763 184.546 36.0957C184.399 35.4121 184.196 34.5088 183.936 33.3857C183.675 32.2464 183.374 30.9443 183.032 29.4795C182.707 27.9984 182.357 26.4603 181.982 24.8652C181.624 23.2539 181.258 21.6263 180.884 19.9824C180.509 18.3385 180.16 16.776 179.834 15.2949C178.743 18.3711 177.645 21.0973 176.538 23.4736C175.448 25.8337 174.325 27.8926 173.169 29.6504C172.013 31.3919 170.817 32.8568 169.58 34.0449C168.359 35.2331 167.074 36.1934 165.723 36.9258C164.388 37.6419 162.98 38.1546 161.499 38.4639C160.034 38.7731 158.48 38.9277 156.836 38.9277C155.99 38.9277 155.086 38.8301 154.126 38.6348C153.166 38.4557 152.214 38.1709 151.27 37.7803C150.326 37.3896 149.422 36.9014 148.56 36.3154C147.697 35.7295 146.932 35.0378 146.265 34.2402C145.597 33.4264 145.068 32.515 144.678 31.5059C144.287 30.4805 144.092 29.3411 144.092 28.0879C144.092 26.7695 144.368 25.5651 144.922 24.4746C145.475 23.3678 146.224 22.4238 147.168 21.6426C148.112 20.8451 149.202 20.2266 150.439 19.7871C151.693 19.3477 153.011 19.1279 154.395 19.1279C155.404 19.1279 156.307 19.2174 157.104 19.3965C157.918 19.5592 158.634 19.7708 159.253 20.0312C159.871 20.2917 160.4 20.5765 160.84 20.8857C161.279 21.195 161.646 21.4798 161.938 21.7402C162.231 22.0007 162.443 22.2285 162.573 22.4238C162.703 22.6029 162.777 22.6924 162.793 22.6924C162.891 22.8714 162.939 23.0423 162.939 23.2051C162.939 23.4329 162.85 23.6445 162.671 23.8398C162.508 24.0352 162.288 24.1328 162.012 24.1328C161.686 24.1328 161.426 23.9945 161.23 23.7178C161.214 23.7015 161.084 23.555 160.84 23.2783C160.596 22.9854 160.197 22.668 159.644 22.3262C159.09 21.9844 158.374 21.6751 157.495 21.3984C156.632 21.1217 155.575 20.9834 154.321 20.9834C153.182 20.9834 152.1 21.1624 151.074 21.5205C150.065 21.8623 149.178 22.3506 148.413 22.9854C147.664 23.6201 147.062 24.377 146.606 25.2559C146.167 26.1185 145.947 27.0706 145.947 28.1123C145.947 29.1377 146.118 30.0736 146.46 30.9199C146.802 31.7663 147.257 32.5231 147.827 33.1904C148.397 33.8577 149.056 34.4355 149.805 34.9238C150.553 35.4121 151.335 35.819 152.148 36.1445C152.962 36.4538 153.776 36.6898 154.59 36.8525C155.42 36.999 156.201 37.0723 156.934 37.0723C158.171 37.0723 159.375 36.9827 160.547 36.8037C161.735 36.6084 162.899 36.2503 164.038 35.7295C165.194 35.2087 166.325 34.4925 167.432 33.5811C168.538 32.6696 169.637 31.4814 170.728 30.0166C171.818 28.5518 172.892 26.7858 173.95 24.7188C175.024 22.6517 176.099 20.2103 177.173 17.3945C177.498 16.5482 177.816 15.6367 178.125 14.6602C178.434 13.6836 178.752 12.6989 179.077 11.7061C178.8 10.2738 178.597 9.05306 178.467 8.04395C178.353 7.03483 178.296 6.19661 178.296 5.5293C178.296 4.81315 178.353 4.24349 178.467 3.82031C178.581 3.39714 178.727 3.07975 178.906 2.86816C179.085 2.6403 179.281 2.50195 179.492 2.45312C179.704 2.38802 179.907 2.35547 180.103 2.35547C180.265 2.35547 180.444 2.38802 180.64 2.45312C180.851 2.51823 181.038 2.66471 181.201 2.89258C181.38 3.10417 181.527 3.42155 181.641 3.84473C181.755 4.2679 181.812 4.83757 181.812 5.55371C181.812 6.33496 181.738 7.23828 181.592 8.26367C181.445 9.28906 181.226 10.4202 180.933 11.6572C181.144 12.6501 181.388 13.7568 181.665 14.9775C181.942 16.1982 182.227 17.4678 182.52 18.7861C182.812 20.0882 183.114 21.4229 183.423 22.79C183.732 24.1572 184.033 25.4919 184.326 26.7939C184.619 28.096 184.896 29.3411 185.156 30.5293C185.433 31.7174 185.685 32.7917 185.913 33.752C186.353 32.6452 186.89 31.3105 187.524 29.748C188.159 28.1693 188.867 26.501 189.648 24.7432C190.43 22.9691 191.252 21.1706 192.114 19.3477C192.993 17.5085 193.888 15.7751 194.8 14.1475C196.086 11.8363 197.266 9.85872 198.34 8.21484C199.414 6.55469 200.342 5.1875 201.123 4.11328C201.904 3.03906 202.515 2.24967 202.954 1.74512C203.41 1.22428 203.654 0.939453 203.687 0.890625C203.866 0.711589 204.085 0.62207 204.346 0.62207C204.622 0.62207 204.842 0.719727 205.005 0.915039C205.184 1.09408 205.273 1.30566 205.273 1.5498C205.273 1.66374 205.249 1.77767 205.2 1.8916C205.2 1.90788 205.103 2.15202 204.907 2.62402C204.728 3.07975 204.492 3.71452 204.199 4.52832C203.923 5.32585 203.613 6.26986 203.271 7.36035C202.93 8.43457 202.596 9.59831 202.271 10.8516C201.945 12.0885 201.652 13.3906 201.392 14.7578C201.147 16.1087 200.968 17.4596 200.854 18.8105C200.806 19.429 200.765 20.0801 200.732 20.7637C200.7 21.431 200.684 22.1064 200.684 22.79C200.684 23.8643 200.732 24.9466 200.83 26.0371C200.928 27.1276 201.09 28.1774 201.318 29.1865C201.546 30.1956 201.855 31.1478 202.246 32.043C202.637 32.9219 203.117 33.695 203.687 34.3623C204.256 35.0296 204.932 35.5667 205.713 35.9736C206.51 36.3805 207.43 36.6003 208.472 36.6328C208.732 36.6491 208.936 36.763 209.082 36.9746C209.245 37.1699 209.326 37.3815 209.326 37.6094C209.326 37.8372 209.237 38.0407 209.058 38.2197C208.879 38.3988 208.667 38.4883 208.423 38.4883C208.162 38.4883 207.902 38.4639 207.642 38.415C206.47 38.2523 205.436 37.9186 204.541 37.4141C203.646 36.8932 202.873 36.2585 202.222 35.5098C201.571 34.7448 201.025 33.8822 200.586 32.9219C200.163 31.9453 199.821 30.9036 199.561 29.7969C199.3 28.6901 199.113 27.5426 198.999 26.3545C198.901 25.1501 198.853 23.9375 198.853 22.7168C198.853 21.2682 198.926 19.8197 199.072 18.3711C199.219 16.9225 199.414 15.5146 199.658 14.1475C199.902 12.764 200.187 11.4294 200.513 10.1436C200.838 8.85775 201.172 7.66146 201.514 6.55469Z"
    fill="#E9BD43" />
</svg>