<svg width="83" height="48" viewBox="0 0 83 48" fill="none" xmlns="http://www.w3.org/2000/svg">
  <path
    d="M26.904 17.6023C29.1151 20.1258 31.3263 22.3129 31.1562 25.8458C31.1562 26.5188 33.3673 27.1917 33.3673 27.1917C33.5374 23.3223 31.1562 20.7988 28.775 18.107C28.4348 17.7706 26.2237 16.7611 26.904 17.6023ZM32.3468 30.3882C31.3263 45.6976 6.15356 50.5764 1.73133 34.2576C-0.139616 27.6964 2.58176 21.3035 7.85442 17.0976C12.4467 13.3964 19.9305 14.2376 25.0331 16.4247C24.863 16.2564 24.3527 14.5741 23.8425 14.4058C16.1886 11.0411 8.0245 12.0506 2.75184 18.78C-1.33022 23.9953 -0.479788 32.407 2.75184 37.7906C5.81339 42.8376 10.7459 46.3706 16.6989 46.707C25.0331 47.38 33.3673 40.3141 33.8776 32.2388C33.7075 31.9023 32.3468 30.7247 32.3468 30.3882Z"
    fill="url(#paint0_linear)" />
  <path
    d="M38.0215 28.3849C35.4931 28.3849 33.1332 27.7005 30.6047 27.5294C27.9077 27.3583 25.3793 27.8716 22.6823 28.5559C22.008 28.727 21.1652 28.8981 20.491 28.8981C19.9853 28.8981 21.8395 26.1607 21.8395 25.9896C22.8509 24.4497 24.0308 23.081 25.0422 21.3701C26.7278 18.4615 28.582 14.6975 31.279 12.6444C33.3017 11.1045 37.5158 22.5677 37.8529 23.9365C38.1901 25.3052 40.0443 25.4763 39.5386 23.7654C38.6958 20.6857 37.3473 18.1193 35.8302 15.2108C34.8188 13.3287 33.8074 11.1045 31.7847 10.078C28.582 8.53816 24.3679 17.2639 23.3565 19.317C22.008 21.5412 15.2655 28.2138 19.1425 30.6091C20.9967 31.8067 23.3565 30.7801 25.2107 30.2669C29.7619 29.2403 34.1446 30.438 38.6958 30.6091C39.8757 30.7801 39.0329 28.5559 38.0215 28.3849ZM66.3401 28.727C63.643 25.4763 62.126 21.7123 59.7661 18.1193C58.0805 15.5529 57.5748 12.4733 55.8892 9.9069C55.552 9.22253 54.7092 8.88034 54.035 9.39362C49.3152 13.4998 47.461 19.6592 43.247 24.1075C42.2356 25.1341 43.9212 27.0161 44.9326 25.9896C49.1466 21.5412 51.0008 15.5529 55.7206 11.2756C55.0463 11.1045 54.5407 10.9334 53.8664 10.7624C54.8778 12.1311 55.0463 13.842 55.552 15.3818C56.0577 17.0928 57.4062 18.4615 58.249 20.0013C60.4404 23.4232 61.9574 27.0161 64.4859 30.0958C65.8344 31.4645 67.52 29.9247 66.3401 28.727Z"
    fill="url(#paint1_linear)" />
  <path
    d="M44.896 25.6268C42.8641 24.2696 39.9856 23.0821 37.7843 24.6089C35.2444 26.475 36.7684 30.0376 38.631 31.5644C40.6629 33.2608 44.0494 34.109 45.912 31.734C47.2666 29.8679 47.4359 27.1536 45.2347 25.9661C43.8801 25.1179 42.8641 26.984 44.388 27.6625C45.0653 28.0018 44.2187 29.6983 43.8801 30.2072C42.8641 31.5644 41.0015 30.7161 39.8162 29.8679C38.631 28.85 38.4616 27.1536 39.6469 26.1357C40.4935 25.2875 42.5255 26.3054 43.3721 26.8143C43.8801 27.1536 44.5574 27.3232 45.0653 26.984C45.5733 26.6447 45.2347 25.9661 44.896 25.6268ZM67.7551 6.28726C67.4164 2.38542 65.3845 0.85862 61.6593 1.02826C58.7808 1.19791 55.7329 0.85862 54.209 3.57294C53.5317 4.76046 55.5636 10.0194 52.685 9.51051C51.1611 9.34087 49.8065 9.34087 48.2825 9.34087C43.3721 9.34087 38.4616 9.17122 33.5512 9.51051C32.7045 9.51051 31.1806 10.3587 33.0432 10.1891C39.9856 9.68016 46.9279 10.3587 53.8703 10.3587C54.7169 10.3587 55.9022 10.0195 56.5795 9.34087C57.4262 8.323 56.7489 5.77832 56.7489 4.59081C58.4421 1.19791 60.8127 0.51933 64.1992 2.38543C65.2152 3.57294 65.7231 4.9301 65.5538 6.45691C65.2152 7.13549 67.7551 6.7962 67.7551 6.28726ZM30.8419 2.04613C30.1646 4.25152 30.6726 6.62655 30.6726 8.83194C30.6726 9.34087 33.2125 9.34087 33.2125 9.00158C33.2125 6.7962 32.7045 4.42117 33.3818 2.21578C33.3818 2.04613 31.0113 1.5372 30.8419 2.04613Z"
    fill="url(#paint2_linear)" />
  <path
    d="M28.1695 2.13687C31.2194 1.79835 36.3025 1.96761 38.5052 4.50651C39.3524 5.52207 41.3856 3.99873 40.5384 3.15243C37.9969 0.105746 32.5749 -0.232775 28.8472 0.105746C27.8306 0.105746 26.6445 2.13687 28.1695 2.13687ZM61.0404 15.3392C77.3064 10.5999 88.1504 31.5881 74.5954 41.236C66.8012 46.8215 55.11 43.9441 52.2296 34.4655C50.1964 27.5259 51.7213 21.9403 56.9739 17.3703C56.9739 17.3703 55.11 15.8469 54.7712 16.1855C47.3159 22.9559 47.4854 34.8041 55.4489 41.236C61.5487 46.1445 68.4956 46.483 75.4425 43.4363C85.2699 39.0356 84.5922 26.6796 78.6618 19.7399C73.9176 14.1543 65.7846 12.2925 59.0071 14.1543C58.8377 14.1543 60.3626 15.5084 61.0404 15.3392Z"
    fill="url(#paint3_linear)" />
  <path
    d="M26.904 17.6525C29.1151 20.201 31.3263 22.4097 31.1562 25.9776C31.1562 26.6572 33.3673 27.3368 33.3673 27.3368C33.5374 23.4291 31.1562 20.8806 28.775 18.1622C28.4348 17.8224 26.2237 16.803 26.904 17.6525ZM32.3468 30.565C31.3263 46.026 6.15356 50.9531 1.73133 34.4727C-0.139616 27.8465 2.58176 21.3903 7.85442 17.1428C12.4467 13.405 19.9305 14.2545 25.0331 16.4632C24.863 16.2933 24.3527 14.5943 23.8425 14.4244C16.1886 11.0263 8.0245 12.0458 2.75184 18.8418C-1.33022 24.1087 -0.479788 32.6038 2.75184 38.0406C5.81339 43.1376 10.7459 46.7056 16.6989 47.0454C25.0331 47.725 33.3673 40.5891 33.8776 32.4339C33.7075 32.0941 32.3468 30.9048 32.3468 30.565Z"
    fill="url(#paint4_linear)" />
  <path
    d="M38.0215 28.4287C35.4931 28.4287 33.1332 27.7549 30.6047 27.5864C27.9077 27.418 25.3793 27.9233 22.6823 28.5972C22.008 28.7656 21.1652 28.9341 20.491 28.9341C19.9853 28.9341 21.8395 26.2387 21.8395 26.0703C22.8509 24.5541 24.0308 23.2065 25.0422 21.5219C26.7278 18.658 28.582 14.9519 31.279 12.9304C33.3017 11.4143 37.5158 22.7011 37.8529 24.0488C38.1901 25.3964 40.0443 25.5649 39.5386 23.8803C38.6958 20.848 37.3473 18.3211 35.8302 15.4573C34.8188 13.6042 33.8074 11.4143 31.7847 10.4035C28.582 8.88736 24.3679 17.4788 23.3565 19.5003C22.008 21.6903 15.2655 28.2603 19.1425 30.6187C20.9967 31.7979 23.3565 30.7872 25.2107 30.2818C29.7619 29.271 34.1446 30.4502 38.6958 30.6187C39.8757 30.7872 39.0329 28.5972 38.0215 28.4287ZM66.3401 28.7656C63.643 25.5649 62.126 21.8588 59.7661 18.3211C58.0805 15.7942 57.5748 12.7619 55.8892 10.235C55.552 9.5612 54.7092 9.22428 54.035 9.72966C49.3152 13.7727 47.461 19.8373 43.247 24.2172C42.2356 25.228 43.9212 27.081 44.9326 26.0703C49.1466 21.6903 51.0008 15.7942 55.7206 11.5827C55.0463 11.4143 54.5407 11.2458 53.8664 11.0773C54.8778 12.425 55.0463 14.1096 55.552 15.6258C56.0577 17.3104 57.4062 18.658 58.249 20.1742C60.4404 23.5434 61.9574 27.081 64.4859 30.1133C65.8344 31.461 67.52 29.9449 66.3401 28.7656Z"
    fill="url(#paint5_linear)" />
  <path
    d="M44.896 25.8859C42.8641 24.5144 39.9856 23.3144 37.7843 24.8573C35.2444 26.743 36.7684 30.3431 38.631 31.8859C40.6629 33.6002 44.0494 34.4574 45.912 32.0574C47.2666 30.1716 47.4359 27.4287 45.2347 26.2287C43.8801 25.3716 42.8641 27.2573 44.388 27.943C45.0653 28.2859 44.2187 30.0002 43.8801 30.5145C42.8641 31.8859 41.0015 31.0288 39.8162 30.1716C38.631 29.143 38.4616 27.4287 39.6469 26.4002C40.4935 25.543 42.5255 26.5716 43.3721 27.0859C43.8801 27.4287 44.5574 27.6002 45.0653 27.2573C45.5733 26.9144 45.2347 26.2287 44.896 25.8859ZM67.7551 6.34275C67.4164 2.39984 65.3845 0.856967 61.6593 1.0284C58.7808 1.19983 55.7329 0.856967 54.209 3.59986C53.5317 4.79987 55.5636 10.1142 52.685 9.59993C51.1611 9.4285 49.8065 9.42851 48.2825 9.42851C43.3721 9.42851 38.4616 9.25707 33.5512 9.59993C32.7045 9.59993 31.1806 10.4571 33.0432 10.2857C39.9856 9.77137 46.9279 10.4571 53.8703 10.4571C54.7169 10.4571 55.9022 10.1142 56.5795 9.42851C57.4262 8.39992 56.7489 5.82846 56.7489 4.62844C58.4421 1.19983 60.8127 0.514106 64.1992 2.39984C65.2152 3.59986 65.7231 4.97131 65.5538 6.51418C65.2152 7.1999 67.7551 6.85704 67.7551 6.34275ZM30.8419 2.05698C30.1646 4.28558 30.6726 6.68561 30.6726 8.91421C30.6726 9.4285 33.2125 9.4285 33.2125 9.08564C33.2125 6.85704 32.7045 4.45701 33.3818 2.22841C33.3818 2.05698 31.0113 1.54269 30.8419 2.05698Z"
    fill="url(#paint6_linear)" />
  <path
    d="M28.1695 2.47476C31.2194 2.13624 36.3025 2.3055 38.5052 4.8444C39.3524 5.85996 41.3856 4.33662 40.5384 3.49032C37.9969 0.443637 32.5749 0.105116 28.8472 0.443636C27.8306 0.443636 26.6445 2.47476 28.1695 2.47476ZM61.0404 15.677C77.3064 10.9378 88.1504 31.926 74.5954 41.5738C66.8012 47.1594 55.11 44.282 52.2296 34.8034C50.1964 27.8638 51.7213 22.2782 56.9739 17.7082C56.9739 17.7082 55.11 16.1848 54.7712 16.5233C47.3159 23.2938 47.4854 35.142 55.4489 41.5738C61.5487 46.4824 68.4956 46.8209 75.4425 43.7742C85.2699 39.3735 84.5922 27.0175 78.6618 20.0778C73.9176 14.4922 65.7846 12.6304 59.0071 14.4922C58.8377 14.4922 60.3626 15.8463 61.0404 15.677Z"
    fill="url(#paint7_linear)" />
  <defs>
    <linearGradient id="paint0_linear" x1="16.9388" y1="12.5352" x2="16.9388" y2="46.7515"
      gradientUnits="userSpaceOnUse">
      <stop stop-color="#4A2C40" />
      <stop offset="1" stop-color="#E9BD43" />
    </linearGradient>
    <linearGradient id="paint1_linear" x1="42.3469" y1="9.14648" x2="42.3469" y2="31.1669"
      gradientUnits="userSpaceOnUse">
      <stop stop-color="#4A2C40" />
      <stop offset="1" stop-color="#E9BD43" />
    </linearGradient>
    <linearGradient id="paint2_linear" x1="49.1224" y1="1.01562" x2="49.1224" y2="33.1993"
      gradientUnits="userSpaceOnUse">
      <stop stop-color="#4A2C40" />
      <stop offset="1" stop-color="#E9BD43" />
    </linearGradient>
    <linearGradient id="paint3_linear" x1="55.2205" y1="0" x2="55.2205" y2="45.3959" gradientUnits="userSpaceOnUse">
      <stop stop-color="#4A2C40" />
      <stop offset="1" stop-color="#E9BD43" />
    </linearGradient>
    <linearGradient id="paint4_linear" x1="16.9388" y1="12.5352" x2="16.9388" y2="47.0903"
      gradientUnits="userSpaceOnUse">
      <stop stop-color="#4A2C40" />
      <stop offset="1" stop-color="#E9BD43" />
    </linearGradient>
    <linearGradient id="paint5_linear" x1="42.3469" y1="9.48633" x2="42.3469" y2="31.168"
      gradientUnits="userSpaceOnUse">
      <stop stop-color="#4A2C40" />
      <stop offset="1" stop-color="#E9BD43" />
    </linearGradient>
    <linearGradient id="paint6_linear" x1="49.1224" y1="1.01562" x2="49.1224" y2="33.5381"
      gradientUnits="userSpaceOnUse">
      <stop stop-color="#4A2C40" />
      <stop offset="1" stop-color="#E9BD43" />
    </linearGradient>
    <linearGradient id="paint7_linear" x1="55.2205" y1="0.337891" x2="55.2205" y2="45.7338"
      gradientUnits="userSpaceOnUse">
      <stop stop-color="#4A2C40" />
      <stop offset="1" stop-color="#E9BD43" />
    </linearGradient>
  </defs>
</svg>