<svg width="62" height="68" viewBox="0 0 62 68" fill="none" xmlns="http://www.w3.org/2000/svg">
  <path
    d="M29.7821 0.227265C26.3699 0.625976 22.9827 1.54919 19.7404 3.02461C6.77122 8.92672 -1.08611 22.3591 0.121933 36.5558C1.32998 50.7525 11.3452 62.6595 25.1253 66.2858C38.9054 69.912 53.4873 64.4775 61.5279 52.7146C61.606 52.6004 61.6608 52.4718 61.6893 52.3364C61.7177 52.2009 61.7192 52.0613 61.6936 51.9253C61.668 51.7893 61.6158 51.6596 61.5401 51.5437C61.4644 51.4279 61.3666 51.3281 61.2522 51.2501L35.3603 33.5569L57.8872 11.7458C57.9866 11.6496 58.0661 11.5348 58.1212 11.4079C58.1762 11.281 58.2057 11.1446 58.208 11.0063C58.2103 10.868 58.1853 10.7305 58.1345 10.6019C58.0837 10.4732 58.0081 10.356 57.9119 10.2566C50.4774 2.58018 40.0184 -0.968447 29.7821 0.227265H29.7821ZM30.0289 2.31705C39.2765 1.23507 48.6322 4.41288 55.5465 11.0793L32.9702 32.9398C32.8573 33.0483 32.7701 33.1808 32.7148 33.3273C32.6595 33.4737 32.6375 33.6307 32.6505 33.7867C32.6635 33.9427 32.7111 34.0939 32.7899 34.2292C32.8687 34.3645 32.9767 34.4805 33.106 34.5688L59.0555 52.3032C51.3993 62.7179 38.233 67.558 25.6601 64.2495C12.7341 60.8482 3.35309 49.6913 2.21994 36.3748C1.08679 23.0583 8.44724 10.4779 20.6125 4.94162C23.6538 3.55761 26.8301 2.69133 30.0289 2.31705H30.0289Z"
    fill="#4A2C40" />
  <path
    d="M44.5846 13.0206C44.5846 13.4494 44.5001 13.8738 44.3361 14.2699C44.172 14.666 43.9315 15.0261 43.6283 15.3292C43.3251 15.6324 42.9652 15.8727 42.5691 16.0368C42.173 16.2008 41.7484 16.2854 41.3196 16.2854C40.8909 16.2854 40.4663 16.2008 40.0702 16.0368C39.6741 15.8727 39.3141 15.6324 39.0109 15.3292C38.7078 15.0261 38.4673 14.666 38.3032 14.2699C38.1391 13.8738 38.0547 13.4494 38.0547 13.0206C38.0547 12.5919 38.1391 12.1674 38.3032 11.7713C38.4673 11.3753 38.7078 11.0155 39.0109 10.7123C39.3141 10.4092 39.6741 10.1685 40.0702 10.0045C40.4663 9.84042 40.8909 9.75586 41.3196 9.75586C41.7484 9.75586 42.173 9.84042 42.5691 10.0045C42.9652 10.1685 43.3251 10.4092 43.6283 10.7123C43.9315 11.0155 44.172 11.3753 44.3361 11.7713C44.5001 12.1674 44.5846 12.5919 44.5846 13.0206V13.0206Z"
    fill="#E9BD43" />
</svg>