<svg width="70" height="56" viewBox="0 0 70 56" fill="none" xmlns="http://www.w3.org/2000/svg">
  <path fill-rule="evenodd" clip-rule="evenodd"
    d="M68.9173 47.0156V51.0171C68.9173 53.2338 67.1453 55.0184 64.9441 55.0184L4.55126 55.0184C2.3501 55.0184 0.545072 53.2334 0.578082 51.0171L0.637183 47.0156"
    fill="#F0EDF2" />
  <path
    d="M66.5641 26.2089C66.5641 24.4355 65.1465 23.0078 63.3854 23.0078L6.17128 23.0078C4.41038 23.0078 2.99271 24.4355 2.99271 26.2089L0.640137 47.016C0.640137 49.4168 1.95603 51.8176 5.02971 51.8176H34.1754H38.0775L64.0511 51.8176C67.127 51.8176 68.9173 49.4168 68.9173 47.016L66.5641 26.2089Z"
    fill="white" />
  <path fill-rule="evenodd" clip-rule="evenodd" d="M58.323 23.2285L59.9124 48.6159H9.16113L10.7503 23.2285"
    fill="url(#paint0_linear)" />
  <path fill-rule="evenodd" clip-rule="evenodd"
    d="M6.1699 22.4278C4.09036 22.4278 2.62037 24.1644 2.41686 26.1491L0.0596203 46.982C0.0596203 46.9901 0.0596203 46.9985 0.0596203 47.0069L0.000519575 51.0087C-0.037703 53.5441 2.03803 55.5967 4.55226 55.5965L64.947 55.5965C67.4612 55.5965 69.4986 53.5408 69.4986 51.0155V47.0159V46.982C68.7242 40.0011 67.893 33.1405 67.1436 26.1582C66.9674 24.1484 65.4636 22.43 63.3883 22.43C43.8355 22.3999 23.7383 22.4486 6.17202 22.43V22.4277L6.1699 22.4278ZM57.7645 23.5838L59.2961 48.0362L9.77589 48.0362L11.3074 23.5951C26.6167 23.5828 42.1768 23.5828 57.7645 23.5835V23.5838ZM58.9251 23.5838C60.1502 23.5838 61.3516 23.5838 62.5763 23.5838L63.3862 23.5861C64.8323 23.5861 65.8555 24.7396 65.9877 26.2578C66.7566 33.5047 67.6325 40.8632 68.3359 47.0386C68.3244 49.1462 66.8188 51.2441 64.0513 51.2441L38.0764 51.2441H34.174H5.02974C3.64365 51.2441 2.74768 50.7355 2.13635 49.9637C1.52733 49.1948 1.22484 48.1242 1.22241 47.0341C1.99392 40.0755 2.82161 33.236 3.56834 26.2759C3.7232 24.7649 4.72763 23.5951 6.1699 23.5951C7.47468 23.594 8.83748 23.5963 10.1469 23.5951L8.58143 48.5792C8.57649 48.6582 8.58778 48.7374 8.61466 48.8119C8.64154 48.8864 8.68353 48.9546 8.73781 49.0123C8.79209 49.0699 8.85751 49.1159 8.93024 49.1472C9.00297 49.1786 9.08137 49.1947 9.16057 49.1945L59.9114 49.1945C59.9906 49.1947 60.069 49.1786 60.1417 49.1472C60.2144 49.1159 60.28 49.0699 60.3343 49.0123C60.3886 48.9546 60.4304 48.8864 60.4573 48.8119C60.4842 48.7374 60.4955 48.6582 60.4905 48.5792L58.9251 23.5838V23.5838ZM5.82604 33.3543L5.34871 38.1548L6.50018 38.2701L6.97751 33.4674L5.82604 33.3543V33.3543ZM5.61113 39.813C5.40039 39.8132 5.19829 39.8976 5.04939 40.0478C4.90049 40.198 4.81694 40.4016 4.81709 40.6138C4.81754 40.8256 4.9014 41.0287 5.05024 41.1784C5.19907 41.3281 5.40078 41.4122 5.61113 41.4124C5.82149 41.4122 6.02316 41.3281 6.17202 41.1784C6.32088 41.0287 6.40472 40.8257 6.40517 40.6138C6.40524 40.5087 6.38481 40.4046 6.34494 40.3075C6.30507 40.2104 6.24661 40.1221 6.17287 40.0478C6.09913 39.9734 6.0115 39.9144 5.91512 39.8741C5.81873 39.8338 5.71548 39.8131 5.61113 39.813V39.813ZM68.3382 50.3482V51.0155C68.3382 52.9235 66.8331 54.4383 64.9449 54.4383L4.55014 54.4383C2.66218 54.4383 1.12854 52.9219 1.1568 51.0246L1.16839 50.5744C1.19156 50.6057 1.20885 50.646 1.23202 50.6762C2.04697 51.705 3.34724 52.3955 5.03483 52.3955H34.1791H38.0815L64.0564 52.3955C65.9391 52.3955 67.4058 51.5541 68.3433 50.3482H68.3382Z"
    fill="#4A2C40" />
  <path
    d="M62.8259 35.2349C61.6257 35.2094 60.7922 36.1755 60.9664 37.3669C61.1407 38.5581 62.2625 39.5632 63.4626 39.5885C64.6627 39.614 65.4944 38.6502 65.3203 37.4588C65.1461 36.2674 64.026 35.2602 62.8259 35.2349V35.2349ZM62.9945 36.3876C63.5553 36.3992 64.0711 36.8576 64.1554 37.4342C64.24 38.0109 63.8549 38.4476 63.2941 38.4358C62.7334 38.4242 62.2177 37.9681 62.1334 37.3915C62.0488 36.8149 62.4336 36.3758 62.9945 36.3876V36.3876Z"
    fill="#4A2C40" />
  <path
    d="M62.9943 36.387C63.5551 36.3985 64.0709 36.8569 64.1552 37.4335C64.2398 38.0102 63.8547 38.4469 63.2939 38.4351C62.7332 38.4235 62.2176 37.9674 62.1332 37.3908C62.0487 36.8142 62.4335 36.3751 62.9943 36.387V36.387Z"
    fill="url(#paint1_linear)" />
  <path
    d="M63.3832 39.017C64.2639 39.0356 64.8729 38.3339 64.7436 37.4497C64.6143 36.5654 63.7956 35.8335 62.915 35.8149C62.0343 35.7963 61.4251 36.498 61.5544 37.3823C61.6838 38.2665 62.5026 38.9984 63.3832 39.017Z"
    fill="url(#paint2_linear)" />
  <path
    d="M49.2532 2.66602C49.6955 2.66602 50.0371 3.00765 50.0371 3.44988C50.0371 3.89199 49.6955 4.23388 49.2532 4.23388C48.811 4.23388 48.4692 3.89199 48.4692 3.44988C48.4692 3.00765 48.811 2.66602 49.2532 2.66602Z"
    fill="#4A2C40" />
  <path
    d="M24.6988 13.1191C23.7492 13.1191 22.8089 13.3063 21.9316 13.6697C21.0543 14.0332 20.2572 14.5659 19.5858 15.2374C18.9143 15.909 18.3816 16.7063 18.0182 17.5838C17.6548 18.4613 17.4678 19.4017 17.4678 20.3515C17.4717 21.6077 17.8027 22.8412 18.4282 23.9306L16.9333 31.0456C16.3323 33.3349 17.7862 35.8993 20.2034 36.3717C22.4834 36.9066 24.7247 35.5242 25.3506 33.1404L27.0107 27.9203C27.6105 28.4214 28.3672 28.6961 29.1488 28.6964C29.6177 28.6958 30.0812 28.5963 30.5091 28.4046C30.937 28.2129 31.3196 27.9331 31.6321 27.5835H37.125C37.4373 27.9328 37.8197 28.2125 38.2472 28.4042C38.6747 28.5959 39.1378 28.6955 39.6064 28.6964C40.0752 28.6958 40.5388 28.5963 40.9667 28.4046C41.3946 28.2129 41.7772 27.9331 42.0897 27.5835H42.381L44.1475 33.1404C44.7734 35.5242 47.0169 36.9066 49.2969 36.3717C51.7141 35.8993 53.1659 33.3349 52.5648 31.0456L51.0525 23.8479C51.6438 22.7774 51.954 21.5745 51.9542 20.3515C51.9542 19.4017 51.7673 18.4613 51.4039 17.5838C51.0405 16.7063 50.5078 15.909 49.8363 15.2374C49.1648 14.5659 48.3677 14.0332 47.4904 13.6697C46.6131 13.3063 45.6728 13.1191 44.7232 13.1191C43.3622 13.1207 42.0291 13.5064 40.8775 14.2319H28.5381C27.3883 13.5075 26.0577 13.1219 24.6988 13.1191V13.1191Z"
    fill="url(#paint3_linear)" />
  <path fill-rule="evenodd" clip-rule="evenodd"
    d="M24.6893 15.877C24.6132 15.8782 24.5381 15.8943 24.4683 15.9245C24.3985 15.9547 24.3353 15.9984 24.2824 16.0531C24.2294 16.1077 24.1878 16.1722 24.1598 16.2429C24.1318 16.3137 24.118 16.3892 24.1192 16.4652V22.062C24.1181 22.1387 24.1323 22.2148 24.1609 22.2861C24.1895 22.3573 24.232 22.4221 24.2859 22.4768C24.3398 22.5314 24.404 22.5748 24.4748 22.6045C24.5456 22.6341 24.6216 22.6493 24.6983 22.6493C24.7751 22.6493 24.8511 22.6341 24.9219 22.6045C24.9927 22.5748 25.0569 22.5314 25.1108 22.4768C25.1647 22.4221 25.2071 22.3573 25.2358 22.2861C25.2644 22.2148 25.2786 22.1387 25.2775 22.062V16.4652C25.2787 16.3876 25.2643 16.3106 25.2352 16.2387C25.2061 16.1668 25.1628 16.1014 25.1079 16.0465C25.0531 15.9917 24.9877 15.9484 24.9158 15.9193C24.8439 15.8902 24.7669 15.8758 24.6893 15.877Z"
    fill="#4A2C40" />
  <path fill-rule="evenodd" clip-rule="evenodd"
    d="M21.9247 18.6856C21.848 18.6845 21.7718 18.6987 21.7006 18.7273C21.6294 18.7559 21.5645 18.7984 21.5099 18.8523C21.4552 18.9062 21.4118 18.9704 21.3822 19.0412C21.3526 19.112 21.3374 19.188 21.3374 19.2647C21.3374 19.3415 21.3526 19.4175 21.3822 19.4883C21.4118 19.5591 21.4552 19.6233 21.5099 19.6772C21.5645 19.7311 21.6294 19.7735 21.7006 19.8022C21.7718 19.8308 21.848 19.845 21.9247 19.8439H27.4719C27.5486 19.845 27.6247 19.8308 27.696 19.8022C27.7672 19.7735 27.832 19.7311 27.8867 19.6772C27.9413 19.6233 27.9847 19.5591 28.0144 19.4883C28.044 19.4175 28.0592 19.3415 28.0592 19.2647C28.0592 19.188 28.044 19.112 28.0144 19.0412C27.9847 18.9704 27.9413 18.9062 27.8867 18.8523C27.832 18.7984 27.7672 18.7559 27.696 18.7273C27.6247 18.6987 27.5486 18.6845 27.4719 18.6856H21.9247Z"
    fill="#4A2C40" />
  <path
    d="M44.7238 17.5951C45.3398 17.5951 45.8392 17.0915 45.8392 16.4703C45.8392 15.8492 45.3398 15.3457 44.7238 15.3457C44.1078 15.3457 43.6084 15.8492 43.6084 16.4703C43.6084 17.0915 44.1078 17.5951 44.7238 17.5951Z"
    fill="#4A2C40" />
  <path
    d="M47.5012 20.3978C48.1172 20.3978 48.6166 19.8943 48.6166 19.2732C48.6166 18.6521 48.1172 18.1484 47.5012 18.1484C46.8851 18.1484 46.3857 18.6521 46.3857 19.2732C46.3857 19.8943 46.8851 20.3978 47.5012 20.3978Z"
    fill="#E9BD43" />
  <path
    d="M44.7238 23.2005C45.3398 23.2005 45.8392 22.6969 45.8392 22.0758C45.8392 21.4546 45.3398 20.9512 44.7238 20.9512C44.1078 20.9512 43.6084 21.4546 43.6084 22.0758C43.6084 22.6969 44.1078 23.2005 44.7238 23.2005Z"
    fill="#4A2C40" />
  <path
    d="M41.945 20.3978C42.561 20.3978 43.0604 19.8943 43.0604 19.2732C43.0604 18.6521 42.561 18.1484 41.945 18.1484C41.329 18.1484 40.8296 18.6521 40.8296 19.2732C40.8296 19.8943 41.329 20.3978 41.945 20.3978Z"
    fill="#4A2C40" />
  <path
    d="M29.1485 26.4709C30.0702 26.4709 30.8176 25.7236 30.8176 24.8018C30.8176 23.88 30.0702 23.1328 29.1485 23.1328C28.2267 23.1328 27.4795 23.88 27.4795 24.8018C27.4795 25.7236 28.2267 26.4709 29.1485 26.4709Z"
    fill="#4A2C40" />
  <path
    d="M39.7178 26.4709C40.6396 26.4709 41.3869 25.7236 41.3869 24.8018C41.3869 23.88 40.6396 23.1328 39.7178 23.1328C38.796 23.1328 38.0488 23.88 38.0488 24.8018C38.0488 25.7236 38.796 26.4709 39.7178 26.4709Z"
    fill="#4A2C40" />
  <path fill-rule="evenodd" clip-rule="evenodd"
    d="M32.4872 20.3301C32.4105 20.3291 32.3343 20.3432 32.2631 20.3718C32.1919 20.4005 32.127 20.4429 32.0724 20.4968C32.0177 20.5507 31.9743 20.6149 31.9447 20.6857C31.9151 20.7565 31.8999 20.8325 31.8999 20.9093C31.8999 20.986 31.9151 21.062 31.9447 21.1328C31.9743 21.2036 32.0177 21.2678 32.0724 21.3217C32.127 21.3756 32.1919 21.4181 32.2631 21.4467C32.3343 21.4753 32.4105 21.4895 32.4872 21.4884H33.598C33.6747 21.4895 33.7509 21.4753 33.8221 21.4467C33.8933 21.4181 33.9582 21.3756 34.0128 21.3217C34.0675 21.2678 34.1109 21.2036 34.1405 21.1328C34.1701 21.062 34.1853 20.986 34.1853 20.9093C34.1853 20.8325 34.1701 20.7565 34.1405 20.6857C34.1109 20.6149 34.0675 20.5507 34.0128 20.4968C33.9582 20.4429 33.8933 20.4005 33.8221 20.3718C33.7509 20.3432 33.6747 20.3291 33.598 20.3301H32.4872Z"
    fill="#4A2C40" />
  <path
    d="M24.6984 13.6622C24.4011 13.6622 24.1041 13.6842 23.8093 13.7236C24.8717 13.8486 25.8932 14.2079 26.8 14.7755H28.5374C27.3877 14.051 26.0571 13.6653 24.6984 13.6625V13.6622ZM44.7235 13.1191C44.4315 13.1191 44.1398 13.1424 43.8503 13.1806C47.4796 13.618 50.2118 16.6957 50.2163 20.3519C50.2168 21.5751 49.9069 22.7782 49.316 23.8492L50.8271 31.0477C51.4281 33.337 49.9775 35.9004 47.5603 36.3729C47.5267 36.3844 47.4944 36.3845 47.4608 36.3869C48.0495 36.5109 48.6705 36.5203 49.2977 36.3729C51.7149 35.9004 53.1654 33.337 52.5644 31.0477L51.0532 23.8492C51.6443 22.7782 51.9541 21.5751 51.9537 20.3519C51.9537 16.358 48.7167 13.1201 44.7235 13.1196V13.1191ZM29.8947 27.1486C29.4636 27.629 28.9025 27.9741 28.2795 28.1419C28.5625 28.2195 28.8546 28.2603 29.1482 28.2618C30.0967 28.2607 30.9999 27.8559 31.6321 27.1486H29.8947ZM40.8573 27.1486C40.4257 27.6293 39.8637 27.9744 39.2398 28.1419C39.5236 28.2207 39.8165 28.2604 40.1108 28.2618C40.5604 28.261 41.6705 28.1946 42.0839 28.018L41.8145 27.1742L40.8573 27.1486ZM25.6569 26.7191L23.6125 33.1434C23.1588 34.8713 21.8535 36.0607 20.3027 36.3874C22.548 36.8594 24.7331 35.4922 25.3499 33.1434L27.1658 27.4341C26.6103 27.3275 26.0912 27.0814 25.6569 26.7191Z"
    fill="#E9BD43" />
  <path fill-rule="evenodd" clip-rule="evenodd"
    d="M35.8241 20.3301C35.7474 20.3291 35.6713 20.3432 35.6 20.3718C35.5288 20.4005 35.464 20.4429 35.4093 20.4968C35.3547 20.5507 35.3113 20.6149 35.2816 20.6857C35.252 20.7565 35.2368 20.8325 35.2368 20.9093C35.2368 20.986 35.252 21.062 35.2816 21.1328C35.3113 21.2036 35.3547 21.2678 35.4093 21.3217C35.464 21.3756 35.5288 21.4181 35.6 21.4467C35.6713 21.4753 35.7474 21.4895 35.8241 21.4884H36.9373C37.014 21.4895 37.0902 21.4753 37.1614 21.4467C37.2326 21.4181 37.2975 21.3756 37.3521 21.3217C37.4068 21.2678 37.4502 21.2036 37.4798 21.1328C37.5094 21.062 37.5246 20.986 37.5246 20.9093C37.5246 20.8325 37.5094 20.7565 37.4798 20.6857C37.4502 20.6149 37.4068 20.5507 37.3521 20.4968C37.2975 20.4429 37.2326 20.4005 37.1614 20.3718C37.0902 20.3432 37.014 20.3291 36.9373 20.3301H35.8241Z"
    fill="#4A2C40" />
  <path
    d="M34.7502 10.6938C34.0373 10.6938 33.325 10.8777 32.6868 11.2461C32.6177 11.2823 32.5566 11.3321 32.5072 11.3925C32.4578 11.4529 32.4211 11.5226 32.3993 11.5976C32.3775 11.6725 32.3711 11.751 32.3804 11.8285C32.3897 11.906 32.4146 11.9807 32.4536 12.0483C32.4925 12.116 32.5447 12.175 32.607 12.222C32.6694 12.2689 32.7405 12.3027 32.8163 12.3215C32.892 12.3402 32.9707 12.3434 33.0477 12.331C33.1248 12.3186 33.1985 12.2907 33.2645 12.2491C34.1842 11.718 35.3162 11.718 36.236 12.2491C36.302 12.2907 36.3757 12.3186 36.4527 12.331C36.5297 12.3434 36.6085 12.3402 36.6842 12.3215C36.7599 12.3027 36.8311 12.2689 36.8934 12.222C36.9558 12.175 37.008 12.116 37.0469 12.0483C37.0858 11.9807 37.1107 11.906 37.12 11.8285C37.1294 11.751 37.123 11.6725 37.1012 11.5976C37.0794 11.5226 37.0427 11.4529 36.9933 11.3925C36.9439 11.3321 36.8828 11.2823 36.8137 11.2461C36.1754 10.8777 35.4632 10.6938 34.7502 10.6938ZM34.7502 8.32738C33.6288 8.32738 32.508 8.61641 31.5037 9.19631C31.4346 9.2325 31.3735 9.28223 31.3241 9.34262C31.2747 9.40301 31.238 9.4728 31.2162 9.54772C31.1944 9.62265 31.188 9.70121 31.1974 9.77868C31.2067 9.85614 31.2316 9.93089 31.2705 9.99851C31.3094 10.0661 31.3616 10.1252 31.424 10.1721C31.4863 10.2191 31.5574 10.2529 31.6332 10.2716C31.7089 10.2904 31.7877 10.2938 31.8647 10.2813C31.9417 10.2689 32.0154 10.2409 32.0814 10.1993C33.7332 9.24548 35.7672 9.24548 37.4191 10.1993C37.4851 10.2409 37.5588 10.2689 37.6358 10.2813C37.7128 10.2938 37.7916 10.2904 37.8673 10.2716C37.943 10.2529 38.0142 10.2191 38.0765 10.1721C38.1388 10.1252 38.191 10.0661 38.23 9.99851C38.2689 9.93089 38.2938 9.85614 38.3031 9.77868C38.3124 9.70121 38.306 9.62265 38.2842 9.54772C38.2625 9.4728 38.2258 9.40301 38.1764 9.34262C38.127 9.28223 38.0659 9.2325 37.9967 9.19631C36.9925 8.61641 35.8717 8.32738 34.7502 8.32738ZM34.7502 5.96094C33.2203 5.96094 31.691 6.35525 30.3207 7.14647C30.2546 7.1844 30.1968 7.23493 30.1503 7.29524C30.1038 7.35555 30.0697 7.42438 30.0498 7.49788C30.03 7.57138 30.0248 7.64813 30.0346 7.72364C30.0444 7.79914 30.0689 7.87197 30.1069 7.93798C30.1448 8.00399 30.1954 8.06195 30.2557 8.10841C30.316 8.15488 30.3848 8.18895 30.4583 8.2088C30.5318 8.22865 30.6085 8.2339 30.684 8.22411C30.7595 8.21431 30.8323 8.18969 30.8983 8.15175C33.2823 6.77519 36.2182 6.77519 38.6021 8.15175C38.6681 8.18969 38.741 8.21431 38.8165 8.22411C38.892 8.2339 38.9686 8.22865 39.0421 8.2088C39.1156 8.18895 39.1845 8.15488 39.2448 8.10841C39.3051 8.06195 39.3557 8.00399 39.3936 7.93798C39.4315 7.87197 39.4561 7.79914 39.4659 7.72364C39.4757 7.64813 39.4705 7.57138 39.4506 7.49788C39.4308 7.42438 39.3966 7.35555 39.3502 7.29524C39.3037 7.23493 39.2458 7.1844 39.1798 7.14647C37.8095 6.35525 36.2802 5.96094 34.7502 5.96094Z"
    fill="#4A2C40" />
  <path fill-rule="evenodd" clip-rule="evenodd"
    d="M23.167 3.47656V4.05569V6.37221V6.95135H24.3253V6.37221V4.05569V3.47656H23.167Z" fill="#4A2C40" />
  <path fill-rule="evenodd" clip-rule="evenodd"
    d="M22.0088 4.63477V5.79303H22.5879H24.9044H25.4836V4.63477H24.9044H22.5879H22.0088ZM54.4401 14.48V15.0591V17.3756V17.9548H55.5984V17.3756V15.0591V14.48H54.4401Z"
    fill="#4A2C40" />
  <path fill-rule="evenodd" clip-rule="evenodd"
    d="M53.2817 15.6387V16.7969H53.8609H56.1774H56.7565V15.6387H56.1774H53.8609H53.2817Z" fill="#4A2C40" />
  <path
    d="M49.2276 1.73828C48.275 1.73828 47.4902 2.523 47.4902 3.47567C47.4902 4.42834 48.275 5.21306 49.2276 5.21306C50.1803 5.21306 50.965 4.42834 50.965 3.47567C50.965 2.523 50.1803 1.73828 49.2276 1.73828ZM49.2276 2.89654C49.5544 2.89654 49.8068 3.14893 49.8068 3.47567C49.8068 3.8023 49.5544 4.0548 49.2276 4.0548C48.9009 4.0548 48.6485 3.8023 48.6485 3.47567C48.6485 3.14893 48.9009 2.89654 49.2276 2.89654Z"
    fill="#4A2C40" />
  <path
    d="M26.642 0.57913C26.642 0.898926 26.3827 1.15826 26.0629 1.15826C25.743 1.15826 25.4838 0.898926 25.4838 0.57913C25.4838 0.259219 25.743 0 26.0629 0C26.3827 0 26.642 0.259219 26.642 0.57913ZM14.6613 27.1612C14.6613 27.3301 14.5941 27.4922 14.4746 27.6116C14.3552 27.7311 14.1931 27.7983 14.0242 27.7983C13.8552 27.7983 13.6932 27.7311 13.5737 27.6116C13.4542 27.4922 13.3872 27.3301 13.3872 27.1612C13.3872 26.9922 13.4542 26.8302 13.5737 26.7107C13.6932 26.5912 13.8552 26.5241 14.0242 26.5241C14.1931 26.5241 14.3552 26.5912 14.4746 26.7107C14.5941 26.8302 14.6613 26.9922 14.6613 27.1612V27.1612ZM56.7568 32.4316C56.7568 32.7835 56.4716 33.0687 56.1198 33.0687C55.768 33.0687 55.4827 32.7835 55.4827 32.4316C55.4827 32.0797 55.768 31.7945 56.1198 31.7945C56.4716 31.7945 56.7568 32.0797 56.7568 32.4316Z"
    fill="#4A2C40" />
  <path fill-rule="evenodd" clip-rule="evenodd"
    d="M14.24 16.4141L13.8305 16.8235L12.1927 18.4614L11.7832 18.8708L12.6021 19.6898L13.0115 19.2803L14.6494 17.6425L15.0589 17.233L14.24 16.4141Z"
    fill="#4A2C40" />
  <path fill-rule="evenodd" clip-rule="evenodd"
    d="M12.6021 16.4141L11.7832 17.233L12.1927 17.6425L13.8305 19.2803L14.24 19.6898L15.0589 18.8708L14.6494 18.4614L13.0115 16.8235L12.6021 16.4141Z"
    fill="#4A2C40" />
  <path
    d="M24.6984 12.5409C20.3918 12.5409 16.8892 16.0452 16.8892 20.3524C16.8892 21.5996 17.268 22.8003 17.8414 23.9041L16.3734 30.8966C15.6879 33.5073 17.3283 36.3895 20.0835 36.9345C22.6578 37.5319 25.2138 35.9407 25.9108 33.2855L27.3905 28.6368C27.9511 28.9337 28.5057 29.2744 29.1482 29.2746C30.1482 29.2746 31.073 28.8416 31.795 28.1616H36.9552C37.6767 28.8418 38.6044 29.2728 39.6042 29.2746C40.5023 29.2736 41.3212 28.8938 42.0111 28.3382L43.5925 33.3149L43.5809 33.286C44.2781 35.9415 46.8362 37.5324 49.4107 36.9349C52.1659 36.39 53.8037 33.5074 53.1183 30.897L51.6321 23.8209C52.1738 22.7377 52.5257 21.5647 52.5258 20.3507C52.5258 16.0435 49.0231 12.5391 44.7164 12.5391C43.319 12.5391 41.9581 12.9419 40.7577 13.6522H28.6434C27.445 12.943 26.0887 12.542 24.6936 12.5391L24.6984 12.5409ZM24.6984 13.6992C25.9484 13.6992 27.172 14.0553 28.2297 14.7217C28.3217 14.7802 28.4284 14.8113 28.5374 14.8119H40.8779C40.9869 14.8113 41.0934 14.7802 41.1854 14.7217C42.245 14.0543 43.4714 13.7006 44.7235 13.6992C48.4041 13.6992 51.3746 16.671 51.3746 20.3524C51.3745 21.4774 51.0905 22.5845 50.5466 23.5693C50.4792 23.6904 50.4574 23.8316 50.4853 23.9674L51.9985 31.1658C52.0022 31.1748 52.0061 31.1836 52.0101 31.1924C52.526 33.1575 51.2642 35.3977 49.1914 35.8028C49.1837 35.8027 49.1759 35.8027 49.1682 35.8028C47.1864 36.2678 45.2652 35.0969 44.7118 32.9886C44.7081 32.9796 44.7043 32.9708 44.7002 32.962L42.9334 27.4037C42.8961 27.2871 42.8227 27.1854 42.724 27.113C42.6252 27.0407 42.5061 27.0015 42.3837 27.0011H42.0918C42.0103 27.0009 41.9297 27.018 41.8553 27.0511C41.7808 27.0842 41.7142 27.1327 41.6597 27.1934C41.137 27.7779 40.3919 28.1132 39.6079 28.1141C38.8245 28.1141 38.0806 27.7775 37.5582 27.1934C37.5037 27.1327 37.4372 27.0842 37.3628 27.0511C37.2883 27.018 37.2077 27.0009 37.1262 27.0011H31.6335C31.5521 27.0009 31.4714 27.018 31.397 27.0511C31.3226 27.0842 31.2559 27.1327 31.2015 27.1934C30.6787 27.7779 29.9336 28.1132 29.1496 28.1141C28.5035 28.1138 27.8787 27.8858 27.3828 27.4716C27.3099 27.4107 27.223 27.3689 27.13 27.3494C27.037 27.33 26.9407 27.3337 26.8495 27.3603C26.7583 27.3869 26.6751 27.4355 26.6072 27.5019C26.5392 27.5682 26.4886 27.6503 26.4598 27.7408L24.7992 32.962C24.7951 32.9708 24.7914 32.9796 24.7878 32.9886C24.2342 35.0972 22.3153 36.2678 20.3334 35.8028C20.3257 35.8027 20.318 35.8027 20.3102 35.8028C18.2374 35.3977 16.9734 33.1572 17.4892 31.1924C17.4933 31.1836 17.4972 31.1748 17.5008 31.1658L18.9962 24.0511C19.0249 23.9119 19.0014 23.7669 18.9301 23.6439C18.3551 22.6424 18.0518 21.5073 18.0479 20.3524C18.049 16.6721 21.019 13.7014 24.6988 13.7014L24.6984 13.6992Z"
    fill="#4A2C40" />
  <path
    d="M29.1482 22.5542C27.9135 22.5542 26.9019 23.5681 26.9019 24.8028C26.9019 26.0374 27.9135 27.0515 29.1482 27.0515C30.3828 27.0515 31.3968 26.0374 31.3969 24.8028C31.3968 23.5681 30.3828 22.5542 29.1482 22.5542ZM29.1482 23.7124C29.7568 23.7124 30.2386 24.1939 30.2386 24.8028C30.2386 25.4116 29.7568 25.8932 29.1482 25.8932C28.5397 25.8932 28.0601 25.4116 28.0601 24.8028C28.0601 24.1939 28.5397 23.7124 29.1482 23.7124ZM39.7174 22.5542C38.4827 22.5542 37.4687 23.5681 37.4687 24.8028C37.4687 26.0374 38.4827 27.0515 39.7174 27.0515C40.952 27.0515 41.9659 26.0374 41.966 24.8028C41.9659 23.5681 40.952 22.5542 39.7174 22.5542ZM39.7174 23.7124C40.3259 23.7124 40.8078 24.1939 40.8078 24.8028C40.8078 25.4116 40.3259 25.8932 39.7174 25.8932C39.1088 25.8932 38.627 25.4116 38.627 24.8028C38.627 24.1939 39.1088 23.7124 39.7174 23.7124ZM44.7235 14.7676C43.7918 14.7676 43.0293 15.5394 43.0291 16.471C43.0291 17.4027 43.7918 18.1745 44.7235 18.1745C45.6554 18.1745 46.4182 17.4027 46.4181 16.471C46.4181 15.5394 45.6553 14.7676 44.7235 14.7676ZM44.7235 15.9258C45.0245 15.9258 45.2598 16.1605 45.2598 16.471C45.2598 16.7816 45.0245 17.0162 44.7235 17.0162C44.4227 17.0162 44.1874 16.7816 44.1874 16.471C44.1874 16.1605 44.4227 15.9258 44.7235 15.9258ZM47.5017 17.5705C46.5699 17.5705 45.8072 18.3422 45.8073 19.2739C45.8073 20.2056 46.57 20.9774 47.5017 20.9774C48.4334 20.9774 49.196 20.2056 49.1961 19.2739C49.1961 18.3422 48.4334 17.5705 47.5017 17.5705ZM47.5017 18.7287C47.8026 18.7287 48.0379 18.9634 48.0379 19.2739C48.0377 19.5845 47.8025 19.8191 47.5017 19.8191C47.2008 19.8191 46.9656 19.5845 46.9656 19.2739C46.9656 18.9634 47.2008 18.7287 47.5017 18.7287ZM44.7235 20.3734C43.7918 20.3733 43.0293 21.1451 43.0291 22.0768C43.0291 23.0085 43.7918 23.7803 44.7235 23.7803C45.6554 23.7803 46.4182 23.0085 46.4181 22.0768C46.4181 21.1451 45.6553 20.3733 44.7235 20.3734ZM44.7235 21.5316C45.0245 21.5315 45.2598 21.7663 45.2598 22.0768C45.2598 22.3874 45.0245 22.622 44.7235 22.622C44.4227 22.622 44.1874 22.3874 44.1874 22.0768C44.1874 21.7663 44.4227 21.5315 44.7235 21.5316ZM41.9457 17.5705C41.014 17.5705 40.2513 18.3423 40.2513 19.2739C40.2513 20.2056 41.0139 20.9774 41.9457 20.9774C42.8774 20.9774 43.6401 20.2056 43.6401 19.2739C43.64 18.3423 42.8774 17.5705 41.9457 17.5705ZM41.9457 18.7287C42.2465 18.7287 42.4818 18.9634 42.4818 19.2739C42.4818 19.5845 42.2466 19.8191 41.9457 19.8191C41.6448 19.8191 41.4095 19.5845 41.4095 19.2739C41.4095 18.9634 41.6448 18.7287 41.9457 18.7287Z"
    fill="#4A2C40" />
  <defs>
    <linearGradient id="paint0_linear" x1="34.5368" y1="23.2285" x2="34.5368" y2="48.6159"
      gradientUnits="userSpaceOnUse">
      <stop stop-color="#E9BD43" />
      <stop offset="1" stop-color="#E9BD43" stop-opacity="0" />
    </linearGradient>
    <linearGradient id="paint1_linear" x1="63.1442" y1="36.3867" x2="63.1442" y2="38.4354"
      gradientUnits="userSpaceOnUse">
      <stop stop-color="#E9BD43" />
      <stop offset="1" stop-color="#E9BD43" stop-opacity="0" />
    </linearGradient>
    <linearGradient id="paint2_linear" x1="62.9149" y1="35.8149" x2="62.8475" y2="39.0057"
      gradientUnits="userSpaceOnUse">
      <stop stop-color="#E9BD43" />
      <stop offset="1" stop-color="#E9BD43" stop-opacity="0" />
    </linearGradient>
    <linearGradient id="paint3_linear" x1="34.7491" y1="13.1191" x2="34.7491" y2="36.4863"
      gradientUnits="userSpaceOnUse">
      <stop offset="0.0104167" stop-color="#4A2C40" />
      <stop offset="0.171875" stop-color="#E9BD43" />
      <stop offset="0.59375" stop-color="#E9BD43" />
    </linearGradient>
  </defs>
</svg>