<svg width="60" height="69" viewBox="0 0 60 69" fill="none" xmlns="http://www.w3.org/2000/svg">
  <path
    d="M5.08927 0C2.28742 0 0 3.48971 0 7.76458L0 60.5637C0 64.8386 2.28742 68.3283 5.08927 68.3283H6.93413C6.99892 68.3505 7.05775 68.4253 7.12498 68.4253C7.18332 68.4253 7.25923 68.3452 7.31583 68.3283H14.4408C14.5056 68.3505 14.5644 68.4253 14.6317 68.4253C14.69 68.4253 14.7659 68.3452 14.8225 68.3283H21.8839C21.9486 68.3505 22.0075 68.4253 22.0747 68.4253C22.1508 68.4253 22.2563 68.3565 22.3292 68.3283H29.3269C29.3917 68.3505 29.4505 68.4253 29.5178 68.4253C29.5761 68.4253 29.652 68.3452 29.7086 68.3283H36.8336C36.8984 68.3505 36.9572 68.4253 37.0244 68.4253C37.0828 68.4253 37.1587 68.3452 37.2153 68.3283H44.2767C44.3414 68.3505 44.4003 68.4253 44.4675 68.4253C44.5436 68.4253 44.6491 68.3565 44.722 68.3283H51.7197C51.7845 68.3505 51.8433 68.4253 51.9106 68.4253C51.9689 68.4253 52.0448 68.3452 52.1014 68.3283H53.9463C56.7481 68.3283 59.0355 64.8386 59.0355 60.5637V56.0991C59.0501 56.0005 59.0992 55.9105 59.0992 55.8079C59.0992 55.7053 59.0501 55.6156 59.0355 55.5167L59.0355 13.9762V7.76458C59.0355 3.48971 56.7481 0 53.9463 0L5.08927 0ZM5.08927 3.10583H6.10712L6.10712 12.4233H2.03571L2.03571 7.76458C2.03571 5.15692 3.37999 3.10583 5.08927 3.10583ZM8.14283 3.10583L13.6138 3.10583L13.6138 12.4233L8.14283 12.4233L8.14283 3.10583ZM15.6495 3.10583L21.0569 3.10583V12.4233H15.6495L15.6495 3.10583ZM23.0926 3.10583L28.4999 3.10583V12.4233H23.0926V3.10583ZM30.5356 3.10583L36.0066 3.10583V12.4233H30.5356V3.10583ZM38.0423 3.10583L43.4496 3.10583V12.4233H38.0423V3.10583ZM45.4854 3.10583L50.8927 3.10583V12.4233L45.4854 12.4233V3.10583ZM52.9284 3.10583H53.9463C55.6555 3.10583 56.9998 5.15692 56.9998 7.76458V12.4233H52.9284V3.10583ZM2.03571 15.5292H6.93413C6.99892 15.5514 7.05775 15.6262 7.12498 15.6262C7.18332 15.6262 7.25923 15.546 7.31583 15.5292L14.4408 15.5292C14.5056 15.5514 14.5644 15.6262 14.6317 15.6262C14.69 15.6262 14.7659 15.546 14.8225 15.5292H21.8839C21.9486 15.5514 22.0075 15.6262 22.0747 15.6262C22.1508 15.6262 22.2563 15.5574 22.3292 15.5292L29.3269 15.5292C29.3917 15.5514 29.4505 15.6262 29.5178 15.6262C29.5761 15.6262 29.652 15.546 29.7086 15.5292H36.8336C36.8984 15.5514 36.9572 15.6262 37.0244 15.6262C37.0828 15.6262 37.1587 15.546 37.2153 15.5292H44.2767C44.3414 15.5514 44.4003 15.6262 44.4675 15.6262C44.5436 15.6262 44.6491 15.5574 44.722 15.5292L51.7197 15.5292C51.7845 15.5514 51.8433 15.6262 51.9106 15.6262C51.9689 15.6262 52.0448 15.546 52.1014 15.5292H56.9998L56.9998 54.255L2.03571 54.255L2.03571 15.5292ZM25.3827 21.7408C25.1814 21.8392 25.0045 22.0435 24.8784 22.3233C24.7523 22.6032 24.6838 22.9435 24.683 23.2937L24.683 45.0345C24.6804 45.3329 24.7272 45.6267 24.8181 45.8836C24.909 46.1405 25.0405 46.3507 25.1982 46.4911C25.3559 46.6314 25.5338 46.6966 25.7122 46.6793C25.8906 46.6621 26.0628 46.5631 26.2097 46.3933L37.4698 35.5229C37.5949 35.396 37.7013 35.2235 37.7809 35.0183C37.8606 34.8132 37.9115 34.5806 37.9299 34.3381C37.9482 34.0955 37.9335 33.8491 37.8869 33.6174C37.8403 33.3856 37.7629 33.1744 37.6606 32.9995C37.5856 32.8804 37.4997 32.7821 37.4061 32.7083L26.1461 21.9349C26.0335 21.8173 25.9077 21.7394 25.7765 21.706C25.6452 21.6727 25.5112 21.6845 25.3827 21.7408V21.7408ZM26.6551 26.1084L34.9887 34.0671L26.6551 42.2199V26.1084ZM2.03571 57.3608H6.10712L6.10712 65.2224H5.08927C3.37999 65.2224 2.03571 63.1714 2.03571 60.5637L2.03571 57.3608ZM8.14283 57.3608H13.6138L13.6138 65.2224H8.14283L8.14283 57.3608ZM15.6495 57.3608H21.0569V65.2224H15.6495L15.6495 57.3608ZM23.0926 57.3608H28.4999V65.2224H23.0926V57.3608ZM30.5356 57.3608H36.0066V65.2224H30.5356V57.3608ZM38.0423 57.3608L43.4496 57.3608V65.2224H38.0423V57.3608ZM45.4854 57.3608H50.8927V65.2224H45.4854V57.3608ZM52.9284 57.3608H56.9998V60.5637C56.9998 63.1714 55.6555 65.2224 53.9463 65.2224H52.9284V57.3608Z"
    fill="url(#paint0_linear)" />
  <defs>
    <linearGradient id="paint0_linear" x1="29.5496" y1="0" x2="29.5496" y2="68.4253" gradientUnits="userSpaceOnUse">
      <stop stop-color="#4A2C40" />
      <stop offset="0.520833" stop-color="#4A2C40" />
      <stop offset="0.869792" stop-color="#E9BD43" />
      <stop offset="0.9999" stop-color="#E9BD43" stop-opacity="0.31" />
    </linearGradient>
  </defs>
</svg>