<svg width="69" height="52" viewBox="0 0 69 52" fill="none" xmlns="http://www.w3.org/2000/svg">
  <path fill-rule="evenodd" clip-rule="evenodd"
    d="M27.2524 0.00192306C27.0266 0.0151926 26.8108 0.0981961 26.6355 0.23919C26.4601 0.380184 26.3341 0.572029 26.2753 0.787583C25.2238 4.66013 24.4386 8.14628 23.858 11.3711C15.3679 11.5911 6.99809 10.6401 1.47822 8.46128C1.34432 8.40882 1.20111 8.38337 1.05708 8.38645C0.774813 8.39192 0.50598 8.50645 0.308328 8.70543C0.110677 8.90441 -2.61781e-05 9.17197 4.64338e-09 9.45063C4.64338e-09 23.0152 1.56857 32.0059 5.12114 38.4785C8.67371 44.9511 14.207 48.7565 21.6722 51.9137C21.8066 51.9706 21.9513 52 22.0976 52C22.2438 52 22.3885 51.9706 22.5229 51.9137C26.9917 50.0238 30.4658 47.9654 33.4854 45.2044C34.3098 45.921 35.1625 46.6355 36.0712 47.3411C36.1861 47.4301 36.3182 47.4952 36.4593 47.5324C36.6005 47.5695 36.7479 47.578 36.8924 47.5572C44.9314 46.4143 51.275 44.1512 56.4042 38.8069C61.5334 33.4625 65.405 25.1801 68.9627 12.0778C69.0087 11.9099 69.0122 11.7335 68.973 11.5639C68.9339 11.3943 68.8532 11.2368 68.7381 11.1052C68.623 10.9735 68.4769 10.8717 68.3127 10.8086C68.1485 10.7456 67.9712 10.7232 67.7962 10.7434C62.4222 11.3759 54.6014 10.4001 47.08 8.4114C39.5586 6.42265 32.2934 3.40893 27.9599 0.20977C27.7562 0.0604765 27.5057 -0.0131216 27.2524 0.00192306V0.00192306ZM28.0905 2.69146C32.8235 5.82862 39.4396 8.5917 46.5241 10.4649C53.6087 12.3382 60.7347 13.2119 66.4232 12.8302C63.0295 24.8526 59.377 32.6137 54.8375 37.3436C50.2124 42.1627 44.5901 44.201 37.0567 45.3291C35.6285 44.2028 34.3307 43.0825 33.1484 41.9454C33.0418 41.842 32.9379 41.7378 32.8326 41.6336C32.3301 41.1393 31.8479 40.6421 31.3923 40.1371C31.2271 39.9548 31.0825 39.775 30.9248 39.5925C30.0922 38.6252 29.342 37.6314 28.6801 36.5954C28.2664 35.9276 27.8274 35.1672 27.4924 34.492C27.4701 34.4488 27.4448 34.4071 27.4166 34.3673C27.3812 34.2952 27.3376 34.2279 27.3029 34.1553C26.9737 33.4665 26.6763 32.7573 26.4143 32.0228C26.4124 32.0175 26.412 32.0114 26.4101 32.0061C26.1413 31.2462 25.9053 30.4598 25.7068 29.6408C25.7065 29.6396 25.7071 29.638 25.7068 29.6367C25.5148 28.8441 25.3637 28.016 25.2393 27.1592C24.4005 21.1172 25.3308 13.2696 28.0905 2.69146ZM2.25313 10.8058C8.03529 12.7663 15.5999 13.6109 23.4831 13.4413C23.4681 13.5486 23.4603 13.6447 23.4452 13.7531C23.066 16.2671 22.851 18.5834 22.7798 20.7492C22.7755 20.8813 22.7578 21.0255 22.7545 21.1565C22.7001 23.3811 22.8069 25.4361 23.0788 27.3545C23.2148 28.3137 23.3927 29.2406 23.6095 30.1355C23.8262 31.0304 24.0829 31.8913 24.3802 32.7253C24.3806 32.7265 24.3797 32.7282 24.3802 32.7294C24.5573 33.2276 24.7772 33.6971 24.9824 34.1761C21.7074 34.8327 18.6851 34.7522 15.1402 33.353C15.0063 33.3005 14.8631 33.2751 14.7191 33.2782C14.5557 33.2815 14.3953 33.3215 14.2499 33.3951C14.1044 33.4686 13.9779 33.5739 13.8797 33.7028C13.7815 33.8317 13.7143 33.981 13.6832 34.1393C13.652 34.2976 13.6578 34.4609 13.6999 34.6167C14.8868 38.9879 17.2803 41.4515 21.6175 43.5915C21.7666 43.6647 21.931 43.7028 22.0976 43.7028C22.2642 43.7028 22.4285 43.6647 22.5777 43.5915C25.0145 42.3892 26.6902 41.0342 27.9557 39.3681C28.0067 39.4369 28.0472 39.5115 28.0989 39.5801C28.183 39.6915 28.2932 39.7978 28.3811 39.9085C29.4086 41.2298 30.559 42.4938 31.8429 43.7204C29.1838 46.1236 26.133 47.999 22.1186 49.7355C15.1251 46.7192 10.2233 43.3072 7.0163 37.4642C3.86994 31.7317 2.3759 23.3005 2.25313 10.8058ZM35.4521 11.6871C34.9635 11.6753 34.4618 11.7157 33.9402 11.8035C32.8969 11.9789 31.7725 12.3428 30.5163 12.8427C30.3618 12.9048 30.2239 13.0014 30.1137 13.125C30.0034 13.2486 29.9237 13.3958 29.8809 13.555C29.838 13.7141 29.8331 13.8809 29.8667 14.0423C29.9002 14.2036 29.9712 14.355 30.0741 14.4847C31.7497 16.5911 33.2369 17.956 35.1068 18.4504C36.9766 18.9448 38.9561 18.496 41.4745 17.4984C41.6294 17.4368 41.7676 17.3404 41.8783 17.217C41.989 17.0936 42.0692 16.9465 42.1125 16.7873C42.1558 16.6281 42.161 16.4612 42.1277 16.2996C42.0945 16.1381 42.0237 15.9864 41.9209 15.8565C40.245 13.7495 38.7552 12.3814 36.884 11.8866C36.4162 11.7629 35.9407 11.6988 35.4521 11.6871ZM35.7048 13.911C35.9372 13.89 36.1475 13.8976 36.3239 13.9443C37.0284 14.1305 37.8759 15.1498 38.657 15.8731C37.6154 16.1143 36.3658 16.5828 35.6627 16.3969C34.9584 16.2106 34.111 15.1889 33.3295 14.4639C34.1112 14.2821 35.0077 13.9741 35.7048 13.911ZM52.7107 16.2514C52.2232 16.2396 51.7204 16.28 51.1988 16.3678C50.1555 16.5432 49.031 16.9029 47.7749 17.4028C47.6196 17.4648 47.4812 17.5615 47.3704 17.6855C47.2597 17.8094 47.1797 17.957 47.1368 18.1168C47.0938 18.2765 47.0892 18.4439 47.1232 18.6057C47.1572 18.7675 47.2289 18.9193 47.3327 19.049C49.0082 21.1555 50.4955 22.5203 52.3654 23.0147C54.2352 23.5091 56.2146 23.0602 58.7331 22.0628C58.8887 22.0013 59.0275 21.9048 59.1387 21.7811C59.25 21.6574 59.3304 21.5098 59.3737 21.35C59.4171 21.1902 59.4221 21.0227 59.3884 20.8606C59.3546 20.6986 59.2831 20.5466 59.1795 20.4166C57.5036 18.3096 56.0096 16.9456 54.1384 16.4509C53.6706 16.3272 53.1982 16.2632 52.7107 16.2514ZM13.1566 17.461C11.2195 17.461 9.42511 18.4018 7.26057 20.0092C7.12717 20.1084 7.01893 20.2368 6.9444 20.3844C6.86986 20.5319 6.83106 20.6945 6.83106 20.8593C6.83106 21.0242 6.86986 21.1868 6.9444 21.3343C7.01893 21.4818 7.12717 21.6102 7.26057 21.7094C9.43157 23.3162 11.2293 24.2576 13.165 24.2576C15.1008 24.2576 16.8943 23.3162 19.0653 21.7094C19.1995 21.6103 19.3085 21.4817 19.3835 21.3338C19.4585 21.1858 19.4976 21.0227 19.4976 20.8572C19.4976 20.6918 19.4585 20.5287 19.3835 20.3807C19.3085 20.2328 19.1995 20.1042 19.0653 20.0051C16.8938 18.398 15.0938 17.461 13.1566 17.461ZM52.9634 18.4753C53.1957 18.4539 53.4061 18.4578 53.5825 18.5044C54.288 18.691 55.1373 19.7122 55.9198 20.4374C54.8761 20.6795 53.6254 21.1473 52.9213 20.9612C52.217 20.7749 51.3696 19.7532 50.5881 19.0282C51.3699 18.8463 52.2663 18.5396 52.9634 18.4753ZM13.1566 19.5894C13.8864 19.5894 14.9744 20.3575 15.9193 20.8572C14.9765 21.3561 13.8929 22.1293 13.165 22.1293C12.4368 22.1293 11.35 21.3567 10.4065 20.8572C11.3476 20.3586 12.4274 19.5894 13.1566 19.5894ZM33.9234 27.5333C33.6478 27.5482 33.3885 27.6669 33.1989 27.8648C33.0093 28.0628 32.9038 28.325 32.9042 28.5975C32.9042 33.1229 34.5699 36.1101 38.198 39.2849C38.3232 39.3942 38.4725 39.4733 38.6341 39.5159C38.7956 39.5584 38.9649 39.5633 39.1287 39.5302C43.8794 38.5708 46.838 36.8063 49.131 32.8874C49.2307 32.7164 49.2804 32.5213 49.2743 32.324C49.2682 32.1268 49.2067 31.935 49.0966 31.7703C48.9865 31.6055 48.8321 31.4743 48.6508 31.3911C48.4694 31.308 48.2682 31.2762 48.0697 31.2995C42.6466 31.9376 39.004 30.9738 34.6309 27.7453C34.4277 27.5945 34.1771 27.5194 33.9234 27.5333V27.5333ZM35.4479 30.5055C38.7181 32.4639 42.1355 33.3647 45.9597 33.2823C44.3421 35.3221 42.4261 36.5441 39.2509 37.2522C36.8601 35.0727 35.8156 33.069 35.4479 30.5055ZM16.669 35.8347C19.8403 36.6629 22.8765 36.7561 25.9047 36.0966C26.1436 36.5439 26.3683 36.9992 26.6333 37.4309C25.6217 39.0085 24.2943 40.21 22.1102 41.3676C19.2284 39.8748 17.6989 38.2065 16.669 35.8347Z"
    fill="url(#paint0_linear)" />
  <defs>
    <linearGradient id="paint0_linear" x1="34.5" y1="0" x2="34.5" y2="52" gradientUnits="userSpaceOnUse">
      <stop stop-color="#4A2C40" />
      <stop offset="1" stop-color="#E9BD43" />
    </linearGradient>
  </defs>
</svg>