<svg width="688" height="771" viewBox="0 0 688 771" fill="none" xmlns="http://www.w3.org/2000/svg">
  <line x1="348.5" x2="348.5" y2="218" stroke="#E9BD43" stroke-width="5" />
  <line x1="352.5" y1="553" x2="352.5" y2="771" stroke="#E9BD43" stroke-width="5" />
  <path
    d="M42.9033 18.5972C41.5226 18.5972 40.4033 19.7165 40.4033 21.0972L40.4033 43.5972C40.4033 44.9779 41.5226 46.0972 42.9033 46.0972C44.284 46.0972 45.4033 44.9779 45.4033 43.5972V23.5972H65.4033C66.784 23.5972 67.9033 22.4779 67.9033 21.0972C67.9033 19.7165 66.784 18.5972 65.4033 18.5972L42.9033 18.5972ZM108.671 83.3294L44.6711 19.3294L41.1356 22.8649L105.136 86.8649L108.671 83.3294Z"
    fill="#E9BD43" />
  <path
    d="M656.5 26C656.5 24.6193 655.381 23.5 654 23.5L631.5 23.5C630.119 23.5 629 24.6193 629 26C629 27.3807 630.119 28.5 631.5 28.5H651.5V48.5C651.5 49.8807 652.619 51 654 51C655.381 51 656.5 49.8807 656.5 48.5V26ZM591.768 91.7678L655.768 27.7678L652.232 24.2322L588.232 88.2322L591.768 91.7678Z"
    fill="#E9BD43" />
  <path
    d="M80.5 669C80.5 667.619 79.3807 666.5 78 666.5H55.5C54.1193 666.5 53 667.619 53 669C53 670.381 54.1193 671.5 55.5 671.5H75.5V691.5C75.5 692.881 76.6193 694 78 694C79.3807 694 80.5 692.881 80.5 691.5L80.5 669ZM15.7678 734.768L79.7678 670.768L76.2322 667.232L12.2322 731.232L15.7678 734.768Z"
    fill="#E9BD43" />
  <path
    d="M621.912 660.438C620.532 660.438 619.412 661.558 619.412 662.938V685.438C619.412 686.819 620.532 687.938 621.912 687.938C623.293 687.938 624.412 686.819 624.412 685.438V665.438H644.412C645.793 665.438 646.912 664.319 646.912 662.938C646.912 661.558 645.793 660.438 644.412 660.438H621.912ZM676.667 714.158L623.68 661.171L620.144 664.706L673.132 717.693L676.667 714.158Z"
    fill="#E9BD43" />
  <line x1="117" y1="550.5" x2="583" y2="550.5" stroke="#E9BD43" stroke-width="5" />
  <path d="M588.468 220L350 550.725L111.532 220L588.468 220Z" stroke="#E9BD43" stroke-width="5" />
  <circle cx="350" cy="377" r="289.5" stroke="#E9BD43" stroke-width="5" />
</svg>