<svg width="714" height="780" viewBox="0 0 714 780" fill="none" xmlns="http://www.w3.org/2000/svg">
  <line x1="350.898" y1="771" x2="350.898" y2="553" stroke="#4A2C40" stroke-width="10" />
  <line x1="346.898" y1="218" x2="346.898" stroke="#4A2C40" stroke-width="10" />
  <path
    d="M658.996 754.903C661.758 754.903 663.996 752.664 663.996 749.903V704.903C663.996 702.141 661.758 699.903 658.996 699.903C656.235 699.903 653.996 702.141 653.996 704.903V744.903H613.996C611.235 744.903 608.996 747.141 608.996 749.903C608.996 752.664 611.235 754.903 613.996 754.903H658.996ZM591.461 689.438L655.461 753.438L662.532 746.367L598.532 682.367L591.461 689.438Z"
    fill="#4A2C40" />
  <path
    d="M42.8984 745C42.8984 747.761 45.137 750 47.8984 750H92.8984C95.6599 750 97.8984 747.761 97.8984 745C97.8984 742.239 95.6599 740 92.8984 740H52.8984V700C52.8984 697.239 50.6599 695 47.8984 695C45.137 695 42.8984 697.239 42.8984 700L42.8984 745ZM108.363 677.464L44.3629 741.464L51.434 748.536L115.434 684.536L108.363 677.464Z"
    fill="#4A2C40" />
  <path
    d="M618.898 102C618.898 104.761 621.137 107 623.898 107L668.898 107C671.66 107 673.898 104.761 673.898 102C673.898 99.2386 671.66 97 668.898 97H628.898V57C628.898 54.2386 626.66 52 623.898 52C621.137 52 618.898 54.2386 618.898 57V102ZM684.363 34.4645L620.363 98.4645L627.434 105.536L691.434 41.5355L684.363 34.4645Z"
    fill="#4A2C40" />
  <path
    d="M79.9872 113.062C82.7486 113.062 84.9872 110.823 84.9872 108.062V63.0616C84.9872 60.3002 82.7486 58.0616 79.9872 58.0616C77.2257 58.0616 74.9872 60.3002 74.9872 63.0616V103.062H34.9872C32.2257 103.062 29.9872 105.3 29.9872 108.062C29.9872 110.823 32.2257 113.062 34.9872 113.062H79.9872ZM23.4645 58.61L76.4516 111.597L83.5227 104.526L30.5355 51.5389L23.4645 58.61Z"
    fill="#4A2C40" />
  <line x1="584.898" y1="223" x2="118.898" y2="223" stroke="#4A2C40" stroke-width="10" />
  <path d="M118.315 548.5L351.898 224.549L585.482 548.5H118.315Z" stroke="#4A2C40" stroke-width="10" />
  <circle cx="351.898" cy="394" r="287" transform="rotate(180 351.898 394)" stroke="#4A2C40" stroke-width="10" />
</svg>