<svg width="50" height="50" viewBox="0 0 50 50" fill="none" xmlns="http://www.w3.org/2000/svg">
  <rect width="50" height="49.7286" fill="url(#paint0_linear)" />
  <path
    d="M14.6226 24.347C14.5853 24.4301 14.4545 24.4548 14.336 24.398C14.2143 24.3431 14.1467 24.2305 14.186 24.1469C14.2213 24.0622 14.3525 24.0383 14.4738 24.0952C14.5955 24.1501 14.6646 24.2638 14.623 24.347H14.6226ZM15.2991 25.1016C15.2194 25.175 15.0635 25.1409 14.9575 25.024C14.8484 24.9075 14.8279 24.7518 14.9088 24.6772C14.9905 24.6035 15.1417 24.638 15.2504 24.7545C15.3604 24.8722 15.382 25.0263 15.2987 25.1012L15.2991 25.1016ZM15.9576 26.0618C15.8555 26.1332 15.6878 26.0665 15.5846 25.9179C15.4817 25.77 15.4817 25.5923 15.5865 25.5205C15.6902 25.4492 15.8551 25.5135 15.9595 25.6606C16.0624 25.8116 16.0624 25.99 15.9576 26.0622V26.0618ZM16.8599 26.9906C16.7684 27.0914 16.5732 27.0644 16.4307 26.9267C16.2846 26.7922 16.2442 26.6011 16.3357 26.5003C16.4287 26.3995 16.6247 26.4278 16.7684 26.5643C16.9137 26.6984 16.9576 26.8898 16.8599 26.9902V26.9906ZM18.1053 27.5296C18.0645 27.6606 17.8768 27.7198 17.6875 27.6645C17.4983 27.6072 17.375 27.4543 17.4127 27.3225C17.452 27.1907 17.6412 27.1291 17.8316 27.1883C18.0201 27.2448 18.1438 27.3962 18.1049 27.5296H18.1053ZM19.4717 27.6296C19.4768 27.7669 19.3162 27.8814 19.1175 27.8838C18.9181 27.8885 18.7563 27.7771 18.754 27.6414C18.754 27.5025 18.911 27.3895 19.1105 27.3864C19.3092 27.3825 19.4717 27.4931 19.4717 27.6296ZM20.7439 27.4135C20.7674 27.5476 20.63 27.6857 20.4325 27.7222C20.2385 27.7582 20.0595 27.6751 20.0344 27.5417C20.0108 27.4044 20.151 27.2672 20.3445 27.2311C20.542 27.1966 20.7187 27.2774 20.7439 27.4139V27.4135Z"
    fill="url(#paint1_linear)" />
  <path
    d="M9.63029 42.274H5.42904C5.37697 42.274 5.32704 42.2946 5.29022 42.3314C5.2534 42.3682 5.23272 42.4181 5.23272 42.4701V44.5222C5.23272 44.5743 5.2534 44.6241 5.29022 44.6609C5.32704 44.6977 5.37697 44.7184 5.42904 44.7184H7.06753V47.2679C7.06753 47.2679 6.69962 47.3934 5.68151 47.3934C4.4816 47.3934 2.80463 46.9557 2.80463 43.2718C2.80463 39.5875 4.55109 39.1024 6.19076 39.1024C7.60976 39.1024 8.22071 39.3518 8.61021 39.4722C8.73193 39.5091 8.84579 39.3875 8.84579 39.2793L9.31421 37.2965C9.31497 37.2668 9.30851 37.2374 9.29538 37.2108C9.28225 37.1841 9.26284 37.161 9.23883 37.1435C9.08059 37.0306 8.11705 36.4924 5.68229 36.4924C2.87727 36.4924 0 37.684 0 43.4154C0 49.1459 3.29425 49.9998 6.07022 49.9998C8.36874 49.9998 9.763 49.0184 9.763 49.0184C9.82033 48.987 9.82661 48.9066 9.82661 48.8694V42.4697C9.82661 42.4177 9.80593 42.3678 9.76911 42.331C9.73229 42.2942 9.68236 42.2736 9.63029 42.2736V42.274ZM31.0885 36.9819H28.7224C28.6966 36.982 28.6711 36.9872 28.6473 36.9972C28.6235 37.0072 28.6019 37.0217 28.5837 37.0401C28.5655 37.0584 28.5512 37.0801 28.5414 37.104C28.5317 37.1279 28.5267 37.1534 28.5269 37.1792L28.5277 41.7464H24.84V37.1792C24.8402 37.1535 24.8352 37.1279 24.8255 37.1041C24.8158 37.0802 24.8015 37.0585 24.7833 37.0402C24.7652 37.0219 24.7437 37.0073 24.7199 36.9973C24.6961 36.9873 24.6706 36.9821 24.6449 36.9819H22.2792C22.2534 36.982 22.2278 36.9872 22.204 36.9972C22.1802 37.0072 22.1586 37.0217 22.1405 37.0401C22.1223 37.0584 22.1079 37.0801 22.0982 37.104C22.0884 37.1279 22.0835 37.1534 22.0837 37.1792V49.5464C22.0837 49.655 22.1716 49.7437 22.2792 49.7437H24.6449C24.6707 49.7435 24.6962 49.7383 24.72 49.7282C24.7438 49.7182 24.7653 49.7036 24.7835 49.6852C24.8016 49.6669 24.8159 49.6451 24.8256 49.6212C24.8353 49.5973 24.8402 49.5718 24.84 49.546V44.2563H28.5277L28.5214 49.546C28.5214 49.655 28.6093 49.7437 28.7177 49.7437H31.0885C31.1143 49.7435 31.1398 49.7383 31.1636 49.7282C31.1874 49.7182 31.209 49.7036 31.2271 49.6852C31.2452 49.6669 31.2595 49.6451 31.2692 49.6212C31.2789 49.5973 31.2838 49.5718 31.2836 49.546V37.1788C31.2836 37.0698 31.1972 36.9819 31.0885 36.9819V36.9819ZM12.5692 37.2632C11.7274 37.2632 11.0442 37.9508 11.0442 38.8019C11.0442 39.6519 11.7274 40.3414 12.5692 40.3414C13.4118 40.3414 14.0946 39.6519 14.0946 38.8019C14.0946 37.9508 13.4114 37.2632 12.5692 37.2632ZM13.7298 41.0318H11.3717C11.2633 41.0318 11.1667 41.1431 11.1667 41.2514V49.4303C11.1667 49.6707 11.3167 49.7421 11.5106 49.7421H13.6348C13.8685 49.7421 13.9254 49.6276 13.9254 49.4263V46.9372V41.229C13.9255 41.2033 13.9205 41.1778 13.9107 41.1539C13.901 41.1301 13.8866 41.1084 13.8684 41.0901C13.8503 41.0719 13.8287 41.0573 13.8049 41.0474C13.7811 41.0374 13.7556 41.0322 13.7298 41.0321V41.0318ZM40.2747 41.0502H37.9267C37.9009 41.0504 37.8754 41.0557 37.8517 41.0657C37.8279 41.0758 37.8064 41.0904 37.7883 41.1087C37.7703 41.1271 37.756 41.1488 37.7463 41.1727C37.7366 41.1966 37.7317 41.2221 37.732 41.2479V47.3118C37.732 47.3118 37.1351 47.7472 36.289 47.7472C35.4429 47.7472 35.2183 47.364 35.2183 46.536V41.2479C35.2185 41.2221 35.2136 41.1965 35.2039 41.1726C35.1942 41.1487 35.1799 41.127 35.1617 41.1086C35.1436 41.0902 35.122 41.0756 35.0983 41.0656C35.0745 41.0556 35.0489 41.0503 35.0231 41.0502H32.6406C32.5884 41.0506 32.5386 41.0716 32.5019 41.1087C32.4653 41.1457 32.4448 41.1958 32.445 41.2479V46.936C32.445 49.3954 33.8173 49.997 35.7047 49.997C37.2533 49.997 38.5019 49.142 38.5019 49.142C38.5019 49.142 38.5608 49.593 38.5883 49.646C38.6158 49.6993 38.6853 49.7531 38.7611 49.7531L40.2767 49.7464C40.3025 49.7463 40.3281 49.7411 40.352 49.7311C40.3759 49.7211 40.3976 49.7065 40.4158 49.6882C40.434 49.6698 40.4485 49.6481 40.4583 49.6241C40.4681 49.6002 40.4731 49.5746 40.473 49.5487L40.4718 41.2467C40.4716 41.1947 40.4509 41.1448 40.4141 41.108C40.3774 41.0711 40.3276 41.0502 40.2755 41.0498L40.2747 41.0502ZM46.6912 40.7725C45.3578 40.7725 44.4508 41.3667 44.4508 41.3667V37.1788C44.451 37.1531 44.446 37.1276 44.4363 37.1037C44.4266 37.0798 44.4123 37.0581 44.3941 37.0398C44.376 37.0215 44.3545 37.0069 44.3307 36.9969C44.307 36.9869 44.2815 36.9817 44.2557 36.9815H41.8837C41.8578 36.9815 41.8322 36.9867 41.8083 36.9966C41.7844 37.0065 41.7627 37.0211 41.7445 37.0394C41.7262 37.0577 41.7118 37.0795 41.702 37.1034C41.6922 37.1274 41.6873 37.153 41.6874 37.1788V49.546C41.6873 49.5718 41.6922 49.5974 41.702 49.6214C41.7118 49.6453 41.7262 49.6671 41.7445 49.6854C41.7627 49.7037 41.7844 49.7183 41.8083 49.7282C41.8322 49.7381 41.8578 49.7433 41.8837 49.7433H43.5297C43.6043 49.7433 43.66 49.7052 43.7013 49.6381C43.7417 49.5715 43.801 49.0678 43.801 49.0678C43.801 49.0678 44.7708 49.9857 46.6076 49.9857C48.7632 49.9857 50 48.8937 50 45.082C50 41.2702 48.025 40.7721 46.6908 40.7721L46.6912 40.7725ZM45.7646 47.7401C44.9506 47.7154 44.3982 47.3463 44.3982 47.3463V43.4299C44.3982 43.4299 44.9432 43.0965 45.6115 43.0361C46.4568 42.9604 47.2715 43.2157 47.2715 45.2302C47.2715 47.3549 46.9044 47.7742 45.765 47.7397L45.7646 47.7401ZM20.7577 47.6938C20.6545 47.6938 20.3898 47.7358 20.1177 47.7358C19.2461 47.7358 18.9504 47.331 18.9504 46.807V43.3295H20.7251C20.751 43.3295 20.7767 43.3243 20.8006 43.3144C20.8245 43.3044 20.8463 43.2898 20.8645 43.2715C20.8828 43.2531 20.8972 43.2313 20.907 43.2073C20.9167 43.1833 20.9217 43.1577 20.9214 43.1318V41.2271C20.9216 41.2013 20.9166 41.1757 20.9067 41.1518C20.8969 41.1279 20.8825 41.1062 20.8642 41.0879C20.846 41.0696 20.8243 41.0551 20.8004 41.0452C20.7766 41.0353 20.751 41.0302 20.7251 41.0302H18.9504L18.9476 38.6886C18.9476 38.5995 18.9021 38.5552 18.7992 38.5552H16.3806C16.2871 38.5552 16.2365 38.5968 16.2365 38.6866V41.1067C16.2365 41.1067 15.0244 41.3989 14.9427 41.4224C14.9019 41.4343 14.8661 41.4591 14.8406 41.493C14.8151 41.527 14.8014 41.5683 14.8014 41.6107V43.1314C14.8012 43.1571 14.8061 43.1827 14.8159 43.2065C14.8256 43.2304 14.8399 43.2521 14.858 43.2704C14.8762 43.2887 14.8977 43.3033 14.9215 43.3133C14.9452 43.3233 14.9707 43.3285 14.9965 43.3287H16.2365V46.9874C16.2365 49.7056 18.1447 49.9723 19.4326 49.9723C20.0203 49.9723 20.7243 49.7841 20.8406 49.7409C20.9112 49.7146 20.9517 49.6421 20.9517 49.5632L20.9533 47.8903C20.9524 47.8385 20.9315 47.789 20.8949 47.7523C20.8583 47.7156 20.8088 47.6945 20.7569 47.6934L20.7577 47.6938Z"
    fill="url(#paint2_linear)" />
  <path fill-rule="evenodd" clip-rule="evenodd"
    d="M25.0002 3.3877C15.7759 3.3877 8.29529 10.8586 8.29529 20.0753C8.29529 27.4481 13.0816 33.7034 19.7192 35.9097C20.5539 36.0643 20.8606 35.5477 20.8606 35.1068C20.8606 34.7091 20.8449 33.3943 20.8378 32.0003C16.1901 33.0096 15.2097 30.0313 15.2097 30.0313C14.4499 28.1023 13.3549 27.5893 13.3549 27.5893C11.8393 26.5538 13.4687 26.575 13.4687 26.575C15.1465 26.6926 16.0299 28.2949 16.0299 28.2949C17.5196 30.846 19.9379 30.1082 20.8908 29.6819C21.0412 28.6032 21.4739 27.8666 21.9517 27.45C18.2413 27.0284 14.3408 25.5971 14.3408 19.2029C14.3408 17.381 14.9933 15.8925 16.0621 14.7236C15.8886 14.3032 15.3169 12.6056 16.2239 10.3071C16.2239 10.3071 17.6264 9.85916 20.8178 12.0184C22.1508 11.6485 23.58 11.463 24.9994 11.4567C26.4192 11.4634 27.8492 11.6489 29.1841 12.0184C32.3724 9.85955 33.7733 10.3075 33.7733 10.3075C34.6827 12.606 34.111 14.3032 33.9375 14.724C35.0086 15.8921 35.6564 17.381 35.6564 19.2033C35.6564 25.6124 31.7485 27.0237 28.0286 27.4363C28.6278 27.9541 29.1618 28.97 29.1618 30.5271C29.1618 32.7597 29.1429 34.5565 29.1429 35.1061C29.1429 35.5493 29.4437 36.0702 30.2902 35.9062C36.9243 33.6971 41.7043 27.4442 41.7043 20.0737C41.7051 10.859 34.226 3.3877 25.0002 3.3877Z"
    fill="url(#paint3_linear)" />
  <path
    d="M14.6226 27.347C14.5853 27.4301 14.4545 27.4548 14.336 27.398C14.2143 27.3431 14.1467 27.2305 14.186 27.1469C14.2213 27.0622 14.3525 27.0383 14.4738 27.0952C14.5955 27.1501 14.6646 27.2638 14.623 27.347H14.6226ZM15.2991 28.1016C15.2194 28.175 15.0635 28.1409 14.9575 28.024C14.8484 27.9075 14.8279 27.7518 14.9088 27.6772C14.9905 27.6035 15.1417 27.638 15.2504 27.7545C15.3604 27.8722 15.382 28.0263 15.2987 28.1012L15.2991 28.1016ZM15.9576 29.0618C15.8555 29.1332 15.6878 29.0665 15.5846 28.9179C15.4817 28.77 15.4817 28.5923 15.5865 28.5205C15.6902 28.4492 15.8551 28.5135 15.9595 28.6606C16.0624 28.8116 16.0624 28.99 15.9576 29.0622V29.0618ZM16.8599 29.9906C16.7684 30.0914 16.5732 30.0644 16.4307 29.9267C16.2846 29.7922 16.2442 29.6011 16.3357 29.5003C16.4287 29.3995 16.6247 29.4278 16.7684 29.5643C16.9137 29.6984 16.9576 29.8898 16.8599 29.9902V29.9906ZM18.1053 30.5296C18.0645 30.6606 17.8768 30.7198 17.6875 30.6645C17.4983 30.6072 17.375 30.4543 17.4127 30.3225C17.452 30.1907 17.6412 30.1291 17.8316 30.1883C18.0201 30.2448 18.1438 30.3962 18.1049 30.5296H18.1053ZM19.4717 30.6296C19.4768 30.7669 19.3162 30.8814 19.1175 30.8838C18.9181 30.8885 18.7563 30.7771 18.754 30.6414C18.754 30.5025 18.911 30.3895 19.1105 30.3864C19.3092 30.3825 19.4717 30.4931 19.4717 30.6296ZM20.7439 30.4135C20.7674 30.5476 20.63 30.6857 20.4325 30.7222C20.2385 30.7582 20.0595 30.6751 20.0344 30.5417C20.0108 30.4044 20.151 30.2672 20.3445 30.2311C20.542 30.1966 20.7187 30.2774 20.7439 30.4139V30.4135Z"
    fill="url(#paint4_linear)" />
  <path
    d="M9.63029 42.274H5.42904C5.37697 42.274 5.32704 42.2946 5.29022 42.3314C5.2534 42.3682 5.23272 42.4181 5.23272 42.4701V44.5222C5.23272 44.5743 5.2534 44.6241 5.29022 44.6609C5.32704 44.6977 5.37697 44.7184 5.42904 44.7184H7.06753V47.2679C7.06753 47.2679 6.69962 47.3934 5.68151 47.3934C4.4816 47.3934 2.80463 46.9557 2.80463 43.2718C2.80463 39.5875 4.55109 39.1024 6.19076 39.1024C7.60976 39.1024 8.22071 39.3518 8.61021 39.4722C8.73193 39.5091 8.84579 39.3875 8.84579 39.2793L9.31421 37.2965C9.31497 37.2668 9.30851 37.2374 9.29538 37.2108C9.28225 37.1841 9.26284 37.161 9.23883 37.1435C9.08059 37.0306 8.11705 36.4924 5.68229 36.4924C2.87727 36.4924 0 37.684 0 43.4154C0 49.1459 3.29425 49.9998 6.07022 49.9998C8.36874 49.9998 9.763 49.0184 9.763 49.0184C9.82033 48.987 9.82661 48.9066 9.82661 48.8694V42.4697C9.82661 42.4177 9.80593 42.3678 9.76911 42.331C9.73229 42.2942 9.68236 42.2736 9.63029 42.2736V42.274ZM31.0885 36.9819H28.7224C28.6966 36.982 28.6711 36.9872 28.6473 36.9972C28.6235 37.0072 28.6019 37.0217 28.5837 37.0401C28.5655 37.0584 28.5512 37.0801 28.5414 37.104C28.5317 37.1279 28.5267 37.1534 28.5269 37.1792L28.5277 41.7464H24.84V37.1792C24.8402 37.1535 24.8352 37.1279 24.8255 37.1041C24.8158 37.0802 24.8015 37.0585 24.7833 37.0402C24.7652 37.0219 24.7437 37.0073 24.7199 36.9973C24.6961 36.9873 24.6706 36.9821 24.6449 36.9819H22.2792C22.2534 36.982 22.2278 36.9872 22.204 36.9972C22.1802 37.0072 22.1586 37.0217 22.1405 37.0401C22.1223 37.0584 22.1079 37.0801 22.0982 37.104C22.0884 37.1279 22.0835 37.1534 22.0837 37.1792V49.5464C22.0837 49.655 22.1716 49.7437 22.2792 49.7437H24.6449C24.6707 49.7435 24.6962 49.7383 24.72 49.7282C24.7438 49.7182 24.7653 49.7036 24.7835 49.6852C24.8016 49.6669 24.8159 49.6451 24.8256 49.6212C24.8353 49.5973 24.8402 49.5718 24.84 49.546V44.2563H28.5277L28.5214 49.546C28.5214 49.655 28.6093 49.7437 28.7177 49.7437H31.0885C31.1143 49.7435 31.1398 49.7383 31.1636 49.7282C31.1874 49.7182 31.209 49.7036 31.2271 49.6852C31.2452 49.6669 31.2595 49.6451 31.2692 49.6212C31.2789 49.5973 31.2838 49.5718 31.2836 49.546V37.1788C31.2836 37.0698 31.1972 36.9819 31.0885 36.9819V36.9819ZM12.5692 37.2632C11.7274 37.2632 11.0442 37.9508 11.0442 38.8019C11.0442 39.6519 11.7274 40.3414 12.5692 40.3414C13.4118 40.3414 14.0946 39.6519 14.0946 38.8019C14.0946 37.9508 13.4114 37.2632 12.5692 37.2632ZM13.7298 41.0318H11.3717C11.2633 41.0318 11.1667 41.1431 11.1667 41.2514V49.4303C11.1667 49.6707 11.3167 49.7421 11.5106 49.7421H13.6348C13.8685 49.7421 13.9254 49.6276 13.9254 49.4263V46.9372V41.229C13.9255 41.2033 13.9205 41.1778 13.9107 41.1539C13.901 41.1301 13.8866 41.1084 13.8684 41.0901C13.8503 41.0719 13.8287 41.0573 13.8049 41.0474C13.7811 41.0374 13.7556 41.0322 13.7298 41.0321V41.0318ZM40.2747 41.0502H37.9267C37.9009 41.0504 37.8754 41.0557 37.8517 41.0657C37.8279 41.0758 37.8064 41.0904 37.7883 41.1087C37.7703 41.1271 37.756 41.1488 37.7463 41.1727C37.7366 41.1966 37.7317 41.2221 37.732 41.2479V47.3118C37.732 47.3118 37.1351 47.7472 36.289 47.7472C35.4429 47.7472 35.2183 47.364 35.2183 46.536V41.2479C35.2185 41.2221 35.2136 41.1965 35.2039 41.1726C35.1942 41.1487 35.1799 41.127 35.1617 41.1086C35.1436 41.0902 35.122 41.0756 35.0983 41.0656C35.0745 41.0556 35.0489 41.0503 35.0231 41.0502H32.6406C32.5884 41.0506 32.5386 41.0716 32.5019 41.1087C32.4653 41.1457 32.4448 41.1958 32.445 41.2479V46.936C32.445 49.3954 33.8173 49.997 35.7047 49.997C37.2533 49.997 38.5019 49.142 38.5019 49.142C38.5019 49.142 38.5608 49.593 38.5883 49.646C38.6158 49.6993 38.6853 49.7531 38.7611 49.7531L40.2767 49.7464C40.3025 49.7463 40.3281 49.7411 40.352 49.7311C40.3759 49.7211 40.3976 49.7065 40.4158 49.6882C40.434 49.6698 40.4485 49.6481 40.4583 49.6241C40.4681 49.6002 40.4731 49.5746 40.473 49.5487L40.4718 41.2467C40.4716 41.1947 40.4509 41.1448 40.4141 41.108C40.3774 41.0711 40.3276 41.0502 40.2755 41.0498L40.2747 41.0502ZM46.6912 40.7725C45.3578 40.7725 44.4508 41.3667 44.4508 41.3667V37.1788C44.451 37.1531 44.446 37.1276 44.4363 37.1037C44.4266 37.0798 44.4123 37.0581 44.3941 37.0398C44.376 37.0215 44.3545 37.0069 44.3307 36.9969C44.307 36.9869 44.2815 36.9817 44.2557 36.9815H41.8837C41.8578 36.9815 41.8322 36.9867 41.8083 36.9966C41.7844 37.0065 41.7627 37.0211 41.7445 37.0394C41.7262 37.0577 41.7118 37.0795 41.702 37.1034C41.6922 37.1274 41.6873 37.153 41.6874 37.1788V49.546C41.6873 49.5718 41.6922 49.5974 41.702 49.6214C41.7118 49.6453 41.7262 49.6671 41.7445 49.6854C41.7627 49.7037 41.7844 49.7183 41.8083 49.7282C41.8322 49.7381 41.8578 49.7433 41.8837 49.7433H43.5297C43.6043 49.7433 43.66 49.7052 43.7013 49.6381C43.7417 49.5715 43.801 49.0678 43.801 49.0678C43.801 49.0678 44.7708 49.9857 46.6076 49.9857C48.7632 49.9857 50 48.8937 50 45.082C50 41.2702 48.025 40.7721 46.6908 40.7721L46.6912 40.7725ZM45.7646 47.7401C44.9506 47.7154 44.3982 47.3463 44.3982 47.3463V43.4299C44.3982 43.4299 44.9432 43.0965 45.6115 43.0361C46.4568 42.9604 47.2715 43.2157 47.2715 45.2302C47.2715 47.3549 46.9044 47.7742 45.765 47.7397L45.7646 47.7401ZM20.7577 47.6938C20.6545 47.6938 20.3898 47.7358 20.1177 47.7358C19.2461 47.7358 18.9504 47.331 18.9504 46.807V43.3295H20.7251C20.751 43.3295 20.7767 43.3243 20.8006 43.3144C20.8245 43.3044 20.8463 43.2898 20.8645 43.2715C20.8828 43.2531 20.8972 43.2313 20.907 43.2073C20.9167 43.1833 20.9217 43.1577 20.9214 43.1318V41.2271C20.9216 41.2013 20.9166 41.1757 20.9067 41.1518C20.8969 41.1279 20.8825 41.1062 20.8642 41.0879C20.846 41.0696 20.8243 41.0551 20.8004 41.0452C20.7766 41.0353 20.751 41.0302 20.7251 41.0302H18.9504L18.9476 38.6886C18.9476 38.5995 18.9021 38.5552 18.7992 38.5552H16.3806C16.2871 38.5552 16.2365 38.5968 16.2365 38.6866V41.1067C16.2365 41.1067 15.0244 41.3989 14.9427 41.4224C14.9019 41.4343 14.8661 41.4591 14.8406 41.493C14.8151 41.527 14.8014 41.5683 14.8014 41.6107V43.1314C14.8012 43.1571 14.8061 43.1827 14.8159 43.2065C14.8256 43.2304 14.8399 43.2521 14.858 43.2704C14.8762 43.2887 14.8977 43.3033 14.9215 43.3133C14.9452 43.3233 14.9707 43.3285 14.9965 43.3287H16.2365V46.9874C16.2365 49.7056 18.1447 49.9723 19.4326 49.9723C20.0203 49.9723 20.7243 49.7841 20.8406 49.7409C20.9112 49.7146 20.9517 49.6421 20.9517 49.5632L20.9533 47.8903C20.9524 47.8385 20.9315 47.789 20.8949 47.7523C20.8583 47.7156 20.8088 47.6945 20.7569 47.6934L20.7577 47.6938Z"
    fill="url(#paint5_linear)" />
  <defs>
    <linearGradient id="paint0_linear" x1="6.5" y1="5" x2="47.5" y2="50" gradientUnits="userSpaceOnUse">
      <stop stop-color="#E9BD43" />
      <stop offset="0.447917" stop-color="#E9BD43" stop-opacity="0.8" />
      <stop offset="1" stop-color="#E9BD43" stop-opacity="0" />
    </linearGradient>
    <linearGradient id="paint1_linear" x1="17.4606" y1="24.0642" x2="17.4606" y2="27.8839"
      gradientUnits="userSpaceOnUse">
      <stop stop-color="#E9BD43" />
      <stop offset="1" stop-color="#E9BD43" stop-opacity="0.63" />
    </linearGradient>
    <linearGradient id="paint2_linear" x1="25" y1="36.4924" x2="25" y2="49.9998" gradientUnits="userSpaceOnUse">
      <stop offset="0.567708" stop-color="white" />
      <stop offset="1" stop-color="#7D3780" />
    </linearGradient>
    <linearGradient id="paint3_linear" x1="24.9998" y1="3.3877" x2="42" y2="36" gradientUnits="userSpaceOnUse">
      <stop stop-color="#76367B" />
      <stop offset="1" stop-color="#2E2647" />
    </linearGradient>
    <linearGradient id="paint4_linear" x1="17.4606" y1="27.0642" x2="17.4606" y2="30.8839"
      gradientUnits="userSpaceOnUse">
      <stop stop-color="#7D3780" />
      <stop offset="1" stop-color="#BC658D" stop-opacity="0" />
    </linearGradient>
    <linearGradient id="paint5_linear" x1="-10.5" y1="29.5" x2="61" y2="52.5" gradientUnits="userSpaceOnUse">
      <stop stop-color="#7D3780" />
      <stop offset="0.28125" stop-color="#7D3780" />
      <stop offset="0.505208" stop-color="#7D3780" />
      <stop offset="0.578125" stop-color="#3B2951" />
      <stop offset="0.9999" stop-color="#2F2748" />
    </linearGradient>
  </defs>
</svg>