<svg width="50" height="50" viewBox="0 0 50 50" fill="none" xmlns="http://www.w3.org/2000/svg">
  <path
    d="M49.9854 0H0.0146484C0.00655833 0 0 0.00655833 0 0.0146484V49.9854C0 49.9934 0.00655833 50 0.0146484 50H49.9854C49.9934 50 50 49.9934 50 49.9854V0.0146484C50 0.00655833 49.9934 0 49.9854 0Z"
    fill="url(#paint0_linear)" />
  <path
    d="M24.414 18.1639C19.9218 18.1639 17.6758 21.5818 17.6758 25.3904C17.6758 29.6873 20.5078 32.4217 24.3164 32.4217C28.5156 32.4217 31.4453 29.2967 31.4453 25.0975C31.4453 20.8006 28.125 18.1639 24.414 18.1639ZM24.3164 14.5506C25.3694 14.5506 26.3845 14.7146 27.3437 15.0154C29.2178 15.6031 35.2539 15.9068 35.2539 17.8709V17.8709V32.5193C35.1562 33.4959 36.2304 34.0818 36.8164 33.3983C39.2578 30.9568 42.0898 20.8983 35.4492 15.1365C29.1992 9.66778 20.8984 10.5467 16.4062 13.6717C11.7187 16.8943 8.69138 24.1209 11.6211 30.7615C14.8437 38.1834 23.9258 40.4295 29.3945 38.1834C32.1289 37.0115 33.3984 40.7225 30.5664 41.992C26.1718 43.8475 14.1601 43.6522 8.59372 33.9842C4.88278 27.3436 5.0781 15.9178 15.1367 9.76544C22.7539 5.27325 32.9101 6.54278 38.9648 12.8904C45.4101 19.6287 45.0195 32.1287 38.7695 36.9139C36.0351 39.16 31.8359 37.0115 31.8359 33.7889V33.7889C31.8359 33.3925 31.3468 33.1844 31.0404 33.4359C29.1923 34.9527 26.8652 35.8397 24.3164 35.8397C18.75 35.8397 13.7695 30.8592 13.7695 25.2928C13.7695 19.6287 18.75 14.5506 24.3164 14.5506Z"
    fill="url(#paint1_linear)" />
  <defs>
    <linearGradient id="paint0_linear" x1="25" y1="0" x2="55" y2="46" gradientUnits="userSpaceOnUse">
      <stop stop-color="#E9BD43" />
      <stop offset="0.515625" stop-color="#E9BD43" stop-opacity="0.8" />
      <stop offset="1" stop-color="#E9BD43" stop-opacity="0" />
    </linearGradient>
    <linearGradient id="paint1_linear" x1="25.0055" y1="7.09668" x2="40" y2="43" gradientUnits="userSpaceOnUse">
      <stop stop-color="#7D3780" />
      <stop offset="1" stop-color="#2F2748" />
    </linearGradient>
  </defs>
</svg>