<svg width="125" height="115" viewBox="0 0 125 115" fill="none" xmlns="http://www.w3.org/2000/svg">
  <path
    d="M41.0984 84.2893V93.5293H39.4604V85.8153L37.2204 93.5293H36.1284L33.8884 85.7873V93.5293H32.5724V84.2893H35.0364L36.8984 90.9393L38.7464 84.2893H41.0984ZM47.3636 91.5553C47.5783 91.658 47.6856 91.8586 47.6856 92.1573C47.6856 92.4933 47.5736 92.792 47.3496 93.0533C47.1256 93.3053 46.8363 93.4966 46.4816 93.6273C46.127 93.7673 45.7676 93.8373 45.4036 93.8373C44.377 93.8373 43.6163 93.506 43.1216 92.8433C42.627 92.1713 42.3796 91.2706 42.3796 90.1413C42.3796 88.9373 42.6456 87.9666 43.1776 87.2293C43.719 86.4826 44.5356 86.1093 45.6276 86.1093C46.3183 86.1093 46.8736 86.2913 47.2936 86.6553C47.7136 87.01 47.9236 87.514 47.9236 88.1673C47.9236 88.9793 47.639 89.5486 47.0696 89.8753C46.5096 90.202 45.7443 90.3653 44.7736 90.3653C44.503 90.3653 44.2463 90.356 44.0036 90.3373C44.0316 91.0746 44.153 91.6626 44.3676 92.1013C44.5916 92.54 44.9836 92.7593 45.5436 92.7593C45.9543 92.7593 46.3136 92.6566 46.6216 92.4513C46.939 92.2366 47.1863 91.938 47.3636 91.5553ZM45.4036 86.9073C44.8996 86.9073 44.545 87.1733 44.3396 87.7053C44.1343 88.228 44.0223 88.872 44.0036 89.6373C44.2836 89.656 44.489 89.6653 44.6196 89.6653C45.7956 89.6653 46.3836 89.194 46.3836 88.2513C46.3836 87.8686 46.2996 87.5513 46.1316 87.2993C45.973 87.038 45.7303 86.9073 45.4036 86.9073ZM48.4138 87.0193L48.3998 86.5993C48.8198 86.4313 49.2164 86.2073 49.5898 85.9273C49.9724 85.6473 50.2944 85.3393 50.5558 85.0033H50.9898V86.3893H52.2778V87.0193H50.9618V92.1153C50.9618 92.3953 51.0131 92.6053 51.1158 92.7453C51.2184 92.8853 51.3818 92.974 51.6058 93.0113C51.5591 93.226 51.4331 93.3986 51.2278 93.5293C51.0318 93.6693 50.8031 93.7393 50.5418 93.7393C49.7858 93.7393 49.4078 93.31 49.4078 92.4513V87.0193H48.4138ZM55.8499 86.1093C56.8953 86.1093 57.6699 86.45 58.1739 87.1313C58.6779 87.8033 58.9299 88.7133 58.9299 89.8613C58.9299 91.084 58.6873 92.0546 58.2019 92.7733C57.7166 93.4826 56.9326 93.8373 55.8499 93.8373C54.7859 93.8373 54.0066 93.4966 53.5119 92.8153C53.0266 92.134 52.7839 91.196 52.7839 90.0013C52.7839 88.844 53.0359 87.906 53.5399 87.1873C54.0439 86.4686 54.8139 86.1093 55.8499 86.1093ZM55.8499 92.9973C56.4286 92.9973 56.8066 92.7126 56.9839 92.1433C57.1613 91.574 57.2499 90.8366 57.2499 89.9313C57.2499 89.1006 57.1519 88.396 56.9559 87.8173C56.7693 87.2386 56.4006 86.9493 55.8499 86.9493C54.9259 86.9493 54.4639 87.9433 54.4639 89.9313C54.4639 90.8366 54.5479 91.574 54.7159 92.1433C54.8933 92.7126 55.2713 92.9973 55.8499 92.9973ZM65.719 92.3813C65.719 92.8386 65.8636 93.1466 66.153 93.3053C66.0783 93.4453 65.9663 93.5526 65.817 93.6273C65.677 93.702 65.5136 93.7393 65.327 93.7393C65.0563 93.7393 64.8323 93.6646 64.655 93.5153C64.4776 93.3566 64.3703 93.1466 64.333 92.8853C64.1836 93.1933 63.941 93.4266 63.605 93.5853C63.2783 93.7533 62.9236 93.8373 62.541 93.8373C61.589 93.8373 60.8983 93.4733 60.469 92.7453C60.0396 92.0173 59.825 91.084 59.825 89.9453C59.825 88.7693 60.077 87.836 60.581 87.1453C61.0943 86.4546 61.8876 86.1093 62.961 86.1093C63.409 86.1093 63.815 86.17 64.179 86.2913V83.7293L65.719 83.5613V92.3813ZM64.179 87.3833C63.7496 87.094 63.3203 86.9493 62.891 86.9493C62.3216 86.9493 61.9483 87.22 61.771 87.7613C61.5936 88.3026 61.505 89.0073 61.505 89.8753C61.505 90.706 61.6076 91.42 61.813 92.0173C62.0183 92.6053 62.3963 92.8993 62.947 92.8993C63.3576 92.8993 63.6656 92.7453 63.871 92.4373C64.0763 92.12 64.179 91.728 64.179 91.2613V87.3833ZM70.2738 86.1093C71.3191 86.1093 72.0938 86.45 72.5978 87.1313C73.1018 87.8033 73.3538 88.7133 73.3538 89.8613C73.3538 91.084 73.1111 92.0546 72.6258 92.7733C72.1404 93.4826 71.3564 93.8373 70.2738 93.8373C69.2098 93.8373 68.4304 93.4966 67.9358 92.8153C67.4504 92.134 67.2078 91.196 67.2078 90.0013C67.2078 88.844 67.4598 87.906 67.9638 87.1873C68.4678 86.4686 69.2378 86.1093 70.2738 86.1093ZM70.2738 92.9973C70.8524 92.9973 71.2304 92.7126 71.4078 92.1433C71.5851 91.574 71.6738 90.8366 71.6738 89.9313C71.6738 89.1006 71.5758 88.396 71.3798 87.8173C71.1931 87.2386 70.8244 86.9493 70.2738 86.9493C69.3498 86.9493 68.8878 87.9433 68.8878 89.9313C68.8878 90.8366 68.9718 91.574 69.1398 92.1433C69.3171 92.7126 69.6951 92.9973 70.2738 92.9973ZM76.2928 83.5613V92.3813C76.2928 92.8386 76.4374 93.1466 76.7268 93.3053C76.6521 93.4453 76.5261 93.5526 76.3488 93.6273C76.1808 93.702 76.0034 93.7393 75.8168 93.7393C75.4621 93.7393 75.1961 93.6366 75.0188 93.4313C74.8414 93.226 74.7528 92.9366 74.7528 92.5633V83.7293L76.2928 83.5613ZM80.8421 86.1093C81.8875 86.1093 82.6621 86.45 83.1661 87.1313C83.6701 87.8033 83.9221 88.7133 83.9221 89.8613C83.9221 91.084 83.6795 92.0546 83.1941 92.7733C82.7088 93.4826 81.9248 93.8373 80.8421 93.8373C79.7781 93.8373 78.9988 93.4966 78.5041 92.8153C78.0188 92.134 77.7761 91.196 77.7761 90.0013C77.7761 88.844 78.0281 87.906 78.5321 87.1873C79.0361 86.4686 79.8061 86.1093 80.8421 86.1093ZM80.8421 92.9973C81.4208 92.9973 81.7988 92.7126 81.9761 92.1433C82.1535 91.574 82.2421 90.8366 82.2421 89.9313C82.2421 89.1006 82.1441 88.396 81.9481 87.8173C81.7615 87.2386 81.3928 86.9493 80.8421 86.9493C79.9181 86.9493 79.4561 87.9433 79.4561 89.9313C79.4561 90.8366 79.5401 91.574 79.7081 92.1433C79.8855 92.7126 80.2635 92.9973 80.8421 92.9973ZM87.8271 95.5033C88.2565 95.5033 88.5738 95.354 88.7791 95.0553C88.9845 94.766 89.1105 94.416 89.1571 94.0053C89.2038 93.5946 89.2271 93.0766 89.2271 92.4513V92.0733C89.0498 92.3346 88.8071 92.5306 88.4991 92.6613C88.1911 92.792 87.8645 92.8573 87.5191 92.8573C86.6045 92.8573 85.9325 92.5493 85.5031 91.9333C85.0831 91.3173 84.8731 90.4913 84.8731 89.4553C84.8731 88.4006 85.1298 87.5793 85.6431 86.9913C86.1565 86.4033 86.9171 86.1093 87.9251 86.1093C88.3918 86.1093 88.8631 86.198 89.3391 86.3753L90.7111 86.2213V92.1153C90.7111 93.0206 90.6271 93.7766 90.4591 94.3833C90.3005 94.99 89.9971 95.466 89.5491 95.8113C89.1105 96.1566 88.4945 96.3293 87.7011 96.3293C87.0385 96.3293 86.4691 96.1986 85.9931 95.9373C85.5265 95.676 85.2931 95.2746 85.2931 94.7333C85.2931 94.416 85.3911 94.1733 85.5871 94.0053C85.7831 93.8373 86.0491 93.7533 86.3851 93.7533C86.6278 93.7533 86.8145 93.8046 86.9451 93.9073C86.8798 94.1033 86.8471 94.3133 86.8471 94.5373C86.8471 95.1813 87.1738 95.5033 87.8271 95.5033ZM89.1711 87.3973C88.7325 87.0986 88.2985 86.9493 87.8691 86.9493C87.3558 86.9493 87.0011 87.178 86.8051 87.6353C86.6185 88.0926 86.5251 88.676 86.5251 89.3853C86.5251 90.1413 86.6185 90.7526 86.8051 91.2193C87.0011 91.686 87.3745 91.9193 87.9251 91.9193C88.3451 91.9193 88.6578 91.7653 88.8631 91.4573C89.0685 91.1493 89.1711 90.7573 89.1711 90.2813V87.3973ZM94.0649 92.3813C94.0649 92.8386 94.2096 93.1466 94.4989 93.3053C94.4242 93.4453 94.3029 93.5526 94.1349 93.6273C93.9669 93.702 93.7849 93.7393 93.5889 93.7393C93.2342 93.7393 92.9682 93.6366 92.7909 93.4313C92.6136 93.226 92.5249 92.9366 92.5249 92.5633V86.3893H94.0649V92.3813ZM94.5549 82.9033C94.7416 82.95 94.8956 83.048 95.0169 83.1973C95.1476 83.3466 95.2129 83.5146 95.2129 83.7013C95.2129 83.9533 95.1009 84.168 94.8769 84.3453C94.6529 84.5226 94.3682 84.686 94.0229 84.8353L92.4969 85.5213L92.1469 85.0313L94.5549 82.9033ZM99.7649 92.8853C99.5875 93.212 99.3262 93.45 98.9809 93.5993C98.6449 93.758 98.2622 93.8373 97.8329 93.8373C97.1889 93.8373 96.6475 93.6413 96.2089 93.2493C95.7795 92.8573 95.5649 92.3486 95.5649 91.7233C95.5649 90.2113 96.9135 89.4553 99.6109 89.4553V88.2373C99.6109 87.7706 99.5409 87.4253 99.4009 87.2013C99.2609 86.968 98.9949 86.8513 98.6029 86.8513C98.2762 86.8513 98.0055 86.94 97.7909 87.1173C97.5762 87.2853 97.4689 87.5233 97.4689 87.8313C97.4689 88.0273 97.5062 88.2373 97.5809 88.4613C97.4502 88.564 97.2635 88.6153 97.0209 88.6153C96.6849 88.6153 96.4189 88.5313 96.2229 88.3633C96.0269 88.1953 95.9289 87.9526 95.9289 87.6353C95.9289 87.1873 96.1809 86.8233 96.6849 86.5433C97.1889 86.254 97.8609 86.1093 98.7009 86.1093C99.3169 86.1093 99.8022 86.2026 100.157 86.3893C100.512 86.5666 100.764 86.8466 100.913 87.2293C101.072 87.6026 101.151 88.1066 101.151 88.7413V92.3813C101.151 92.8386 101.296 93.1466 101.585 93.3053C101.51 93.4453 101.398 93.5526 101.249 93.6273C101.109 93.702 100.946 93.7393 100.759 93.7393C100.488 93.7393 100.264 93.6646 100.087 93.5153C99.9095 93.3566 99.8022 93.1466 99.7649 92.8853ZM98.3789 92.8993C98.7895 92.8993 99.0975 92.7453 99.3029 92.4373C99.5082 92.12 99.6109 91.728 99.6109 91.2613V90.1553C98.0335 90.1553 97.2449 90.6593 97.2449 91.6673C97.2449 92.0406 97.3429 92.3393 97.5389 92.5633C97.7442 92.7873 98.0242 92.8993 98.3789 92.8993ZM105.239 86.8513C104.959 86.8513 104.735 86.926 104.567 87.0753C104.399 87.2153 104.315 87.4206 104.315 87.6913C104.315 88.0553 104.436 88.354 104.679 88.5873C104.931 88.8113 105.314 89.0633 105.827 89.3433C106.238 89.5673 106.564 89.768 106.807 89.9453C107.059 90.1226 107.274 90.3513 107.451 90.6313C107.628 90.902 107.717 91.2333 107.717 91.6253C107.717 92.3346 107.46 92.8806 106.947 93.2633C106.443 93.646 105.799 93.8373 105.015 93.8373C104.334 93.8373 103.76 93.7206 103.293 93.4873C102.836 93.254 102.607 92.8666 102.607 92.3253C102.607 92.008 102.705 91.7653 102.901 91.5973C103.097 91.4293 103.363 91.3453 103.699 91.3453C103.942 91.3453 104.128 91.3966 104.259 91.4993C104.184 91.7233 104.147 91.9333 104.147 92.1293C104.147 92.428 104.24 92.666 104.427 92.8433C104.614 93.0113 104.866 93.0953 105.183 93.0953C105.528 93.0953 105.79 93.0066 105.967 92.8293C106.154 92.6426 106.247 92.372 106.247 92.0173C106.247 91.6533 106.121 91.3593 105.869 91.1353C105.626 90.902 105.248 90.6453 104.735 90.3653C104.324 90.132 103.993 89.9266 103.741 89.7493C103.498 89.572 103.288 89.348 103.111 89.0773C102.934 88.7973 102.845 88.4613 102.845 88.0693C102.845 87.444 103.097 86.9633 103.601 86.6273C104.105 86.282 104.716 86.1093 105.435 86.1093C106.098 86.1093 106.639 86.2306 107.059 86.4733C107.488 86.7066 107.703 87.094 107.703 87.6353C107.703 87.9526 107.6 88.1953 107.395 88.3633C107.199 88.5313 106.933 88.6153 106.597 88.6153C106.354 88.6153 106.168 88.564 106.037 88.4613C106.112 88.2373 106.149 88.0273 106.149 87.8313C106.149 87.5233 106.07 87.2853 105.911 87.1173C105.762 86.94 105.538 86.8513 105.239 86.8513ZM57.7085 101.289L60.1025 110.529H58.4505L57.8905 108.177H55.1465L54.6005 110.529H53.0605L55.6225 101.289H57.7085ZM55.3985 107.141H57.6525L56.5185 102.339L55.3985 107.141ZM58.4785 98.8113C58.5999 98.8953 58.6979 99.0026 58.7725 99.1333C58.8472 99.2546 58.8845 99.3853 58.8845 99.5253C58.8845 99.8613 58.7445 100.09 58.4645 100.211C58.1845 100.333 57.8065 100.412 57.3305 100.449L55.6645 100.575L55.5105 99.9873L58.4785 98.8113ZM63.5596 112.503C63.9889 112.503 64.3062 112.354 64.5116 112.055C64.7169 111.766 64.8429 111.416 64.8896 111.005C64.9362 110.595 64.9596 110.077 64.9596 109.451V109.073C64.7822 109.335 64.5396 109.531 64.2316 109.661C63.9236 109.792 63.5969 109.857 63.2516 109.857C62.3369 109.857 61.6649 109.549 61.2356 108.933C60.8156 108.317 60.6056 107.491 60.6056 106.455C60.6056 105.401 60.8622 104.579 61.3756 103.991C61.8889 103.403 62.6496 103.109 63.6576 103.109C64.1242 103.109 64.5956 103.198 65.0716 103.375L66.4436 103.221V109.115C66.4436 110.021 66.3596 110.777 66.1916 111.383C66.0329 111.99 65.7296 112.466 65.2816 112.811C64.8429 113.157 64.2269 113.329 63.4336 113.329C62.7709 113.329 62.2016 113.199 61.7256 112.937C61.2589 112.676 61.0256 112.275 61.0256 111.733C61.0256 111.416 61.1236 111.173 61.3196 111.005C61.5156 110.837 61.7816 110.753 62.1176 110.753C62.3602 110.753 62.5469 110.805 62.6776 110.907C62.6122 111.103 62.5796 111.313 62.5796 111.537C62.5796 112.181 62.9062 112.503 63.5596 112.503ZM64.9036 104.397C64.4649 104.099 64.0309 103.949 63.6016 103.949C63.0882 103.949 62.7336 104.178 62.5376 104.635C62.3509 105.093 62.2576 105.676 62.2576 106.385C62.2576 107.141 62.3509 107.753 62.5376 108.219C62.7336 108.686 63.1069 108.919 63.6576 108.919C64.0776 108.919 64.3902 108.765 64.5956 108.457C64.8009 108.149 64.9036 107.757 64.9036 107.281V104.397ZM69.0693 100.449C69.3773 100.449 69.6247 100.524 69.8113 100.673C70.0073 100.823 70.1053 101.037 70.1053 101.317C70.1053 101.607 70.0027 101.831 69.7973 101.989C69.6013 102.139 69.3447 102.213 69.0273 102.213C68.7193 102.213 68.472 102.139 68.2853 101.989C68.0987 101.84 68.0053 101.625 68.0053 101.345C68.0053 101.056 68.1033 100.837 68.2993 100.687C68.5047 100.529 68.7613 100.449 69.0693 100.449ZM69.7973 109.381C69.7973 109.839 69.942 110.147 70.2313 110.305C70.1567 110.445 70.0353 110.553 69.8673 110.627C69.6993 110.702 69.5173 110.739 69.3213 110.739C68.9667 110.739 68.7007 110.637 68.5233 110.431C68.346 110.226 68.2573 109.937 68.2573 109.563V103.389H69.7973V109.381ZM73.2713 100.561V109.381C73.2713 109.839 73.416 110.147 73.7053 110.305C73.6306 110.445 73.5046 110.553 73.3273 110.627C73.1593 110.702 72.982 110.739 72.7953 110.739C72.4406 110.739 72.1746 110.637 71.9973 110.431C71.82 110.226 71.7313 109.937 71.7313 109.563V100.729L73.2713 100.561ZM79.7386 108.555C79.9533 108.658 80.0606 108.859 80.0606 109.157C80.0606 109.493 79.9486 109.792 79.7246 110.053C79.5006 110.305 79.2113 110.497 78.8566 110.627C78.502 110.767 78.1426 110.837 77.7786 110.837C76.752 110.837 75.9913 110.506 75.4966 109.843C75.002 109.171 74.7546 108.271 74.7546 107.141C74.7546 105.937 75.0206 104.967 75.5526 104.229C76.094 103.483 76.9106 103.109 78.0026 103.109C78.6933 103.109 79.2486 103.291 79.6686 103.655C80.0886 104.01 80.2986 104.514 80.2986 105.167C80.2986 105.979 80.014 106.549 79.4446 106.875C78.8846 107.202 78.1193 107.365 77.1486 107.365C76.878 107.365 76.6213 107.356 76.3786 107.337C76.4066 108.075 76.528 108.663 76.7426 109.101C76.9666 109.54 77.3586 109.759 77.9186 109.759C78.3293 109.759 78.6886 109.657 78.9966 109.451C79.314 109.237 79.5613 108.938 79.7386 108.555ZM77.7786 103.907C77.2746 103.907 76.92 104.173 76.7146 104.705C76.5093 105.228 76.3973 105.872 76.3786 106.637C76.6586 106.656 76.864 106.665 76.9946 106.665C78.1706 106.665 78.7586 106.194 78.7586 105.251C78.7586 104.869 78.6746 104.551 78.5066 104.299C78.348 104.038 78.1053 103.907 77.7786 103.907ZM83.9108 103.851C83.6308 103.851 83.4068 103.926 83.2388 104.075C83.0708 104.215 82.9868 104.421 82.9868 104.691C82.9868 105.055 83.1081 105.354 83.3508 105.587C83.6028 105.811 83.9854 106.063 84.4988 106.343C84.9094 106.567 85.2361 106.768 85.4788 106.945C85.7308 107.123 85.9454 107.351 86.1228 107.631C86.3001 107.902 86.3888 108.233 86.3888 108.625C86.3888 109.335 86.1321 109.881 85.6188 110.263C85.1148 110.646 84.4708 110.837 83.6868 110.837C83.0054 110.837 82.4314 110.721 81.9648 110.487C81.5074 110.254 81.2788 109.867 81.2788 109.325C81.2788 109.008 81.3768 108.765 81.5728 108.597C81.7688 108.429 82.0348 108.345 82.3708 108.345C82.6134 108.345 82.8001 108.397 82.9308 108.499C82.8561 108.723 82.8188 108.933 82.8188 109.129C82.8188 109.428 82.9121 109.666 83.0988 109.843C83.2854 110.011 83.5374 110.095 83.8548 110.095C84.2001 110.095 84.4614 110.007 84.6388 109.829C84.8254 109.643 84.9188 109.372 84.9188 109.017C84.9188 108.653 84.7928 108.359 84.5408 108.135C84.2981 107.902 83.9201 107.645 83.4068 107.365C82.9961 107.132 82.6648 106.927 82.4128 106.749C82.1701 106.572 81.9601 106.348 81.7828 106.077C81.6054 105.797 81.5168 105.461 81.5168 105.069C81.5168 104.444 81.7688 103.963 82.2728 103.627C82.7768 103.282 83.3881 103.109 84.1068 103.109C84.7694 103.109 85.3108 103.231 85.7308 103.473C86.1601 103.707 86.3748 104.094 86.3748 104.635C86.3748 104.953 86.2721 105.195 86.0668 105.363C85.8708 105.531 85.6048 105.615 85.2688 105.615C85.0261 105.615 84.8394 105.564 84.7088 105.461C84.7834 105.237 84.8208 105.027 84.8208 104.831C84.8208 104.523 84.7414 104.285 84.5828 104.117C84.4334 103.94 84.2094 103.851 83.9108 103.851Z"
    fill="#E9BD43" />
  <path
    d="M120.831 0.347656H19.5705C18.7303 0.348575 17.9247 0.682759 17.3306 1.27688C16.7365 1.87101 16.4023 2.67655 16.4014 3.51677V56.939C16.4023 57.7792 16.7365 58.5847 17.3306 59.1789C17.9247 59.773 18.7303 60.1072 19.5705 60.1081H120.831C121.671 60.1072 122.477 59.773 123.071 59.1789C123.665 58.5847 123.999 57.7792 124 56.939V3.51677C123.999 2.67655 123.665 1.87101 123.071 1.27688C122.477 0.682759 121.671 0.348575 120.831 0.347656ZM123.699 56.939C123.698 57.6992 123.396 58.4281 122.858 58.9657C122.32 59.5033 121.591 59.8056 120.831 59.8063H19.5705C18.8102 59.8056 18.0813 59.5033 17.5438 58.9657C17.0062 58.4281 16.7039 57.6992 16.7032 56.939V3.51677C16.7039 2.75653 17.0062 2.02762 17.5438 1.49005C18.0813 0.952475 18.8102 0.650165 19.5705 0.649477H120.831C121.591 0.650165 122.32 0.952475 122.858 1.49005C123.396 2.02762 123.698 2.75653 123.699 3.51677V56.939Z"
    fill="#FAEEE7" />
  <path
    d="M50.355 53.6192C50.315 53.6192 50.2766 53.6033 50.2483 53.575C50.22 53.5467 50.2041 53.5084 50.2041 53.4683V3.81888C50.2041 3.77886 50.22 3.74047 50.2483 3.71217C50.2766 3.68387 50.315 3.66797 50.355 3.66797C50.395 3.66797 50.4334 3.68387 50.4617 3.71217C50.49 3.74047 50.5059 3.77886 50.5059 3.81888V53.4683C50.5059 53.5084 50.49 53.5467 50.4617 53.575C50.4334 53.6033 50.395 53.6192 50.355 53.6192V53.6192Z"
    fill="#3F3D56" />
  <path
    d="M73.1431 53.6192C73.1031 53.6192 73.0647 53.6033 73.0364 53.575C73.0081 53.5467 72.9922 53.5084 72.9922 53.4683V3.81888C72.9922 3.77886 73.0081 3.74047 73.0364 3.71217C73.0647 3.68387 73.1031 3.66797 73.1431 3.66797C73.1831 3.66797 73.2215 3.68387 73.2498 3.71217C73.2781 3.74047 73.294 3.77886 73.294 3.81888V53.4683C73.294 53.5084 73.2781 53.5467 73.2498 53.575C73.2215 53.6033 73.1831 53.6192 73.1431 53.6192V53.6192Z"
    fill="#3F3D56" />
  <path
    d="M95.9302 53.6192C95.8902 53.6192 95.8518 53.6033 95.8235 53.575C95.7952 53.5467 95.7793 53.5084 95.7793 53.4683V3.81888C95.7793 3.77886 95.7952 3.74047 95.8235 3.71217C95.8518 3.68387 95.8902 3.66797 95.9302 3.66797C95.9702 3.66797 96.0086 3.68387 96.0369 3.71217C96.0652 3.74047 96.0811 3.77886 96.0811 3.81888V53.4683C96.0811 53.5084 96.0652 53.5467 96.0369 53.575C96.0086 53.6033 95.9702 53.6192 95.9302 53.6192V53.6192Z"
    fill="#3F3D56" />
  <path
    d="M35.7051 24.5822H30.1908C30.0108 24.582 29.8382 24.5104 29.7108 24.3831C29.5835 24.2557 29.5119 24.0831 29.5117 23.9031V17.3959C29.5119 17.2158 29.5835 17.0432 29.7108 16.9159C29.8382 16.7886 30.0108 16.717 30.1908 16.7168H35.7051C35.8851 16.717 36.0577 16.7886 36.185 16.9159C36.3124 17.0432 36.384 17.2158 36.3842 17.3959V23.9031C36.384 24.0831 36.3124 24.2557 36.185 24.3831C36.0577 24.5104 35.8851 24.582 35.7051 24.5822V24.5822Z"
    fill="#E9BD43" />
  <path
    d="M43.5527 43.1447H38.0385C37.8584 43.1445 37.6858 43.0729 37.5585 42.9456C37.4312 42.8182 37.3596 42.6456 37.3594 42.4656V35.9584C37.3596 35.7783 37.4312 35.6057 37.5585 35.4784C37.6858 35.3511 37.8584 35.2795 38.0385 35.2793H43.5527C43.7328 35.2795 43.9054 35.3511 44.0327 35.4784C44.16 35.6057 44.2316 35.7783 44.2318 35.9584V42.4656C44.2316 42.6456 44.16 42.8182 44.0327 42.9456C43.9054 43.0729 43.7328 43.1445 43.5527 43.1447V43.1447Z"
    fill="#E9BD43" />
  <path
    d="M61.3594 28.506H55.8451C55.6651 28.5058 55.4924 28.4342 55.3651 28.3069C55.2378 28.1796 55.1662 28.007 55.166 27.8269V21.3197C55.1662 21.1397 55.2378 20.9671 55.3651 20.8397C55.4924 20.7124 55.6651 20.6408 55.8451 20.6406H61.3594C61.5394 20.6408 61.712 20.7124 61.8393 20.8397C61.9666 20.9671 62.0383 21.1397 62.0385 21.3197V27.8269C62.0383 28.007 61.9666 28.1796 61.8393 28.3069C61.712 28.4342 61.5394 28.5058 61.3594 28.506V28.506Z"
    fill="#E9BD43" />
  <path
    d="M84.4482 21.4123H78.934C78.7539 21.4121 78.5813 21.3404 78.454 21.2131C78.3267 21.0858 78.2551 20.9132 78.2549 20.7332V14.226C78.2551 14.0459 78.3267 13.8733 78.454 13.746C78.5813 13.6187 78.7539 13.5471 78.934 13.5469H84.4482C84.6283 13.5471 84.8009 13.6187 84.9282 13.746C85.0555 13.8733 85.1271 14.0459 85.1273 14.226V20.7332C85.1271 20.9132 85.0555 21.0858 84.9282 21.2131C84.8009 21.3404 84.6283 21.4121 84.4482 21.4123V21.4123Z"
    fill="#E9BD43" />
  <path
    d="M105.728 21.4123H100.213C100.033 21.4121 99.8606 21.3404 99.7333 21.2131C99.606 21.0858 99.5344 20.9132 99.5342 20.7332V14.226C99.5344 14.0459 99.606 13.8733 99.7333 13.746C99.8606 13.6187 100.033 13.5471 100.213 13.5469H105.728C105.908 13.5471 106.08 13.6187 106.207 13.746C106.335 13.8733 106.406 14.0459 106.407 14.226V20.7332C106.406 20.9132 106.335 21.0858 106.207 21.2131C106.08 21.3404 105.908 21.4121 105.728 21.4123V21.4123Z"
    fill="#E9BD43" />
  <path
    d="M115.536 23.2248H110.022C109.842 23.2246 109.669 23.1529 109.542 23.0256C109.415 22.8983 109.343 22.7257 109.343 22.5457V16.0385C109.343 15.8584 109.415 15.6858 109.542 15.5585C109.669 15.4312 109.842 15.3596 110.022 15.3594H115.536C115.716 15.3596 115.889 15.4312 116.016 15.5585C116.143 15.6858 116.215 15.8584 116.215 16.0385V22.5457C116.215 22.7257 116.143 22.8983 116.016 23.0256C115.889 23.1529 115.716 23.2246 115.536 23.2248Z"
    fill="#E6E6E6" />
  <path
    d="M111.16 34.8439H105.646C105.466 34.8437 105.293 34.7721 105.166 34.6448C105.039 34.5175 104.967 34.3448 104.967 34.1648V27.6576C104.967 27.4776 105.039 27.305 105.166 27.1776C105.293 27.0503 105.466 26.9787 105.646 26.9785H111.16C111.34 26.9787 111.513 27.0503 111.64 27.1776C111.767 27.305 111.839 27.4776 111.839 27.6576V34.1648C111.839 34.3448 111.767 34.5175 111.64 34.6448C111.513 34.7721 111.34 34.8437 111.16 34.8439Z"
    fill="#E6E6E6" />
  <path
    d="M92.4473 32.4298H86.933C86.753 32.4296 86.5803 32.358 86.453 32.2307C86.3257 32.1034 86.2541 31.9308 86.2539 31.7507V25.2435C86.2541 25.0635 86.3257 24.8909 86.453 24.7636C86.5803 24.6363 86.753 24.5647 86.933 24.5645H92.4473C92.6273 24.5647 92.7999 24.6363 92.9272 24.7636C93.0545 24.8909 93.1261 25.0635 93.1264 25.2435V31.7507C93.1261 31.9308 93.0545 32.1034 92.9272 32.2307C92.7999 32.358 92.6273 32.4296 92.4473 32.4298Z"
    fill="#FF6584" />
  <path
    d="M81.7324 34.8439H76.2182C76.0381 34.8437 75.8655 34.7721 75.7382 34.6448C75.6109 34.5175 75.5393 34.3448 75.5391 34.1648V27.6576C75.5393 27.4776 75.6109 27.305 75.7382 27.1776C75.8655 27.0503 76.0381 26.9787 76.2182 26.9785H81.7324C81.9125 26.9787 82.0851 27.0503 82.2124 27.1776C82.3397 27.305 82.4113 27.4776 82.4115 27.6576V34.1648C82.4113 34.3448 82.3397 34.5175 82.2124 34.6448C82.0851 34.7721 81.9125 34.8437 81.7324 34.8439V34.8439Z"
    fill="#E6E6E6" />
  <path
    d="M58.6435 45.1056H53.1293C52.9492 45.1054 52.7766 45.0338 52.6493 44.9065C52.522 44.7792 52.4504 44.6066 52.4502 44.4265V37.9193C52.4504 37.7393 52.522 37.5667 52.6493 37.4394C52.7766 37.312 52.9492 37.2404 53.1293 37.2402H58.6435C58.8236 37.2404 58.9962 37.312 59.1235 37.4394C59.2508 37.5667 59.3224 37.7393 59.3226 37.9193V44.4265C59.3224 44.6066 59.2508 44.7792 59.1235 44.9065C58.9962 45.0338 58.8236 45.1054 58.6435 45.1056Z"
    fill="#E6E6E6" />
  <path
    d="M30.7246 36.5041H25.2103C25.0303 36.5039 24.8577 36.4322 24.7304 36.3049C24.6031 36.1776 24.5314 36.005 24.5312 35.825V29.3178C24.5314 29.1377 24.6031 28.9651 24.7304 28.8378C24.8577 28.7105 25.0303 28.6389 25.2103 28.6387H30.7246C30.9047 28.6389 31.0773 28.7105 31.2046 28.8378C31.3319 28.9651 31.4035 29.1377 31.4037 29.3178V35.825C31.4035 36.005 31.3319 36.1776 31.2046 36.3049C31.0773 36.4322 30.9047 36.5039 30.7246 36.5041V36.5041Z"
    fill="#FF6584" />
  <path
    d="M46.2686 24.5822H40.7543C40.5742 24.582 40.4016 24.5104 40.2743 24.3831C40.147 24.2557 40.0754 24.0831 40.0752 23.9031V17.3959C40.0754 17.2158 40.147 17.0432 40.2743 16.9159C40.4016 16.7886 40.5742 16.717 40.7543 16.7168H46.2686C46.4486 16.717 46.6212 16.7886 46.7485 16.9159C46.8758 17.0432 46.9474 17.2158 46.9476 17.3959V23.9031C46.9474 24.0831 46.8758 24.2557 46.7485 24.3831C46.6212 24.5104 46.4486 24.582 46.2686 24.5822V24.5822Z"
    fill="#E6E6E6" />
  <path
    d="M22.4878 50.7342C22.267 50.7126 22.0537 50.6429 21.8628 50.5298C21.6718 50.4168 21.508 50.2633 21.3829 50.0802C21.2577 49.897 21.1742 49.6886 21.1383 49.4697C21.1023 49.2508 21.1148 49.0267 21.1749 48.8131L17.3066 45.2122L19.3519 44.6934L23.1557 47.7785C23.5078 47.9032 23.8019 48.1527 23.9823 48.4798C24.1627 48.8068 24.2169 49.1887 24.1346 49.553C24.0523 49.9174 23.8392 50.2388 23.5357 50.4565C23.2321 50.6743 22.8593 50.7731 22.4878 50.7342V50.7342Z"
    fill="#FFB8B8" />
  <path d="M27.8294 77.3491H29.6796L30.5597 70.2129H27.8291L27.8294 77.3491Z" fill="#FFB8B8" />
  <path
    d="M33.2471 79.0684L27.4324 79.0686L27.4323 76.822L31.0004 76.8219C31.5962 76.8218 32.1677 77.0585 32.589 77.4798C33.0103 77.9011 33.247 78.4725 33.2471 79.0684V79.0684L33.2471 79.0684Z"
    fill="#2F2E41" />
  <path d="M15.1436 76.0132L16.9315 76.4892L19.6179 69.8195L16.9792 69.1172L15.1436 76.0132Z" fill="#FFB8B8" />
  <path
    d="M19.9375 79.0684L14.3185 77.5727L14.8963 75.4017L18.3444 76.3195C18.9202 76.4728 19.4115 76.8485 19.7102 77.364C20.009 77.8795 20.0908 78.4926 19.9375 79.0684V79.0684V79.0684Z"
    fill="#2F2E41" />
  <path
    d="M30.1766 75.998H27.3535C27.1752 75.9987 27.0031 75.9325 26.8711 75.8126C26.7391 75.6927 26.6568 75.5277 26.6403 75.3502L24.9265 57.5531C24.9139 57.4225 24.8564 57.3004 24.7637 57.2076C24.6711 57.1148 24.549 57.0571 24.4185 57.0444C24.288 57.0316 24.1571 57.0646 24.0482 57.1378C23.9393 57.2109 23.8593 57.3196 23.8217 57.4452L18.8457 74.0754C18.793 74.2522 18.6742 74.4018 18.5139 74.4931C18.3537 74.5843 18.1643 74.6102 17.9855 74.5653L15.3592 73.9086C15.2675 73.8857 15.1813 73.8449 15.1054 73.7885C15.0296 73.7321 14.9657 73.6613 14.9173 73.5802C14.869 73.499 14.8372 73.4091 14.8237 73.3155C14.8103 73.222 14.8154 73.1267 14.8389 73.0352C14.8818 72.8677 19.1264 56.2799 19.1635 56.1094C20.1252 49.0215 21.2758 47.1222 21.8939 46.1019C21.9451 46.0175 21.9921 45.9398 22.0344 45.8664C22.0874 45.7746 22.4136 44.8637 22.6205 44.2721C22.6473 44.1759 22.6939 44.0863 22.7571 44.0089C22.8204 43.9316 22.899 43.8682 22.9879 43.8228C25.5852 42.4945 28.624 43.414 29.4935 43.7274C29.6377 43.7782 29.7615 43.8743 29.8464 44.0014C32.4548 47.9358 31.1747 70.7866 30.8916 75.3275C30.8798 75.5091 30.7994 75.6795 30.6666 75.804C30.5338 75.9285 30.3587 75.9979 30.1766 75.998V75.998Z"
    fill="#2F2E41" />
  <path
    d="M22.8911 30.9189C24.9381 30.9189 26.5976 29.2594 26.5976 27.2124C26.5976 25.1653 24.9381 23.5059 22.8911 23.5059C20.844 23.5059 19.1846 25.1653 19.1846 27.2124C19.1846 29.2594 20.844 30.9189 22.8911 30.9189Z"
    fill="#FFB8B8" />
  <path
    d="M22.4985 44.9917L22.4718 44.9659C22.4219 44.9175 17.4834 40.0794 18.1225 35.6058C18.3958 33.6923 19.944 32.4697 22.5997 32.0698C23.5753 31.9249 24.5704 32.137 25.4022 32.6672C26.2339 33.1973 26.8463 34.0098 27.1269 34.9554L29.7528 43.9322L22.4985 44.9917Z"
    fill="#CCCCCC" />
  <path
    d="M19.9712 48.4333L16.4522 44.9366C16.2116 44.6961 16.0369 44.3978 15.9449 44.0703C15.853 43.7428 15.8468 43.3971 15.9271 43.0666L17.6306 36.1369C17.6817 35.9293 17.7748 35.7343 17.9042 35.5641C18.0336 35.3939 18.1966 35.252 18.383 35.1473C18.5695 35.0427 18.7754 34.9774 18.9881 34.9555C19.2008 34.9336 19.4158 34.9556 19.6196 35.0201C20.0082 35.1454 20.3327 35.4169 20.5245 35.7773C20.7163 36.1377 20.7603 36.5586 20.6472 36.9509L18.8537 43.0471L21.7539 46.1614L19.9712 48.4333Z"
    fill="#CCCCCC" />
  <path
    d="M38.8452 36.5008C38.7522 36.7022 38.6161 36.8807 38.4466 37.0238C38.2771 37.1669 38.0783 37.2712 37.8641 37.3291C37.65 37.3871 37.4257 37.3974 37.2072 37.3593C36.9886 37.3212 36.781 37.2357 36.5991 37.1087L31.9014 39.5436L32.109 37.4752L36.2737 34.8979C36.5072 34.6064 36.8396 34.4107 37.2078 34.3479C37.576 34.2851 37.9544 34.3595 38.2714 34.5571C38.5884 34.7547 38.8219 35.0617 38.9276 35.4199C39.0334 35.7781 39.0041 36.1627 38.8452 36.5008H38.8452Z"
    fill="#FFB8B8" />
  <path
    d="M36.0859 38.0396L31.5063 40.0186C31.2015 40.1493 30.8682 40.1993 30.5384 40.1639C30.2087 40.1286 29.8936 40.009 29.6234 39.8166L23.7999 35.6441C23.6261 35.5195 23.4797 35.3606 23.3698 35.1772C23.2599 34.9938 23.1888 34.7898 23.1608 34.5779C23.1329 34.3659 23.1488 34.1504 23.2075 33.9448C23.2662 33.7392 23.3665 33.5478 23.5021 33.3825C23.7628 33.0683 24.1355 32.8678 24.5414 32.8237C24.9473 32.7795 25.3544 32.8951 25.6765 33.1459L30.6699 37.0759L34.6389 35.5404L36.0859 38.0396Z"
    fill="#CCCCCC" />
  <path
    d="M23.5052 28.4017C23.9625 27.8288 24.8168 27.798 25.4448 27.4201C26.2676 26.925 26.6077 25.8188 26.3426 24.8959C26.0775 23.9731 25.2956 23.2539 24.3991 22.9099C23.5027 22.5659 22.5053 22.5617 21.5596 22.728C20.1516 22.9755 18.7653 23.6327 17.9066 24.7757C17.0478 25.9186 16.8293 27.5925 17.6076 28.7917C17.9653 29.3429 18.5174 29.7979 18.6602 30.4392C18.8477 31.2813 18.2571 32.0933 17.6244 32.6797C16.9035 33.3476 16.0765 33.9071 15.4449 34.66C14.8134 35.413 14.3922 36.4417 14.6804 37.3813C14.9219 38.1685 15.6245 38.7484 16.395 39.0389C17.1654 39.3293 18.0046 39.3713 18.8278 39.3874C19.6272 39.403 20.4763 39.3836 21.1497 38.9526C21.8706 38.4911 22.2556 37.6158 22.284 36.7603C22.3124 35.9048 22.0266 35.0667 21.6435 34.3013C21.4151 33.8451 21.1496 33.403 20.9978 32.9159C20.8461 32.4288 20.8198 31.8761 21.0628 31.4275C21.3182 30.956 21.835 30.6716 22.3613 30.5682C22.3886 30.5628 22.4175 30.558 22.4478 30.5537C22.5975 30.5343 22.7417 30.4847 22.8717 30.408C23.0018 30.3312 23.1148 30.2289 23.2042 30.1072C23.2935 29.9855 23.3573 29.8469 23.3915 29.6999C23.4258 29.5529 23.4299 29.4004 23.4035 29.2517C23.3436 28.9176 23.3488 28.5977 23.5052 28.4017Z"
    fill="#2F2E41" />
  <path d="M72.9246 77.5073H71.0744L70.1943 70.3711L72.9249 70.3712L72.9246 77.5073Z" fill="#A0616A" />
  <path
    d="M69.7534 76.9805H73.3215V79.2271H67.5068C67.5068 78.932 67.5649 78.6399 67.6778 78.3673C67.7907 78.0948 67.9562 77.8471 68.1648 77.6385C68.3735 77.4299 68.6211 77.2644 68.8937 77.1515C69.1663 77.0386 69.4584 76.9805 69.7534 76.9805Z"
    fill="#2F2E41" />
  <path d="M86.349 75.4131L84.6662 76.1817L80.9004 70.0564L83.3842 68.9219L86.349 75.4131Z" fill="#A0616A" />
  <path
    d="M83.2447 76.2502L86.4903 74.7678L87.4236 76.8113L82.1345 79.2271C82.012 78.9587 81.9435 78.6689 81.9329 78.374C81.9224 78.0792 81.97 77.7852 82.0731 77.5088C82.1762 77.2323 82.3327 76.9789 82.5337 76.763C82.7347 76.547 82.9763 76.3728 83.2447 76.2502V76.2502Z"
    fill="#2F2E41" />
  <path
    d="M80.9608 53.446C81.1381 53.3126 81.284 53.142 81.3881 52.9461C81.4923 52.7502 81.5523 52.5339 81.5638 52.3124C81.5753 52.0908 81.5381 51.8694 81.4548 51.6638C81.3715 51.4582 81.2442 51.2733 81.0817 51.1222L83.2566 46.1875L80.4936 46.6557L78.8519 51.2701C78.6162 51.5598 78.495 51.926 78.5112 52.2991C78.5274 52.6723 78.6799 53.0265 78.9399 53.2948C79.1998 53.563 79.5492 53.7265 79.9216 53.7544C80.2941 53.7823 80.6639 53.6726 80.9608 53.446Z"
    fill="#A0616A" />
  <path
    d="M72.8069 75.6265H71.0395C70.868 75.6259 70.7031 75.5607 70.5776 75.444C70.4521 75.3273 70.3751 75.1675 70.3621 74.9966L69.3983 49.2576C69.3911 49.159 69.4056 49.0599 69.4406 48.9675C69.4757 48.875 69.5306 48.7913 69.6014 48.7223C69.6722 48.6532 69.7572 48.6005 69.8505 48.5677C69.9438 48.5349 70.0431 48.5229 70.1415 48.5325L80.3634 49.6181C80.5291 49.6343 80.6831 49.7107 80.7961 49.833C80.9091 49.9552 80.9733 50.1147 80.9765 50.2811L81.1907 61.6349C81.1918 61.6965 81.2038 61.7575 81.226 61.815L85.419 72.6885C85.4514 72.7725 85.4668 72.8621 85.4642 72.9521C85.4617 73.0421 85.4412 73.1307 85.4041 73.2127C85.367 73.2947 85.314 73.3685 85.248 73.4299C85.1821 73.4912 85.1047 73.5388 85.0202 73.5699L83.2291 74.2298C83.0735 74.2871 82.9024 74.2855 82.7479 74.2254C82.5934 74.1652 82.4663 74.0506 82.3904 73.9032L77.2395 63.8875C77.2114 63.833 77.1909 63.775 77.1785 63.715L76.2985 59.4754C76.273 59.3525 76.2046 59.2427 76.1054 59.1656C76.0063 59.0886 75.8829 59.0494 75.7575 59.0551C75.6321 59.0608 75.5128 59.111 75.421 59.1966C75.3292 59.2823 75.271 59.3978 75.2567 59.5226L73.4816 75.0246C73.4627 75.1903 73.3835 75.3432 73.259 75.4542C73.1346 75.5652 72.9737 75.6265 72.8069 75.6265V75.6265Z"
    fill="#2F2E41" />
  <path
    d="M73.687 29.1318C75.734 29.1318 77.3935 27.4723 77.3935 25.4253C77.3935 23.3782 75.734 21.7188 73.687 21.7188C71.6399 21.7188 69.9805 23.3782 69.9805 25.4253C69.9805 27.4723 71.6399 29.1318 73.687 29.1318Z"
    fill="#A0616A" />
  <path
    d="M76.2288 51.6106C73.7153 51.5829 71.2616 50.8397 69.1552 49.4679L69.1191 49.443L69.1229 49.3993L70.5407 32.8874C70.5895 32.3272 70.8396 31.8036 71.2446 31.4135C71.6496 31.0234 72.1822 30.7932 72.7438 30.7653C74.5813 30.6809 77.0494 30.7874 78.3706 31.7714C80.3673 33.2585 81.3296 35.4979 81.0109 37.9153C80.3499 42.9283 81.0987 49.6907 81.1862 50.4452L81.1925 50.4996L81.1428 50.5225C79.6035 51.2386 77.9265 51.61 76.2288 51.6106V51.6106Z"
    fill="#E9BD43" />
  <path
    d="M81.1687 50.473C81.0643 50.4728 80.961 50.451 80.8653 50.4088C80.7697 50.3667 80.6839 50.3052 80.6133 50.2282L79.8025 49.3437C79.7149 49.2476 79.6535 49.1305 79.6242 49.0038C79.5949 48.8771 79.5986 48.7449 79.6351 48.6201L81.4839 42.3628L78.6709 36.4556C78.5396 36.1791 78.5074 35.8658 78.5798 35.5683C78.6437 35.3073 78.7851 35.0716 78.9856 34.8926C79.1861 34.7135 79.4361 34.5995 79.7027 34.5654C79.9693 34.5313 80.24 34.5789 80.479 34.7018C80.7181 34.8247 80.9142 35.0172 81.0417 35.2539L84.8589 41.4475C85.0139 41.6988 85.1049 41.9843 85.1239 42.2789C85.1428 42.5736 85.0892 42.8684 84.9675 43.1374L81.8573 50.0288C81.8061 50.1427 81.7273 50.242 81.6281 50.3179C81.5288 50.3938 81.4123 50.4438 81.2889 50.4634C81.2492 50.4697 81.209 50.473 81.1687 50.473V50.473Z"
    fill="#E9BD43" />
  <path
    d="M55.044 38.5215C55.222 38.6539 55.4269 38.7456 55.6442 38.7903C55.8615 38.8349 56.086 38.8314 56.3018 38.7799C56.5176 38.7285 56.7194 38.6303 56.8932 38.4923C57.067 38.3544 57.2083 38.1801 57.3074 37.9816L62.6554 38.6752L61.4263 36.1567L56.5363 35.8842C56.1918 35.7398 55.8063 35.7269 55.4529 35.8477C55.0995 35.9686 54.8027 36.2149 54.6187 36.54C54.4348 36.8651 54.3765 37.2463 54.4549 37.6115C54.5333 37.9767 54.7429 38.3005 55.044 38.5215V38.5215Z"
    fill="#A0616A" />
  <path
    d="M66.831 39.8961C66.7378 39.8961 66.6448 39.8897 66.5526 39.8769L58.1392 38.71C58.0017 38.6911 57.8711 38.6383 57.7591 38.5563C57.6471 38.4744 57.5573 38.3658 57.4977 38.2405C57.4785 38.2001 57.4624 38.1583 57.4497 38.1154H57.4497C57.4172 38.0039 57.4081 37.887 57.423 37.7719C57.4379 37.6568 57.4766 37.546 57.5365 37.4466L58.2327 36.2923C58.3076 36.1689 58.4129 36.0668 58.5386 35.9959C58.6643 35.9249 58.8061 35.8874 58.9504 35.8869H58.9516L66.2852 35.8953L71.7623 30.9882C72.0171 30.7604 72.3425 30.6272 72.6839 30.611C72.9837 30.5971 73.2806 30.6744 73.5355 30.8327C73.7905 30.9909 73.9914 31.2228 74.1119 31.4976C74.2324 31.7724 74.2668 32.0773 74.2105 32.372C74.1542 32.6668 74.0098 32.9375 73.7965 33.1486L68.3313 39.227C68.1422 39.4376 67.9108 39.606 67.6524 39.7213C67.3939 39.8365 67.114 39.8961 66.831 39.8961V39.8961Z"
    fill="#E9BD43" />
  <path
    d="M74.1079 28.7236C74.4467 27.9397 74.7333 26.8957 74.0836 26.3415C73.7068 26.02 73.164 26.0194 72.6703 25.9794C71.2793 25.8667 69.8474 25.2267 69.1675 24.0079C68.4876 22.7892 68.8673 20.977 70.15 20.4271C71.0146 20.0565 72.0058 20.309 72.9108 20.5656L75.6281 21.3362C76.4354 21.5651 77.2831 21.8176 77.8644 22.4229C78.7914 23.3884 78.7221 25.0204 77.9858 26.138C77.2495 27.2557 76.1407 28.4214 74.8714 28.8458L74.1079 28.7236Z"
    fill="#2F2E41" />
  <path
    d="M111.596 79.2754H0.180208C0.156567 79.2755 0.133146 79.2709 0.111285 79.2619C0.0894245 79.2529 0.0695556 79.2396 0.0528149 79.2229C0.0360742 79.2063 0.0227915 79.1864 0.0137287 79.1646C0.00466602 79.1428 0 79.1193 0 79.0957C0 79.0721 0.00466602 79.0487 0.0137287 79.0268C0.0227915 79.005 0.0360742 78.9852 0.0528149 78.9685C0.0695556 78.9518 0.0894245 78.9385 0.111285 78.9295C0.133146 78.9205 0.156567 78.9159 0.180208 78.916H111.596C111.62 78.9159 111.643 78.9205 111.665 78.9295C111.687 78.9385 111.707 78.9518 111.724 78.9685C111.74 78.9852 111.754 79.005 111.763 79.0268C111.772 79.0487 111.776 79.0721 111.776 79.0957C111.776 79.1193 111.772 79.1428 111.763 79.1646C111.754 79.1864 111.74 79.2063 111.724 79.2229C111.707 79.2396 111.687 79.2529 111.665 79.2619C111.643 79.2709 111.62 79.2755 111.596 79.2754V79.2754Z"
    fill="#3F3D56" />
</svg>