<svg width="111" height="122" viewBox="0 0 111 122" fill="none" xmlns="http://www.w3.org/2000/svg">
  <path
    d="M82.1606 88.8006C96.0359 88.8006 107.284 87.8886 107.284 86.7636C107.284 85.6386 96.0359 84.7266 82.1606 84.7266C68.2853 84.7266 57.0371 85.6386 57.0371 86.7636C57.0371 87.8886 68.2853 88.8006 82.1606 88.8006Z"
    fill="#E9BD43" />
  <path
    d="M107.285 62.4129C107.285 72.9131 101.204 76.5794 93.7043 76.5794C86.2041 76.5794 80.124 72.9131 80.124 62.4129C80.124 51.9126 93.7043 38.5547 93.7043 38.5547C93.7043 38.5547 107.285 51.9126 107.285 62.4129Z"
    fill="#F2F2F2" />
  <path
    d="M92.7735 74.9193L92.9227 66.1445L99.1363 55.2889L92.9461 64.7681L93.0132 60.8225L97.2956 52.9685L93.031 59.7784L93.1517 52.6822L97.7374 46.4296L93.1707 51.5664L93.2461 38.5547L92.7721 55.7799L92.811 55.0693L88.1487 48.2542L92.7362 56.4335L92.3019 64.3586L92.289 64.1483L86.9141 56.9764L92.2727 64.8914L92.2184 65.8824L92.2086 65.8974L92.2131 65.9787L91.1109 86.0856H92.5834L92.7602 75.7L98.1055 67.8044L92.7735 74.9193Z"
    fill="#E9BD43" />
  <path
    d="M103.21 82.0373C103.21 85.0374 101.386 86.0849 99.1356 86.0849C99.0835 86.0849 99.0314 86.0843 98.9795 86.0832C98.8752 86.081 98.772 86.0762 98.6699 86.0694C96.6392 85.9288 95.0615 84.8274 95.0615 82.0373C95.0615 79.1498 98.8353 75.5064 99.1187 75.2367L99.1192 75.2362C99.1301 75.2258 99.1356 75.2207 99.1356 75.2207C99.1356 75.2207 103.21 79.0372 103.21 82.0373Z"
    fill="#E9BD43" />
  <path
    d="M98.373 85.6276L100.15 83.5914L98.3686 85.8511L98.3638 86.0849C98.2395 86.0827 98.1163 86.0779 97.9947 86.0711L98.1862 83.0691L98.1847 83.0458L98.188 83.0414L98.206 82.7579L96.4199 80.4926L98.2117 82.5452L98.2158 82.6054L98.3606 80.3372L96.8314 77.9965L98.3792 79.9391L98.5299 75.2367L98.5305 75.2207V75.2362L98.5054 78.9444L100.028 77.4743L98.4991 79.2638L98.4589 81.2946L99.8803 79.3456L98.453 81.5934L98.4305 82.7224L100.494 80.0098L98.4228 83.1164L98.373 85.6276Z"
    fill="#3F3D56" />
  <path
    d="M31.2345 31.7632C34.9845 31.7632 38.0246 29.0272 38.0246 25.6521C38.0246 22.2771 34.9845 19.541 31.2345 19.541C27.4844 19.541 24.4443 22.2771 24.4443 25.6521C24.4443 29.0272 27.4844 31.7632 31.2345 31.7632Z"
    fill="#E9BD43" />
  <path
    d="M31.2345 33.1226C34.9845 33.1226 38.0246 30.3866 38.0246 27.0115C38.0246 23.6364 34.9845 20.9004 31.2345 20.9004C27.4844 20.9004 24.4443 23.6364 24.4443 27.0115C24.4443 30.3866 27.4844 33.1226 31.2345 33.1226Z"
    stroke="#F2F2F2" stroke-width="2" stroke-miterlimit="10" />
  <path
    d="M23.0861 16.8256L17.4883 7.62819C18.1599 6.79188 18.4984 5.74448 18.4407 4.68137C18.383 3.61827 17.933 2.61206 17.1746 1.85046C16.4163 1.08885 15.4014 0.623855 14.3193 0.542216C13.2371 0.460578 12.1617 0.767869 11.2935 1.40677C10.4254 2.04567 9.82382 2.97254 9.60106 4.01449C9.37829 5.05643 9.54953 6.14229 10.0829 7.0695C10.6162 7.99671 11.4751 8.70195 12.4995 9.05366C13.5239 9.40537 14.6437 9.37954 15.6501 8.98097L23.0861 16.8256Z"
    fill="#F2F2F2" />
  <path
    d="M14.2597 7.32017C15.3847 7.32017 16.2967 6.40816 16.2967 5.28313C16.2967 4.15811 15.3847 3.24609 14.2597 3.24609C13.1347 3.24609 12.2227 4.15811 12.2227 5.28313C12.2227 6.40816 13.1347 7.32017 14.2597 7.32017Z"
    fill="#E9BD43" />
  <path
    d="M39.3818 15.4676L46.1186 8.38807C46.9797 8.79757 47.9523 8.86206 48.855 8.5695C49.7577 8.27694 50.5289 7.64732 51.0247 6.79808C51.5205 5.94884 51.7071 4.93799 51.5496 3.95408C51.3921 2.97018 50.9013 2.08043 50.1687 1.4508C49.4362 0.821178 48.512 0.494676 47.5684 0.532207C46.6249 0.569738 45.7265 0.968738 45.0408 1.65478C44.3551 2.34081 43.929 3.26704 43.8419 4.26067C43.7549 5.2543 44.0128 6.24747 44.5676 7.05492L39.3818 15.4676Z"
    fill="#F2F2F2" />
  <path
    d="M48.2099 7.32017C49.3349 7.32017 50.2469 6.40815 50.2469 5.28313C50.2469 4.15811 49.3349 3.24609 48.2099 3.24609C47.0849 3.24609 46.1729 4.15811 46.1729 5.28313C46.1729 6.40815 47.0849 7.32017 48.2099 7.32017Z"
    fill="#E9BD43" />
  <path
    d="M43.457 31.7637L52.5141 36.685C52.3273 37.6152 52.5235 38.5747 53.066 39.3845C53.6086 40.1943 54.4604 40.7991 55.4627 41.0861C56.465 41.373 57.5492 41.3226 58.5132 40.9441C59.4771 40.5657 60.2549 39.8851 60.7015 39.0293C61.1481 38.1735 61.2329 37.2009 60.9402 36.293C60.6475 35.3851 59.9973 34.6039 59.1108 34.0951C58.2242 33.5863 57.162 33.3846 56.1222 33.5278C55.0824 33.6709 54.136 34.149 53.4596 34.8729L43.457 31.7637Z"
    fill="#F2F2F2" />
  <path
    d="M56.3583 38.5545C57.4833 38.5545 58.3954 37.6425 58.3954 36.5175C58.3954 35.3925 57.4833 34.4805 56.3583 34.4805C55.2333 34.4805 54.3213 35.3925 54.3213 36.5175C54.3213 37.6425 55.2333 38.5545 56.3583 38.5545Z"
    fill="#E9BD43" />
  <path
    d="M29.8285 39.9121L26.892 49.4241C25.9051 49.4892 24.9755 49.9112 24.2768 50.6114C23.578 51.3117 23.1577 52.2423 23.0943 53.2296C23.0309 54.217 23.3288 55.1938 23.9323 55.9777C24.5358 56.7615 25.4037 57.299 26.3742 57.4899C27.3447 57.6807 28.3514 57.5119 29.2066 57.0149C30.0618 56.5178 30.7071 55.7265 31.022 54.7886C31.337 53.8507 31.3001 52.8302 30.9183 51.9175C30.5364 51.0048 29.8357 50.2622 28.9469 49.8282L29.8285 39.9121Z"
    fill="#F2F2F2" />
  <path
    d="M27.8398 54.8514C28.9648 54.8514 29.8768 53.9394 29.8768 52.8144C29.8768 51.6894 28.9648 50.7773 27.8398 50.7773C26.7147 50.7773 25.8027 51.6894 25.8027 52.8144C25.8027 53.9394 26.7147 54.8514 27.8398 54.8514Z"
    fill="#E9BD43" />
  <path
    d="M17.6543 28.3541L7.84886 27.8052C7.55096 26.8633 6.92511 26.0634 6.08807 25.5548C5.25104 25.0461 4.25998 24.8633 3.29977 25.0406C2.33955 25.2179 1.47577 25.7431 0.869545 26.5182C0.263321 27.2933 -0.0439413 28.2655 0.00507687 29.2533C0.054095 30.2411 0.456047 31.1771 1.13595 31.8867C1.81585 32.5963 2.72727 33.031 3.70018 33.1098C4.6731 33.1886 5.64107 32.906 6.42353 32.3148C7.20599 31.7236 7.74949 30.8641 7.95265 29.8967L17.6543 28.3541Z"
    fill="#F2F2F2" />
  <path
    d="M4.75383 30.4055C5.87886 30.4055 6.79087 29.7975 6.79087 29.0475C6.79087 28.2975 5.87886 27.6895 4.75383 27.6895C3.62881 27.6895 2.7168 28.2975 2.7168 29.0475C2.7168 29.7975 3.62881 30.4055 4.75383 30.4055Z"
    fill="#E9BD43" />
  <path
    d="M107.963 8.67759C109.088 8.67759 110 7.76558 110 6.64055C110 5.51553 109.088 4.60352 107.963 4.60352C106.838 4.60352 105.926 5.51553 105.926 6.64055C105.926 7.76558 106.838 8.67759 107.963 8.67759Z"
    fill="#F2F2F2" />
  <path
    d="M107.963 8.67759C109.088 8.67759 110 7.76558 110 6.64055C110 5.51553 109.088 4.60352 107.963 4.60352C106.838 4.60352 105.926 5.51553 105.926 6.64055C105.926 7.76558 106.838 8.67759 107.963 8.67759Z"
    stroke="#F2F2F2" stroke-width="2" stroke-miterlimit="10" />
  <path d="M95.0614 7.32031H90.9873V11.3944H95.0614V7.32031Z" fill="#E9BD43" />
  <path d="M96.4198 7.32031H92.3457V11.3944H96.4198V7.32031Z" stroke="#F2F2F2" stroke-width="2"
    stroke-miterlimit="10" />
  <path
    d="M81.2277 79.2949C81.2277 79.2949 80.8402 81.7139 80.1945 82.0958C79.5488 82.4778 83.5524 83.369 83.5524 83.369L84.1981 79.5496L81.2277 79.2949Z"
    fill="#FBBEBE" />
  <path
    d="M85.4911 49.418L86.9138 51.207L86.2671 57.3998L85.7498 69.6478C85.7498 69.6478 86.7844 80.2444 85.7498 80.5196C84.7151 80.7949 80.059 80.6572 80.1883 79.9692C80.3177 79.2811 80.447 78.7306 80.7057 77.7673C80.9643 76.8039 80.447 73.3635 80.447 73.3635L81.0937 69.5102L78.7656 52.8584L85.4911 49.418Z"
    fill="#2F2E41" />
  <path
    d="M81.0019 80.7867C81.0019 80.7867 79.5368 80.4844 79.4036 80.7867C79.2704 81.0889 76.7397 84.2627 76.3401 84.2627C75.9405 84.2627 73.0102 87.2853 76.0737 87.4364C79.1372 87.5875 84.1986 84.8672 84.1986 84.8672C84.1986 84.8672 83.4537 81.0215 83.4931 81.2063C83.5326 81.3912 81.0019 81.5423 81.0019 80.7867Z"
    fill="#2F2E41" />
  <path
    d="M80.124 75.5564C80.124 75.5564 83.8519 78.8368 83.9851 79.1543C84.1182 79.4717 86.1153 79.1543 86.1153 79.1543L86.9141 77.0379L86.2484 76.2971L82.5205 73.8633L80.124 75.5564Z"
    fill="#FBBEBE" />
  <path
    d="M84.7847 78.079L82.8398 79.9197C82.8398 79.9197 85.3212 83.7433 85.3212 84.1479C85.3212 84.5525 85.4553 87.9241 86.7966 87.3846C88.1378 86.8452 88.2719 81.4506 88.2719 81.4506C88.2719 81.4506 88.1378 75.9212 87.3331 75.5166C86.5283 75.112 84.7645 75.2399 84.7645 75.2399C84.7645 75.2399 85.8577 77.9442 84.7847 78.079Z"
    fill="#2F2E41" />
  <path
    d="M73.9144 37.7508C73.9144 37.7508 73.2772 39.8987 73.1498 40.4357C73.0223 40.9727 72.2577 42.4494 72.2577 44.7316C72.2577 47.0138 72.5126 49.6988 72.2577 49.9673C72.0028 50.2358 67.9248 65.2714 69.7089 66.8824C71.4931 68.4933 77.3552 73.8632 77.7375 74.5344C78.1199 75.2057 78.2473 76.8166 79.0119 76.5481C79.7766 76.2796 82.7076 73.5947 82.8351 73.0577C82.9625 72.5207 81.1784 71.581 81.1784 71.581C81.1784 71.581 77.6101 66.0769 76.718 66.2111C75.826 66.3454 75.9534 65.5399 76.0809 65.1372C76.2083 64.7344 76.4632 64.4659 76.0809 64.4659C75.6985 64.4659 75.9534 63.3919 76.0809 62.855C76.2083 62.318 79.1394 55.0686 79.1394 55.0686L86.9131 51.444C86.9131 51.444 86.5308 41.644 83.7272 38.959L83.09 37.3481C83.09 37.3481 75.9534 36.8111 73.9144 37.7508Z"
    fill="#2F2E41" />
  <path
    d="M77.1289 16.8262C77.1289 16.8262 77.7834 21.5123 76.2127 21.7801C74.6419 22.0479 73.333 21.914 73.333 22.0479C73.333 22.1818 77.2598 26.3323 77.2598 26.3323L80.9249 26.0646L84.1972 22.4495C84.1972 22.4495 81.1866 21.914 81.1866 20.0395C81.1866 18.1651 81.0558 16.8262 81.0558 16.8262H77.1289Z"
    fill="#FBBEBE" />
  <path opacity="0.1"
    d="M77.1289 16.8262C77.1289 16.8262 77.7834 21.5123 76.2127 21.7801C74.6419 22.0479 73.333 21.914 73.333 22.0479C73.333 22.1818 77.2598 26.3323 77.2598 26.3323L80.9249 26.0646L84.1972 22.4495C84.1972 22.4495 81.1866 21.914 81.1866 20.0395C81.1866 18.1651 81.0558 16.8262 81.0558 16.8262H77.1289Z"
    fill="black" />
  <path
    d="M78.7665 18.1833C81.0165 18.1833 82.8405 16.3593 82.8405 14.1092C82.8405 11.8592 81.0165 10.0352 78.7665 10.0352C76.5164 10.0352 74.6924 11.8592 74.6924 14.1092C74.6924 16.3593 76.5164 18.1833 78.7665 18.1833Z"
    fill="#FBBEBE" />
  <path
    d="M76.0934 20.9004C76.0934 20.9004 71.0407 21.5742 70.6521 23.3262C70.2634 25.0781 73.2432 35.9942 73.6318 36.9375C74.0205 37.8809 73.8909 38.5547 73.8909 38.5547C74.4771 38.0987 75.1504 37.7785 75.8656 37.6158C76.5807 37.4531 77.321 37.4516 78.0367 37.6114C80.4982 38.1504 83.9962 37.8809 83.9962 37.8809C83.9962 37.8809 85.1622 32.8945 85.4213 32.3555C85.6804 31.8164 86.7169 28.8516 86.7169 28.043C86.7169 27.2344 88.2715 23.8652 88.2715 23.8652C88.2715 23.8652 87.4942 21.4395 84.644 21.5742C84.644 21.5742 83.4007 20.9954 83.0507 21.4196C82.7007 21.8438 80.7573 23.7305 78.2958 22.9219C75.8343 22.1133 76.0934 20.9004 76.0934 20.9004Z"
    fill="#3F3D56" />
  <path
    d="M71.9729 23.6152H70.2167L69.2588 34.0343C69.2588 34.0343 72.7711 34.8256 73.2501 34.2981C73.7291 33.7705 71.9729 23.6152 71.9729 23.6152Z"
    fill="#3F3D56" />
  <path
    d="M69.6959 33.1392L69.2763 34.1216C69.2763 34.1216 68.9965 37.3145 70.6751 37.1917C72.3537 37.0689 73.3329 35.2269 73.3329 35.2269C73.3329 35.2269 72.3537 32.8936 71.2346 33.1392C70.1156 33.3848 69.6959 33.1392 69.6959 33.1392Z"
    fill="#3F3D56" />
  <path
    d="M85.5557 23.6152L88.0331 24.2654C88.0331 24.2654 89.8586 30.8966 89.989 31.0266C90.1194 31.1566 90.2498 31.9367 90.2498 31.9367C90.2498 31.9367 90.2498 32.0668 90.5106 32.4568C90.7714 32.8469 91.1625 32.5869 90.9018 33.107C90.641 33.6271 90.2498 33.367 90.5106 33.8871C90.7714 34.4072 90.641 35.8375 90.641 35.8375C90.641 35.8375 89.989 33.367 87.6419 34.0171L86.0772 26.9958L85.5557 23.6152Z"
    fill="#3F3D56" />
  <path
    d="M74.3268 11.3436C73.4429 12.8275 73.2438 14.5852 73.1218 16.2887C73.0695 17.0192 73.0302 17.7691 73.257 18.4686C73.4961 19.2061 74.0282 19.9555 73.7553 20.6823C73.4914 21.3853 72.6089 21.6666 72.116 22.2462C71.6984 22.7374 71.5935 23.4104 71.6297 24.0424C71.666 24.6743 71.8263 25.2947 71.8734 25.926C71.9705 27.3127 71.5226 28.6841 70.6172 29.7718C72.7292 29.694 74.9873 28.7991 75.878 26.9677C76.1442 26.4202 76.2737 25.821 76.514 25.2627C76.7858 24.631 77.196 24.0593 77.4534 23.4221C77.8419 22.4608 77.8629 21.4053 77.879 20.3749C77.8887 19.7582 77.8955 19.1249 77.6721 18.5462C77.1804 17.2722 75.6511 16.4491 75.4993 15.099C75.4731 14.9562 75.4952 14.8092 75.5624 14.6793C75.6338 14.5844 75.7203 14.5007 75.8188 14.4315C76.7737 13.6262 76.6163 11.9214 77.753 11.3724C78.2631 11.1261 78.8779 11.2127 79.4257 11.3687C80.0339 11.5418 80.6408 11.81 81.0365 12.2841C81.8333 13.2388 81.5189 14.6179 81.2723 15.8161C80.9149 17.5541 80.7882 19.3282 80.8952 21.0964C80.9021 21.3793 80.9457 21.6602 81.0251 21.9327C81.1715 22.375 81.4836 22.7465 81.7193 23.152C82.1995 23.9856 82.3553 24.9547 82.1591 25.8876C81.9852 26.6994 81.5531 27.564 81.9335 28.3087C82.1009 28.5964 82.3341 28.8441 82.6157 29.0336C83.8584 29.9642 85.4359 30.5408 86.3598 31.7642C86.5189 30.7649 86.2154 29.7594 85.9913 28.7716C85.7672 27.7839 85.6308 26.7085 86.0914 25.7986C86.2934 25.3994 86.6022 25.0521 86.7674 24.6377C87.1488 23.6808 86.6942 22.6311 86.4181 21.6417C86.2207 20.8647 86.0783 20.0759 85.9916 19.2806L85.7069 17.134C85.4715 15.3595 85.2252 13.5488 84.4096 11.9387C82.8727 8.90439 79.3947 7.77748 76.2806 9.4588C75.4646 9.90875 74.7899 10.5597 74.3268 11.3436V11.3436Z"
    fill="#FF6584" />
  <path
    d="M70.9877 33.4007C70.9877 33.4007 70.0589 35.8376 71.1425 35.8376C72.2261 35.8376 74.2385 34.3484 74.3933 33.13C74.5481 31.9116 77.3345 27.3086 75.3221 27.7147C73.3097 28.1209 72.3809 31.5054 72.3809 31.5054L70.9877 33.4007Z"
    fill="#FBBEBE" />
  <path d="M84.1459 23.6152L80.124 38.5187L85.6084 39.9115L89.6302 25.4259L84.1459 23.6152Z" fill="#E9BD43" />
  <path
    d="M90.1087 33.6954L90.958 34.9135C90.958 34.9135 91.3323 37.1958 89.4289 37.1958C87.5254 37.1958 84.8062 34.9789 84.8062 34.9789C84.8062 34.9789 83.4466 34.5121 82.6309 34.6288C81.8151 34.7455 77.3284 34.6288 79.2319 32.6453C81.1353 30.6617 84.3983 32.6453 84.3983 32.6453L87.7973 34.0454L89.5648 33.2287L90.1087 33.6954Z"
    fill="#FBBEBE" />
  <path
    d="M88.528 32.0706L86.9141 34.5262C86.9141 34.5262 90.6261 34.9866 90.9489 35.754C91.2717 36.5214 89.4964 31.7637 89.4964 31.7637L88.528 32.0706Z"
    fill="#3F3D56" />
  <path
    d="M42.4806 100.352L44.8746 109.592H43.2226L42.6626 107.24H39.9186L39.3726 109.592H37.8326L40.3946 100.352H42.4806ZM40.1706 106.204H42.4246L41.2906 101.402L40.1706 106.204ZM45.7976 102.452L47.0856 102.284L47.1556 103.544C47.3329 103.096 47.6036 102.755 47.9676 102.522C48.3409 102.288 48.7749 102.172 49.2696 102.172C50.0536 102.172 50.5996 102.391 50.9076 102.83C51.2156 103.259 51.3696 103.917 51.3696 104.804V108.444C51.3696 108.901 51.5143 109.209 51.8036 109.368C51.7289 109.508 51.6076 109.615 51.4396 109.69C51.2716 109.764 51.0943 109.802 50.9076 109.802C50.5436 109.802 50.2729 109.699 50.0956 109.494C49.9183 109.288 49.8296 108.999 49.8296 108.626V105C49.8296 104.412 49.7643 103.973 49.6336 103.684C49.5029 103.394 49.2136 103.25 48.7656 103.25C48.1963 103.25 47.8136 103.502 47.6176 104.006C47.4309 104.51 47.3376 105.158 47.3376 105.952V109.592H45.7976V102.452ZM56.9881 108.948C56.8108 109.274 56.5494 109.512 56.2041 109.662C55.8681 109.82 55.4854 109.9 55.0561 109.9C54.4121 109.9 53.8708 109.704 53.4321 109.312C53.0028 108.92 52.7881 108.411 52.7881 107.786C52.7881 106.274 54.1368 105.518 56.8341 105.518V104.3C56.8341 103.833 56.7641 103.488 56.6241 103.264C56.4841 103.03 56.2181 102.914 55.8261 102.914C55.4994 102.914 55.2288 103.002 55.0141 103.18C54.7994 103.348 54.6921 103.586 54.6921 103.894C54.6921 104.09 54.7294 104.3 54.8041 104.524C54.6734 104.626 54.4868 104.678 54.2441 104.678C53.9081 104.678 53.6421 104.594 53.4461 104.426C53.2501 104.258 53.1521 104.015 53.1521 103.698C53.1521 103.25 53.4041 102.886 53.9081 102.606C54.4121 102.316 55.0841 102.172 55.9241 102.172C56.5401 102.172 57.0254 102.265 57.3801 102.452C57.7348 102.629 57.9868 102.909 58.1361 103.292C58.2948 103.665 58.3741 104.169 58.3741 104.804V108.444C58.3741 108.901 58.5188 109.209 58.8081 109.368C58.7334 109.508 58.6214 109.615 58.4721 109.69C58.3321 109.764 58.1688 109.802 57.9821 109.802C57.7114 109.802 57.4874 109.727 57.3101 109.578C57.1328 109.419 57.0254 109.209 56.9881 108.948ZM55.6021 108.962C56.0128 108.962 56.3208 108.808 56.5261 108.5C56.7314 108.182 56.8341 107.79 56.8341 107.324V106.218C55.2568 106.218 54.4681 106.722 54.4681 107.73C54.4681 108.103 54.5661 108.402 54.7621 108.626C54.9674 108.85 55.2474 108.962 55.6021 108.962ZM57.0021 98.9658C57.1888 99.0125 57.3428 99.1105 57.4641 99.2598C57.5948 99.4091 57.6601 99.5771 57.6601 99.7638C57.6601 100.016 57.5481 100.23 57.3241 100.408C57.1001 100.585 56.8154 100.748 56.4701 100.898L54.9441 101.584L54.5941 101.094L57.0021 98.9658ZM61.7621 99.6238V108.444C61.7621 108.901 61.9068 109.209 62.1961 109.368C62.1214 109.508 61.9954 109.615 61.8181 109.69C61.6501 109.764 61.4728 109.802 61.2861 109.802C60.9314 109.802 60.6654 109.699 60.4881 109.494C60.3108 109.288 60.2221 108.999 60.2221 108.626V99.7918L61.7621 99.6238ZM64.5054 99.5118C64.8134 99.5118 65.0608 99.5865 65.2474 99.7358C65.4434 99.8851 65.5414 100.1 65.5414 100.38C65.5414 100.669 65.4388 100.893 65.2334 101.052C65.0374 101.201 64.7808 101.276 64.4634 101.276C64.1554 101.276 63.9081 101.201 63.7214 101.052C63.5348 100.902 63.4414 100.688 63.4414 100.408C63.4414 100.118 63.5394 99.8991 63.7354 99.7498C63.9408 99.5911 64.1974 99.5118 64.5054 99.5118ZM65.2334 108.444C65.2334 108.901 65.3781 109.209 65.6674 109.368C65.5928 109.508 65.4714 109.615 65.3034 109.69C65.1354 109.764 64.9534 109.802 64.7574 109.802C64.4028 109.802 64.1368 109.699 63.9594 109.494C63.7821 109.288 63.6934 108.999 63.6934 108.626V102.452H65.2334V108.444ZM69.4074 102.914C69.1274 102.914 68.9034 102.988 68.7354 103.138C68.5674 103.278 68.4834 103.483 68.4834 103.754C68.4834 104.118 68.6047 104.416 68.8474 104.65C69.0994 104.874 69.4821 105.126 69.9954 105.406C70.4061 105.63 70.7327 105.83 70.9754 106.008C71.2274 106.185 71.4421 106.414 71.6194 106.694C71.7967 106.964 71.8854 107.296 71.8854 107.688C71.8854 108.397 71.6287 108.943 71.1154 109.326C70.6114 109.708 69.9674 109.9 69.1834 109.9C68.5021 109.9 67.9281 109.783 67.4614 109.55C67.0041 109.316 66.7754 108.929 66.7754 108.388C66.7754 108.07 66.8734 107.828 67.0694 107.66C67.2654 107.492 67.5314 107.408 67.8674 107.408C68.1101 107.408 68.2967 107.459 68.4274 107.562C68.3527 107.786 68.3154 107.996 68.3154 108.192C68.3154 108.49 68.4087 108.728 68.5954 108.906C68.7821 109.074 69.0341 109.158 69.3514 109.158C69.6967 109.158 69.9581 109.069 70.1354 108.892C70.3221 108.705 70.4154 108.434 70.4154 108.08C70.4154 107.716 70.2894 107.422 70.0374 107.198C69.7947 106.964 69.4167 106.708 68.9034 106.428C68.4927 106.194 68.1614 105.989 67.9094 105.812C67.6667 105.634 67.4567 105.41 67.2794 105.14C67.1021 104.86 67.0134 104.524 67.0134 104.132C67.0134 103.506 67.2654 103.026 67.7694 102.69C68.2734 102.344 68.8847 102.172 69.6034 102.172C70.2661 102.172 70.8074 102.293 71.2274 102.536C71.6567 102.769 71.8714 103.156 71.8714 103.698C71.8714 104.015 71.7687 104.258 71.5634 104.426C71.3674 104.594 71.1014 104.678 70.7654 104.678C70.5227 104.678 70.3361 104.626 70.2054 104.524C70.2801 104.3 70.3174 104.09 70.3174 103.894C70.3174 103.586 70.2381 103.348 70.0794 103.18C69.9301 103.002 69.7061 102.914 69.4074 102.914ZM74.1441 99.5118C74.4521 99.5118 74.6994 99.5865 74.8861 99.7358C75.0821 99.8851 75.1801 100.1 75.1801 100.38C75.1801 100.669 75.0774 100.893 74.8721 101.052C74.6761 101.201 74.4194 101.276 74.1021 101.276C73.7941 101.276 73.5468 101.201 73.3601 101.052C73.1734 100.902 73.0801 100.688 73.0801 100.408C73.0801 100.118 73.1781 99.8991 73.3741 99.7498C73.5794 99.5911 73.8361 99.5118 74.1441 99.5118ZM74.8721 108.444C74.8721 108.901 75.0168 109.209 75.3061 109.368C75.2314 109.508 75.1101 109.615 74.9421 109.69C74.7741 109.764 74.5921 109.802 74.3961 109.802C74.0414 109.802 73.7754 109.699 73.5981 109.494C73.4208 109.288 73.3321 108.999 73.3321 108.626V102.452H74.8721V108.444ZM79.0461 102.914C78.7661 102.914 78.5421 102.988 78.3741 103.138C78.2061 103.278 78.1221 103.483 78.1221 103.754C78.1221 104.118 78.2434 104.416 78.4861 104.65C78.7381 104.874 79.1207 105.126 79.6341 105.406C80.0447 105.63 80.3714 105.83 80.6141 106.008C80.8661 106.185 81.0807 106.414 81.2581 106.694C81.4354 106.964 81.5241 107.296 81.5241 107.688C81.5241 108.397 81.2674 108.943 80.7541 109.326C80.2501 109.708 79.6061 109.9 78.8221 109.9C78.1407 109.9 77.5667 109.783 77.1001 109.55C76.6427 109.316 76.4141 108.929 76.4141 108.388C76.4141 108.07 76.5121 107.828 76.7081 107.66C76.9041 107.492 77.1701 107.408 77.5061 107.408C77.7487 107.408 77.9354 107.459 78.0661 107.562C77.9914 107.786 77.9541 107.996 77.9541 108.192C77.9541 108.49 78.0474 108.728 78.2341 108.906C78.4207 109.074 78.6727 109.158 78.9901 109.158C79.3354 109.158 79.5967 109.069 79.7741 108.892C79.9607 108.705 80.0541 108.434 80.0541 108.08C80.0541 107.716 79.9281 107.422 79.6761 107.198C79.4334 106.964 79.0554 106.708 78.5421 106.428C78.1314 106.194 77.8001 105.989 77.5481 105.812C77.3054 105.634 77.0954 105.41 76.9181 105.14C76.7407 104.86 76.6521 104.524 76.6521 104.132C76.6521 103.506 76.9041 103.026 77.4081 102.69C77.9121 102.344 78.5234 102.172 79.2421 102.172C79.9047 102.172 80.4461 102.293 80.8661 102.536C81.2954 102.769 81.5101 103.156 81.5101 103.698C81.5101 104.015 81.4074 104.258 81.2021 104.426C81.0061 104.594 80.7401 104.678 80.4041 104.678C80.1614 104.678 79.9747 104.626 79.8441 104.524C79.9187 104.3 79.9561 104.09 79.9561 103.894C79.9561 103.586 79.8767 103.348 79.7181 103.18C79.5687 103.002 79.3447 102.914 79.0461 102.914Z"
    fill="#E9BD43" />
</svg>