<svg width="111" height="125" viewBox="0 0 111 125" fill="none" xmlns="http://www.w3.org/2000/svg">
  <path
    d="M28.9072 87.0205C28.1605 87.0205 27.6565 87.3939 27.3952 88.1405C27.1338 88.8779 27.0032 89.8019 27.0032 90.9125C27.0032 92.0512 27.1338 92.9799 27.3952 93.6985C27.6565 94.4172 28.1838 94.7765 28.9772 94.7765C29.4158 94.7765 29.8172 94.7159 30.1812 94.5945L30.1252 91.3185L31.6512 91.1225V95.2945C31.3152 95.4719 30.8858 95.6119 30.3632 95.7145C29.8405 95.8172 29.3645 95.8685 28.9352 95.8685C27.6098 95.8685 26.6625 95.4392 26.0932 94.5805C25.5238 93.7125 25.2392 92.5132 25.2392 90.9825C25.2392 89.4705 25.5378 88.2712 26.1352 87.3845C26.7418 86.4885 27.7078 86.0405 29.0332 86.0405C29.8638 86.0405 30.5358 86.2039 31.0492 86.5305C31.5625 86.8572 31.8192 87.3752 31.8192 88.0845C31.8192 88.4205 31.7212 88.6959 31.5252 88.9105C31.3292 89.1159 31.0632 89.2185 30.7272 89.2185C30.4192 89.2185 30.1765 89.1439 29.9992 88.9945C30.0738 88.7892 30.1112 88.5559 30.1112 88.2945C30.1112 87.8932 30.0085 87.5805 29.8032 87.3565C29.5978 87.1325 29.2992 87.0205 28.9072 87.0205ZM37.8377 93.5865C38.0524 93.6892 38.1597 93.8899 38.1597 94.1885C38.1597 94.5245 38.0477 94.8232 37.8237 95.0845C37.5997 95.3365 37.3104 95.5279 36.9557 95.6585C36.6011 95.7985 36.2417 95.8685 35.8777 95.8685C34.8511 95.8685 34.0904 95.5372 33.5957 94.8745C33.1011 94.2025 32.8537 93.3019 32.8537 92.1725C32.8537 90.9685 33.1197 89.9979 33.6517 89.2605C34.1931 88.5139 35.0097 88.1405 36.1017 88.1405C36.7924 88.1405 37.3477 88.3225 37.7677 88.6865C38.1877 89.0412 38.3977 89.5452 38.3977 90.1985C38.3977 91.0105 38.1131 91.5799 37.5437 91.9065C36.9837 92.2332 36.2184 92.3965 35.2477 92.3965C34.9771 92.3965 34.7204 92.3872 34.4777 92.3685C34.5057 93.1059 34.6271 93.6939 34.8417 94.1325C35.0657 94.5712 35.4577 94.7905 36.0177 94.7905C36.4284 94.7905 36.7877 94.6879 37.0957 94.4825C37.4131 94.2679 37.6604 93.9692 37.8377 93.5865ZM35.8777 88.9385C35.3737 88.9385 35.0191 89.2045 34.8137 89.7365C34.6084 90.2592 34.4964 90.9032 34.4777 91.6685C34.7577 91.6872 34.9631 91.6965 35.0937 91.6965C36.2697 91.6965 36.8577 91.2252 36.8577 90.2825C36.8577 89.8999 36.7737 89.5825 36.6057 89.3305C36.4471 89.0692 36.2044 88.9385 35.8777 88.9385ZM42.0098 88.8825C41.7298 88.8825 41.5058 88.9572 41.3378 89.1065C41.1698 89.2465 41.0858 89.4519 41.0858 89.7225C41.0858 90.0865 41.2072 90.3852 41.4498 90.6185C41.7018 90.8425 42.0845 91.0945 42.5978 91.3745C43.0085 91.5985 43.3352 91.7992 43.5778 91.9765C43.8298 92.1539 44.0445 92.3825 44.2218 92.6625C44.3992 92.9332 44.4878 93.2645 44.4878 93.6565C44.4878 94.3659 44.2312 94.9119 43.7178 95.2945C43.2138 95.6772 42.5698 95.8685 41.7858 95.8685C41.1045 95.8685 40.5305 95.7519 40.0638 95.5185C39.6065 95.2852 39.3778 94.8979 39.3778 94.3565C39.3778 94.0392 39.4758 93.7965 39.6718 93.6285C39.8678 93.4605 40.1338 93.3765 40.4698 93.3765C40.7125 93.3765 40.8992 93.4279 41.0298 93.5305C40.9552 93.7545 40.9178 93.9645 40.9178 94.1605C40.9178 94.4592 41.0112 94.6972 41.1978 94.8745C41.3845 95.0425 41.6365 95.1265 41.9538 95.1265C42.2992 95.1265 42.5605 95.0379 42.7378 94.8605C42.9245 94.6739 43.0178 94.4032 43.0178 94.0485C43.0178 93.6845 42.8918 93.3905 42.6398 93.1665C42.3972 92.9332 42.0192 92.6765 41.5058 92.3965C41.0952 92.1632 40.7638 91.9579 40.5118 91.7805C40.2692 91.6032 40.0592 91.3792 39.8818 91.1085C39.7045 90.8285 39.6158 90.4925 39.6158 90.1005C39.6158 89.4752 39.8678 88.9945 40.3718 88.6585C40.8758 88.3132 41.4872 88.1405 42.2058 88.1405C42.8685 88.1405 43.4098 88.2619 43.8298 88.5045C44.2592 88.7379 44.4738 89.1252 44.4738 89.6665C44.4738 89.9839 44.3712 90.2265 44.1658 90.3945C43.9698 90.5625 43.7038 90.6465 43.3678 90.6465C43.1252 90.6465 42.9385 90.5952 42.8078 90.4925C42.8825 90.2685 42.9198 90.0585 42.9198 89.8625C42.9198 89.5545 42.8405 89.3165 42.6818 89.1485C42.5325 88.9712 42.3085 88.8825 42.0098 88.8825ZM45.1086 89.0505L45.0946 88.6305C45.5146 88.4625 45.9112 88.2385 46.2846 87.9585C46.6672 87.6785 46.9892 87.3705 47.2506 87.0345H47.6846V88.4205H48.9726V89.0505H47.6566V94.1465C47.6566 94.4265 47.7079 94.6365 47.8106 94.7765C47.9132 94.9165 48.0766 95.0052 48.3006 95.0425C48.2539 95.2572 48.1279 95.4299 47.9226 95.5605C47.7266 95.7005 47.4979 95.7705 47.2366 95.7705C46.4806 95.7705 46.1026 95.3412 46.1026 94.4825V89.0505H45.1086ZM50.7387 85.4805C51.0467 85.4805 51.2941 85.5552 51.4807 85.7045C51.6767 85.8539 51.7747 86.0685 51.7747 86.3485C51.7747 86.6379 51.6721 86.8619 51.4667 87.0205C51.2707 87.1699 51.0141 87.2445 50.6967 87.2445C50.3887 87.2445 50.1414 87.1699 49.9547 87.0205C49.7681 86.8712 49.6747 86.6565 49.6747 86.3765C49.6747 86.0872 49.7727 85.8679 49.9687 85.7185C50.1741 85.5599 50.4307 85.4805 50.7387 85.4805ZM51.4667 94.4125C51.4667 94.8699 51.6114 95.1779 51.9007 95.3365C51.8261 95.4765 51.7047 95.5839 51.5367 95.6585C51.3687 95.7332 51.1867 95.7705 50.9907 95.7705C50.6361 95.7705 50.3701 95.6679 50.1927 95.4625C50.0154 95.2572 49.9267 94.9679 49.9267 94.5945V88.4205H51.4667V94.4125ZM55.9627 88.1405C57.008 88.1405 57.7827 88.4812 58.2867 89.1625C58.7907 89.8345 59.0427 90.7445 59.0427 91.8925C59.0427 93.1152 58.8 94.0859 58.3147 94.8045C57.8294 95.5139 57.0454 95.8685 55.9627 95.8685C54.8987 95.8685 54.1194 95.5279 53.6247 94.8465C53.1394 94.1652 52.8967 93.2272 52.8967 92.0325C52.8967 90.8752 53.1487 89.9372 53.6527 89.2185C54.1567 88.4999 54.9267 88.1405 55.9627 88.1405ZM55.9627 95.0285C56.5414 95.0285 56.9194 94.7439 57.0967 94.1745C57.274 93.6052 57.3627 92.8679 57.3627 91.9625C57.3627 91.1319 57.2647 90.4272 57.0687 89.8485C56.882 89.2699 56.5134 88.9805 55.9627 88.9805C55.0387 88.9805 54.5767 89.9745 54.5767 91.9625C54.5767 92.8679 54.6607 93.6052 54.8287 94.1745C55.006 94.7439 55.384 95.0285 55.9627 95.0285ZM57.2227 84.9345C57.4094 84.9812 57.5634 85.0792 57.6847 85.2285C57.8154 85.3779 57.8807 85.5459 57.8807 85.7325C57.8807 85.9845 57.7687 86.1992 57.5447 86.3765C57.3207 86.5539 57.036 86.7172 56.6907 86.8665L55.1647 87.5525L54.8147 87.0625L57.2227 84.9345ZM60.4137 88.4205L61.7017 88.2525L61.7717 89.5125C61.9491 89.0645 62.2197 88.7239 62.5837 88.4905C62.9571 88.2572 63.3911 88.1405 63.8857 88.1405C64.6697 88.1405 65.2157 88.3599 65.5237 88.7985C65.8317 89.2279 65.9857 89.8859 65.9857 90.7725V94.4125C65.9857 94.8699 66.1304 95.1779 66.4197 95.3365C66.3451 95.4765 66.2237 95.5839 66.0557 95.6585C65.8877 95.7332 65.7104 95.7705 65.5237 95.7705C65.1597 95.7705 64.8891 95.6679 64.7117 95.4625C64.5344 95.2572 64.4457 94.9679 64.4457 94.5945V90.9685C64.4457 90.3805 64.3804 89.9419 64.2497 89.6525C64.1191 89.3632 63.8297 89.2185 63.3817 89.2185C62.8124 89.2185 62.4297 89.4705 62.2337 89.9745C62.0471 90.4785 61.9537 91.1272 61.9537 91.9205V95.5605H60.4137V88.4205ZM75.6755 94.4125C75.6755 94.8699 75.8201 95.1779 76.1095 95.3365C76.0348 95.4765 75.9228 95.5839 75.7735 95.6585C75.6335 95.7332 75.4701 95.7705 75.2835 95.7705C75.0128 95.7705 74.7888 95.6959 74.6115 95.5465C74.4341 95.3879 74.3268 95.1779 74.2895 94.9165C74.1401 95.2245 73.8975 95.4579 73.5615 95.6165C73.2348 95.7845 72.8801 95.8685 72.4975 95.8685C71.5455 95.8685 70.8548 95.5045 70.4255 94.7765C69.9961 94.0485 69.7815 93.1152 69.7815 91.9765C69.7815 90.8005 70.0335 89.8672 70.5375 89.1765C71.0508 88.4859 71.8441 88.1405 72.9175 88.1405C73.3655 88.1405 73.7715 88.2012 74.1355 88.3225V85.7605L75.6755 85.5925V94.4125ZM74.1355 89.4145C73.7061 89.1252 73.2768 88.9805 72.8475 88.9805C72.2781 88.9805 71.9048 89.2512 71.7275 89.7925C71.5501 90.3339 71.4615 91.0385 71.4615 91.9065C71.4615 92.7372 71.5641 93.4512 71.7695 94.0485C71.9748 94.6365 72.3528 94.9305 72.9035 94.9305C73.3141 94.9305 73.6221 94.7765 73.8275 94.4685C74.0328 94.1512 74.1355 93.7592 74.1355 93.2925V89.4145ZM82.1483 93.5865C82.363 93.6892 82.4703 93.8899 82.4703 94.1885C82.4703 94.5245 82.3583 94.8232 82.1343 95.0845C81.9103 95.3365 81.621 95.5279 81.2663 95.6585C80.9116 95.7985 80.5523 95.8685 80.1883 95.8685C79.1616 95.8685 78.401 95.5372 77.9063 94.8745C77.4116 94.2025 77.1643 93.3019 77.1643 92.1725C77.1643 90.9685 77.4303 89.9979 77.9623 89.2605C78.5036 88.5139 79.3203 88.1405 80.4123 88.1405C81.103 88.1405 81.6583 88.3225 82.0783 88.6865C82.4983 89.0412 82.7083 89.5452 82.7083 90.1985C82.7083 91.0105 82.4236 91.5799 81.8543 91.9065C81.2943 92.2332 80.529 92.3965 79.5583 92.3965C79.2876 92.3965 79.031 92.3872 78.7883 92.3685C78.8163 93.1059 78.9376 93.6939 79.1523 94.1325C79.3763 94.5712 79.7683 94.7905 80.3283 94.7905C80.739 94.7905 81.0983 94.6879 81.4063 94.4825C81.7236 94.2679 81.971 93.9692 82.1483 93.5865ZM80.1883 88.9385C79.6843 88.9385 79.3296 89.2045 79.1243 89.7365C78.919 90.2592 78.807 90.9032 78.7883 91.6685C79.0683 91.6872 79.2736 91.6965 79.4043 91.6965C80.5803 91.6965 81.1683 91.2252 81.1683 90.2825C81.1683 89.8999 81.0843 89.5825 80.9163 89.3305C80.7576 89.0692 80.515 88.9385 80.1883 88.9385ZM85.6204 85.5925V94.4125C85.6204 94.8699 85.7651 95.1779 86.0544 95.3365C85.9797 95.4765 85.8537 95.5839 85.6764 95.6585C85.5084 95.7332 85.3311 95.7705 85.1444 95.7705C84.7897 95.7705 84.5237 95.6679 84.3464 95.4625C84.1691 95.2572 84.0804 94.9679 84.0804 94.5945V85.7605L85.6204 85.5925ZM41.0201 103.321L40.9221 104.357H38.7661V112.561H37.1281V104.357H34.9301V103.321H41.0201ZM42.4673 102.481C42.7753 102.481 43.0226 102.555 43.2093 102.705C43.4053 102.854 43.5033 103.069 43.5033 103.349C43.5033 103.638 43.4006 103.862 43.1953 104.021C42.9993 104.17 42.7426 104.245 42.4253 104.245C42.1173 104.245 41.8699 104.17 41.6833 104.021C41.4966 103.871 41.4033 103.657 41.4033 103.377C41.4033 103.087 41.5013 102.868 41.6973 102.719C41.9026 102.56 42.1593 102.481 42.4673 102.481ZM43.1953 111.413C43.1953 111.87 43.3399 112.178 43.6293 112.337C43.5546 112.477 43.4333 112.584 43.2653 112.659C43.0973 112.733 42.9153 112.771 42.7193 112.771C42.3646 112.771 42.0986 112.668 41.9213 112.463C41.7439 112.257 41.6553 111.968 41.6553 111.595V105.421H43.1953V111.413ZM49.6092 110.587C49.8239 110.689 49.9312 110.89 49.9312 111.189C49.9312 111.525 49.8192 111.823 49.5952 112.085C49.3712 112.337 49.0819 112.528 48.7272 112.659C48.3726 112.799 48.0132 112.869 47.6492 112.869C46.6226 112.869 45.8619 112.537 45.3672 111.875C44.8726 111.203 44.6252 110.302 44.6252 109.173C44.6252 107.969 44.8912 106.998 45.4232 106.261C45.9646 105.514 46.7812 105.141 47.8732 105.141C48.5639 105.141 49.1192 105.323 49.5392 105.687C49.9592 106.041 50.1692 106.545 50.1692 107.199C50.1692 108.011 49.8846 108.58 49.3152 108.907C48.7552 109.233 47.9899 109.397 47.0192 109.397C46.7486 109.397 46.4919 109.387 46.2492 109.369C46.2772 110.106 46.3986 110.694 46.6132 111.133C46.8372 111.571 47.2292 111.791 47.7892 111.791C48.1999 111.791 48.5592 111.688 48.8672 111.483C49.1846 111.268 49.4319 110.969 49.6092 110.587ZM47.6492 105.939C47.1452 105.939 46.7906 106.205 46.5852 106.737C46.3799 107.259 46.2679 107.903 46.2492 108.669C46.5292 108.687 46.7346 108.697 46.8652 108.697C48.0412 108.697 48.6292 108.225 48.6292 107.283C48.6292 106.9 48.5452 106.583 48.3772 106.331C48.2186 106.069 47.9759 105.939 47.6492 105.939ZM51.5133 105.421L52.8013 105.253L52.8713 106.513C53.0487 106.065 53.3193 105.724 53.6833 105.491C54.0567 105.257 54.4907 105.141 54.9853 105.141C55.536 105.141 55.9653 105.253 56.2733 105.477C56.5813 105.691 56.8007 106.013 56.9313 106.443C57.2953 105.575 57.958 105.141 58.9193 105.141C59.7033 105.141 60.2493 105.36 60.5573 105.799C60.8653 106.228 61.0193 106.886 61.0193 107.773L61.0193 111.413C61.0193 111.87 61.164 112.178 61.4533 112.337C61.3787 112.477 61.2573 112.584 61.0893 112.659C60.9213 112.733 60.744 112.771 60.5573 112.771C60.1933 112.771 59.9227 112.668 59.7453 112.463C59.568 112.257 59.4793 111.968 59.4793 111.595L59.4793 107.969C59.4793 107.381 59.414 106.942 59.2833 106.653C59.1527 106.363 58.8633 106.219 58.4153 106.219C57.8833 106.219 57.5287 106.471 57.3513 106.975C57.174 107.479 57.0853 108.127 57.0853 108.921L57.0853 112.561H55.5453L55.5453 107.969C55.5453 107.381 55.48 106.942 55.3493 106.653C55.2187 106.363 54.9293 106.219 54.4813 106.219C53.912 106.219 53.5293 106.471 53.3333 106.975C53.1467 107.479 53.0533 108.127 53.0533 108.921L53.0533 112.561H51.5133L51.5133 105.421ZM66.3476 105.141C67.225 105.141 67.8503 105.495 68.2236 106.205C68.597 106.905 68.7836 107.801 68.7836 108.893C68.7836 110.087 68.527 111.049 68.0136 111.777C67.5003 112.505 66.7116 112.869 65.6476 112.869C65.1996 112.869 64.7936 112.808 64.4296 112.687V115.095L62.8896 115.263L62.8896 105.421L64.1776 105.253L64.2476 106.513C64.6396 105.598 65.3396 105.141 66.3476 105.141ZM65.8016 106.219C65.3163 106.219 64.9663 106.415 64.7516 106.807C64.537 107.189 64.4296 107.675 64.4296 108.263V111.595C64.859 111.884 65.2883 112.029 65.7176 112.029C66.287 112.029 66.6603 111.739 66.8376 111.161C67.015 110.582 67.1036 109.849 67.1036 108.963C67.1036 108.132 67.0243 107.469 66.8656 106.975C66.707 106.471 66.3523 106.219 65.8016 106.219ZM72.7518 105.141C73.7971 105.141 74.5718 105.481 75.0758 106.163C75.5798 106.835 75.8318 107.745 75.8318 108.893C75.8318 110.115 75.5891 111.086 75.1038 111.805C74.6184 112.514 73.8344 112.869 72.7518 112.869C71.6878 112.869 70.9084 112.528 70.4138 111.847C69.9284 111.165 69.6858 110.227 69.6858 109.033C69.6858 107.875 69.9378 106.937 70.4418 106.219C70.9458 105.5 71.7158 105.141 72.7518 105.141ZM72.7518 112.029C73.3304 112.029 73.7084 111.744 73.8858 111.175C74.0631 110.605 74.1518 109.868 74.1518 108.963C74.1518 108.132 74.0538 107.427 73.8578 106.849C73.6711 106.27 73.3024 105.981 72.7518 105.981C71.8278 105.981 71.3658 106.975 71.3658 108.963C71.3658 109.868 71.4498 110.605 71.6178 111.175C71.7951 111.744 72.1731 112.029 72.7518 112.029Z"
    fill="#E9BD43" />
  <path opacity="0.1"
    d="M11.0646 8.70165C10.3799 8.98489 9.67722 9.34845 9.30095 9.98575C8.90243 10.659 8.95013 11.495 9.02432 12.2739C9.67086 19.0294 11.3741 26.2141 8.43289 32.3334C7.0052 35.3022 4.61724 37.6812 2.71789 40.3773C0.818548 43.0734 -0.615501 46.4395 0.266338 49.6112C1.3432 53.4868 5.36235 55.6354 8.07147 58.6179C9.84469 60.5678 11.088 62.9374 12.7425 64.9887C14.397 67.0401 16.6641 68.8474 19.3054 68.9679C23.1041 69.1423 26.1948 65.8712 29.9193 65.1135C33.7349 64.3377 37.5771 66.312 40.6709 68.6751C43.7648 71.0383 46.5788 73.9014 50.1835 75.3768C54.1645 77.0075 58.6522 76.7581 62.843 77.7378C66.6587 78.6309 70.1712 80.5301 73.9593 81.5426C77.7474 82.5551 82.1873 82.4938 85.1222 79.9076C88.9474 76.5256 88.6464 70.5014 91.0894 66.0277C93.3587 61.871 97.8008 59.3894 100.791 55.7147C106.171 49.1007 105.995 38.9917 101.427 31.7986C96.8585 24.6055 88.5838 20.2501 80.1226 19.1161C76.307 18.6056 72.3779 18.6754 68.7096 17.5139C58.8906 14.4067 53.0474 3.27353 43.0228 0.956858C36.6507 -0.513256 30.4534 2.03276 25.0257 5.16639C20.3144 7.88679 15.9677 6.6735 11.0646 8.70165Z"
    fill="#E9BD43" />
  <path
    d="M20.6334 30.5254C20.6334 30.5254 17.016 33.9296 13.1336 34.031C11.5032 34.0634 9.92742 34.6223 8.64276 35.6238C8.03552 36.1024 7.47354 36.6356 6.96387 37.2165"
    stroke="#535461" stroke-width="2" stroke-miterlimit="10" />
  <path
    d="M4.51528 37.3002C5.03675 37.0359 7.02725 37.2114 7.02725 37.2114C7.02725 37.2114 5.99491 38.9182 5.47343 39.1825C5.34854 39.2563 5.20978 39.3037 5.06574 39.3219C4.92169 39.34 4.77545 39.3284 4.63608 39.2879C4.49671 39.2473 4.36717 39.1787 4.25552 39.0861C4.14386 38.9936 4.05245 38.8792 3.98697 38.75C3.92149 38.6208 3.88333 38.4795 3.87485 38.335C3.86638 38.1905 3.88777 38.0458 3.93771 37.9098C3.98764 37.7739 4.06505 37.6496 4.16513 37.5448C4.26521 37.4399 4.38584 37.3566 4.51952 37.3002H4.51528Z"
    fill="#E9BD43" />
  <path
    d="M6.61039 34.2831C7.19228 34.3444 8.76729 35.5704 8.76729 35.5704C8.76729 35.5704 6.96546 36.4434 6.38887 36.3831C6.11911 36.3425 5.87546 36.1997 5.70861 35.9845C5.54177 35.7692 5.46458 35.4981 5.49312 35.2276C5.52166 34.957 5.65372 34.7079 5.86183 34.532C6.06994 34.356 6.33806 34.2669 6.61039 34.2831V34.2831Z"
    fill="#E9BD43" />
  <path
    d="M11.5793 31.8512C12.0499 32.1968 12.7897 34.0485 12.7897 34.0485C12.7897 34.0485 10.796 33.8973 10.3254 33.5528C10.1133 33.3819 9.97544 33.1361 9.94042 32.8664C9.9054 32.5968 9.97596 32.324 10.1374 32.1049C10.2989 31.8858 10.5388 31.7372 10.8074 31.6899C11.0759 31.6427 11.3524 31.7004 11.5793 31.8512V31.8512Z"
    fill="#E9BD43" />
  <path
    d="M15.7542 30.8566C16.2767 31.1177 17.3197 32.8182 17.3197 32.8182C17.3197 32.8182 15.3292 33.0052 14.8067 32.7442C14.6748 32.6868 14.5561 32.6032 14.4577 32.4986C14.3593 32.3939 14.2832 32.2704 14.2343 32.1355C14.1853 32.0007 14.1643 31.8573 14.1727 31.714C14.1811 31.5708 14.2186 31.4308 14.283 31.3026C14.3474 31.1743 14.4373 31.0604 14.5473 30.9679C14.6572 30.8754 14.7849 30.8062 14.9225 30.7644C15.0602 30.7227 15.2049 30.7094 15.3479 30.7252C15.4909 30.7411 15.6291 30.7858 15.7542 30.8566V30.8566Z"
    fill="#E9BD43" />
  <path
    d="M9.87507 37.4945C10.0489 36.9375 9.54014 35.0098 9.54014 35.0098C9.54014 35.0098 8.0266 36.3118 7.85277 36.8688C7.80379 37.0032 7.78269 37.1462 7.79073 37.289C7.79878 37.4318 7.83581 37.5715 7.89958 37.6996C7.96335 37.8277 8.05254 37.9416 8.16174 38.0343C8.27094 38.1271 8.39788 38.1967 8.53488 38.2391C8.67187 38.2815 8.81607 38.2957 8.95874 38.2809C9.10141 38.2661 9.23957 38.2226 9.36487 38.1529C9.49017 38.0833 9.6 37.9891 9.68769 37.8759C9.77539 37.7627 9.83914 37.633 9.87507 37.4945V37.4945Z"
    fill="#E9BD43" />
  <path
    d="M14.7427 36.2663C14.7427 35.6829 13.6775 33.9961 13.6775 33.9961C13.6775 33.9961 12.6239 35.6871 12.625 36.2726C12.6258 36.5529 12.7383 36.8214 12.9377 37.019C13.1371 37.2166 13.407 37.3272 13.6881 37.3263C13.9692 37.3255 14.2384 37.2133 14.4366 37.0145C14.6348 36.8157 14.7457 36.5466 14.7448 36.2663H14.7427Z"
    fill="#E9BD43" />
  <path
    d="M19.3105 34.4308C19.408 33.8558 18.6448 32.0137 18.6448 32.0137C18.6448 32.0137 17.3189 33.506 17.2224 34.0809C17.1899 34.3507 17.2627 34.6225 17.4259 34.8401C17.589 35.0577 17.8299 35.2043 18.0986 35.2495C18.3673 35.2946 18.6431 35.2348 18.8687 35.0826C19.0944 34.9303 19.2526 34.6973 19.3105 34.4318V34.4308Z"
    fill="#E9BD43" />
  <path
    d="M25.3339 21.511C25.3339 21.511 20.9766 19.1245 19.6814 15.4688C19.1493 13.9315 18.1314 12.6079 16.7805 11.6968C16.1358 11.2691 15.4532 10.9012 14.7412 10.5977"
    stroke="#535461" stroke-width="2" stroke-miterlimit="10" />
  <path
    d="M13.9148 8.29946C14.3271 8.71269 14.7712 10.6563 14.7712 10.6563C14.7712 10.6563 12.8252 10.2018 12.4129 9.78754C12.2308 9.58592 12.1335 9.3222 12.141 9.05099C12.1486 8.77978 12.2604 8.52185 12.4535 8.33061C12.6465 8.13938 12.9058 8.02948 13.1779 8.02368C13.4499 8.01788 13.7138 8.11662 13.9148 8.29946V8.29946Z"
    fill="#E9BD43" />
  <path
    d="M17.4388 9.35783C17.5596 9.92855 16.8739 11.8003 16.8739 11.8003C16.8739 11.8003 15.4886 10.364 15.3677 9.79221C15.3319 9.65393 15.3245 9.50984 15.346 9.36864C15.3676 9.22743 15.4176 9.09205 15.4931 8.97066C15.5686 8.84927 15.6679 8.7444 15.7852 8.66237C15.9024 8.58035 16.0352 8.52287 16.1753 8.49342C16.3155 8.46397 16.4602 8.46315 16.6007 8.49101C16.7411 8.51887 16.8745 8.57484 16.9927 8.65553C17.1109 8.73622 17.2114 8.83997 17.2883 8.96049C17.3652 9.08102 17.4167 9.21583 17.4399 9.35678L17.4388 9.35783Z"
    fill="#E9BD43" />
  <path
    d="M21.2859 13.3309C21.1015 13.8836 19.5614 15.155 19.5614 15.155C19.5614 15.155 19.093 13.2178 19.2774 12.664C19.3661 12.3977 19.5572 12.1774 19.8087 12.0517C20.0603 11.9259 20.3516 11.9049 20.6187 11.9934C20.8857 12.0818 21.1066 12.2724 21.2327 12.5232C21.3589 12.7741 21.3799 13.0646 21.2912 13.3309H21.2859Z"
    fill="#E9BD43" />
  <path
    d="M23.5201 16.9838C23.4321 17.5598 22.1295 19.0722 22.1295 19.0722C22.1295 19.0722 21.3388 17.2417 21.4268 16.6657C21.4414 16.5234 21.4849 16.3855 21.5546 16.2604C21.6243 16.1353 21.7187 16.0256 21.8322 15.938C21.9457 15.8504 22.0758 15.7867 22.2147 15.7507C22.3536 15.7148 22.4984 15.7073 22.6403 15.7288C22.7822 15.7503 22.9182 15.8003 23.0401 15.8757C23.162 15.9512 23.2673 16.0506 23.3496 16.1678C23.4319 16.2851 23.4894 16.4178 23.5187 16.5579C23.548 16.698 23.5485 16.8425 23.5201 16.9828V16.9838Z"
    fill="#E9BD43" />
  <path
    d="M15.3759 13.4437C15.9609 13.4374 17.6441 12.3615 17.6441 12.3615C17.6441 12.3615 15.9366 11.3257 15.3515 11.3321C15.0704 11.3353 14.8021 11.4497 14.6056 11.6502C14.4091 11.8507 14.3005 12.1208 14.3038 12.4011C14.307 12.6814 14.4218 12.9489 14.6228 13.1449C14.8239 13.3408 15.0948 13.449 15.3759 13.4458V13.4437Z"
    fill="#E9BD43" />
  <path
    d="M18.0424 17.6864C18.5978 17.5057 19.8813 15.9775 19.8813 15.9775C19.8813 15.9775 17.9406 15.4987 17.3852 15.6794C17.2482 15.7184 17.1204 15.7846 17.0096 15.874C16.8988 15.9633 16.8072 16.0741 16.7403 16.1996C16.6734 16.3251 16.6325 16.4627 16.6202 16.6043C16.6079 16.7459 16.6243 16.8885 16.6685 17.0236C16.7127 17.1587 16.7838 17.2835 16.8775 17.3906C16.9712 17.4977 17.0856 17.5848 17.2139 17.6468C17.3421 17.7088 17.4816 17.7443 17.624 17.7513C17.7663 17.7583 17.9086 17.7366 18.0424 17.6875V17.6864Z"
    fill="#E9BD43" />
  <path
    d="M21.2009 21.456C21.7796 21.3714 23.3038 20.082 23.3038 20.082C23.3038 20.082 21.4722 19.283 20.8946 19.3676C20.7523 19.3822 20.6145 19.4254 20.4894 19.4945C20.3643 19.5637 20.2546 19.6573 20.1667 19.7699C20.0789 19.8824 20.0148 20.0116 19.9784 20.1495C19.9419 20.2874 19.9338 20.4312 19.9546 20.5723C19.9753 20.7134 20.0245 20.8488 20.0992 20.9705C20.1738 21.0921 20.2724 21.1975 20.3889 21.2801C20.5054 21.3628 20.6376 21.4211 20.7773 21.4515C20.917 21.4819 21.0615 21.4838 21.202 21.457L21.2009 21.456Z"
    fill="#E9BD43" />
  <path
    d="M55.3197 79.4143C76.51 79.4143 93.6882 62.2852 93.6882 41.1554C93.6882 20.0256 76.51 2.89648 55.3197 2.89648C34.1293 2.89648 16.9512 20.0256 16.9512 41.1554C16.9512 62.2852 34.1293 79.4143 55.3197 79.4143Z"
    fill="url(#paint0_linear)" />
  <path
    d="M55.3195 78.7809C76.1586 78.7809 93.052 61.9357 93.052 41.1561C93.052 20.3764 76.1586 3.53125 55.3195 3.53125C34.4804 3.53125 17.5869 20.3764 17.5869 41.1561C17.5869 61.9357 34.4804 78.7809 55.3195 78.7809Z"
    fill="#E9BD43" />
  <path
    d="M55.3195 71.0653C71.8854 71.0653 85.3147 57.6743 85.3147 41.1557C85.3147 24.6371 71.8854 11.2461 55.3195 11.2461C38.7536 11.2461 25.3242 24.6371 25.3242 41.1557C25.3242 57.6743 38.7536 71.0653 55.3195 71.0653Z"
    fill="#DDE1EC" />
  <path opacity="0.3" d="M56.1675 16.5312H54.4717V42.9531H56.1675V16.5312Z" fill="#535461" />
  <g opacity="0.1">
    <path opacity="0.1" d="M81.0759 40.5215H57.1221V42.6352H81.0759V40.5215Z" fill="black" />
    <path opacity="0.1" d="M40.21 32.6138L39.2266 34.4863L54.2985 42.3566L55.2819 40.4841L40.21 32.6138Z"
      fill="black" />
    <path opacity="0.1"
      d="M55.3194 44.7495C57.0755 44.7495 58.4991 43.3299 58.4991 41.5788C58.4991 39.8277 57.0755 38.4082 55.3194 38.4082C53.5633 38.4082 52.1396 39.8277 52.1396 41.5788C52.1396 43.3299 53.5633 44.7495 55.3194 44.7495Z"
      fill="black" />
  </g>
  <path d="M81.0749 40.0996H57.1211V42.2134H81.0749V40.0996Z" fill="#535461" />
  <path d="M55.2888 40.0637L40.2168 32.1934L39.2334 34.0659L54.3054 41.9362L55.2888 40.0637Z" fill="#535461" />
  <path
    d="M55.3194 44.3276C57.0755 44.3276 58.4991 42.908 58.4991 41.157C58.4991 39.4059 57.0755 37.9863 55.3194 37.9863C53.5633 37.9863 52.1396 39.4059 52.1396 41.157C52.1396 42.908 53.5633 44.3276 55.3194 44.3276Z"
    fill="#535461" />
  <g opacity="0.1">
    <path opacity="0.1"
      d="M27.6541 44.7491C27.6541 28.2301 41.0831 14.8395 57.6493 14.8395C62.2991 14.8354 66.8859 15.9109 71.0465 17.9809C75.2071 20.0508 78.8272 23.0584 81.6201 26.7653C76.5156 17.5155 66.6585 11.2461 55.3176 11.2461C38.7513 11.2461 25.3223 24.6367 25.3223 41.1557C25.3126 47.6451 27.4291 53.96 31.35 59.1395C28.9185 54.7311 27.6469 49.7802 27.6541 44.7491V44.7491Z"
      fill="black" />
  </g>
  <path
    d="M83.0336 19.1536C82.6775 18.8122 79.6801 21.0559 79.6801 21.0559C79.6801 21.0559 78.6128 21.2504 78.8672 21.9807C79.1215 22.711 77.749 26.8011 77.749 26.8011L77.1904 26.0222C77.2444 25.108 76.9922 24.4601 76.7463 24.0564C76.7261 24.0236 76.706 23.9919 76.6859 23.9623L76.7834 23.9285C76.7463 23.4297 75.9461 22.6698 75.521 22.2978C75.521 22.2439 75.521 22.1921 75.521 22.1371C75.5475 21.541 75.7871 20.9122 75.521 20.3721C75.22 19.756 74.3393 19.4463 74.2651 18.7699C74.2205 18.3662 74.494 18.0016 74.6148 17.6126C74.9031 16.6826 74.3043 15.7335 73.7319 14.9324C73.5381 14.632 73.3021 14.3608 73.0313 14.1271C72.7733 13.939 72.49 13.7881 72.1898 13.6789C71.3514 13.3407 70.4939 13.1706 69.629 12.9391C68.7991 12.7193 68.0339 12.6147 67.1913 12.8905C66.9913 12.9443 66.8087 13.0488 66.6613 13.1938C66.461 13.4179 66.4345 13.7371 66.3031 14.0045C66.0911 14.4346 65.6343 14.6914 65.2304 14.9673C64.8266 15.2431 64.4217 15.6215 64.4196 16.0971C64.4196 16.7724 65.1933 17.1973 65.452 17.8261C65.6936 18.4116 65.452 19.0637 65.3174 19.6809C65.2611 19.8804 65.2556 20.0907 65.3015 20.2929C65.3548 20.4435 65.4353 20.5832 65.5389 20.705C65.6989 20.9164 65.8706 21.113 66.0413 21.3138L65.9628 21.3445C64.5404 21.1986 63.6258 22.9995 63.6258 22.9995C63.6915 23.0133 63.754 23.0291 63.8155 23.0471L63.7551 23.1253C63.3253 23.6819 62.974 24.2946 62.7111 24.9463L61.5452 26.5041C61.5452 26.5041 61.2908 22.6085 61.9013 21.7323C62.5118 20.8562 61.3427 20.3203 61.3427 20.3203C61.3427 20.3203 58.799 17.4964 58.446 17.7395C58.0931 17.9825 59.3098 21.0506 60.3771 21.5379C60.3771 21.5379 60.4831 22.5113 60.2712 23.1443C60.1429 23.5449 59.4582 27.7703 59.4582 27.7703C59.4582 27.7703 58.8488 31.3245 61.6437 29.567C63.4593 28.4276 64.6327 26.4661 65.2304 25.2338C65.2721 25.1471 65.3114 25.0643 65.3481 24.9854C65.3757 25.1161 65.3945 25.2485 65.4043 25.3817L65.5103 29.4539C65.5371 30.4611 65.3166 31.4596 64.868 32.3624L63.6226 34.8809L63.7614 34.9232L63.6777 35.0437C62.8573 36.2475 61.4625 38.9541 64.3338 40.3334L68.1494 40.8206L67.9459 41.794C67.9459 41.794 66.3709 44.7638 65.913 46.8088C65.6286 48.0612 65.1844 49.272 64.5913 50.4117L64.709 50.4741C64.6846 50.5016 64.6592 50.5301 64.6348 50.5597C64.4034 50.8192 64.2505 51.1387 64.1939 51.4813L63.6766 52.2126C63.6766 52.2126 63.4731 55.2311 63.8801 55.9624C64.1027 56.3619 64.8415 56.6156 65.47 56.7636C66.4027 56.9844 67.1552 56.0237 66.6603 55.2321L66.6539 55.2216H66.6444C66.5384 54.7301 66.214 53.205 66.32 52.6259C66.3497 52.461 66.3773 52.2972 66.391 52.1302C66.4165 51.9108 66.4834 51.6981 66.5882 51.5035C66.6051 51.4707 66.6232 51.439 66.6412 51.4073L66.6963 51.4306C66.8669 51.5035 67.0355 51.5722 67.1955 51.6324C66.9475 51.8575 66.7715 52.3236 66.9835 53.2822C66.9835 53.2822 67.0037 55.6803 67.187 56.0576C67.3704 56.4349 69.4224 56.9337 69.7785 56.5448C70.1346 56.1558 69.5496 54.8157 69.5496 54.8157L69.5315 54.8284C69.4139 54.0516 69.2687 52.6608 69.6259 52.1133C69.77 51.8924 69.9099 51.6641 70.035 51.4506L70.1124 51.3185C70.7759 51.6483 71.4775 51.8966 71.8612 51.7244C71.8612 51.7244 73.538 47.8287 73.4362 47.3426C73.3345 46.8564 76.0277 41.3532 76.0277 41.3532C76.0277 41.3532 78.3139 38.8167 75.52 37.0687C74.6328 36.5117 73.9863 36.1376 73.5168 35.885L73.1235 33.8346C72.9214 32.7597 72.9575 31.6537 73.2295 30.5942L73.6535 28.9814L73.6885 28.8441C73.6885 28.8441 74.7558 26.6531 74.7049 25.6301C74.701 25.5506 74.7099 25.471 74.7314 25.3944C74.7431 25.443 74.7558 25.4938 74.7696 25.5466C75.05 26.6099 75.4194 27.6479 75.874 28.6496C76.6848 30.4738 77.8878 30.329 78.5471 30.07C78.6882 30.0156 78.8135 29.927 78.9117 29.8122C79.01 29.6975 79.0781 29.5602 79.1099 29.4127C79.3473 28.2776 79.9991 25.0974 80.0405 24.2192C80.0774 23.5324 80.1624 22.8491 80.2948 22.1741C81.9674 21.1986 83.3898 19.4949 83.0336 19.1536Z"
    fill="url(#paint1_linear)" />
  <path
    d="M70.5922 50.3558C70.5922 50.3558 70.3685 50.8029 70.0622 51.3398C69.9424 51.5512 69.8089 51.7784 69.6722 51.9972C69.1878 52.7697 69.6722 55.2312 69.6722 55.2312L68.6123 55.376L67.5524 54.8476L67.3584 53.0614V51.7551L68.5667 50.4076L69.0966 49.8242L70.5922 50.3558Z"
    fill="#F8BDC5" />
  <g opacity="0.1">
    <path opacity="0.1"
      d="M70.591 50.3558C70.591 50.3558 70.3674 50.8029 70.0611 51.3398C69.5932 51.0904 69.1408 50.813 68.7066 50.5091L68.6133 50.4435L68.5635 50.4076L69.0934 49.8242L70.591 50.3558Z"
      fill="black" />
  </g>
  <path
    d="M75.7734 41.3268C75.7734 41.3268 73.2074 46.7814 73.3049 47.2644C73.4024 47.7473 71.8041 51.6092 71.8041 51.6092C71.4395 51.7804 70.7696 51.5341 70.1379 51.2076C69.6616 50.9544 69.2014 50.672 68.76 50.3621L68.6668 50.2965L68.6106 50.2564L72.8226 38.6223L69.096 35.8966L68.8205 35.6947L67.1543 34.4688L72.2418 35.3861C72.2418 35.3861 72.4188 35.3639 73.3547 35.886C73.8041 36.1365 74.4284 36.5117 75.2912 37.0761C77.9505 38.8167 75.7734 41.3268 75.7734 41.3268Z"
    fill="#5E52AD" />
  <g opacity="0.03">
    <path opacity="0.03"
      d="M75.7734 41.3268C75.7734 41.3268 73.2074 46.7814 73.3049 47.2644C73.4024 47.7473 71.8041 51.6092 71.8041 51.6092C71.4395 51.7804 70.7696 51.5341 70.1379 51.2076C69.6616 50.9544 69.2014 50.672 68.76 50.3621L68.6668 50.2965L68.6106 50.2564L72.8226 38.6223L69.096 35.8966L68.8205 35.6947L67.1543 34.4688L72.2418 35.3861C72.2418 35.3861 72.4188 35.3639 73.3547 35.886C73.8041 36.1365 74.4284 36.5117 75.2912 37.0761C77.9505 38.8167 75.7734 41.3268 75.7734 41.3268Z"
      fill="black" />
  </g>
  <path
    d="M67.978 51.3194C67.978 51.3194 66.7188 51.126 67.1555 53.1541C67.1555 53.1541 67.1746 55.5321 67.3495 55.902C67.5244 56.2719 69.4799 56.7708 69.818 56.385C70.1561 55.9993 69.5996 54.6718 69.5996 54.6718C69.5996 54.6718 68.172 55.7097 67.784 54.5989C67.3961 53.4881 67.978 51.3194 67.978 51.3194Z"
    fill="#5D3E53" />
  <path
    d="M67.1053 50.9346C66.9679 51.065 66.8561 51.2199 66.7757 51.3911C66.6756 51.5851 66.6121 51.7958 66.5881 52.0126C66.5754 52.1775 66.5489 52.3413 66.5213 52.504C66.4005 53.1921 66.8636 55.2308 66.8636 55.2308L65.0237 55.5204L64.3464 54.7964L64.2012 53.2037C64.3819 52.6576 64.4798 52.0876 64.4916 51.5127C64.4916 51.0973 64.7036 50.7264 64.9155 50.4558C65.0593 50.2753 65.224 50.1124 65.4063 49.9707C65.4063 49.9707 67.4932 50.5964 67.1053 50.9346Z"
    fill="#F8BDC5" />
  <g opacity="0.1">
    <path opacity="0.1"
      d="M67.1055 50.9347C66.9681 51.0652 66.8563 51.22 66.7758 51.3913C66.0222 51.052 65.2305 50.624 64.9422 50.4655L64.9199 50.4539C65.0636 50.2733 65.2284 50.1105 65.4107 49.9688C65.4107 49.9688 67.4934 50.5965 67.1055 50.9347Z"
      fill="black" />
  </g>
  <path
    d="M73.0614 39.8789C73.0614 39.8789 71.852 42.148 71.0762 44.0303C70.5674 45.2669 69.516 48.2113 68.8504 50.0862L68.7529 50.3631C68.4604 51.1928 68.2653 51.754 68.2653 51.754C68.1364 51.7548 68.008 51.7359 67.8848 51.698C67.7704 51.6673 67.6421 51.6261 67.5054 51.5754L67.3517 51.5172C67.1991 51.458 67.0337 51.3893 66.8758 51.3175C66.1063 50.975 65.286 50.529 64.9881 50.3663L64.8758 50.3039C65.4438 49.169 65.8679 47.968 66.1381 46.7285C66.5737 44.7014 68.0745 41.7612 68.0745 41.7612L68.2685 40.7952L64.6373 40.3122C61.9017 38.9489 63.2308 36.2612 64.012 35.068C64.1452 34.8609 64.2891 34.6609 64.4433 34.4688L67.3485 35.1029C67.3485 35.1029 67.8064 35.2487 68.8239 35.6979L69.2913 35.9093C69.8615 36.1703 70.5632 36.5064 71.4111 36.9376C74.2707 38.3792 73.0614 39.8789 73.0614 39.8789Z"
    fill="#5E52AD" />
  <path
    d="M66.8456 55.0861C66.9492 55.2602 66.9988 55.4609 66.9882 55.6631C66.9776 55.8652 66.9072 56.0597 66.7859 56.222C66.6646 56.3843 66.4979 56.5071 66.3067 56.5751C66.1155 56.643 65.9084 56.653 65.7115 56.6038C65.1169 56.4569 64.412 56.2054 64.2001 55.809C63.8132 55.0851 64.0061 52.092 64.0061 52.092L64.5149 51.3438C64.5149 51.3438 64.2488 54.6507 64.8784 54.9371C65.508 55.2235 66.8392 55.0714 66.8392 55.0714L66.8456 55.0861Z"
    fill="#5D3E53" />
  <path
    d="M67.3613 13.106C67.1679 13.1597 66.9923 13.2637 66.8525 13.4073C66.6617 13.6292 66.6405 13.9463 66.5112 14.2115C66.3098 14.6343 65.8753 14.8932 65.4895 15.1627C65.1037 15.4322 64.7189 15.8116 64.7168 16.283C64.7168 16.9531 65.4587 17.3737 65.7004 17.9962C65.9304 18.5775 65.7004 19.2232 65.5721 19.8352C65.5187 20.0333 65.5136 20.2413 65.5573 20.4418C65.6079 20.5905 65.6847 20.7291 65.7841 20.8508C66.2515 21.485 66.8324 22.0472 67.145 22.7691C67.3825 23.3176 67.4482 23.9232 67.5107 24.5182C67.6008 25.3743 67.6909 26.2462 67.5277 27.0917C67.5118 27.1423 67.5118 27.1965 67.5277 27.247C67.5555 27.2955 67.5993 27.3329 67.6517 27.3527C67.9601 27.5022 68.2956 27.5879 68.6381 27.6047C68.9806 27.6215 69.323 27.5691 69.6446 27.4506C69.9663 27.3322 70.2606 27.1501 70.5099 26.9153C70.7592 26.6805 70.9583 26.3979 71.0953 26.0845C71.3073 25.6057 71.3889 25.0276 71.8086 24.7169C71.8576 24.6765 71.9165 24.6499 71.9793 24.6397C72.0782 24.6425 72.1742 24.6745 72.2548 24.7317C72.7996 25.0255 73.4599 25.0339 74.0673 24.9135C74.434 24.8405 74.8092 24.7105 75.0519 24.4252C75.5299 23.8587 75.2639 23.0121 75.2957 22.2734C75.3211 21.6826 75.549 21.059 75.2957 20.5243C75.0095 19.9134 74.169 19.6069 74.0991 18.9389C74.0567 18.5394 74.3174 18.1769 74.4329 17.7922C74.7074 16.8696 74.1372 15.929 73.5924 15.1352C73.4092 14.8392 73.1847 14.5705 72.9258 14.3373C72.6814 14.1518 72.4115 14.0023 72.1245 13.8934C71.3264 13.5584 70.5124 13.3893 69.6867 13.161C68.896 12.9359 68.1678 12.8313 67.3613 13.106Z"
    fill="#85555C" />
  <path
    d="M71.4152 26.8933H68.6065V22.355C68.6899 21.9192 68.7388 21.4775 68.7527 21.0339C68.7527 20.8849 68.7527 20.7327 68.7527 20.5795C68.7262 20.0384 68.6139 19.4983 68.3192 19.1686C67.5445 18.2998 70.8365 18.4446 70.8365 18.4446C70.9375 18.8435 71.0686 19.2343 71.2287 19.6135C71.4672 20.2052 71.7845 20.7623 72.172 21.2696C72.5129 21.7211 72.9498 22.0917 73.4513 22.355C75.3846 23.321 71.4152 26.8933 71.4152 26.8933Z"
    fill="#F8BDC5" />
  <g opacity="0.1">
    <path opacity="0.1"
      d="M71.2257 19.6135C70.9406 19.9843 70.5591 20.2703 70.1228 20.4405C69.6864 20.6108 69.2116 20.6588 68.7498 20.5795C68.7233 20.0384 68.611 19.4983 68.3163 19.1686C67.5415 18.2998 70.8336 18.4446 70.8336 18.4446C70.9346 18.8435 71.0657 19.2343 71.2257 19.6135V19.6135Z"
      fill="black" />
  </g>
  <path
    d="M69.1871 20.4729C70.6043 20.4729 71.7532 19.3273 71.7532 17.9142C71.7532 16.501 70.6043 15.3555 69.1871 15.3555C67.7699 15.3555 66.6211 16.501 66.6211 17.9142C66.6211 19.3273 67.7699 20.4729 69.1871 20.4729Z"
    fill="#F8BDC5" />
  <path
    d="M79.8386 22.3072C79.7126 22.9768 79.6318 23.654 79.5969 24.3343C79.5577 25.2041 78.9366 28.3578 78.7098 29.4834C78.6812 29.6278 78.6172 29.7628 78.5237 29.8766C78.4301 29.9903 78.3098 30.0793 78.1735 30.1355C77.5439 30.3923 76.3992 30.5361 75.6297 28.7278C75.1958 27.7327 74.8439 26.7042 74.5772 25.6522C74.4829 25.2987 74.4121 24.9392 74.3652 24.5763L76.0611 23.659C76.2207 23.8079 76.3559 23.9808 76.4617 24.1716C76.696 24.5721 76.9366 25.2147 76.8857 26.1204L77.4156 26.893C77.4156 26.893 78.7225 22.8378 78.4755 22.1138C78.2286 21.3899 79.2503 21.1965 79.2503 21.1965C79.2503 21.1965 82.1067 18.977 82.4459 19.3142C82.7851 19.6513 81.4358 21.3412 79.8386 22.3072Z"
    fill="#F8BDC5" />
  <path
    d="M65.944 24.2385C65.8117 24.6161 65.6596 24.9865 65.4882 25.3482C64.918 26.571 63.8009 28.5189 62.0711 29.6455C59.4086 31.383 59.9895 27.8594 59.9895 27.8594C59.9895 27.8594 60.6413 23.6699 60.7643 23.2736C60.9582 22.6458 60.8607 21.6809 60.8607 21.6809C59.8443 21.1979 58.6826 18.1572 59.0207 17.9152C59.3588 17.6732 61.7765 20.4739 61.7765 20.4739C61.7765 20.4739 62.8904 21.0024 62.3064 21.8743C61.7224 22.7462 61.9672 26.6049 61.9672 26.6049L63.0876 25.0629C63.3368 24.4194 63.6715 23.8123 64.0828 23.2577C64.2948 22.9692 64.4432 22.7948 64.4432 22.7948L65.944 24.2385Z"
    fill="#F8BDC5" />
  <g opacity="0.1">
    <path opacity="0.1"
      d="M76.4629 24.1718C76.1068 24.3029 74.7279 24.8578 74.5753 25.6515C74.4809 25.2979 74.4101 24.9385 74.3633 24.5756L76.0591 23.6582C76.22 23.8072 76.3562 23.9805 76.4629 24.1718Z"
      fill="black" />
  </g>
  <g opacity="0.1">
    <path opacity="0.1"
      d="M65.9442 24.2379C65.8119 24.6155 65.6598 24.9859 65.4884 25.3476C65.4227 24.8699 65.1525 23.6481 64.083 23.2539C64.295 22.9654 64.4434 22.791 64.4434 22.791L65.9442 24.2379Z"
      fill="black" />
  </g>
  <g opacity="0.1">
    <path opacity="0.1"
      d="M71.4152 26.8925H68.6064V22.3543C68.6899 21.9184 68.7388 21.4767 68.7527 21.0332C69.3304 21.5891 69.1873 22.4505 69.1873 22.4505L70.6881 25.8325L71.4152 22.8426L71.1735 22.4568L72.1698 21.2752C72.5108 21.7267 72.9477 22.0973 73.4491 22.3606C75.3845 23.3203 71.4152 26.8925 71.4152 26.8925Z"
      fill="black" />
  </g>
  <g opacity="0.1">
    <path opacity="0.1"
      d="M73.3994 36.1598C73.3994 36.1598 71.199 35.9854 69.2901 35.9029L69.0983 35.8945C68.8269 35.8839 68.5683 35.8755 68.315 35.8691C66.4623 35.8247 64.3669 35.179 64.0107 35.0659C64.1443 34.8595 64.2887 34.6601 64.4432 34.4688L67.3484 35.1029C67.3484 35.1029 67.8062 35.2487 68.8238 35.6979L67.1544 34.4688L72.2419 35.3861C72.2419 35.3861 72.4189 35.3639 73.3548 35.886L73.3994 36.1598Z"
      fill="black" />
  </g>
  <path
    d="M71.4154 23.0312L71.1738 22.6454L72.2485 21.3634C72.2485 21.3634 74.4648 22.4467 75.0456 22.2089C75.0456 22.2089 76.45 23.3715 76.4977 24.0436C76.4977 24.0436 74.4648 24.719 74.5125 25.7346C74.5602 26.7503 73.5479 28.9201 73.5479 28.9201L73.124 30.6555C72.8631 31.7072 72.827 32.8018 73.018 33.8684L73.4049 36.017C73.4049 36.017 70.3545 35.776 68.3173 35.7274C66.2802 35.6788 63.96 34.9073 63.96 34.9073L65.1482 32.4141C65.5766 31.5144 65.7865 30.5266 65.7608 29.5309L65.6548 25.4947C65.6548 25.4947 65.5584 23.4676 63.959 23.1294C63.959 23.1294 64.8302 21.3433 66.1848 21.4881C66.1848 21.4881 68.1583 20.6669 68.7445 21.2218C69.3306 21.7766 69.1864 22.6464 69.1864 22.6464L70.6873 26.0285L71.4154 23.0312Z"
    fill="#ED677B" />
  <g opacity="0.1">
    <path opacity="0.1"
      d="M67.3355 17.3884C67.7245 17.3884 68.0297 16.9772 68.4187 16.9984C68.6201 17.0089 68.7929 17.1368 68.9593 17.252C69.5881 17.6862 70.2878 18.0081 71.0271 18.2032C71.3144 18.2793 71.6186 18.3364 71.9069 18.2666C72.1951 18.1969 72.4654 17.9707 72.4983 17.6758C72.5063 17.5459 72.4891 17.4156 72.4474 17.2922C72.121 16.1584 71.3826 15.1866 70.3764 14.5665C69.9736 14.3203 69.4818 14.1321 69.0356 14.2864C68.6328 14.4249 68.3731 14.8011 68.0817 15.1108C67.862 15.3427 67.6125 15.5445 67.3397 15.7111C67.1277 15.839 66.8098 15.9225 66.6879 16.1571C66.4579 16.5947 66.8193 17.3841 67.3355 17.3884Z"
      fill="black" />
  </g>
  <path
    d="M67.3355 17.2907C67.7245 17.2907 68.0297 16.8796 68.4187 16.9007C68.6201 16.9113 68.7929 17.0392 68.9593 17.1544C69.5881 17.5886 70.2878 17.9104 71.0271 18.1056C71.3144 18.1817 71.6186 18.2387 71.9069 18.169C72.1951 18.0992 72.4654 17.8731 72.4983 17.5782C72.5063 17.4482 72.4891 17.3179 72.4474 17.1945C72.121 16.0608 71.3826 15.089 70.3764 14.4689C69.9736 14.2226 69.4818 14.0345 69.0356 14.1888C68.6328 14.3272 68.3731 14.7035 68.0817 15.0131C67.862 15.245 67.6125 15.4469 67.3397 15.6134C67.1277 15.7413 66.8098 15.8248 66.6879 16.0595C66.4579 16.5012 66.8193 17.2854 67.3355 17.2907Z"
    fill="#85555C" />
  <path opacity="0.05"
    d="M66.1621 28.3164C66.1621 28.3164 68.5342 29.1852 70.0837 28.5098L70.8585 28.5584C70.8585 28.5584 72.1463 29.4589 73.5083 29.0562"
    fill="black" />
  <path opacity="0.05" d="M77.3943 26.8691C77.3943 26.8691 77.0075 27.7865 77.2004 28.0761Z" fill="black" />
  <path opacity="0.05" d="M61.9502 26.5801C61.9502 26.5801 62.1442 27.4974 61.9502 27.787Z" fill="black" />
  <path
    d="M102.102 47.4844C102.102 47.4844 97.6669 51.9063 100.17 58.4674C102.674 65.0285 95.8799 75.9397 95.8799 75.9397C95.8799 75.9397 95.953 75.9291 96.0919 75.9059C105.2 74.3026 109.724 63.9167 104.66 56.2004C102.772 53.331 101.227 49.9659 102.102 47.4844Z"
    fill="#E9BD43" />
  <path opacity="0.1"
    d="M102.102 47.5566C102.102 47.5566 97.6669 51.9786 100.17 58.5397C102.674 65.1008 95.8799 76.0109 95.8799 76.0109C95.8799 76.0109 95.953 76.0004 96.0919 75.9771C105.2 74.3738 109.724 63.9879 104.66 56.2716C102.772 53.4033 101.227 50.0382 102.102 47.5566Z"
    fill="black" />
  <path
    d="M102.102 47.4844C102.102 47.4844 99.5981 52.904 102.102 57.326C104.605 61.748 102.526 74.1568 95.8789 75.9397"
    stroke="#535461" stroke-miterlimit="10" />
  <path
    d="M109.999 65.3677C109.999 65.3677 104.939 64.5645 104.478 69.0858C104.017 73.6071 94.7451 74.2338 94.7451 74.2338L94.9189 74.349C102.571 79.3586 109.888 77.5398 108.785 70.8878C108.378 68.4157 108.412 65.9321 109.999 65.3677Z"
    fill="#E9BD43" />
  <path d="M110 65.3672C110 65.3672 106.072 66.2264 106.396 69.7881C106.721 73.3498 100.567 77.6185 94.75 74.2344"
    stroke="#535461" stroke-miterlimit="10" />
  <path
    d="M105.548 74.3981C105.548 74.3981 101.563 73.6033 100.5 72.5433C99.4367 71.4833 94.6544 69.6295 94.1234 70.958C93.5923 72.2865 86.9499 76.7867 91.4662 77.5814C95.9824 78.3762 102.094 78.6383 103.422 78.1099C104.75 77.5814 105.548 74.3981 105.548 74.3981Z"
    fill="#A8A8A8" />
  <path opacity="0.2"
    d="M91.4661 77.0873C95.9835 77.882 102.094 78.1441 103.422 77.6157C104.434 77.212 105.137 75.2737 105.414 74.3711L105.547 74.3986C105.547 74.3986 104.75 77.5777 103.422 78.1071C102.094 78.6366 95.9824 78.3724 91.4661 77.5787C90.1625 77.3494 89.7894 76.8104 89.9303 76.1287C90.0406 76.5736 90.4953 76.916 91.4661 77.0873Z"
    fill="black" />
  <defs>
    <linearGradient id="paint0_linear" x1="55.3197" y1="79.4143" x2="55.3197" y2="2.89648"
      gradientUnits="userSpaceOnUse">
      <stop stop-color="#808080" stop-opacity="0.25" />
      <stop offset="0.54" stop-color="#808080" stop-opacity="0.12" />
      <stop offset="1" stop-color="#808080" stop-opacity="0.1" />
    </linearGradient>
    <linearGradient id="paint1_linear" x1="18548.6" y1="26291.5" x2="18548.6" y2="7912.91"
      gradientUnits="userSpaceOnUse">
      <stop stop-color="#808080" stop-opacity="0.25" />
      <stop offset="0.54" stop-color="#808080" stop-opacity="0.12" />
      <stop offset="1" stop-color="#808080" stop-opacity="0.1" />
    </linearGradient>
  </defs>
</svg>