<svg width="110" height="123" viewBox="0 0 110 123" fill="none" xmlns="http://www.w3.org/2000/svg">
  <path d="M38.4395 25.0078H52.6341" stroke="#3F3D56" stroke-width="2" stroke-miterlimit="10" />
  <path
    d="M21.5292 40.2467C22.2969 38.2928 22.4081 36.5188 21.7776 36.2843C21.147 36.0499 20.0134 37.4438 19.2456 39.3977C18.4779 41.3516 18.3667 43.1256 18.9973 43.3601C19.6278 43.5945 20.7614 42.2006 21.5292 40.2467Z"
    fill="#2F2E41" />
  <path
    d="M109.549 49.3627C111.093 60.5419 108.99 71.7333 98.2948 76.0911C87.5992 80.449 75.297 75.5478 70.8169 65.144C66.3369 54.7402 76.9073 48.5151 82.071 38.4155C92.5569 17.9063 104.753 14.6459 109.549 49.3627Z"
    fill="#F2F2F2" />
  <path
    d="M90.2937 78.9215C99.5486 78.9215 107.051 77.9286 107.051 76.7039C107.051 75.4792 99.5486 74.4863 90.2937 74.4863C81.0388 74.4863 73.5361 75.4792 73.5361 76.7039C73.5361 77.9286 81.0388 78.9215 90.2937 78.9215Z"
    fill="#3F3D56" />
  <path d="M79.3306 71.0612L79.9609 73.2793L84.0464 72.1808L83.4161 69.9627L79.3306 71.0612Z" fill="#2F2E41" />
  <path
    d="M79.6118 73.6712C80.0053 73.5654 80.0892 72.652 79.7991 71.6312C79.509 70.6104 78.9548 69.8686 78.5612 69.9744C78.1677 70.0802 78.0838 70.9936 78.3739 72.0144C78.664 73.0353 79.2182 73.777 79.6118 73.6712Z"
    fill="#2F2E41" />
  <path
    d="M92.2268 63.4315C92.5156 61.3586 92.2074 59.6068 91.5385 59.5186C90.8695 59.4304 90.093 61.0392 89.8042 63.1121C89.5154 65.1849 89.8236 66.9367 90.4925 67.0249C91.1615 67.1131 91.9379 65.5043 92.2268 63.4315Z"
    fill="#2F2E41" />
  <path
    d="M90.2522 77.9371C94.553 77.9371 98.0395 74.5456 98.0395 70.3621C98.0395 66.1785 94.553 62.7871 90.2522 62.7871C85.9514 62.7871 82.4648 66.1785 82.4648 70.3621C82.4648 74.5456 85.9514 77.9371 90.2522 77.9371Z"
    fill="#2F2E41" />
  <path d="M79.3306 69.7175L79.9609 71.9355L84.0464 70.837L83.4161 68.6189L79.3306 69.7175Z" fill="#2F2E41" />
  <path
    d="M79.6118 72.3294C80.0053 72.2236 80.0892 71.3102 79.7991 70.2894C79.509 69.2686 78.9548 68.5268 78.5612 68.6326C78.1677 68.7384 78.0838 69.6518 78.3739 70.6726C78.664 71.6935 79.2182 72.4352 79.6118 72.3294Z"
    fill="#2F2E41" />
  <path
    d="M92.2972 68.6114C93.7671 68.6114 94.9587 67.4523 94.9587 66.0225C94.9587 64.5927 93.7671 63.4336 92.2972 63.4336C90.8273 63.4336 89.6357 64.5927 89.6357 66.0225C89.6357 67.4523 90.8273 68.6114 92.2972 68.6114Z"
    fill="white" />
  <path
    d="M93.1479 65.7416C93.6379 65.7416 94.0351 65.3552 94.0351 64.8786C94.0351 64.402 93.6379 64.0156 93.1479 64.0156C92.6579 64.0156 92.2607 64.402 92.2607 64.8786C92.2607 65.3552 92.6579 65.7416 93.1479 65.7416Z"
    fill="#3F3D56" />
  <path
    d="M99.245 75.5679C102.127 75.4276 104.334 72.8056 104.175 69.7116C104.015 66.6175 101.55 64.223 98.6685 64.3633C95.7868 64.5036 95.3346 66.7041 95.4937 69.7982C95.6529 72.8922 96.3632 75.7082 99.245 75.5679Z"
    fill="#E9BD43" />
  <path
    d="M87.0703 67.157C86.6013 67.1938 86.1365 67.0479 85.7781 66.7514C85.4197 66.4549 85.1971 66.032 85.1591 65.5759C85.1212 65.1197 85.271 64.6675 85.5757 64.3188C85.8804 63.9701 86.3151 63.7534 86.784 63.7163C87.7608 63.6394 88.0271 64.3937 88.1062 65.3438C88.1852 66.2939 88.047 67.0801 87.0703 67.157Z"
    fill="white" />
  <path d="M4.87598 35.1468H48.4942L55.2567 38.3515L66.0314 43.4576L73.0763 30.627H93.0119" stroke="#3F3D56"
    stroke-width="2" stroke-miterlimit="10" />
  <path
    d="M21.9643 37.8002C22.7093 37.8002 23.3133 37.2127 23.3133 36.488C23.3133 35.7633 22.7093 35.1758 21.9643 35.1758C21.2192 35.1758 20.6152 35.7633 20.6152 36.488C20.6152 37.2127 21.2192 37.8002 21.9643 37.8002Z"
    fill="#E9BD43" />
  <path
    d="M34.5541 36.4584C35.2991 36.4584 35.9031 35.8709 35.9031 35.1462C35.9031 34.4215 35.2991 33.834 34.5541 33.834C33.8091 33.834 33.2051 34.4215 33.2051 35.1462C33.2051 35.8709 33.8091 36.4584 34.5541 36.4584Z"
    fill="#E9BD43" />
  <path
    d="M55.2387 39.6655C55.9837 39.6655 56.5877 39.078 56.5877 38.3532C56.5877 37.6285 55.9837 37.041 55.2387 37.041C54.4936 37.041 53.8896 37.6285 53.8896 38.3532C53.8896 39.078 54.4936 39.6655 55.2387 39.6655Z"
    fill="#E9BD43" />
  <path
    d="M84.3178 31.9389C85.0628 31.9389 85.6668 31.3514 85.6668 30.6267C85.6668 29.902 85.0628 29.3145 84.3178 29.3145C83.5727 29.3145 82.9688 29.902 82.9688 30.6267C82.9688 31.3514 83.5727 31.9389 84.3178 31.9389Z"
    fill="#E9BD43" />
  <path
    d="M70.2279 37.0424C70.973 37.0424 71.5769 36.4549 71.5769 35.7302C71.5769 35.0055 70.973 34.418 70.2279 34.418C69.4829 34.418 68.8789 35.0055 68.8789 35.7302C68.8789 36.4549 69.4829 37.0424 70.2279 37.0424Z"
    fill="#E9BD43" />
  <path
    d="M42.1479 57.6969C42.9512 57.6969 43.6024 57.0634 43.6024 56.282C43.6024 55.5006 42.9512 54.8672 42.1479 54.8672C41.3446 54.8672 40.6934 55.5006 40.6934 56.282C40.6934 57.0634 41.3446 57.6969 42.1479 57.6969Z"
    stroke="#3F3D56" stroke-width="2" stroke-miterlimit="10" />
  <path
    d="M16.7576 80.3609C26.0125 80.3609 33.5151 79.3681 33.5151 78.1433C33.5151 76.9186 26.0125 75.9258 16.7576 75.9258C7.50262 75.9258 0 76.9186 0 78.1433C0 79.3681 7.50262 80.3609 16.7576 80.3609Z"
    fill="#3F3D56" />
  <path
    d="M15.8518 74.8824C20.1526 74.8824 23.6391 71.4909 23.6391 67.3074C23.6391 63.1239 20.1526 59.7324 15.8518 59.7324C11.551 59.7324 8.06445 63.1239 8.06445 67.3074C8.06445 71.4909 11.551 74.8824 15.8518 74.8824Z"
    fill="#2F2E41" />
  <path d="M14.6685 73.252H12.3027V77.375H14.6685V73.252Z" fill="#2F2E41" />
  <path d="M19.4 73.252H17.0342V77.375H19.4V73.252Z" fill="#2F2E41" />
  <path
    d="M14.2742 78.1434C15.363 78.1434 16.2457 77.8214 16.2457 77.4242C16.2457 77.027 15.363 76.7051 14.2742 76.7051C13.1854 76.7051 12.3027 77.027 12.3027 77.4242C12.3027 77.8214 13.1854 78.1434 14.2742 78.1434Z"
    fill="#2F2E41" />
  <path
    d="M19.0057 78.0477C20.0945 78.0477 20.9771 77.7257 20.9771 77.3285C20.9771 76.9313 20.0945 76.6094 19.0057 76.6094C17.9168 76.6094 17.0342 76.9313 17.0342 77.3285C17.0342 77.7257 17.9168 78.0477 19.0057 78.0477Z"
    fill="#2F2E41" />
  <path
    d="M16.0482 67.9786C17.5181 67.9786 18.7097 66.8195 18.7097 65.3897C18.7097 63.9599 17.5181 62.8008 16.0482 62.8008C14.5783 62.8008 13.3867 63.9599 13.3867 65.3897C13.3867 66.8195 14.5783 67.9786 16.0482 67.9786Z"
    fill="white" />
  <path
    d="M16.0483 66.2533C16.5383 66.2533 16.9355 65.8669 16.9355 65.3903C16.9355 64.9137 16.5383 64.5273 16.0483 64.5273C15.5583 64.5273 15.1611 64.9137 15.1611 65.3903C15.1611 65.8669 15.5583 66.2533 16.0483 66.2533Z"
    fill="#3F3D56" />
  <path
    d="M8.29677 60.2635C7.66798 57.5242 9.67797 54.7564 12.7862 54.0813C15.8945 53.4061 18.9239 55.0794 19.5527 57.8187C20.1815 60.5579 18.1216 61.5681 15.0133 62.2433C11.9051 62.9184 8.92556 63.0027 8.29677 60.2635Z"
    fill="#E9BD43" />
  <path
    d="M13.1897 53.1167C17.4905 53.1167 20.977 49.7253 20.977 45.5418C20.977 41.3582 17.4905 37.9668 13.1897 37.9668C8.88885 37.9668 5.40234 41.3582 5.40234 45.5418C5.40234 49.7253 8.88885 53.1167 13.1897 53.1167Z"
    fill="#2F2E41" />
  <path d="M12.0064 51.4863H9.64062V55.6094H12.0064V51.4863Z" fill="#2F2E41" />
  <path d="M16.7378 51.4863H14.3721V55.6094H16.7378V51.4863Z" fill="#2F2E41" />
  <path
    d="M11.6121 56.3758C12.7009 56.3758 13.5836 56.0538 13.5836 55.6566C13.5836 55.2595 12.7009 54.9375 11.6121 54.9375C10.5233 54.9375 9.64062 55.2595 9.64062 55.6566C9.64062 56.0538 10.5233 56.3758 11.6121 56.3758Z"
    fill="#2F2E41" />
  <path
    d="M16.3435 56.282C17.4324 56.282 18.315 55.9601 18.315 55.5629C18.315 55.1657 17.4324 54.8438 16.3435 54.8438C15.2547 54.8438 14.3721 55.1657 14.3721 55.5629C14.3721 55.9601 15.2547 56.282 16.3435 56.282Z"
    fill="#2F2E41" />
  <path
    d="M13.3871 46.213C14.857 46.213 16.0486 45.0539 16.0486 43.6241C16.0486 42.1943 14.857 41.0352 13.3871 41.0352C11.9172 41.0352 10.7256 42.1943 10.7256 43.6241C10.7256 45.0539 11.9172 46.213 13.3871 46.213Z"
    fill="white" />
  <path
    d="M13.3872 44.4877C13.8771 44.4877 14.2743 44.1013 14.2743 43.6247C14.2743 43.1481 13.8771 42.7617 13.3872 42.7617C12.8972 42.7617 12.5 43.1481 12.5 43.6247C12.5 44.1013 12.8972 44.4877 13.3872 44.4877Z"
    fill="#3F3D56" />
  <path
    d="M5.63563 38.4978C5.00684 35.7586 7.01684 32.9907 10.1251 32.3156C13.2333 31.6405 16.2628 33.3138 16.8916 36.053C17.5204 38.7922 15.4604 39.8025 12.3522 40.4776C9.24394 41.1528 6.26442 41.2371 5.63563 38.4978Z"
    fill="#E9BD43" />
  <path
    d="M7.93684 43.6503C8.22613 43.057 6.88557 41.8493 4.94261 40.953C2.99965 40.0566 1.19006 39.8109 0.900763 40.4042C0.611471 40.9975 1.95203 42.2052 3.89499 43.1016C5.83795 43.9979 7.64755 44.2436 7.93684 43.6503Z"
    fill="#2F2E41" />
  <path
    d="M9.36426 48.2747C9.36426 49.0161 11.3267 50.48 13.5044 50.48C15.682 50.48 17.7238 48.3928 17.7238 47.6514C17.7238 46.91 15.682 47.7952 13.5044 47.7952C11.3267 47.7952 9.36426 47.5333 9.36426 48.2747Z"
    fill="white" />
  <path d="M94.7895 54.6758H82.3564V60.8279H94.7895V54.6758Z" fill="#E9BD43" />
  <path d="M93.8168 55.6758H81.3838V61.8279H93.8168V55.6758Z" stroke="#3F3D56" stroke-width="2"
    stroke-miterlimit="10" />
  <path d="M25.8856 19.6113H22.3369V23.0632H25.8856V19.6113Z" fill="#FF6584" />
  <path d="M24.9989 18.459H21.4502V21.9109H24.9989V18.459Z" stroke="#3F3D56" stroke-width="2" stroke-miterlimit="10" />
  <path
    d="M89.3127 26.271C93.6136 26.271 97.1001 22.8796 97.1001 18.6961C97.1001 14.5125 93.6136 11.1211 89.3127 11.1211C85.0119 11.1211 81.5254 14.5125 81.5254 18.6961C81.5254 22.8796 85.0119 26.271 89.3127 26.271Z"
    fill="#2F2E41" />
  <path d="M92.3205 28.3982L94.6484 27.9883L93.8934 23.9311L91.5655 24.341L92.3205 28.3982Z" fill="#2F2E41" />
  <path d="M87.6643 29.2185L89.9922 28.8086L89.2371 24.7515L86.9092 25.1614L87.6643 29.2185Z" fill="#2F2E41" />
  <path
    d="M88.9005 30.073C89.7313 29.3886 90.191 28.588 89.9271 28.2849C89.6632 27.9818 88.7758 28.291 87.9449 28.9755C87.114 29.66 86.6543 30.4605 86.9182 30.7636C87.1821 31.0667 88.0696 30.7575 88.9005 30.073Z"
    fill="#2F2E41" />
  <path
    d="M93.46 29.2703C94.2909 28.5858 94.7506 27.7853 94.4867 27.4822C94.2228 27.1791 93.3353 27.4883 92.5045 28.1727C91.6736 28.8572 91.2139 29.6578 91.4778 29.9609C91.7417 30.264 92.6291 29.9548 93.46 29.2703Z"
    fill="#2F2E41" />
  <path
    d="M88.7679 19.4317C90.2378 19.4317 91.4294 18.2726 91.4294 16.8428C91.4294 15.413 90.2378 14.2539 88.7679 14.2539C87.298 14.2539 86.1064 15.413 86.1064 16.8428C86.1064 18.2726 87.298 19.4317 88.7679 19.4317Z"
    fill="white" />
  <path
    d="M87.6743 16.7787C88.1642 16.7787 88.5614 16.3923 88.5614 15.9157C88.5614 15.4391 88.1642 15.0527 87.6743 15.0527C87.1843 15.0527 86.7871 15.4391 86.7871 15.9157C86.7871 16.3923 87.1843 16.7787 87.6743 16.7787Z"
    fill="#3F3D56" />
  <path
    d="M95.4558 10.4551C95.5729 7.65078 93.0882 5.27546 89.906 5.14973C86.7239 5.02399 84.0493 7.19545 83.9322 9.99982C83.8151 12.8042 86.0271 13.4414 89.2092 13.5671C92.3914 13.6928 95.3387 13.2595 95.4558 10.4551Z"
    fill="#E9BD43" />
  <path
    d="M85.9173 18.1624C86.0681 17.5223 84.4912 16.6246 82.3952 16.1572C80.2991 15.6899 78.4776 15.8299 78.3268 16.47C78.176 17.11 79.7529 18.0078 81.849 18.4751C83.945 18.9425 85.7665 18.8024 85.9173 18.1624Z"
    fill="#2F2E41" />
  <path
    d="M101.204 20.635C101.355 19.995 99.7783 19.0972 97.6823 18.6299C95.5862 18.1625 93.7647 18.3025 93.6139 18.9426C93.4631 19.5827 95.04 20.4804 97.1361 20.9478C99.2321 21.4151 101.054 21.2751 101.204 20.635Z"
    fill="#2F2E41" />
  <path
    d="M91.4519 21.6812C91.4935 21.9042 91.4894 22.133 91.44 22.3545C91.3906 22.576 91.2968 22.7859 91.1641 22.9721C91.0313 23.1584 90.8621 23.3174 90.6661 23.44C90.4702 23.5627 90.2513 23.6466 90.0221 23.6869C89.7928 23.7273 89.5576 23.7234 89.3299 23.6753C89.1021 23.6273 88.8864 23.5361 88.6949 23.4069C88.5034 23.2778 88.34 23.1132 88.2139 22.9226C88.0878 22.732 88.0015 22.5191 87.96 22.2961C87.7855 21.3581 88.531 21.0262 89.4953 20.8564C90.4595 20.6866 91.2774 20.7432 91.4519 21.6812Z"
    fill="white" />
  <path d="M70.2441 10.0215L79.2144 16.7335" stroke="#3F3D56" stroke-width="2" stroke-miterlimit="10" />
  <path
    d="M66.0058 13.5698C69.7077 13.5698 72.7088 10.6506 72.7088 7.04953C72.7088 3.4485 69.7077 0.529297 66.0058 0.529297C62.3038 0.529297 59.3027 3.4485 59.3027 7.04953C59.3027 10.6506 62.3038 13.5698 66.0058 13.5698Z"
    fill="#FF6584" />
  <path
    d="M89.3029 65.2322C89.5918 63.1594 89.2836 61.4076 88.6146 61.3194C87.9457 61.2312 87.1692 62.84 86.8804 64.9128C86.5916 66.9857 86.8997 68.7375 87.5687 68.8257C88.2377 68.9139 89.0141 67.3051 89.3029 65.2322Z"
    fill="#2F2E41" />
  <path
    d="M6.78359 77.2104C7.52863 77.2104 8.13261 76.6229 8.13261 75.8982C8.13261 75.1734 7.52863 74.5859 6.78359 74.5859C6.03855 74.5859 5.43457 75.1734 5.43457 75.8982C5.43457 76.6229 6.03855 77.2104 6.78359 77.2104Z"
    fill="#E9BD43" />
  <path d="M28.8426 74.3613H25.2939V77.8132H28.8426V74.3613Z" fill="#FF6584" />
  <path
    d="M25.3148 77.976C26.0599 77.976 26.6639 77.3885 26.6639 76.6638C26.6639 75.9391 26.0599 75.3516 25.3148 75.3516C24.5698 75.3516 23.9658 75.9391 23.9658 76.6638C23.9658 77.3885 24.5698 77.976 25.3148 77.976Z"
    fill="#E9BD43" />
  <path
    d="M45.5365 26.2944C46.2816 26.2944 46.8855 25.7069 46.8855 24.9822C46.8855 24.2574 46.2816 23.6699 45.5365 23.6699C44.7915 23.6699 44.1875 24.2574 44.1875 24.9822C44.1875 25.7069 44.7915 26.2944 45.5365 26.2944Z"
    fill="#E9BD43" />
  <path
    d="M71.7341 66.2865C72.0899 66.2865 72.3783 66.0059 72.3783 65.6598C72.3783 65.3138 72.0899 65.0332 71.7341 65.0332C71.3783 65.0332 71.0898 65.3138 71.0898 65.6598C71.0898 66.0059 71.3783 66.2865 71.7341 66.2865Z"
    fill="#FF6584" />
  <path d="M74.8906 76.0608V68.9258" stroke="#3F3D56" stroke-width="2" stroke-miterlimit="10" />
  <path
    d="M74.8898 69.9359C75.4627 69.9359 75.9271 69.4842 75.9271 68.927C75.9271 68.3697 75.4627 67.918 74.8898 67.918C74.3169 67.918 73.8525 68.3697 73.8525 68.927C73.8525 69.4842 74.3169 69.9359 74.8898 69.9359Z"
    fill="#3F3D56" />
  <path d="M74.89 73.3237C74.89 73.3237 74.7418 70.2235 71.7041 70.5838Z" fill="#3F3D56" />
  <path
    d="M29.6704 85.1194L29.5724 86.1554H27.4164V94.3594H25.7784V86.1554H23.5804V85.1194H29.6704ZM32.8256 88.0174C32.4242 88.0174 32.1629 88.288 32.0416 88.8294C31.9296 89.3614 31.8736 90.0007 31.8736 90.7474L31.8736 94.3594H30.3336L30.3336 87.2194L31.6216 87.0514L31.6916 88.3114C31.8222 87.8914 32.0509 87.56 32.3776 87.3174C32.7042 87.0654 33.0822 86.9394 33.5116 86.9394C33.9782 86.9394 34.3469 87.0747 34.6176 87.3454C34.8976 87.616 35.0376 87.9847 35.0376 88.4514C35.0376 89.2074 34.6736 89.5854 33.9456 89.5854C33.7029 89.5854 33.5162 89.534 33.3856 89.4314C33.4509 89.1887 33.4836 88.9787 33.4836 88.8014C33.4836 88.2787 33.2642 88.0174 32.8256 88.0174ZM39.651 93.7154C39.4737 94.042 39.2123 94.28 38.867 94.4294C38.531 94.588 38.1483 94.6674 37.719 94.6674C37.075 94.6674 36.5337 94.4714 36.095 94.0794C35.6657 93.6874 35.451 93.1787 35.451 92.5534C35.451 91.0414 36.7997 90.2854 39.497 90.2854V89.0674C39.497 88.6007 39.427 88.2554 39.287 88.0314C39.147 87.798 38.881 87.6814 38.489 87.6814C38.1623 87.6814 37.8917 87.77 37.677 87.9474C37.4623 88.1154 37.355 88.3534 37.355 88.6614C37.355 88.8574 37.3923 89.0674 37.467 89.2914C37.3363 89.394 37.1497 89.4454 36.907 89.4454C36.571 89.4454 36.305 89.3614 36.109 89.1934C35.913 89.0254 35.815 88.7827 35.815 88.4654C35.815 88.0174 36.067 87.6534 36.571 87.3734C37.075 87.084 37.747 86.9394 38.587 86.9394C39.203 86.9394 39.6883 87.0327 40.043 87.2194C40.3977 87.3967 40.6497 87.6767 40.799 88.0594C40.9577 88.4327 41.037 88.9367 41.037 89.5714V93.2114C41.037 93.6687 41.1817 93.9767 41.471 94.1354C41.3963 94.2754 41.2843 94.3827 41.135 94.4574C40.995 94.532 40.8317 94.5694 40.645 94.5694C40.3743 94.5694 40.1503 94.4947 39.973 94.3454C39.7957 94.1867 39.6883 93.9767 39.651 93.7154ZM38.265 93.7294C38.6757 93.7294 38.9837 93.5754 39.189 93.2674C39.3943 92.95 39.497 92.558 39.497 92.0914V90.9854C37.9197 90.9854 37.131 91.4894 37.131 92.4974C37.131 92.8707 37.229 93.1694 37.425 93.3934C37.6303 93.6174 37.9103 93.7294 38.265 93.7294ZM44.453 85.9734C44.453 86.9907 44.4063 87.7374 44.313 88.2134C44.4903 87.8214 44.7563 87.5134 45.111 87.2894C45.4657 87.056 45.8577 86.9394 46.287 86.9394C47.1737 86.9394 47.8177 87.294 48.219 88.0034C48.6203 88.7127 48.821 89.6087 48.821 90.6914C48.821 91.886 48.5643 92.8474 48.051 93.5754C47.5377 94.3034 46.749 94.6674 45.685 94.6674C45.2277 94.6674 44.7423 94.6067 44.229 94.4854C43.725 94.3734 43.2863 94.2147 42.913 94.0094V84.5594L44.453 84.3914V85.9734ZM44.453 93.4074C44.8637 93.6874 45.2977 93.8274 45.755 93.8274C46.3243 93.8274 46.6977 93.538 46.875 92.9594C47.0523 92.3807 47.141 91.648 47.141 90.7614C47.141 89.968 47.0523 89.3147 46.875 88.8014C46.707 88.2787 46.357 88.0174 45.825 88.0174C45.2837 88.0174 44.9197 88.274 44.733 88.7874C44.5463 89.2914 44.453 89.9354 44.453 90.7194V93.4074ZM53.9928 93.7154C53.8155 94.042 53.5541 94.28 53.2088 94.4294C52.8728 94.588 52.4901 94.6674 52.0608 94.6674C51.4168 94.6674 50.8755 94.4714 50.4368 94.0794C50.0075 93.6874 49.7928 93.1787 49.7928 92.5534C49.7928 91.0414 51.1415 90.2854 53.8388 90.2854V89.0674C53.8388 88.6007 53.7688 88.2554 53.6288 88.0314C53.4888 87.798 53.2228 87.6814 52.8308 87.6814C52.5041 87.6814 52.2335 87.77 52.0188 87.9474C51.8041 88.1154 51.6968 88.3534 51.6968 88.6614C51.6968 88.8574 51.7341 89.0674 51.8088 89.2914C51.6781 89.394 51.4915 89.4454 51.2488 89.4454C50.9128 89.4454 50.6468 89.3614 50.4508 89.1934C50.2548 89.0254 50.1568 88.7827 50.1568 88.4654C50.1568 88.0174 50.4088 87.6534 50.9128 87.3734C51.4168 87.084 52.0888 86.9394 52.9288 86.9394C53.5448 86.9394 54.0301 87.0327 54.3848 87.2194C54.7395 87.3967 54.9915 87.6767 55.1408 88.0594C55.2995 88.4327 55.3788 88.9367 55.3788 89.5714V93.2114C55.3788 93.6687 55.5235 93.9767 55.8128 94.1354C55.7381 94.2754 55.6261 94.3827 55.4768 94.4574C55.3368 94.532 55.1735 94.5694 54.9868 94.5694C54.7161 94.5694 54.4921 94.4947 54.3148 94.3454C54.1375 94.1867 54.0301 93.9767 53.9928 93.7154ZM52.6068 93.7294C53.0175 93.7294 53.3255 93.5754 53.5308 93.2674C53.7361 92.95 53.8388 92.558 53.8388 92.0914V90.9854C52.2615 90.9854 51.4728 91.4894 51.4728 92.4974C51.4728 92.8707 51.5708 93.1694 51.7668 93.3934C51.9721 93.6174 52.2521 93.7294 52.6068 93.7294ZM58.0388 84.2794C58.3468 84.2794 58.5941 84.354 58.7808 84.5034C58.9768 84.6527 59.0748 84.8674 59.0748 85.1474C59.0748 85.4367 58.9721 85.6607 58.7668 85.8194C58.5708 85.9687 58.3141 86.0434 57.9968 86.0434C57.6888 86.0434 57.4415 85.9687 57.2548 85.8194C57.0681 85.67 56.9748 85.4554 56.9748 85.1754C56.9748 84.886 57.0728 84.6667 57.2688 84.5174C57.4741 84.3587 57.7308 84.2794 58.0388 84.2794ZM58.8088 93.8694C58.8088 96.0627 58.1555 97.1594 56.8488 97.1594C56.5875 97.1594 56.3588 97.108 56.1628 97.0054C55.9668 96.9027 55.8688 96.7487 55.8688 96.5434C56.3915 96.5434 56.7508 96.3334 56.9468 95.9134C57.1521 95.4934 57.2548 94.9427 57.2548 94.2614V87.2194H58.8088V93.8694ZM63.2478 86.9394C64.2931 86.9394 65.0678 87.28 65.5718 87.9614C66.0758 88.6334 66.3278 89.5434 66.3278 90.6914C66.3278 91.914 66.0851 92.8847 65.5998 93.6034C65.1144 94.3127 64.3304 94.6674 63.2478 94.6674C62.1838 94.6674 61.4044 94.3267 60.9098 93.6454C60.4244 92.964 60.1818 92.026 60.1818 90.8314C60.1818 89.674 60.4338 88.736 60.9378 88.0174C61.4418 87.2987 62.2118 86.9394 63.2478 86.9394ZM63.2478 93.8274C63.8264 93.8274 64.2044 93.5427 64.3818 92.9734C64.5591 92.404 64.6478 91.6667 64.6478 90.7614C64.6478 89.9307 64.5498 89.226 64.3538 88.6474C64.1671 88.0687 63.7984 87.7794 63.2478 87.7794C62.3238 87.7794 61.8618 88.7734 61.8618 90.7614C61.8618 91.6667 61.9458 92.404 62.1138 92.9734C62.2911 93.5427 62.6691 93.8274 63.2478 93.8274ZM74.6541 92.3854C74.8687 92.488 74.9761 92.6887 74.9761 92.9874C74.9761 93.3234 74.8641 93.622 74.6401 93.8834C74.4161 94.1354 74.1267 94.3267 73.7721 94.4574C73.4174 94.5974 73.0581 94.6674 72.6941 94.6674C71.6674 94.6674 70.9067 94.336 70.4121 93.6734C69.9174 93.0014 69.6701 92.1007 69.6701 90.9714C69.6701 89.7674 69.9361 88.7967 70.4681 88.0594C71.0094 87.3127 71.8261 86.9394 72.9181 86.9394C73.6087 86.9394 74.1641 87.1214 74.5841 87.4854C75.0041 87.84 75.2141 88.344 75.2141 88.9974C75.2141 89.8094 74.9294 90.3787 74.3601 90.7054C73.8001 91.032 73.0347 91.1954 72.0641 91.1954C71.7934 91.1954 71.5367 91.186 71.2941 91.1674C71.3221 91.9047 71.4434 92.4927 71.6581 92.9314C71.8821 93.37 72.2741 93.5894 72.8341 93.5894C73.2447 93.5894 73.6041 93.4867 73.9121 93.2814C74.2294 93.0667 74.4767 92.768 74.6541 92.3854ZM72.6941 87.7374C72.1901 87.7374 71.8354 88.0034 71.6301 88.5354C71.4247 89.058 71.3127 89.702 71.2941 90.4674C71.5741 90.486 71.7794 90.4954 71.9101 90.4954C73.0861 90.4954 73.6741 90.024 73.6741 89.0814C73.6741 88.6987 73.5901 88.3814 73.4221 88.1294C73.2634 87.868 73.0207 87.7374 72.6941 87.7374ZM76.5582 87.2194L77.8462 87.0514L77.9162 88.3114C78.0935 87.8634 78.3642 87.5227 78.7282 87.2894C79.1015 87.056 79.5355 86.9394 80.0302 86.9394C80.8142 86.9394 81.3602 87.1587 81.6682 87.5974C81.9762 88.0267 82.1302 88.6847 82.1302 89.5714V93.2114C82.1302 93.6687 82.2748 93.9767 82.5642 94.1354C82.4895 94.2754 82.3682 94.3827 82.2002 94.4574C82.0322 94.532 81.8548 94.5694 81.6682 94.5694C81.3042 94.5694 81.0335 94.4667 80.8562 94.2614C80.6788 94.056 80.5902 93.7667 80.5902 93.3934V89.7674C80.5902 89.1794 80.5248 88.7407 80.3942 88.4514C80.2635 88.162 79.9742 88.0174 79.5262 88.0174C78.9568 88.0174 78.5742 88.2694 78.3782 88.7734C78.1915 89.2774 78.0982 89.926 78.0982 90.7194V94.3594H76.5582V87.2194ZM39.3464 109.385C39.5611 109.488 39.6684 109.689 39.6684 109.987C39.6684 110.323 39.5564 110.622 39.3324 110.883C39.1084 111.135 38.8191 111.327 38.4644 111.457C38.1098 111.597 37.7504 111.667 37.3864 111.667C36.3598 111.667 35.5991 111.336 35.1044 110.673C34.6098 110.001 34.3624 109.101 34.3624 107.971C34.3624 106.767 34.6284 105.797 35.1604 105.059C35.7018 104.313 36.5184 103.939 37.6104 103.939C38.3011 103.939 38.8564 104.121 39.2764 104.485C39.6964 104.84 39.9064 105.344 39.9064 105.997C39.9064 106.809 39.6218 107.379 39.0524 107.705C38.4924 108.032 37.7271 108.195 36.7564 108.195C36.4858 108.195 36.2291 108.186 35.9864 108.167C36.0144 108.905 36.1358 109.493 36.3504 109.931C36.5744 110.37 36.9664 110.589 37.5264 110.589C37.9371 110.589 38.2964 110.487 38.6044 110.281C38.9218 110.067 39.1691 109.768 39.3464 109.385ZM37.3864 104.737C36.8824 104.737 36.5278 105.003 36.3224 105.535C36.1171 106.058 36.0051 106.702 35.9864 107.467C36.2664 107.486 36.4718 107.495 36.6024 107.495C37.7784 107.495 38.3664 107.024 38.3664 106.081C38.3664 105.699 38.2824 105.381 38.1144 105.129C37.9558 104.868 37.7131 104.737 37.3864 104.737ZM45.1425 112.633C45.1425 111.887 45.1939 111.247 45.2965 110.715C45.1472 111.023 44.9045 111.257 44.5685 111.415C44.2419 111.583 43.8872 111.667 43.5045 111.667C42.5525 111.667 41.8572 111.303 41.4185 110.575C40.9892 109.847 40.7745 108.914 40.7745 107.775C40.7745 106.599 41.0265 105.666 41.5305 104.975C42.0439 104.285 42.8325 103.939 43.8965 103.939C44.3632 103.939 44.8345 104.028 45.3105 104.205L46.6825 104.051L46.6825 113.879L45.1425 114.047V112.633ZM45.1425 105.227C44.7039 104.929 44.2699 104.779 43.8405 104.779C43.2712 104.779 42.8979 105.05 42.7205 105.591C42.5432 106.133 42.4545 106.837 42.4545 107.705C42.4545 108.527 42.5572 109.236 42.7625 109.833C42.9679 110.431 43.3505 110.729 43.9105 110.729C44.3212 110.729 44.6292 110.575 44.8345 110.267C45.0399 109.95 45.1425 109.558 45.1425 109.091L45.1425 105.227ZM54.1363 110.211C54.1363 110.669 54.281 110.977 54.5703 111.135C54.4957 111.275 54.3837 111.383 54.2343 111.457C54.0943 111.532 53.931 111.569 53.7443 111.569C53.4737 111.569 53.2497 111.495 53.0723 111.345C52.895 111.187 52.7877 110.977 52.7503 110.715C52.601 111.023 52.3583 111.257 52.0223 111.415C51.6957 111.583 51.341 111.667 50.9583 111.667C50.2863 111.667 49.773 111.523 49.4183 111.233C49.073 110.935 48.8443 110.533 48.7323 110.029C48.6203 109.516 48.5643 108.858 48.5643 108.055L48.5643 104.219H50.1043V107.985C50.1043 108.555 50.123 109.026 50.1603 109.399C50.207 109.763 50.3237 110.076 50.5103 110.337C50.697 110.599 50.9817 110.729 51.3643 110.729C51.775 110.729 52.083 110.575 52.2883 110.267C52.4937 109.95 52.5963 109.558 52.5963 109.091L52.5963 104.219H54.1363L54.1363 110.211ZM56.8275 101.279C57.1355 101.279 57.3828 101.354 57.5695 101.503C57.7655 101.653 57.8635 101.867 57.8635 102.147C57.8635 102.437 57.7608 102.661 57.5555 102.819C57.3595 102.969 57.1028 103.043 56.7855 103.043C56.4775 103.043 56.2302 102.969 56.0435 102.819C55.8568 102.67 55.7635 102.455 55.7635 102.175C55.7635 101.886 55.8615 101.667 56.0575 101.517C56.2628 101.359 56.5195 101.279 56.8275 101.279ZM57.5555 110.211C57.5555 110.669 57.7002 110.977 57.9895 111.135C57.9148 111.275 57.7935 111.383 57.6255 111.457C57.4575 111.532 57.2755 111.569 57.0795 111.569C56.7248 111.569 56.4588 111.467 56.2815 111.261C56.1042 111.056 56.0155 110.767 56.0155 110.393L56.0155 104.219H57.5555L57.5555 110.211ZM62.9755 103.939C63.8528 103.939 64.4782 104.294 64.8515 105.003C65.2248 105.703 65.4115 106.599 65.4115 107.691C65.4115 108.886 65.1548 109.847 64.6415 110.575C64.1282 111.303 63.3395 111.667 62.2755 111.667C61.8275 111.667 61.4215 111.607 61.0575 111.485V113.893L59.5175 114.061L59.5175 104.219L60.8055 104.051L60.8755 105.311C61.2675 104.397 61.9675 103.939 62.9755 103.939ZM62.4295 105.017C61.9442 105.017 61.5942 105.213 61.3795 105.605C61.1648 105.988 61.0575 106.473 61.0575 107.061L61.0575 110.393C61.4868 110.683 61.9162 110.827 62.3455 110.827C62.9148 110.827 63.2882 110.538 63.4655 109.959C63.6428 109.381 63.7315 108.648 63.7315 107.761C63.7315 106.931 63.6522 106.268 63.4935 105.773C63.3348 105.269 62.9802 105.017 62.4295 105.017ZM69.3796 103.939C70.4249 103.939 71.1996 104.28 71.7036 104.961C72.2076 105.633 72.4596 106.543 72.4596 107.691C72.4596 108.914 72.2169 109.885 71.7316 110.603C71.2463 111.313 70.4623 111.667 69.3796 111.667C68.3156 111.667 67.5363 111.327 67.0416 110.645C66.5563 109.964 66.3136 109.026 66.3136 107.831C66.3136 106.674 66.5656 105.736 67.0696 105.017C67.5736 104.299 68.3436 103.939 69.3796 103.939ZM69.3796 110.827C69.9583 110.827 70.3363 110.543 70.5136 109.973C70.6909 109.404 70.7796 108.667 70.7796 107.761C70.7796 106.931 70.6816 106.226 70.4856 105.647C70.2989 105.069 69.9303 104.779 69.3796 104.779C68.4556 104.779 67.9936 105.773 67.9936 107.761C67.9936 108.667 68.0776 109.404 68.2456 109.973C68.4229 110.543 68.8009 110.827 69.3796 110.827Z"
    fill="#E9BD43" />
</svg>