<svg width="110" height="76" viewBox="0 0 110 76" fill="none" xmlns="http://www.w3.org/2000/svg">
  <path d="M22.7952 3.13959L23.2716 42.4419L43.8567 52.4691L43.3803 13.1669L22.7952 3.13959Z" fill="#F2F2F2" />
  <path d="M16.5399 0L1.1582 31.5775L22.029 41.744L21.5526 2.44175L16.5399 0Z" fill="#F2F2F2" />
  <path d="M109.049 44.361L67.5046 24.1246L67.981 63.4268L93.6669 75.9386L109.049 44.361Z" fill="#F2F2F2" />
  <path d="M45.2412 13.167L45.7176 52.4691L66.3029 62.4964L65.8265 23.1942L45.2412 13.167Z" fill="#F2F2F2" />
  <path
    d="M52.3962 44.5392L51.8147 57.5655C51.8147 57.5655 53.3267 69.8941 52.9778 70.243C52.6288 70.5919 51.6984 71.2897 52.3962 72.1039C53.0941 72.918 55.6528 73.4996 55.7691 73.0343C55.8854 72.5691 56.1181 59.3101 56.1181 59.3101L56.9322 43.6087L52.3962 44.5392Z"
    fill="#2F2E41" />
  <path opacity="0.2"
    d="M52.3962 44.5392L51.8147 57.5655C51.8147 57.5655 53.3267 69.8941 52.9778 70.243C52.6288 70.5919 51.6984 71.2897 52.3962 72.1039C53.0941 72.918 55.6528 73.4996 55.7691 73.0343C55.8854 72.5691 56.1181 59.3101 56.1181 59.3101L56.9322 43.6087L52.3962 44.5392Z"
    fill="black" />
  <path
    d="M52.9777 71.8712C52.9777 71.8712 50.0701 74.081 49.7212 74.081C49.3722 74.081 46.232 75.1278 48.4418 75.593C50.6516 76.0583 56.0017 75.8256 56.118 75.1278C56.2343 74.43 55.7691 72.3122 55.7691 72.3122L52.9777 71.8712Z"
    fill="#2F2E41" />
  <path opacity="0.2"
    d="M52.9777 71.8712C52.9777 71.8712 50.0701 74.081 49.7212 74.081C49.3722 74.081 46.232 75.1278 48.4418 75.593C50.6516 76.0583 56.0017 75.8256 56.118 75.1278C56.2343 74.43 55.7691 72.3122 55.7691 72.3122L52.9777 71.8712Z"
    fill="black" />
  <path
    d="M45.7669 34.7692C45.7669 34.7692 44.4876 35.2344 44.4876 35.5833C44.4876 35.9323 43.3245 40.3519 43.0919 40.5845C42.8593 40.8172 42.743 41.8639 42.743 41.8639C42.743 41.8639 41.5799 44.539 41.8125 44.539C42.0451 44.539 44.0223 44.0737 44.1386 44.539C44.2549 45.0042 45.1854 41.6313 45.1854 41.6313L47.1626 37.6769L45.7669 34.7692Z"
    fill="#E9BD43" />
  <path
    d="M41.8123 45.0042C41.8123 45.0042 42.1612 47.5629 43.0916 47.7956C44.0221 48.0282 43.0916 44.539 43.0916 44.539L41.8123 45.0042Z"
    fill="#FFB8B8" />
  <path
    d="M44.8364 33.3736C44.8364 33.3736 45.5343 34.8856 45.8832 35.6997C46.2321 36.5139 49.4887 33.6062 49.4887 33.6062C49.4887 33.6062 47.7441 32.3268 47.7441 31.7453C47.7441 31.1638 44.8364 33.3736 44.8364 33.3736Z"
    fill="#FFB8B8" />
  <path
    d="M11.2863 71.1797C12.0663 74.063 14.738 75.8488 14.738 75.8488C14.738 75.8488 16.145 72.9597 15.365 70.0764C14.585 67.193 11.9134 65.4073 11.9134 65.4073C11.9134 65.4073 10.5063 68.2964 11.2863 71.1797Z"
    fill="#3F3D56" />
  <path
    d="M12.4323 70.5602C14.5726 72.6437 14.834 75.8465 14.834 75.8465C14.834 75.8465 11.6253 75.6713 9.48499 73.5878C7.34467 71.5043 7.08325 68.3015 7.08325 68.3015C7.08325 68.3015 10.292 68.4767 12.4323 70.5602Z"
    fill="#E9BD43" />
  <path
    d="M39.0209 75.9419C36.9276 75.9419 34.8813 75.3212 33.1408 74.1582C31.4003 72.9952 30.0437 71.3422 29.2427 69.4083C28.4416 67.4743 28.232 65.3462 28.6404 63.2932C29.0488 61.2401 30.0568 59.3542 31.537 57.874C33.0172 56.3938 34.903 55.3858 36.9561 54.9774C39.0092 54.569 41.1373 54.7786 43.0712 55.5797C45.0052 56.3808 46.6582 57.7373 47.8212 59.4779C48.9841 61.2184 49.6049 63.2647 49.6049 65.358C49.6017 68.164 48.4856 70.8543 46.5014 72.8384C44.5172 74.8226 41.827 75.9387 39.0209 75.9419ZM39.0209 55.0067C36.9736 55.0067 34.9723 55.6138 33.2701 56.7512C31.5678 57.8886 30.241 59.5053 29.4576 61.3967C28.6741 63.2882 28.4691 65.3695 28.8685 67.3774C29.2679 69.3854 30.2538 71.2298 31.7015 72.6775C33.1491 74.1251 34.9935 75.111 37.0015 75.5104C39.0095 75.9098 41.0908 75.7048 42.9822 74.9213C44.8737 74.1379 46.4903 72.8111 47.6277 71.1089C48.7652 69.4066 49.3722 67.4053 49.3722 65.358C49.3692 62.6136 48.2776 59.9825 46.337 58.0419C44.3964 56.1013 41.7653 55.0098 39.0209 55.0067V55.0067Z"
    fill="#2F2E41" />
  <path
    d="M71.5869 75.9419C69.4936 75.9419 67.4473 75.3212 65.7067 74.1582C63.9662 72.9952 62.6097 71.3422 61.8086 69.4083C61.0075 67.4743 60.7979 65.3462 61.2063 63.2932C61.6147 61.2401 62.6227 59.3542 64.1029 57.874C65.5831 56.3938 67.469 55.3858 69.522 54.9774C71.5751 54.569 73.7032 54.7786 75.6372 55.5797C77.5711 56.3808 79.2241 57.7373 80.3871 59.4779C81.55 61.2184 82.1708 63.2647 82.1708 65.358C82.1676 68.164 81.0515 70.8543 79.0673 72.8384C77.0831 74.8226 74.3929 75.9387 71.5869 75.9419ZM71.5869 55.0067C69.5396 55.0067 67.5382 55.6138 65.836 56.7512C64.1337 57.8886 62.807 59.5053 62.0235 61.3967C61.24 63.2882 61.035 65.3695 61.4344 67.3774C61.8339 69.3854 62.8197 71.2298 64.2674 72.6775C65.715 74.1251 67.5595 75.111 69.5674 75.5104C71.5754 75.9098 73.6567 75.7048 75.5481 74.9213C77.4396 74.1379 79.0562 72.8111 80.1937 71.1089C81.3311 69.4066 81.9382 67.4053 81.9382 65.358C81.9351 62.6136 80.8435 59.9825 78.9029 58.0419C76.9624 56.1013 74.3312 55.0098 71.5869 55.0067V55.0067Z"
    fill="#2F2E41" />
  <path
    d="M39.0208 66.0559C39.4062 66.0559 39.7187 65.7434 39.7187 65.358C39.7187 64.9726 39.4062 64.6602 39.0208 64.6602C38.6354 64.6602 38.323 64.9726 38.323 65.358C38.323 65.7434 38.6354 66.0559 39.0208 66.0559Z"
    fill="#2F2E41" />
  <path
    d="M71.8194 66.0559C72.2048 66.0559 72.5173 65.7434 72.5173 65.358C72.5173 64.9726 72.2048 64.6602 71.8194 64.6602C71.434 64.6602 71.1216 64.9726 71.1216 65.358C71.1216 65.7434 71.434 66.0559 71.8194 66.0559Z"
    fill="#2F2E41" />
  <path
    d="M40.0585 64.3567L39.8445 64.2654L45.9233 50.0038L63.1611 50.3555L63.1945 50.4078L71.6849 63.6668L71.489 63.7923L63.032 50.5857L46.0756 50.2395L40.0585 64.3567Z"
    fill="#2F2E41" />
  <path
    d="M58.168 67.0076L62.6357 51.2531L62.8594 51.3165L58.4878 66.7323L70.1765 65.2425L70.2058 65.4734L58.168 67.0076Z"
    fill="#2F2E41" />
  <path d="M45.501 53.5296L45.335 53.6924L57.3146 65.9047L57.4806 65.7418L45.501 53.5296Z" fill="#2F2E41" />
  <path d="M63.7978 47.5322L63.1011 50.0913L63.3255 50.1524L64.0223 47.5933L63.7978 47.5322Z" fill="#2F2E41" />
  <path d="M46.3455 49.3335L46.1184 49.2819L46.6678 46.8653H44.72V45.3533H44.9526V46.6327H46.9592L46.3455 49.3335Z"
    fill="#2F2E41" />
  <path
    d="M59.6072 45.2369C59.6072 45.2369 59.6072 44.5391 61.1192 44.888C62.6312 45.2369 67.2834 46.1674 67.6324 46.051C67.9813 45.9347 67.865 46.7489 66.353 47.0978C64.841 47.4467 63.0964 46.6326 62.7475 46.4C62.3985 46.1674 59.6072 45.2369 59.6072 45.2369Z"
    fill="#2F2E41" />
  <path d="M55.4202 66.0559H52.3962V67.219H55.4202V66.0559Z" fill="#E9BD43" />
  <path
    d="M58.3278 69.1961C57.8678 69.1961 57.418 69.0597 57.0355 68.8041C56.653 68.5485 56.3548 68.1852 56.1788 67.7601C56.0027 67.3351 55.9567 66.8674 56.0464 66.4162C56.1362 65.9649 56.3577 65.5505 56.683 65.2251C57.0083 64.8998 57.4228 64.6783 57.874 64.5885C58.3253 64.4988 58.793 64.5448 59.218 64.7209C59.6431 64.8969 60.0064 65.1951 60.262 65.5776C60.5176 65.9602 60.654 66.4099 60.654 66.87C60.6533 67.4867 60.408 68.0779 59.9719 68.514C59.5358 68.9501 58.9446 69.1954 58.3278 69.1961V69.1961ZM58.3278 64.7764C57.9138 64.7764 57.509 64.8992 57.1647 65.1293C56.8205 65.3593 56.5521 65.6863 56.3937 66.0688C56.2352 66.4513 56.1938 66.8723 56.2745 67.2784C56.3553 67.6845 56.5547 68.0575 56.8475 68.3503C57.1403 68.6431 57.5133 68.8425 57.9194 68.9233C58.3255 69.004 58.7465 68.9626 59.129 68.8041C59.5115 68.6457 59.8385 68.3773 60.0686 68.0331C60.2986 67.6888 60.4214 67.284 60.4214 66.87C60.4207 66.3149 60.1999 65.7828 59.8075 65.3903C59.415 64.9979 58.8829 64.7771 58.3278 64.7764Z"
    fill="#2F2E41" />
  <path
    d="M45.8832 34.5366C47.4248 34.5366 48.6745 33.2869 48.6745 31.7452C48.6745 30.2036 47.4248 28.9539 45.8832 28.9539C44.3415 28.9539 43.0918 30.2036 43.0918 31.7452C43.0918 33.2869 44.3415 34.5366 45.8832 34.5366Z"
    fill="#FFB8B8" />
  <path
    d="M54.7224 44.7717C54.7224 44.7717 46.6972 49.424 46.8135 50.936C46.9298 52.448 52.9778 60.7058 52.9778 60.7058C52.9778 60.7058 53.443 63.1482 53.9082 63.1482C54.3735 63.1482 57.2811 64.195 57.3974 63.4971C57.5137 62.7993 56.467 61.9851 56.5833 61.5199C56.6996 61.0547 51.4658 52.5643 51.4658 52.5643C51.4658 52.5643 62.667 48.3772 60.323 44.7717C57.979 41.1662 54.7224 44.7717 54.7224 44.7717Z"
    fill="#2F2E41" />
  <path
    d="M54.9549 62.683C54.9549 62.683 53.5592 63.032 53.3266 63.4972C53.094 63.9624 49.0233 65.4744 50.1863 65.8233C51.3494 66.1723 58.0952 66.2886 58.3278 66.0559C58.5604 65.8233 58.3278 63.1235 57.3973 63.1359C56.4669 63.1483 55.4201 63.4972 54.9549 62.683Z"
    fill="#2F2E41" />
  <path
    d="M45.8832 36.0485L48.5001 32.8501C48.5001 32.8501 51.4659 31.9778 52.7453 33.7224C54.0247 35.467 57.5139 39.7704 58.6769 40.7008C59.84 41.6313 61.4683 45.2368 60.8868 45.3531C60.3052 45.4694 57.0486 44.0737 55.7693 45.0042C54.4899 45.9346 52.0475 46.0509 51.9311 45.5857C51.8148 45.1205 44.8364 37.3279 44.8364 36.2811C44.8364 35.2344 45.58 35.0098 45.58 35.0098L45.8832 36.0485Z"
    fill="#E9BD43" />
  <path
    d="M47.2886 45.2957L43.7797 44.0551C43.598 43.9909 43.3986 44.0861 43.3344 44.2678C43.2701 44.4495 43.3654 44.6488 43.547 44.713L47.056 45.9536C47.2377 46.0179 47.4371 45.9226 47.5013 45.741C47.5655 45.5593 47.4703 45.3599 47.2886 45.2957Z"
    fill="#2F2E41" />
  <path
    d="M39.37 43.8412C39.37 43.8412 35.2992 45.0043 35.6482 46.2837C35.9971 47.5631 39.7189 44.7717 39.7189 44.7717L39.37 43.8412Z"
    fill="#FFB8B8" />
  <path
    d="M49.9536 33.7224C49.9536 33.7224 48.3253 35.1181 47.9764 36.7464C47.6275 38.3747 45.8829 41.2824 45.8829 41.2824L38.7881 43.6085C38.7881 43.6085 38.3229 45.8183 39.0208 45.8183C39.7186 45.8183 47.5112 44.19 47.7438 43.8411C47.9764 43.4922 52.9776 36.8627 52.9776 36.8627C52.9776 36.8627 53.4428 33.2572 49.9536 33.7224Z"
    fill="#E9BD43" />
  <path
    d="M44.1492 28.5144C44.0804 28.5736 43.9981 28.6149 43.9095 28.6347C43.865 28.6426 43.8192 28.6326 43.782 28.6069C43.7449 28.5811 43.7195 28.5418 43.7112 28.4973C43.66 28.6396 43.5647 28.7618 43.4392 28.8462C43.306 28.9156 43.1001 28.8574 43.0809 28.7085C43.0615 28.8216 43.0114 28.9272 42.9362 29.0139C42.897 29.0553 42.843 29.0797 42.786 29.0816C42.729 29.0835 42.6735 29.0628 42.6316 29.024C42.6899 29.3428 42.6539 29.6706 42.6722 29.9941C42.6905 30.3176 42.7768 30.6606 43.0212 30.8733C43.3777 31.1836 43.9137 31.107 44.3826 31.0482C44.4535 31.0333 44.5271 31.0374 44.596 31.0599C44.7716 31.1347 44.7636 31.3791 44.766 31.5699C44.7803 31.9048 44.9128 32.2237 45.14 32.47C45.3671 32.7164 45.6743 32.8743 46.0069 32.9157C46.193 32.9444 46.3829 32.8981 46.5348 32.7868C46.668 32.674 46.736 32.4901 46.8885 32.4053C47.1367 32.2674 47.4376 32.4685 47.6191 32.6868C47.8005 32.9052 47.9793 33.1738 48.2604 33.2137C48.6321 33.2666 48.9152 32.8878 49.0541 32.539C49.2458 32.0501 49.3376 31.5277 49.3241 31.0028C49.3107 30.4778 49.1923 29.9609 48.9759 29.4824C48.1998 27.7905 45.5484 27.5229 44.1492 28.5144Z"
    fill="#2F2E41" />
  <path
    d="M93.2652 75.9372L93.0584 75.8304C95.743 70.6404 94.3075 63.9002 92.6306 59.1599C91.4919 55.9738 90.0396 52.9086 88.2949 50.0095L88.4915 49.8853C90.2452 52.799 91.7052 55.8798 92.8498 59.0822C94.5422 63.8659 95.9878 70.6733 93.2652 75.9372Z"
    fill="#2F2E41" />
  <path d="M95.2561 49.9268L93.7471 58.1851L93.9758 58.2269L95.4848 49.9686L95.2561 49.9268Z" fill="#2F2E41" />
  <path d="M85.2219 56.9628L85.0515 57.1213L92.844 65.4955L93.0144 65.3369L85.2219 56.9628Z" fill="#2F2E41" />
  <path d="M99.2309 66.1615L95.2783 71.6293L95.4669 71.7656L99.4195 66.2978L99.2309 66.1615Z" fill="#2F2E41" />
  <path
    d="M95.9531 47.7375C96.5955 47.7375 97.1162 47.2168 97.1162 46.5744C97.1162 45.9321 96.5955 45.4114 95.9531 45.4114C95.3108 45.4114 94.79 45.9321 94.79 46.5744C94.79 47.2168 95.3108 47.7375 95.9531 47.7375Z"
    fill="#E9BD43" />
  <path
    d="M83.2759 56.6931C83.9182 56.6931 84.4389 56.1723 84.4389 55.53C84.4389 54.8876 83.9182 54.3669 83.2759 54.3669C82.6335 54.3669 82.1128 54.8876 82.1128 55.53C82.1128 56.1723 82.6335 56.6931 83.2759 56.6931Z"
    fill="#3F3D56" />
  <path
    d="M88.3933 57.8561C89.0356 57.8561 89.5564 57.3354 89.5564 56.693C89.5564 56.0507 89.0356 55.53 88.3933 55.53C87.7509 55.53 87.2302 56.0507 87.2302 56.693C87.2302 57.3354 87.7509 57.8561 88.3933 57.8561Z"
    fill="#3F3D56" />
  <path
    d="M86.0671 62.3921C86.7095 62.3921 87.2302 61.8714 87.2302 61.229C87.2302 60.5867 86.7095 60.066 86.0671 60.066C85.4248 60.066 84.9041 60.5867 84.9041 61.229C84.9041 61.8714 85.4248 62.3921 86.0671 62.3921Z"
    fill="#E9BD43" />
  <path
    d="M100.605 65.2998C101.248 65.2998 101.769 64.779 101.769 64.1367C101.769 63.4944 101.248 62.9736 100.605 62.9736C99.9631 62.9736 99.4424 63.4944 99.4424 64.1367C99.4424 64.779 99.9631 65.2998 100.605 65.2998Z"
    fill="#3F3D56" />
  <path
    d="M96.7673 66.5792C97.4097 66.5792 97.9304 66.0585 97.9304 65.4162C97.9304 64.7738 97.4097 64.2531 96.7673 64.2531C96.125 64.2531 95.6042 64.7738 95.6042 65.4162C95.6042 66.0585 96.125 66.5792 96.7673 66.5792Z"
    fill="#3F3D56" />
  <path
    d="M99.4424 70.3011C100.085 70.3011 100.605 69.7804 100.605 69.138C100.605 68.4957 100.085 67.975 99.4424 67.975C98.8 67.975 98.2793 68.4957 98.2793 69.138C98.2793 69.7804 98.8 70.3011 99.4424 70.3011Z"
    fill="#3F3D56" />
  <path
    d="M87.2302 49.1332C87.8726 49.1332 88.3933 48.6125 88.3933 47.9702C88.3933 47.3278 87.8726 46.8071 87.2302 46.8071C86.5879 46.8071 86.0671 47.3278 86.0671 47.9702C86.0671 48.6125 86.5879 49.1332 87.2302 49.1332Z"
    fill="#3F3D56" />
  <path d="M105.025 75.7673H0V75.9999H105.025V75.7673Z" fill="#2F2E41" />
  <path d="M18.0199 51.6835L8.14893 45.9844L2.44989 55.8555L12.3209 61.5545L18.0199 51.6835Z" fill="#F2F2F2" />
  <path
    d="M12.5612 63.5392C12.0551 63.5392 11.5604 63.3892 11.1396 63.108C10.7188 62.8268 10.3909 62.4272 10.1972 61.9597C10.0035 61.4921 9.95288 60.9776 10.0516 60.4813C10.1503 59.9849 10.394 59.529 10.7519 59.1712C11.1097 58.8133 11.5657 58.5696 12.062 58.4709C12.5584 58.3722 13.0728 58.4228 13.5404 58.6165C14.0079 58.8102 14.4076 59.1381 14.6887 59.5589C14.9699 59.9797 15.1199 60.4744 15.1199 60.9805C15.1192 61.6589 14.8493 62.3092 14.3697 62.7889C13.89 63.2686 13.2396 63.5385 12.5612 63.5392V63.5392ZM12.5612 58.6543C12.1011 58.6543 11.6514 58.7908 11.2689 59.0464C10.8863 59.302 10.5882 59.6653 10.4121 60.0903C10.2361 60.5153 10.19 60.9831 10.2798 61.4343C10.3695 61.8855 10.591 62.3 10.9164 62.6253C11.2417 62.9506 11.6562 63.1722 12.1074 63.2619C12.5586 63.3517 13.0263 63.3056 13.4514 63.1295C13.8764 62.9535 14.2397 62.6553 14.4953 62.2728C14.7509 61.8903 14.8873 61.4405 14.8873 60.9805C14.8866 60.3638 14.6413 59.7725 14.2053 59.3364C13.7692 58.9003 13.1779 58.655 12.5612 58.6543V58.6543Z"
    fill="#3F3D56" />
</svg>