<svg width="112" height="65" viewBox="0 0 112 65" fill="none" xmlns="http://www.w3.org/2000/svg">
  <path
    d="M1.93136 24.8031H38.769C39.2486 24.8031 39.7085 24.9936 40.0476 25.3328C40.3868 25.6719 40.5773 26.1319 40.5773 26.6114V29.4838H0.123047V26.6114C0.123047 26.1319 0.313565 25.6719 0.652689 25.3328C0.991813 24.9937 1.45176 24.8031 1.93136 24.8031V24.8031Z"
    fill="#3F3D56" />
  <path
    d="M38.0698 24.4687C37.8878 24.4695 37.7071 24.5003 37.5351 24.5597C37.4761 24.3223 37.3322 24.1147 37.1306 23.9762C36.929 23.8376 36.6837 23.7776 36.4409 23.8076C36.1981 23.8375 35.9747 23.9553 35.8128 24.1387C35.651 24.3221 35.5618 24.5584 35.5623 24.803C35.5623 24.808 35.5635 24.8127 35.5636 24.8176C35.4382 24.8295 35.3146 24.8551 35.1948 24.8941C35.1608 24.7591 35.0992 24.6326 35.0138 24.5226C34.9285 24.4126 34.8213 24.3216 34.699 24.2551C35.0203 24.0775 35.2745 23.7993 35.4225 23.4632C36.2404 23.4499 36.8996 22.8586 36.8996 22.1284C36.8996 21.3898 36.226 20.791 35.3951 20.791C35.2131 20.7918 35.0325 20.8226 34.8604 20.8821C34.8296 20.7506 34.7724 20.6267 34.6923 20.5179C34.6123 20.4091 34.511 20.3177 34.3946 20.2492C34.2783 20.1806 34.1492 20.1363 34.0153 20.119C33.8813 20.1017 33.7452 20.1118 33.6153 20.1485C33.4853 20.1852 33.3641 20.2479 33.259 20.3328C33.154 20.4177 33.0672 20.5229 33.0039 20.6423C32.9407 20.7616 32.9022 20.8925 32.891 21.0271C32.8797 21.1617 32.8958 21.2972 32.9384 21.4254C32.8984 21.4532 32.8611 21.4844 32.8238 21.5155C32.6346 21.3528 32.389 21.271 32.1401 21.2879C32.0115 20.9187 31.7571 20.6065 31.4215 20.406C31.0858 20.2055 30.6903 20.1295 30.3043 20.1914C29.9182 20.2532 29.5662 20.4489 29.31 20.7442C29.0537 21.0394 28.9095 21.4155 28.9027 21.8064C28.7685 21.817 28.6361 21.8434 28.5081 21.8851C28.4937 21.8285 28.4744 21.7733 28.4505 21.7201C28.5824 21.6036 28.6885 21.4608 28.7617 21.3007C28.835 21.1407 28.8738 20.967 28.8756 20.791C28.8756 20.0524 28.202 19.4537 27.3711 19.4537C27.1891 19.4545 27.0085 19.4853 26.8365 19.5447C26.8056 19.4132 26.7484 19.2894 26.6684 19.1806C26.5883 19.0718 26.487 18.9804 26.3707 18.9118C26.2543 18.8433 26.1252 18.799 25.9913 18.7817C25.8573 18.7644 25.7213 18.7744 25.5913 18.8112C25.4613 18.8479 25.3401 18.9106 25.2351 18.9955C25.13 19.0803 25.0432 19.1856 24.9799 19.3049C24.9167 19.4243 24.8783 19.5552 24.867 19.6898C24.8557 19.8244 24.8719 19.9599 24.9144 20.088C24.7039 20.2342 24.5299 20.427 24.406 20.6514C24.282 20.8757 24.2115 21.1256 24.1998 21.3816C24.1857 21.3942 24.1695 21.4044 24.1561 21.4177C24.1811 21.3223 24.1942 21.2241 24.195 21.1254C24.195 20.3868 23.5214 19.788 22.6905 19.788C22.5085 19.7888 22.3278 19.8196 22.1558 19.8791C22.1249 19.7476 22.0678 19.6237 21.9877 19.5149C21.9076 19.4061 21.8064 19.3147 21.69 19.2462C21.5736 19.1776 21.4446 19.1333 21.3106 19.116C21.1767 19.0987 21.0406 19.1088 20.9106 19.1455C20.7807 19.1822 20.6595 19.2449 20.5544 19.3298C20.4493 19.4147 20.3626 19.5199 20.2993 19.6393C20.236 19.7586 20.1976 19.8895 20.1863 20.0241C20.1751 20.1587 20.1912 20.2942 20.2337 20.4224C20.0118 20.5758 19.8304 20.7807 19.7051 21.0196C19.5798 21.2585 19.5143 21.5243 19.5143 21.794C19.5143 22.0638 19.5798 22.3296 19.7051 22.5685C19.8304 22.8074 20.0118 23.0123 20.2337 23.1657C20.1661 23.36 20.1661 23.5714 20.2337 23.7657C20.0662 23.8826 19.9213 24.0289 19.806 24.1976C19.7441 23.973 19.6055 23.7772 19.4143 23.6442C19.2231 23.5112 18.9913 23.4493 18.7593 23.4694C18.5272 23.4895 18.3095 23.5902 18.1439 23.754C17.9784 23.9179 17.8754 24.1345 17.853 24.3664C17.7189 24.2879 17.5741 24.2294 17.4231 24.1927C17.694 24.014 17.9072 23.7606 18.0372 23.4632C18.8551 23.4499 19.5143 22.8586 19.5143 22.1284C19.5143 21.3898 18.8407 20.791 18.0098 20.791C17.8278 20.7918 17.6472 20.8226 17.4752 20.8821C17.4443 20.7506 17.3871 20.6267 17.307 20.5179C17.227 20.4091 17.1257 20.3177 17.0093 20.2492C16.893 20.1806 16.7639 20.1363 16.63 20.119C16.496 20.1017 16.3599 20.1118 16.23 20.1485C16.1 20.1852 15.9788 20.2479 15.8737 20.3328C15.7687 20.4177 15.6819 20.5229 15.6186 20.6423C15.5554 20.7616 15.517 20.8925 15.5057 21.0271C15.4944 21.1617 15.5105 21.2972 15.5531 21.4254C15.5316 21.4403 15.5123 21.4578 15.4916 21.4737C15.4394 21.4689 15.3887 21.4597 15.3352 21.4597C15.1531 21.4605 14.9725 21.4913 14.8005 21.5507C14.7942 21.5255 14.7838 21.5021 14.7756 21.4777C14.808 21.3288 14.8054 21.1745 14.7681 21.0268C14.7307 20.8792 14.6597 20.7422 14.5605 20.6266C14.4612 20.511 14.3366 20.42 14.1963 20.3607C14.056 20.3014 13.9038 20.2755 13.7518 20.2849C13.6647 20.0425 13.5228 19.8235 13.337 19.645C13.1513 19.4666 12.9267 19.3335 12.681 19.2562C12.4353 19.1789 12.175 19.1596 11.9205 19.1996C11.6661 19.2396 11.4243 19.3379 11.2141 19.4869C11.004 19.6359 10.8312 19.8315 10.7092 20.0583C10.5871 20.2852 10.5193 20.5372 10.5108 20.7947C10.5024 21.0521 10.5536 21.308 10.6605 21.5424C10.7674 21.7768 10.9271 21.9832 11.127 22.1456C11.012 22.1588 10.8986 22.1835 10.7885 22.2194C10.749 22.0564 10.6688 21.906 10.5556 21.7823C10.4423 21.6586 10.2995 21.5656 10.1406 21.512C9.9817 21.4583 9.81179 21.4457 9.64671 21.4754C9.48162 21.505 9.32673 21.576 9.19646 21.6817C9.04746 21.5047 8.86104 21.363 8.65065 21.2668C8.44026 21.1706 8.21115 21.1223 7.97983 21.1254C7.79782 21.1262 7.61719 21.1569 7.44517 21.2164C7.41431 21.0849 7.35712 20.961 7.27706 20.8523C7.197 20.7435 7.09573 20.6521 6.97936 20.5835C6.86299 20.5149 6.73393 20.4707 6.59998 20.4534C6.46603 20.4361 6.32996 20.4461 6.19999 20.4828C6.07002 20.5196 5.94884 20.5823 5.84377 20.6671C5.73869 20.752 5.65191 20.8573 5.58865 20.9766C5.52539 21.0959 5.48697 21.2269 5.4757 21.3614C5.46444 21.496 5.48056 21.6315 5.5231 21.7597C5.3012 21.9131 5.11983 22.1181 4.99452 22.357C4.86922 22.5959 4.80373 22.8616 4.80367 23.1314C4.80367 23.1365 4.80516 23.1413 4.8052 23.1465C4.56813 23.1105 4.32579 23.1367 4.10184 23.2224C4.07098 23.0909 4.01379 22.967 3.93373 22.8583C3.85367 22.7495 3.7524 22.6581 3.63603 22.5895C3.51966 22.5209 3.3906 22.4767 3.25665 22.4594C3.1227 22.4421 2.98664 22.4521 2.85667 22.4888C2.7267 22.5256 2.60552 22.5883 2.50045 22.6731C2.39538 22.758 2.30859 22.8633 2.24533 22.9826C2.18207 23.1019 2.14365 23.2329 2.13238 23.3674C2.12112 23.502 2.13724 23.6375 2.17978 23.7657C1.85734 23.984 1.62162 24.3084 1.51359 24.6825C1.40557 25.0565 1.43209 25.4567 1.58853 25.8132C1.74497 26.1698 2.02144 26.4602 2.36986 26.634C2.71828 26.8079 3.1166 26.8541 3.49556 26.7646C3.5559 27.1134 3.7258 27.4339 3.98061 27.6796C4.23542 27.9254 4.56188 28.0835 4.91265 28.1312C5.26342 28.1788 5.62025 28.1135 5.93137 27.9447C6.2425 27.7758 6.49175 27.5123 6.64297 27.1922C6.77991 27.4819 6.99751 27.726 7.26967 27.8952C7.54184 28.0644 7.85703 28.1515 8.17746 28.1461C8.49788 28.1407 8.80995 28.043 9.07625 27.8647C9.34255 27.6864 9.55178 27.4351 9.67885 27.1409C9.87585 27.1381 10.0708 27.1004 10.2546 27.0294C10.3651 27.3461 10.5686 27.6221 10.8386 27.8212C11.1085 28.0203 11.4323 28.1332 11.7675 28.1453C12.1027 28.1573 12.4337 28.0679 12.7172 27.8887C13.0007 27.7095 13.2236 27.4488 13.3565 27.1409C13.6003 27.1361 13.8399 27.0768 14.0578 26.9674C14.2103 27.237 14.4351 27.4587 14.7068 27.6075C14.9786 27.7563 15.2865 27.8263 15.5958 27.8096C15.9052 27.7929 16.2037 27.6901 16.4578 27.5129C16.712 27.3357 16.9116 27.0911 17.0342 26.8066C17.1239 26.8044 17.2133 26.795 17.3015 26.7786C17.4266 27.082 17.6383 27.3418 17.9102 27.5256C18.1821 27.7094 18.5021 27.809 18.8302 27.8119C19.1584 27.8149 19.4801 27.7212 19.7553 27.5424C20.0305 27.3636 20.2469 27.1076 20.3775 26.8066C20.5088 26.8029 20.6392 26.7836 20.766 26.7493C21.102 26.8429 21.4592 26.8263 21.785 26.7019C22.1109 26.5774 22.3882 26.3517 22.5763 26.058C22.4712 26.4651 22.5235 26.8968 22.7227 27.2671C22.9219 27.6374 23.2534 27.9189 23.651 28.0556C24.0486 28.1923 24.4832 28.174 24.8679 28.0045C25.2527 27.8349 25.5594 27.5266 25.7268 27.1409C25.9706 27.1361 26.2102 27.0768 26.4281 26.9674C26.5806 27.237 26.8054 27.4587 27.0772 27.6075C27.3489 27.7563 27.6568 27.8263 27.9661 27.8096C28.2755 27.7929 28.574 27.6901 28.8281 27.5129C29.0823 27.3357 29.2819 27.0911 29.4045 26.8066C29.6482 26.8017 29.8878 26.7424 30.1057 26.6331C30.2233 26.8426 30.3851 27.0239 30.5799 27.1646C30.7746 27.3052 30.9977 27.4018 31.2335 27.4475C31.4694 27.4932 31.7124 27.487 31.9456 27.4293C32.1788 27.3716 32.3966 27.2638 32.584 27.1134C32.642 27.4332 32.7924 27.729 33.0166 27.9644C33.2409 28.1997 33.5291 28.3642 33.8457 28.4377C34.1624 28.5111 34.4936 28.4902 34.7985 28.3776C35.1034 28.2649 35.3687 28.0655 35.5616 27.8039C35.7622 27.9577 35.9953 28.0636 36.2431 28.1136C36.4909 28.1636 36.7469 28.1563 36.9915 28.0924C37.236 28.0284 37.4628 27.9095 37.6544 27.7446C37.846 27.5797 37.9974 27.3732 38.0971 27.1409C38.9151 27.1276 39.5743 26.5363 39.5743 25.806C39.5743 25.0674 38.9007 24.4687 38.0698 24.4687ZM8.18773 23.7787C8.18597 23.7867 8.18475 23.795 8.18309 23.8031C8.17089 23.8027 8.15933 23.8 8.147 23.8C8.09703 23.8013 8.04724 23.8063 7.99803 23.815C8.00075 23.809 8.00456 23.8036 8.00719 23.7976C8.06767 23.7946 8.12794 23.7883 8.18773 23.7787V23.7787ZM22.1558 23.2224C22.1509 23.2029 22.1426 23.185 22.1366 23.166C22.3919 22.989 22.5931 22.7447 22.7178 22.4602C22.9377 22.4591 23.1548 22.4116 23.3551 22.3209C23.5554 22.2302 23.7343 22.0984 23.8802 21.9339C23.8674 21.9979 23.8608 22.0631 23.8606 22.1284C23.862 22.2304 23.8791 22.3316 23.9114 22.4284C23.6243 22.6285 23.407 22.9134 23.2899 23.2431C22.9264 23.1016 22.5243 23.0943 22.1558 23.2224V23.2224ZM32.1692 23.3471C32.1685 23.3266 32.1711 23.3054 32.1697 23.2851C32.2123 23.2849 32.2549 23.2821 32.2971 23.2764C32.362 23.4928 32.4704 23.6935 32.6156 23.8664C32.5841 23.8753 32.5508 23.8806 32.5201 23.8911C32.4661 23.6761 32.3428 23.4849 32.1692 23.3471V23.3471Z"
    fill="#F9A825" />
  <path
    d="M3.49105 26.4747C3.01682 26.4747 2.54755 26.5713 2.11189 26.7586C1.67622 26.9459 1.28329 27.22 0.957081 27.5642C0.630868 27.9085 0.378211 28.3155 0.214527 28.7606C0.0508428 29.2057 -0.0204359 29.6795 0.00504138 30.153L2.26897 61.2845C2.31671 62.1767 2.70481 63.0167 3.35333 63.6314C4.00186 64.2461 4.86142 64.5887 5.75497 64.5886H34.9457C35.8393 64.5887 36.6988 64.2461 37.3474 63.6314C37.9959 63.0167 38.384 62.1767 38.4317 61.2845L40.6957 30.153C40.7211 29.6795 40.6499 29.2057 40.4862 28.7606C40.3225 28.3155 40.0698 27.9085 39.7436 27.5642C39.4174 27.22 39.0245 26.9459 38.5888 26.7586C38.1532 26.5713 37.6839 26.4747 37.2097 26.4747H3.49105Z"
    fill="#3F3D56" />
  <path d="M7.14418 26.4747H5.13818V64.5886H7.14418V26.4747Z" fill="#E9BD43" />
  <path d="M12.8278 26.4747H10.8218V64.5886H12.8278V26.4747Z" fill="#E9BD43" />
  <path d="M18.5114 26.4747H16.5054V64.5886H18.5114V26.4747Z" fill="#E9BD43" />
  <path d="M24.1952 26.4747H22.1892V64.5886H24.1952V26.4747Z" fill="#E9BD43" />
  <path d="M29.8788 26.4747H27.8728V64.5886H29.8788V26.4747Z" fill="#E9BD43" />
  <path d="M35.5624 26.4747H33.5564V64.5886H35.5624V26.4747Z" fill="#E9BD43" />
  <path
    d="M68.2898 10.8495L67.4153 8.71954L55.7556 13.5064C55.4916 13.6149 55.2658 13.7995 55.1069 14.0366C54.948 14.2737 54.8631 14.5527 54.863 14.8381V27.4356H57.1661V15.4193L68.2898 10.8495Z"
    fill="#3F3D56" />
  <path d="M66.7917 6.40479H64.2808V14.3575H66.7917V6.40479Z" fill="#E9BD43" />
  <path d="M62.8159 8.0788H60.3049V16.0315H62.8159V8.0788Z" fill="#E9BD43" />
  <path d="M58.9433 14.8807L57.1647 15.4038L56.4324 6.92801H58.9433V14.8807Z" fill="#E9BD43" />
  <path d="M60.4083 15.8222H52.4556V18.3332H60.4083V15.8222Z" fill="#E9BD43" />
  <path d="M60.4095 19.2762H52.4568V21.7872H60.4095V19.2762Z" fill="#E9BD43" />
  <path d="M60.4083 22.7299H52.4556V25.2409H60.4083V22.7299Z" fill="#E9BD43" />
  <path d="M64.2804 64.5887H48.8981L45.1304 26.915H67.6297L64.2804 64.5887Z" fill="#3F3D56" />
  <path d="M69.3037 26.2873H43.561V28.7983H69.3037V26.2873Z" fill="#3F3D56" />
  <path
    d="M95.4933 17.3263C100.271 17.3263 104.145 13.4529 104.145 8.67483C104.145 3.89675 100.271 0.0233459 95.4933 0.0233459C90.7152 0.0233459 86.8418 3.89675 86.8418 8.67483C86.8418 13.4529 90.7152 17.3263 95.4933 17.3263Z"
    fill="#3AD29F" />
  <path d="M101.221 8.67484L92.5623 12.9295V8.67484V4.42014L101.221 8.67484Z" fill="url(#paint0_linear)" />
  <path d="M100.701 8.67471L93.0818 12.4192V8.67471V4.93021L100.701 8.67471Z" fill="white" />
  <path opacity="0.2"
    d="M87.5497 9.66809C87.5511 7.8876 88.1016 6.15089 89.1262 4.69476C90.1508 3.23864 91.5996 2.13398 93.2751 1.53144C94.9505 0.928896 96.771 0.857789 98.4883 1.32782C100.206 1.79784 101.736 2.78613 102.871 4.1579C102.253 3.14103 101.432 2.26262 100.458 1.57756C99.4852 0.892505 98.3813 0.415528 97.2154 0.176439C96.0496 -0.0626494 94.847 -0.0587099 93.6827 0.18801C92.5185 0.434731 91.4177 0.918929 90.449 1.61035C89.4804 2.30176 88.6648 3.18554 88.0531 4.20643C87.4415 5.22733 87.047 6.3634 86.8943 7.54366C86.7416 8.72392 86.834 9.92299 87.1656 11.0659C87.4973 12.2089 88.0612 13.2711 88.8219 14.1863C87.9876 12.8271 87.5471 11.2629 87.5497 9.66809V9.66809Z"
    fill="white" />
  <path
    d="M93.9736 53.5776C93.8728 53.5777 93.776 53.6178 93.7047 53.689C93.6334 53.7603 93.5932 53.857 93.593 53.9578V64.2084C93.5932 64.3092 93.6334 64.4059 93.7047 64.4772C93.776 64.5485 93.8728 64.5886 93.9736 64.5887H111.619C111.72 64.5886 111.817 64.5485 111.888 64.4772C111.96 64.4059 112 64.3092 112 64.2084V53.9578C112 53.857 111.96 53.7603 111.888 53.689C111.817 53.6178 111.72 53.5777 111.619 53.5776H93.9736Z"
    fill="#3F3D56" />
  <path
    d="M95.9454 54.4816C95.7575 54.4818 95.5773 54.5566 95.4444 54.6895C95.3115 54.8224 95.2368 55.0026 95.2366 55.1905V62.9759C95.2368 63.1638 95.3115 63.344 95.4444 63.4769C95.5773 63.6098 95.7575 63.6845 95.9454 63.6848H109.647C109.835 63.6845 110.015 63.6098 110.148 63.4769C110.281 63.344 110.356 63.1638 110.356 62.9759V55.1905C110.356 55.0026 110.281 54.8224 110.148 54.6895C110.015 54.5566 109.835 54.4819 109.647 54.4816L95.9454 54.4816Z"
    fill="#FF6584" />
  <path d="M94.1721 56.9542H84.9805V59.0832H94.1721V56.9542Z" fill="#3F3D56" />
  <path
    d="M68.9862 53.5776C68.8854 53.5777 68.7888 53.6179 68.7175 53.6891C68.6462 53.7604 68.6061 53.857 68.606 53.9578V64.2084C68.6061 64.3092 68.6462 64.4058 68.7175 64.4771C68.7888 64.5484 68.8854 64.5885 68.9862 64.5887H86.6323C86.7331 64.5885 86.8297 64.5484 86.901 64.4771C86.9722 64.4058 87.0124 64.3092 87.0125 64.2084V53.9578C87.0124 53.857 86.9722 53.7604 86.901 53.6891C86.8297 53.6179 86.7331 53.5777 86.6323 53.5776H68.9862Z"
    fill="#3F3D56" />
  <path
    d="M70.9585 54.4816C70.7705 54.4818 70.5902 54.5565 70.4573 54.6894C70.3243 54.8223 70.2495 55.0025 70.2493 55.1905V62.9759C70.2495 63.1639 70.3243 63.3441 70.4573 63.477C70.5902 63.6099 70.7705 63.6846 70.9585 63.6848H84.66C84.848 63.6846 85.0282 63.6099 85.1612 63.477C85.2941 63.3441 85.3689 63.1639 85.3692 62.9759V55.1905C85.3689 55.0025 85.2941 54.8223 85.1612 54.6894C85.0282 54.5565 84.848 54.4818 84.66 54.4816L70.9585 54.4816Z"
    fill="#E9BD43" />
  <defs>
    <linearGradient id="paint0_linear" x1="96.8919" y1="12.9296" x2="96.8919" y2="4.42016"
      gradientUnits="userSpaceOnUse">
      <stop stop-opacity="0.12" />
      <stop offset="0.55" stop-opacity="0.09" />
      <stop offset="1" stop-opacity="0.02" />
    </linearGradient>
  </defs>
</svg>