<svg width="80" height="64" viewBox="0 0 80 64" fill="none" xmlns="http://www.w3.org/2000/svg">
  <path
    d="M23.9357 3.58303C24.0637 3.58303 25.9837 3.07103 26.8797 2.94303C27.5197 2.81503 28.0317 2.17503 27.9037 1.40703C27.7757 0.767027 27.1357 0.255027 26.3677 0.383027C25.4717 0.511027 24.4477 0.767027 23.5517 1.02303C23.0397 1.27903 22.5277 1.91903 22.7837 2.68703C22.9117 3.19903 23.4237 3.58303 23.9357 3.58303ZM31.9997 5.11903C27.0077 5.11903 23.0397 9.08703 23.0397 14.079C23.0397 19.071 27.0077 23.039 31.9997 23.039C36.9917 23.039 40.9597 19.071 40.9597 14.079C40.9597 9.08703 36.9917 5.11903 31.9997 5.11903ZM31.9997 20.479C28.4157 20.479 25.5997 17.663 25.5997 14.079C25.5997 10.495 28.4157 7.67903 31.9997 7.67903C35.5837 7.67903 38.3997 10.495 38.3997 14.079C38.3997 17.663 35.5837 20.479 31.9997 20.479ZM7.93571 20.991C7.55171 21.503 7.55171 22.399 8.19171 22.783C8.70371 23.167 9.59971 23.167 9.98371 22.527C11.2637 20.991 13.0557 20.095 14.9757 20.095C18.5597 20.095 21.3757 22.911 21.3757 26.495C21.3757 30.079 18.5597 32.895 14.9757 32.895C11.3917 32.895 8.57571 30.079 8.57571 26.495C8.57571 25.727 8.06371 25.215 7.29571 25.215C6.52771 25.215 6.01571 25.727 6.01571 26.495C6.01571 31.487 9.98371 35.455 14.9757 35.455C19.9677 35.455 23.9357 31.487 23.9357 26.495C23.9357 21.503 19.9677 17.535 14.9757 17.535C12.1597 17.535 9.59971 18.815 7.93571 20.991ZM21.5037 37.503C16.5117 37.503 12.5437 41.471 12.5437 46.463C12.5437 51.455 16.5117 55.423 21.5037 55.423C26.4957 55.423 30.4637 51.455 30.4637 46.463C30.4637 41.471 26.4957 37.503 21.5037 37.503ZM21.5037 52.863C17.9197 52.863 15.1037 50.047 15.1037 46.463C15.1037 42.879 17.9197 40.063 21.5037 40.063C25.0877 40.063 27.9037 42.879 27.9037 46.463C27.9037 50.047 25.0877 52.863 21.5037 52.863ZM42.4957 52.863C41.7277 52.863 41.2157 53.375 41.2157 54.143C41.2157 54.911 41.7277 55.423 42.4957 55.423C47.4877 55.423 51.4557 51.455 51.4557 46.463C51.4557 41.471 47.4877 37.503 42.4957 37.503C37.5037 37.503 33.5357 41.471 33.5357 46.463C33.5357 48.895 34.5597 51.199 36.2237 52.863C36.7357 53.375 37.5037 53.375 38.0157 52.863C38.5277 52.351 38.5277 51.583 38.0157 51.071C36.7357 49.919 36.0957 48.255 36.0957 46.463C36.0957 42.879 38.9117 40.063 42.4957 40.063C46.0797 40.063 48.8957 42.879 48.8957 46.463C48.8957 50.047 46.0797 52.863 42.4957 52.863ZM40.0637 26.495C40.0637 31.487 44.0317 35.455 49.0237 35.455C49.7917 35.455 50.3037 34.943 50.3037 34.175C50.3037 33.407 49.7917 32.895 49.0237 32.895C45.4397 32.895 42.6237 30.079 42.6237 26.495C42.6237 22.911 45.4397 20.095 49.0237 20.095C52.6077 20.095 55.4237 22.911 55.4237 26.495C55.4237 28.159 54.7837 29.823 53.5037 30.975C52.9917 31.487 52.9917 32.255 53.5037 32.767C54.0157 33.279 54.7837 33.279 55.2957 32.767C56.9597 31.103 57.8557 28.799 57.8557 26.367C57.8557 21.375 53.8877 17.407 48.8957 17.407C43.9037 17.407 40.0637 21.503 40.0637 26.495ZM35.8397 31.999C35.8397 31.231 35.3277 30.719 34.5597 30.719C33.7917 30.719 33.2797 31.231 33.2797 31.999C33.2797 32.767 32.7677 33.279 31.9997 33.279C31.2317 33.279 30.7197 32.767 30.7197 31.999C30.7197 31.231 31.2317 30.719 31.9997 30.719C32.7677 30.719 33.2797 30.207 33.2797 29.439C33.2797 28.671 32.7677 28.159 31.9997 28.159C29.8237 28.159 28.1597 29.823 28.1597 31.999C28.1597 34.175 29.8237 35.839 31.9997 35.839C34.1757 35.839 35.8397 34.175 35.8397 31.999ZM49.0237 14.591C49.2797 14.847 50.3037 15.103 50.8157 14.463C51.3277 13.951 51.1997 13.183 50.6877 12.671C49.1517 11.263 47.3597 9.72703 45.3117 8.70303C44.6717 8.31903 43.9037 8.57503 43.5197 9.21503C43.1357 9.85503 43.3917 10.623 44.0317 11.007C46.0797 11.903 47.6157 13.311 49.0237 14.591ZM6.65571 35.839C6.01571 35.967 5.50371 36.735 5.75971 37.375C6.52771 40.703 7.55171 43.263 8.83171 45.439C9.08771 45.823 9.59971 46.207 10.6237 45.823C11.2637 45.567 11.3917 44.671 11.0077 44.031C9.85571 42.111 8.95971 39.807 8.19171 36.735C7.93571 36.095 7.29571 35.711 6.65571 35.839ZM78.0797 53.759C74.3677 53.759 70.9117 54.911 68.0957 57.087L66.0477 58.623C63.6157 60.415 60.6717 61.439 57.5997 61.439H54.5277C53.7597 61.439 53.2477 61.951 53.2477 62.719C53.2477 63.487 53.7597 63.999 54.5277 63.999H57.5997C61.3117 63.999 64.7677 62.847 67.5837 60.671L69.6317 59.135C72.0637 57.343 75.0077 56.319 78.0797 56.319C78.8477 56.319 79.3597 55.807 79.3597 55.039C79.3597 54.271 78.8477 53.759 78.0797 53.759Z"
    fill="url(#paint0_linear)" />
  <path
    d="M49.024 61.44H44.544C55.936 56.576 64 45.184 64 32C64 14.336 49.664 0 32 0C31.232 0 30.72 0.512 30.72 1.28C30.72 2.048 31.232 2.56 32 2.56C48.256 2.56 61.44 15.744 61.44 32C61.44 48.256 48.256 61.44 32 61.44C15.744 61.44 2.56 48.256 2.56 32C2.56 20.608 9.216 10.112 19.584 5.376C20.224 5.12 20.48 4.352 20.224 3.712C19.968 3.072 19.2 2.816 18.56 3.072C7.296 8.192 0 19.584 0 32C0 49.664 14.336 64 32 64L49.024 64C49.792 64 50.304 63.488 50.304 62.72C50.304 61.952 49.792 61.44 49.024 61.44Z"
    fill="url(#paint1_linear)" />
  <defs>
    <linearGradient id="paint0_linear" x1="42.526" y1="0.363281" x2="42.526" y2="63.999" gradientUnits="userSpaceOnUse">
      <stop offset="0.0833333" stop-color="#4A2C40" />
      <stop offset="0.364583" stop-color="#4A2C40" />
      <stop offset="0.916667" stop-color="#C69D42" />
      <stop offset="1" stop-color="#E9BD43" />
    </linearGradient>
    <linearGradient id="paint1_linear" x1="32" y1="0" x2="32" y2="64" gradientUnits="userSpaceOnUse">
      <stop offset="0.0833333" stop-color="#4A2C40" />
      <stop offset="0.364583" stop-color="#4A2C40" />
      <stop offset="0.916667" stop-color="#C69D42" />
      <stop offset="1" stop-color="#E9BD43" />
    </linearGradient>
  </defs>
</svg>