<svg width="57" height="59" viewBox="0 0 57 59" fill="none" xmlns="http://www.w3.org/2000/svg">
  <path
    d="M55.556 53.6047C55.5721 53.5794 55.5893 53.5552 55.6053 53.5287C55.8451 53.1437 55.9909 52.7071 56.0307 52.2547C56.0706 51.8023 56.0034 51.3469 55.8347 50.9255L53.3677 44.6591C53.1559 44.1141 52.7848 43.6463 52.3033 43.3172C51.8218 42.9881 51.2525 42.8132 50.6702 42.8153H50.0611L48.1641 19.5737H49.0152C49.6358 19.5731 50.2309 19.3251 50.6697 18.8842C51.1086 18.4432 51.3554 17.8454 51.356 17.2218V16.104C51.3569 15.8563 51.3182 15.61 51.2413 15.3746H51.5177C52.1049 15.3724 52.6674 15.1368 53.0822 14.7192C53.497 14.3016 53.7304 13.7359 53.7313 13.1459V0.864258C53.7313 0.635042 53.6407 0.415215 53.4793 0.253135C53.318 0.0910555 53.0992 0 52.8711 0L48.7995 0C48.5714 0 48.3526 0.0910555 48.1913 0.253135C48.03 0.415215 47.9393 0.635042 47.9393 0.864258V6.50383H45.3806V0.864258C45.3806 0.635042 45.2899 0.415215 45.1286 0.253135C44.9673 0.0910555 44.7485 0 44.5204 0L38.7915 0C38.5634 0 38.3446 0.0910555 38.1833 0.253135C38.022 0.415215 37.9313 0.635042 37.9313 0.864258V6.50383H35.3806V0.864258C35.3806 0.635042 35.29 0.415215 35.1286 0.253135C34.9673 0.0910555 34.7485 0 34.5204 0L30.4362 0C30.2081 0 29.9893 0.0910555 29.828 0.253135C29.6667 0.415215 29.576 0.635042 29.576 0.864258V7.58357C28.7368 6.83272 27.8299 6.16186 26.867 5.57965L18.4555 0.472461C18.3249 0.393588 18.1759 0.350914 18.0236 0.348791C17.8713 0.346669 17.7211 0.385174 17.5884 0.460379C17.4557 0.535584 17.3453 0.6448 17.2683 0.776887C17.1914 0.908974 17.1506 1.05921 17.1503 1.21227V6.22266L1.06592 20.5117C0.911709 20.6487 0.811598 20.8368 0.783812 21.0418C0.756025 21.2467 0.802412 21.4549 0.914527 21.6283L3.48707 25.6189C3.5996 25.7932 3.77079 25.921 3.96936 25.979C4.16793 26.037 4.38063 26.0212 4.56861 25.9346L9.27098 23.759C11.0453 25.2098 13.026 26.1455 15.1019 26.5246L14.2876 29.4136C13.4375 32.5061 11.7061 35.2814 9.30653 37.3982L4.31858 41.8093C4.19234 41.8833 4.08692 41.9883 4.01227 42.1145C3.93763 42.2407 3.89621 42.384 3.89193 42.5307L3.74627 47.6897C3.74305 47.8053 3.76292 47.9203 3.8047 48.0279C3.84649 48.1356 3.90934 48.2337 3.98954 48.3166C4.06974 48.3994 4.16565 48.4652 4.27162 48.5102C4.37758 48.5551 4.49144 48.5782 4.60646 48.5782H4.61793C4.05158 49.3284 3.74541 50.2444 3.74627 51.186L3.74627 52.0571H2.81727C2.64283 52.0575 2.47262 52.1112 2.32924 52.211C2.18585 52.3108 2.07606 52.4521 2.01442 52.616L0.0554853 57.8304C0.00636984 57.961 -0.0104995 58.1017 0.00632149 58.2403C0.0231425 58.379 0.0731529 58.5114 0.152071 58.6264C0.230988 58.7414 0.336462 58.8354 0.459462 58.9005C0.582462 58.9656 0.719324 58.9997 0.858328 59L56.1398 59C56.3679 59 56.5867 58.9089 56.7481 58.7469C56.9094 58.5848 57 58.365 57 58.1357V56.1768C56.9997 55.6595 56.8666 55.151 56.6137 54.7005C56.3607 54.25 55.9965 53.8726 55.556 53.6047ZM48.3304 42.8188L34.9218 42.8188C35.4562 41.8209 35.9337 40.7932 36.352 39.7409C36.3556 39.7338 36.3586 39.7265 36.3612 39.719C38.1034 35.324 38.7693 30.5729 38.3029 25.8655C38.0977 23.7284 37.6639 21.6198 37.0092 19.576H46.4415L48.3304 42.8188ZM49.6299 17.2218C49.6296 17.387 49.5641 17.5454 49.4478 17.6623C49.3315 17.7791 49.1739 17.8449 49.0094 17.8452H36.391C36.0768 17.0409 35.7277 16.2527 35.3439 15.4806L49.0152 15.4806C49.1797 15.4806 49.3375 15.5463 49.4539 15.6632C49.5703 15.7801 49.6356 15.9387 49.6356 16.104L49.6299 17.2218ZM31.2964 1.72852L33.6602 1.72852V7.36809C33.6602 7.5973 33.7508 7.81713 33.9121 7.97921C34.0735 8.14129 34.2923 8.23234 34.5204 8.23234H38.7961C39.0242 8.23234 39.243 8.14129 39.4044 7.97921C39.5657 7.81713 39.6563 7.5973 39.6563 7.36809V1.72852L43.6648 1.72852V7.36809C43.6648 7.5973 43.7554 7.81713 43.9167 7.97921C44.078 8.14129 44.2968 8.23234 44.525 8.23234L48.7995 8.23234C49.0277 8.23234 49.2465 8.14129 49.4078 7.97921C49.5691 7.81713 49.6597 7.5973 49.6597 7.36809V1.72852L52.0109 1.72852V13.1459C52.0103 13.2788 51.9573 13.406 51.8636 13.4997C51.7699 13.5934 51.6431 13.6461 51.5108 13.6461L34.3484 13.6461C33.4572 12.1305 32.4344 10.6972 31.2918 9.36279L31.2964 1.72852ZM5.60542 42.9824L10.4466 38.6969C13.0978 36.3605 15.0114 33.2963 15.9518 29.8814L16.8452 26.709C16.9657 26.709 17.0861 26.709 17.2065 26.709C20.2103 26.709 23.0982 25.5647 25.5584 23.3983C25.7299 23.2472 25.8347 23.0338 25.8497 22.805C25.8646 22.5763 25.7885 22.351 25.6381 22.1786C25.4877 22.0062 25.2753 21.9009 25.0476 21.8859C24.8199 21.8709 24.5956 21.9474 24.4241 22.0985C22.0006 24.2326 19.1861 25.1879 16.4117 24.9621C16.3288 24.9416 16.2434 24.9334 16.1582 24.9379C14.0169 24.7074 11.9089 23.7752 10.0325 22.1377C9.90883 22.01 9.74873 21.924 9.57431 21.8916C9.3999 21.8592 9.21978 21.8819 9.0588 21.9568L4.52847 24.054L2.76107 21.3184L18.5805 7.25977C18.6717 7.17858 18.7448 7.07888 18.7948 6.96724C18.8448 6.85561 18.8707 6.73458 18.8707 6.61215V2.74488L25.9816 7.05926C27.3615 7.88939 28.6088 8.92393 29.6815 10.1279C30.9637 11.576 32.0944 13.1527 33.0558 14.833C33.0802 14.8947 33.1121 14.9532 33.151 15.007C33.1787 15.0727 33.2146 15.1346 33.2576 15.1913C33.9064 16.3654 34.4699 17.5851 34.9436 18.8408C34.9614 18.9589 35.0036 19.0719 35.0675 19.1727C35.1042 19.2753 35.1397 19.3778 35.1764 19.4815C35.1894 19.6037 35.2285 19.7217 35.2911 19.8272C36.1879 22.5011 36.6751 25.2963 36.7362 28.1172H27.5334C27.3052 28.1172 27.0864 28.2082 26.9251 28.3703C26.7638 28.5324 26.6732 28.7522 26.6732 28.9814C26.6732 29.2107 26.7638 29.4305 26.9251 29.5926C27.0864 29.7546 27.3052 29.8457 27.5334 29.8457H36.7202C36.6735 31.0117 36.554 32.1737 36.3623 33.3246H29.2641C29.0359 33.3246 28.8171 33.4157 28.6558 33.5778C28.4945 33.7398 28.4039 33.9597 28.4039 34.1889C28.4039 34.4181 28.4945 34.6379 28.6558 34.8C28.8171 34.9621 29.0359 35.0531 29.2641 35.0531H36.0171C35.744 36.2345 35.3942 37.3966 34.97 38.5321H30.9936C30.7655 38.5321 30.5467 38.6231 30.3854 38.7852C30.2241 38.9473 30.1334 39.1671 30.1334 39.3963C30.1334 39.6255 30.2241 39.8454 30.3854 40.0074C30.5467 40.1695 30.7655 40.2606 30.9936 40.2606H34.2577C33.8212 41.2333 33.3303 42.1805 32.7874 43.0977C32.7689 43.1284 32.7525 43.1604 32.7381 43.1933L31.1473 46.8531H5.49188L5.60542 42.9824ZM5.47124 51.1906C5.47245 50.4985 5.74692 49.8352 6.2344 49.3463C6.72187 48.8574 7.38251 48.5828 8.0713 48.5828H28.2571C28.9459 48.5828 29.6065 48.8574 30.094 49.3463C30.5814 49.8352 30.8559 50.4985 30.8571 51.1906V52.0617H5.46665L5.47124 51.1906ZM27.1721 57.2715H2.10274L3.41137 53.7856H4.50553C4.53897 53.7903 4.5727 53.7926 4.60646 53.7926H31.7104C31.7442 53.7926 31.7779 53.7903 31.8114 53.7856H32.9055L33.1154 54.3468L33.1257 54.3733L34.2142 57.2715H27.1721ZM34.3048 52.616C34.243 52.4521 34.1332 52.311 33.9898 52.2112C33.8465 52.1114 33.6763 52.0577 33.5019 52.0571H32.5729V51.186C32.5738 50.2444 32.2676 49.3284 31.7013 48.5782H31.7127C31.8801 48.5784 32.0439 48.5294 32.1839 48.4373C32.3239 48.3452 32.434 48.2139 32.5007 48.0596L34.0249 44.5531L49.2698 44.5531C49.3042 44.5531 49.3386 44.5531 49.373 44.5462H50.6724C50.9092 44.5449 51.1407 44.6156 51.3366 44.7491C51.5326 44.8826 51.6837 45.0726 51.7701 45.294L54.2382 51.5593C54.3055 51.7291 54.3327 51.9123 54.3176 52.0944C54.3025 52.2766 54.2456 52.4527 54.1514 52.6091C54.0572 52.7654 53.9281 52.8976 53.7744 52.9954C53.6207 53.0932 53.4466 53.1538 53.2656 53.1726L34.5124 53.1726L34.3048 52.616ZM55.2796 57.2715L36.0527 57.2715L35.165 54.9069L53.1406 54.9069C53.2129 54.9069 53.2794 54.9069 53.3448 54.8988H54.0065C54.3441 54.8991 54.6677 55.034 54.9064 55.2738C55.1451 55.5136 55.2793 55.8388 55.2796 56.1779V57.2715ZM17.5861 11.4451C17.0133 11.4458 16.4535 11.6171 15.9775 11.9373C15.5015 12.2576 15.1308 12.7124 14.912 13.2444C14.6933 13.7763 14.6364 14.3615 14.7485 14.9259C14.8607 15.4903 15.1369 16.0086 15.5422 16.4154C15.9475 16.8221 16.4638 17.099 17.0256 17.211C17.5875 17.3231 18.1699 17.2652 18.6991 17.0448C19.2282 16.8244 19.6805 16.4513 19.9987 15.9727C20.3169 15.4941 20.4867 14.9315 20.4867 14.3559C20.4855 13.5837 20.1794 12.8435 19.6356 12.2978C19.0918 11.752 18.3547 11.4454 17.5861 11.4451ZM17.5861 15.5382C17.3536 15.5375 17.1264 15.4676 16.9333 15.3373C16.7403 15.2069 16.59 15.0221 16.5014 14.806C16.4129 14.5899 16.3901 14.3522 16.4359 14.1231C16.4817 13.894 16.594 13.6837 16.7587 13.5187C16.9234 13.3537 17.1331 13.2414 17.3613 13.1961C17.5894 13.1507 17.8259 13.1743 18.0407 13.2639C18.2555 13.3535 18.4391 13.5051 18.5682 13.6994C18.6974 13.8938 18.7663 14.1222 18.7663 14.3559C18.7657 14.6699 18.6411 14.9708 18.4198 15.1925C18.1985 15.4142 17.8986 15.5385 17.5861 15.5382Z"
    fill="url(#paint0_linear)" />
  <defs>
    <linearGradient id="paint0_linear" x1="28.5" y1="0" x2="28.5" y2="59" gradientUnits="userSpaceOnUse">
      <stop stop-color="#4A2C40" />
      <stop offset="1" stop-color="#E9BD43" />
    </linearGradient>
  </defs>
</svg>