<svg width="110" height="78" viewBox="0 0 110 78" fill="none" xmlns="http://www.w3.org/2000/svg">
  <path
    d="M86.8952 77.1918C86.3485 77.1915 85.8044 77.1163 85.278 76.9684L63.426 71.1194L63.4901 70.8894L85.3424 76.7385C85.8478 76.8805 86.3702 76.9527 86.8952 76.953C89.4669 76.953 91.7477 75.4629 92.4418 72.9875L107.997 17.5147H107.997L108.031 17.394C108.44 15.9241 108.249 14.3522 107.501 13.0227C106.753 11.6931 105.508 10.7142 104.04 10.3005L68.9149 0.450994C67.4444 0.0406368 65.8712 0.230214 64.5404 0.978148C63.2095 1.72608 62.2296 2.97131 61.8156 4.44073L60.5952 8.79384L60.3652 8.72936L61.5856 4.37625C62.0168 2.84586 63.0373 1.54895 64.4234 0.769986C65.8095 -0.0089748 67.4479 -0.206379 68.9793 0.221073L104.104 10.0706C105.615 10.4961 106.899 11.4961 107.681 12.8564C108.463 14.2168 108.682 15.8294 108.29 17.349L108.291 17.3493L108.259 17.4643L92.6717 73.0519C91.9488 75.63 89.5734 77.1918 86.8952 77.1918Z"
    fill="white" />
  <path
    d="M61.9607 10.0334L62.3607 10.1456L63.5917 10.4907L63.7206 10.0298L63.2598 9.90086L63.6645 8.45739L64.6376 7.61208L64.8966 10.3605L64.1803 10.1588L64.0513 10.6196L65.89 11.1354L66.019 10.6745L65.6285 10.5659L65.2536 7.07719L67.1639 5.41642L67.7 5.56686L67.829 5.106L65.9891 4.59021L65.8602 5.05107L66.4667 5.22061L64.037 7.12973L64.7104 4.72871L65.1712 4.85766L65.3002 4.39679L63.4603 3.88101L63.3314 4.34187L64.0215 4.53529L62.5708 9.70745L61.8807 9.51403L61.8628 9.57611L61.7888 9.84355L61.9607 10.0334Z"
    fill="#E9BD43" />
  <path
    d="M64.9207 14.3913C64.4613 14.5903 64.0129 14.8139 63.5775 15.0611C63.4975 15.1065 63.4175 15.153 63.3387 15.1996V13.7227C63.3393 13.1914 63.2642 12.6627 63.1155 12.1527C63.1847 12.1097 63.2552 12.0631 63.3244 12.0165C63.3877 11.9748 63.4522 11.9318 63.5154 11.8888C63.9084 12.7632 64.3787 13.6007 64.9207 14.3913V14.3913Z"
    fill="#E9BD43" />
  <path
    d="M86.8029 73.0468L86.2674 72.8966L86.1384 73.3564L87.9778 73.8721L88.1068 73.4124L87.501 73.2425L89.9299 71.3326L89.2563 73.7347L88.7965 73.6058L88.6676 74.0656L90.5069 74.5813L90.6359 74.1216L89.946 73.9281L91.3967 68.7549L92.0865 68.9483L92.2155 68.4885L90.3761 67.9728L90.2471 68.4326L90.7069 68.5615L90.3021 70.0055L89.3295 70.8508L89.071 68.1028L89.7872 68.3036L89.9162 67.8438L88.0769 67.328L87.948 67.7878L88.3387 67.8974L88.7139 71.3858L86.8029 73.0468Z"
    fill="#E9BD43" />
  <path
    d="M89.0459 64.0716C89.9067 63.7023 90.7256 63.2421 91.4887 62.6988C91.8974 63.5652 92.3674 64.4014 92.895 65.2011C92.0397 65.5816 91.2219 66.0412 90.4522 66.5739C90.0587 65.6997 89.588 64.8623 89.0459 64.0716V64.0716Z"
    fill="#E9BD43" />
  <path
    d="M72.9374 39.2128C72.9374 39.2128 72.3334 43.1354 72.154 43.3331C71.9745 43.5308 73.4076 48.1486 73.4076 48.1486L78.0029 45.4692C78.0029 45.4692 78.897 40.512 79.1914 40.3465C79.4858 40.1811 72.9374 39.2128 72.9374 39.2128Z"
    fill="#FFB8B8" />
  <path opacity="0.1"
    d="M72.9374 39.2128C72.9374 39.2128 72.3334 43.1354 72.154 43.3331C71.9745 43.5308 73.4076 48.1486 73.4076 48.1486L78.0029 45.4692C78.0029 45.4692 78.897 40.512 79.1914 40.3465C79.4858 40.1811 72.9374 39.2128 72.9374 39.2128Z"
    fill="black" />
  <path
    d="M76.4928 43.0107C78.9985 43.0107 81.0298 40.9794 81.0298 38.4737C81.0298 35.968 78.9985 33.9367 76.4928 33.9367C73.9871 33.9367 71.9558 35.968 71.9558 38.4737C71.9558 40.9794 73.9871 43.0107 76.4928 43.0107Z"
    fill="#FFB8B8" />
  <path
    d="M74.5263 45.4864L74.1309 45.1275L72.3538 42.5982C72.3538 42.5982 72.1498 42.464 71.9564 43.1537L71.763 43.8435L70.0933 44.4913L66.3989 60.3192L76.2855 63.0916L80.357 47.2454L78.4446 45.2211L78.2329 44.2445L75.2805 45.4499L74.5263 45.4864Z"
    fill="white" />
  <path
    d="M63.3386 61.9412L63.5774 62.008L78.9745 66.3253L84.1228 49.2937C84.1228 49.2937 82.9049 48.3314 81.9522 48.1881C81.9522 48.1881 80.3523 46.3757 79.6634 46.1823C78.9733 45.9889 78.2104 44.2875 78.2104 44.2875C78.2104 44.2875 77.4044 47.1614 76.0195 49.0048C74.6345 50.8482 72.2227 57.2406 72.2227 57.2406L71.5422 45.5173L72.3063 42.5695C71.862 42.8327 71.4576 43.1579 71.1052 43.5354C70.5667 44.1276 69.1925 44.6099 69.1925 44.6099C69.1925 44.6099 65.5725 45.5794 64.9325 45.6486C64.2938 45.7167 63.9989 45.8826 63.9989 45.8826L63.5774 48.7827L63.3386 50.4256V61.9412Z"
    fill="#2F2E41" />
  <path
    d="M65.44 55.3387C65.2967 56.2902 63.8234 60.2171 63.8234 60.2171L63.5774 60.4643L63.3386 60.7042V46.1609C63.4051 46.0887 63.4866 46.0321 63.5774 45.9949C63.7123 45.9389 63.854 45.9011 63.9989 45.8827L64.4597 46.0116C64.4597 46.0116 65.5832 54.3859 65.44 55.3387Z"
    fill="#2F2E41" />
  <path
    d="M75.928 60.3872C75.928 60.3872 78.1876 56.3088 79.898 57.2845C81.6084 58.2601 78.8664 60.9632 78.8664 60.9632L75.928 60.3872Z"
    fill="#FFB8B8" />
  <path
    d="M68.9335 58.798C68.9335 58.798 64.5972 57.458 64.5005 57.8029C64.4038 58.1478 63.2165 60.1708 63.5614 60.2675C63.9063 60.3642 66.5826 60.9907 66.5504 61.1057C66.5181 61.2206 67.8332 61.8374 67.8332 61.8374L68.9335 58.798Z"
    fill="#FFB8B8" />
  <path
    d="M77.387 45.9021L74.6272 46.0106L74.0524 45.8494L71.7513 44.3218L70.9893 46.6024L73.8912 46.4242L74.466 46.5854L76.8522 48.2465L77.387 45.9021Z"
    fill="#E9BD43" />
  <path
    d="M69.971 63.0574L69.5471 63.9601L63.458 62.2886L63.3386 61.9411V60.0272L63.5774 60.1203L63.8234 60.2171L69.971 63.0574Z"
    fill="#2F2E41" />
  <path
    d="M70.1981 59.1526C70.1981 59.1526 68.7681 58.5036 68.7359 58.6186C68.7036 58.7335 66.7846 62.0394 67.2445 62.1683C67.7043 62.2973 69.332 63.1257 69.332 63.1257L70.1981 59.1526Z"
    fill="white" />
  <path
    d="M83.318 49.0676L84.1227 49.2933C84.1227 49.2933 84.5825 49.4222 84.619 50.1764C84.6555 50.9307 85.2796 54.4537 84.9852 54.6191C84.6908 54.7845 84.6081 54.6374 84.7736 54.9317C84.939 55.2261 85.0862 55.1434 84.9068 55.3411C84.7273 55.5388 84.3156 61.8713 82.9811 63.9771C81.6466 66.0829 81.2416 67.0853 80.7817 66.9563L68.8625 63.614C68.8625 63.614 69.3933 58.9269 69.8854 58.9409C70.3775 58.9548 78.4387 60.7193 78.4387 60.7193C78.4387 60.7193 81.5613 48.699 83.318 49.0676Z"
    fill="#2F2E41" />
  <path
    d="M73.8195 33.5011L73.0752 32.9673C73.0752 32.9673 75.2942 31.7202 77.6633 32.547L77.1753 31.6787C77.1753 31.6787 79.0021 31.5407 80.0654 33.5457C80.6244 34.5997 81.2668 35.8345 81.5294 37.0962L82.417 37.3451L81.8388 37.9822L82.9277 39.0868L81.6341 38.5805C81.5808 39.2555 81.3519 39.9049 80.9701 40.4642L80.4363 41.2085C80.4363 41.2085 79.9068 38.4592 79.9913 38.1578L79.78 38.9113C79.78 38.9113 79.1413 38.0007 79.268 37.5486L78.668 37.9493L78.6744 37.057L75.6539 37.1041L76.2962 36.5527L74.4997 36.2927L75.4103 35.654C75.4103 35.654 73.1765 36.0842 72.8687 36.892C72.5609 37.6997 71.2855 38.48 71.2855 38.48L71.0447 37.5997C71.0447 37.5997 71.3173 34.0186 73.8195 33.5011Z"
    fill="#2F2E41" />
  <path
    d="M72.2599 35.1332L72.2954 34.9786C72.6404 33.4766 69.9865 30.6834 69.9597 30.6553L69.9126 30.6062L69.931 30.5405C69.9835 30.3533 70.1941 30.187 72.0394 30.587C72.7579 30.7427 73.4744 30.9326 73.7743 31.0139C73.7408 30.1564 72.6777 29.0201 72.6664 29.0081L72.5327 28.8664L72.7196 28.8115C73.9453 28.4523 75.3798 29.6438 75.8382 30.0657L76.6046 27.3328L78.121 29.5727C79.052 28.1791 80.3985 28.2355 80.4574 28.2388L80.6464 28.2491L80.5556 28.4153C79.9177 29.5824 79.8027 30.349 79.7961 30.727C81.4934 28.7105 83.023 28.8862 83.0895 28.895L83.3213 28.9256L83.1606 29.0954C80.9386 31.4433 80.677 34.5405 80.6746 34.5715L80.6666 34.6758L72.2599 35.1332ZM70.2242 30.5884C70.6934 31.097 72.7224 33.3919 72.5543 34.8781L80.4474 34.4487C80.5125 33.8962 80.9128 31.267 82.8001 29.1356C82.2858 29.1815 81.0725 29.4747 79.7943 31.1082L79.6478 31.2953L79.5851 31.0661C79.5753 31.03 79.3616 30.1903 80.2481 28.4845C79.8417 28.5229 78.8955 28.7356 78.2268 29.852L78.1305 30.0127L76.6955 27.8931L75.9589 30.5197L75.8144 30.3733C75.7983 30.357 74.2586 28.8154 72.9784 28.9992C73.307 29.3818 74.0933 30.3897 74.0072 31.182L73.992 31.3221L73.8562 31.2841C72.3485 30.8613 70.6264 30.5005 70.2242 30.5884Z"
    fill="#E9BD43" />
  <path
    d="M83.6842 28.2659C83.6026 28.2431 83.5297 28.1965 83.4746 28.1322C83.4195 28.0679 83.3847 27.9887 83.3746 27.9046C83.3645 27.8205 83.3796 27.7353 83.418 27.6597C83.4563 27.5842 83.5162 27.5217 83.59 27.4802C83.6639 27.4387 83.7483 27.4201 83.8328 27.4266C83.9172 27.4331 83.9979 27.4645 84.0645 27.5169C84.1311 27.5692 84.1806 27.6401 84.2069 27.7206C84.2332 27.8012 84.2351 27.8877 84.2122 27.9692C84.1814 28.0785 84.1085 28.1711 84.0096 28.2268C83.9106 28.2824 83.7936 28.2965 83.6842 28.2659V28.2659ZM83.851 27.6712C83.8149 27.661 83.7766 27.6618 83.741 27.6735C83.7054 27.6851 83.674 27.707 83.6509 27.7365C83.6277 27.766 83.6138 27.8016 83.6109 27.839C83.608 27.8764 83.6163 27.9137 83.6347 27.9464C83.653 27.9791 83.6807 28.0056 83.7141 28.0225C83.7475 28.0395 83.7852 28.0462 83.8224 28.0417C83.8596 28.0372 83.8946 28.0218 83.9231 27.9975C83.9516 27.9731 83.9721 27.9408 83.9823 27.9047C83.9958 27.8564 83.9895 27.8046 83.9649 27.7608C83.9403 27.717 83.8993 27.6848 83.851 27.6712V27.6712Z"
    fill="#E9BD43" />
  <path
    d="M80.7103 27.432C80.6288 27.4091 80.5558 27.3626 80.5007 27.2983C80.4456 27.234 80.4108 27.1547 80.4008 27.0706C80.3907 26.9865 80.4057 26.9013 80.4441 26.8258C80.4824 26.7503 80.5423 26.6878 80.6161 26.6463C80.69 26.6048 80.7745 26.5862 80.8589 26.5927C80.9434 26.5992 81.024 26.6306 81.0906 26.6829C81.1572 26.7353 81.2068 26.8062 81.2331 26.8867C81.2594 26.9672 81.2612 27.0537 81.2383 27.1353C81.2075 27.2446 81.1347 27.3372 81.0357 27.3928C80.9367 27.4485 80.8197 27.4625 80.7103 27.432V27.432ZM80.8771 26.8372C80.841 26.8271 80.8028 26.8279 80.7671 26.8396C80.7315 26.8512 80.7002 26.8731 80.677 26.9026C80.6538 26.932 80.6399 26.9677 80.6371 27.0051C80.6342 27.0424 80.6424 27.0798 80.6608 27.1125C80.6791 27.1452 80.7068 27.1716 80.7402 27.1886C80.7736 27.2056 80.8113 27.2122 80.8485 27.2078C80.8857 27.2033 80.9208 27.1879 80.9492 27.1635C80.9777 27.1392 80.9983 27.1069 81.0084 27.0708C81.0219 27.0224 81.0157 26.9707 80.9911 26.9269C80.9664 26.8831 80.9255 26.8508 80.8771 26.8372V26.8372Z"
    fill="#E9BD43" />
  <path
    d="M76.1896 26.9664C76.108 26.9435 76.0351 26.897 75.98 26.8326C75.9249 26.7683 75.8901 26.6891 75.88 26.605C75.8699 26.5209 75.885 26.4357 75.9233 26.3602C75.9617 26.2846 76.0216 26.2222 76.0954 26.1807C76.1692 26.1392 76.2537 26.1205 76.3382 26.127C76.4226 26.1336 76.5032 26.165 76.5698 26.2173C76.6364 26.2696 76.686 26.3406 76.7123 26.4211C76.7386 26.5016 76.7404 26.5881 76.7176 26.6696C76.6868 26.7789 76.6139 26.8716 76.5149 26.9272C76.4159 26.9828 76.2989 26.9969 76.1896 26.9664ZM76.3564 26.3716C76.3203 26.3615 76.282 26.3623 76.2464 26.3739C76.2108 26.3855 76.1794 26.4075 76.1562 26.4369C76.1331 26.4664 76.1192 26.5021 76.1163 26.5394C76.1134 26.5768 76.1217 26.6142 76.14 26.6468C76.1584 26.6795 76.186 26.706 76.2194 26.723C76.2529 26.7399 76.2906 26.7466 76.3278 26.7421C76.365 26.7377 76.4 26.7223 76.4285 26.6979C76.4569 26.6735 76.4775 26.6413 76.4876 26.6052C76.5011 26.5568 76.4949 26.505 76.4703 26.4612C76.4457 26.4174 76.4047 26.3852 76.3564 26.3716V26.3716Z"
    fill="#E9BD43" />
  <path
    d="M68.9725 30.3959C68.891 30.373 68.818 30.3265 68.7629 30.2622C68.7078 30.1978 68.673 30.1186 68.663 30.0345C68.6529 29.9504 68.668 29.8652 68.7063 29.7897C68.7446 29.7142 68.8045 29.6517 68.8784 29.6102C68.9522 29.5687 69.0367 29.55 69.1211 29.5566C69.2056 29.5631 69.2862 29.5945 69.3528 29.6468C69.4194 29.6992 69.469 29.7701 69.4953 29.8506C69.5216 29.9311 69.5234 30.0176 69.5005 30.0992C69.4698 30.2085 69.3969 30.3011 69.2979 30.3567C69.1989 30.4124 69.0819 30.4264 68.9725 30.3959V30.3959ZM69.1393 29.8011C69.1032 29.791 69.065 29.7918 69.0294 29.8034C68.9937 29.8151 68.9624 29.837 68.9392 29.8665C68.916 29.8959 68.9022 29.9316 68.8993 29.969C68.8964 30.0063 68.9046 30.0437 68.923 30.0764C68.9414 30.109 68.969 30.1355 69.0024 30.1525C69.0358 30.1695 69.0735 30.1761 69.1107 30.1717C69.1479 30.1672 69.183 30.1518 69.2114 30.1274C69.2399 30.1031 69.2605 30.0708 69.2706 30.0347C69.2841 29.9863 69.2779 29.9346 69.2533 29.8908C69.2286 29.847 69.1877 29.8147 69.1393 29.8011V29.8011Z"
    fill="#E9BD43" />
  <path
    d="M71.7636 28.4518C71.682 28.4289 71.6091 28.3824 71.554 28.3181C71.4988 28.2538 71.4641 28.1745 71.454 28.0904C71.4439 28.0063 71.459 27.9211 71.4973 27.8456C71.5357 27.7701 71.5955 27.7076 71.6694 27.6661C71.7432 27.6246 71.8277 27.606 71.9121 27.6125C71.9966 27.619 72.0772 27.6504 72.1438 27.7027C72.2104 27.7551 72.26 27.826 72.2863 27.9065C72.3126 27.987 72.3144 28.0735 72.2915 28.1551C72.2608 28.2644 72.1879 28.357 72.0889 28.4126C71.9899 28.4682 71.8729 28.4823 71.7636 28.4518V28.4518ZM71.9303 27.857C71.8943 27.8469 71.856 27.8477 71.8204 27.8594C71.7847 27.871 71.7534 27.8929 71.7302 27.9224C71.7071 27.9518 71.6932 27.9875 71.6903 28.0249C71.6874 28.0622 71.6957 28.0996 71.714 28.1323C71.7324 28.165 71.76 28.1914 71.7934 28.2084C71.8268 28.2254 71.8645 28.232 71.9017 28.2276C71.9389 28.2231 71.974 28.2077 72.0025 28.1834C72.0309 28.159 72.0515 28.1267 72.0616 28.0906C72.0751 28.0422 72.0689 27.9905 72.0443 27.9467C72.0197 27.9029 71.9787 27.8707 71.9303 27.857Z"
    fill="#E9BD43" />
  <path
    d="M85.9962 68.6665L85.8814 68.6343L63.3755 62.3233L63.4398 62.0934L85.8309 68.3722L99.9828 17.9048L68.4262 9.05602L63.6131 26.2207L63.3831 26.1562L68.261 8.7616L68.3757 8.79383L100.277 17.7394L100.245 17.8543L85.9962 68.6665Z"
    fill="white" />
  <path
    d="M4.97084 73.2868C6.45472 76.0387 9.60405 77.22 9.60405 77.22C9.60405 77.22 10.3475 73.9396 8.86365 71.1877C7.37977 68.4358 4.23044 67.2544 4.23044 67.2544C4.23044 67.2544 3.48697 70.5348 4.97084 73.2868Z"
    fill="white" />
  <path
    d="M5.99078 72.3814C8.6698 73.9932 9.70157 77.1946 9.70157 77.1946C9.70157 77.1946 6.3898 77.7829 3.71079 76.1711C1.03177 74.5593 0 71.3578 0 71.3578C0 71.3578 3.31177 70.7696 5.99078 72.3814Z"
    fill="#E9BD43" />
  <path
    d="M63.3242 12.0166C63.1187 11.3398 62.7922 10.7059 62.3606 10.1457C62.2069 9.94545 62.0407 9.75523 61.8628 9.57616C61.3174 9.02711 60.6688 8.59147 59.9542 8.29434C59.2397 7.99721 58.4734 7.84447 57.6995 7.84494H21.2198C19.6614 7.84652 18.1673 8.46629 17.0653 9.56825C15.9634 10.6702 15.3436 12.1643 15.342 13.7227V71.4545C15.3436 73.0129 15.9634 74.507 17.0653 75.609C18.1673 76.711 19.6614 77.3307 21.2198 77.3323H57.6995C59.2579 77.3307 60.752 76.711 61.854 75.609C62.9559 74.507 63.5757 73.0129 63.5773 71.4545V13.7227C63.5779 13.1446 63.4926 12.5696 63.3242 12.0166V12.0166ZM63.3385 71.4545C63.3367 72.9495 62.742 74.3828 61.6849 75.4399C60.6277 76.497 59.1945 77.0917 57.6995 77.0935H21.2198C19.7248 77.0917 18.2916 76.497 17.2344 75.4399C16.1773 74.3828 15.5826 72.9495 15.5808 71.4545V13.7227C15.5826 12.2277 16.1773 10.7945 17.2344 9.73734C18.2916 8.68021 19.7248 8.08553 21.2198 8.08373H57.6995C58.465 8.08339 59.2225 8.23929 59.9256 8.5419C60.6288 8.84451 61.2628 9.28745 61.7887 9.8436C61.8472 9.90568 61.9046 9.96896 61.9607 10.0334C62.8494 11.057 63.3387 12.3671 63.3385 13.7227V71.4545Z"
    fill="white" />
  <path
    d="M21.1616 17.1229C21.155 17.1073 21.1468 17.0932 21.1395 17.0782C21.4088 16.5513 21.5447 15.9663 21.5352 15.3747C21.5352 13.5239 20.3786 12.2312 18.7227 12.2312C17.0668 12.2312 15.9102 13.5239 15.9102 15.3747C15.9102 17.2255 17.0668 18.5181 18.7227 18.5181C19.1136 18.526 19.5014 18.4474 19.8583 18.288C20.2153 18.1286 20.5327 17.8923 20.7877 17.596C21.3179 18.454 22.3429 18.5672 22.3902 18.5719L22.4461 18.0232C22.4075 18.0191 21.4975 17.9126 21.1616 17.1229ZM18.7227 17.9666C17.3914 17.9666 16.4616 16.9008 16.4616 15.3747C16.4616 13.8486 17.3914 12.7827 18.7227 12.7827C20.054 12.7827 20.9838 13.8486 20.9838 15.3747C20.9892 15.8098 20.9033 16.2411 20.7318 16.641C19.9087 16.1409 18.3773 16.4398 18.1696 16.4835L18.283 17.0232C18.8455 16.9055 19.9646 16.811 20.4518 17.1166C20.2518 17.3854 19.9906 17.6027 19.6899 17.7505C19.3893 17.8984 19.0577 17.9724 18.7227 17.9666V17.9666Z"
    fill="#E9BD43" />
  <path
    d="M18.9242 19.8298C18.7447 19.6506 18.5014 19.55 18.2477 19.5501C17.9941 19.5502 17.7509 19.651 17.5715 19.8303C17.3921 20.0097 17.2913 20.2529 17.2913 20.5066C17.2912 20.7602 17.3918 21.0035 17.571 21.183L18.9242 22.5361L20.2773 21.183C20.4561 21.0034 20.5564 20.7602 20.5562 20.5068C20.5559 20.2534 20.4551 20.0104 20.2759 19.8312C20.0967 19.652 19.8538 19.5512 19.6003 19.551C19.3469 19.5507 19.1037 19.651 18.9242 19.8298V19.8298Z"
    fill="#E9BD43" />
  <path
    d="M57.7578 68.424C57.7645 68.4396 57.7727 68.4537 57.7799 68.4687C57.5107 68.9956 57.3748 69.5805 57.3842 70.1722C57.3842 72.023 58.5408 73.3156 60.1967 73.3156C61.8527 73.3156 63.0093 72.023 63.0093 70.1722C63.0093 68.3214 61.8527 67.0288 60.1967 67.0288C59.8059 67.0209 59.4181 67.0994 59.0611 67.2588C58.7041 67.4182 58.3868 67.6546 58.1317 67.9509C57.6015 67.0929 56.5765 66.9797 56.5293 66.975L56.4734 67.5237C56.512 67.5278 57.4219 67.6343 57.7578 68.424ZM60.1967 67.5802C61.528 67.5802 62.4578 68.6461 62.4578 70.1722C62.4578 71.6983 61.528 72.7642 60.1967 72.7642C58.8654 72.7642 57.9357 71.6983 57.9357 70.1722C57.9303 69.7371 58.0161 69.3057 58.1876 68.9058C59.0107 69.4059 60.5421 69.1071 60.7498 69.0633L60.6364 68.5236C60.0739 68.6414 58.9548 68.7359 58.4677 68.4303C58.6677 68.1615 58.9288 67.9442 59.2295 67.7963C59.5302 67.6485 59.8617 67.5744 60.1967 67.5803V67.5802Z"
    fill="#E9BD43" />
  <path
    d="M59.9956 65.7171C60.1751 65.8961 60.4184 65.9965 60.6719 65.9963C60.9254 65.9961 61.1684 65.8953 61.3477 65.7161C61.5269 65.5368 61.6277 65.2937 61.6279 65.0402C61.6281 64.7867 61.5277 64.5435 61.3487 64.364L59.9956 63.0108L58.6425 64.364C58.4635 64.5435 58.3631 64.7867 58.3633 65.0402C58.3635 65.2937 58.4643 65.5368 58.6435 65.7161C58.8228 65.8953 59.0658 65.9961 59.3194 65.9963C59.5729 65.9965 59.8161 65.8961 59.9956 65.7171V65.7171Z"
    fill="#E9BD43" />
  <path
    d="M42.4023 40.6438C40.7768 37.8973 37.561 37.7693 37.561 37.7693C37.561 37.7693 34.4274 37.3686 32.4172 41.5515C30.5435 45.4504 27.9576 49.2148 32.0009 50.1275L32.7312 47.8544L33.1835 50.2968C33.7592 50.3382 34.3367 50.348 34.9134 50.3263C39.2435 50.1865 43.3671 50.3672 43.2344 48.8134C43.0579 46.7479 43.9663 43.2865 42.4023 40.6438Z"
    fill="#2F2E41" />
  <path
    d="M36.4059 50.0014C36.4138 50.3105 36.4114 50.6366 36.2578 50.9049C35.9533 51.437 35.2098 51.5166 34.7626 51.936C34.2924 52.377 34.2391 53.0927 34.2167 53.737C34.1933 54.4106 34.1734 55.1063 34.4192 55.7339C34.5698 56.0797 34.7601 56.4067 34.9864 56.7083C35.2594 57.1019 35.535 57.4937 35.813 57.8837C35.9616 58.1034 36.1271 58.3111 36.308 58.5049C36.806 59.0121 37.4891 59.2929 38.1712 59.4933C38.6118 59.6227 39.0877 59.7236 39.5249 59.5829C39.8142 59.47 40.0808 59.3061 40.3121 59.0989C40.6373 58.8406 40.9675 58.5771 41.2032 58.2352C41.5703 57.7026 41.672 57.0359 41.7481 56.3935C41.973 54.4939 42.0606 52.5806 42.01 50.6684C42.0192 50.46 41.9819 50.2522 41.9007 50.0601C41.6743 49.6179 41.0678 49.5236 40.7482 49.1432C40.475 48.818 40.4639 48.354 40.4662 47.9293L40.4721 46.848C40.4816 46.7569 40.4633 46.6651 40.4196 46.5846C40.3799 46.5413 40.3322 46.5062 40.2789 46.4813C40.2257 46.4565 40.1681 46.4424 40.1094 46.4399C39.4374 46.3284 38.7561 46.2828 38.0753 46.3038C37.5233 46.3207 36.4641 46.2745 35.9868 46.5819C35.5535 46.861 36.096 47.6318 36.1964 48.0647C36.3313 48.7016 36.4015 49.3504 36.4059 50.0014Z"
    fill="#A0616A" />
  <path
    d="M37.673 48.1446C40.0866 48.1446 42.0432 46.188 42.0432 43.7744C42.0432 41.3608 40.0866 39.4041 37.673 39.4041C35.2594 39.4041 33.3027 41.3608 33.3027 43.7744C33.3027 46.188 35.2594 48.1446 37.673 48.1446Z"
    fill="#A0616A" />
  <path
    d="M35.8733 54.5993C35.5954 54.1861 35.3666 53.7418 35.1918 53.2756C35.0355 52.8032 34.9945 52.2754 35.1799 51.8137C34.7077 51.5397 34.0665 51.7616 33.7226 52.1857C33.3786 52.6097 33.2734 53.1782 33.2431 53.7233C33.2128 54.2685 33.2449 54.8217 33.1263 55.3546C32.8638 56.5337 31.8898 57.5031 31.8174 58.7089C31.7461 59.8951 32.5596 60.9285 32.9598 62.0475C33.2023 62.7449 33.3037 63.4836 33.258 64.2206C33.245 64.4586 33.2301 64.7297 33.398 64.8988C33.4853 64.9751 33.5887 65.0308 33.7005 65.0618C35.6315 65.7412 37.7173 65.7999 39.7637 65.8518L43.1437 65.9374C43.3482 65.9618 43.5553 65.9271 43.7406 65.8374C44.0439 65.6515 44.0844 65.2347 44.0896 64.8791C44.134 61.8158 44.0037 58.7531 43.8734 55.6923C43.8262 54.5829 43.7782 53.4671 43.5429 52.3819C43.483 52.1056 43.3848 51.7983 43.1297 51.6763C42.9138 51.5731 42.6576 51.6399 42.4331 51.7228C41.3855 52.1124 40.48 52.8095 39.8353 53.7226C39.1418 54.7096 38.8006 55.8937 38.1219 56.8882C37.6293 57.61 37.3445 56.981 37.0163 56.4495C36.6355 55.8326 36.2545 55.2159 35.8733 54.5993Z"
    fill="white" />
  <path
    d="M35.3501 51.8892C35.2641 51.9501 35.1793 52.0146 35.0981 52.0826C34.7939 52.3337 34.5213 52.6208 34.2863 52.9375C33.8972 53.468 33.5875 54.0524 33.3669 54.6723C32.9705 55.7588 32.7986 56.9121 32.6338 58.0559C32.5619 58.4773 32.5232 58.9036 32.518 59.331C32.5431 60.9023 33.472 62.3577 33.4732 63.9301C33.4732 63.9898 33.472 64.0483 33.4684 64.108C33.4573 64.3654 33.427 64.6216 33.3777 64.8745C33.3096 65.2434 33.2117 65.6076 33.115 65.9706C32.8714 66.8803 32.6088 67.8235 32.1336 68.6223C32.0858 68.7035 32.0345 68.7835 31.982 68.8611H28.6389C28.6652 68.7811 28.6926 68.7023 28.7189 68.6223C29.2884 66.9353 29.8575 65.2486 30.4263 63.5624C30.6006 63.0466 30.7749 62.5284 30.8979 61.9983C31.0385 61.3437 31.1347 60.6804 31.1856 60.0128C31.3169 58.629 31.4033 57.2424 31.4447 55.8531C31.4602 55.354 31.471 54.8442 31.6321 54.3714C31.7832 53.9861 31.9831 53.6218 32.2267 53.2873C32.5718 52.7679 32.9168 52.2486 33.2619 51.7292C33.4541 51.4403 33.6559 51.143 33.952 50.9627C34.1991 50.8111 34.4928 50.7562 34.7531 50.6284C34.9169 50.5355 35.0741 50.4313 35.2235 50.3168C35.6127 50.041 36.07 49.7509 36.4055 50.0326C36.4599 50.0778 36.5067 50.1314 36.544 50.1914C36.5631 50.2209 36.5803 50.2516 36.5954 50.2834C36.9177 50.9806 35.7835 51.5824 35.3501 51.8892Z"
    fill="#2F2E41" />
  <path
    d="M46.3632 68.8611H30.8801C30.9637 68.7847 31.0461 68.7047 31.1261 68.6223C31.138 68.6104 31.1488 68.5985 31.1607 68.5865C31.7529 67.9716 31.8878 67.2159 32.1851 66.4159C32.4084 65.813 32.6316 65.2105 32.8549 64.6083C32.8902 64.4911 32.9482 64.382 33.0256 64.2871C33.0903 64.2203 33.1714 64.1718 33.2608 64.1463C33.3284 64.1255 33.3981 64.1127 33.4686 64.108C33.5692 64.1015 33.6701 64.1015 33.7707 64.108C36.549 64.2513 39.3253 64.426 42.0996 64.6322C42.4578 64.6597 42.816 64.6871 43.1741 64.7146C43.4667 64.9319 43.7556 65.1623 44.0314 65.4059C44.928 66.1939 45.7053 67.1216 46.1506 68.2176C46.2044 68.3501 46.2533 68.485 46.2939 68.6223C46.3202 68.7011 46.3429 68.7811 46.3632 68.8611Z"
    fill="#2F2E41" />
  <path
    d="M41.6839 40.3791L38.5068 38.7148L34.1194 39.3956L33.2117 43.4049L35.4713 43.318L36.1026 41.845V43.2936L37.1452 43.2535L37.7503 40.9086L38.1286 43.4049L41.8352 43.3292L41.6839 40.3791Z"
    fill="#2F2E41" />
  <path
    d="M46.3631 68.8611H42.8673C42.8422 68.7823 42.8183 68.7023 42.7956 68.6223C42.5487 67.7342 42.3676 66.8291 42.2536 65.9144C42.2166 65.653 42.1843 65.3903 42.1545 65.1288C42.1354 64.9629 42.1175 64.7981 42.0996 64.6321C41.899 62.7887 41.745 60.9273 41.1814 59.1627C41.1134 58.949 41.0393 58.7365 40.9677 58.5239C40.8354 58.158 40.7316 57.7824 40.6573 57.4005C40.5045 56.5265 40.6191 55.6215 40.4615 54.7487C40.3731 54.2616 40.1976 53.833 40.0914 53.3864C40.0237 53.117 39.9971 52.8388 40.0126 52.5614C40.2698 52.3186 40.5936 52.1582 40.9426 52.1005C41.0632 52.0802 41.1993 52.0647 41.2722 51.968C41.3151 51.8944 41.3343 51.8094 41.3271 51.7244C41.3355 51.1613 41.3031 50.5983 41.2304 50.0398C41.2065 49.844 41.1766 49.6482 41.1408 49.4536C41.1396 49.444 41.1372 49.4357 41.1361 49.4261C41.4274 49.2996 41.7557 49.2984 42.0721 49.2996C42.4172 49.3007 42.761 49.3008 43.1049 49.3019C43.7412 49.3043 44.3776 49.3063 45.014 49.3079C45.6062 49.3091 46.2187 49.3151 46.7571 49.5598C47.3135 49.8141 47.7362 50.3049 48.0155 50.8493C48.2949 51.3937 48.4466 51.9931 48.5839 52.5889C48.6219 52.7537 48.642 52.9223 48.6436 53.0915C48.6698 54.4359 47.6669 55.7898 47.5666 57.164C47.5344 57.6094 47.5714 58.0583 47.5308 58.5037C47.4902 58.9502 47.3708 59.3872 47.3493 59.8337C47.3481 59.8564 47.3469 59.8803 47.3469 59.9029C47.3338 60.4844 47.5033 61.0539 47.6991 61.6019C48.0024 62.4532 48.3713 63.2782 48.7522 64.0985C49.1199 64.8924 49.4972 65.6828 49.8363 66.4875C50.0126 66.8611 50.1314 67.2592 50.1885 67.6683C50.2262 67.9972 50.1633 68.3298 50.0082 68.6223C49.9684 68.6946 49.9208 68.7623 49.8661 68.8241L49.8638 68.8265C49.853 68.8384 49.8423 68.8503 49.8315 68.8611H46.3631V68.8611Z"
    fill="#2F2E41" />
  <path
    d="M49.693 67.6361C49.6784 67.795 49.6351 67.9499 49.5653 68.0934C49.5593 68.1077 49.5533 68.1208 49.5474 68.1351C49.4781 68.2987 49.4077 68.4599 49.3348 68.6223C49.299 68.7011 49.2632 68.7811 49.2262 68.8611H47.249C47.3206 68.7862 47.3868 68.7064 47.4472 68.6223C47.7505 68.2008 47.926 67.6886 48.2352 67.2337C48.2772 67.1715 48.3256 67.1139 48.3797 67.0618C48.8752 66.5818 49.7241 66.6797 49.693 67.6361Z"
    fill="#FFB8B8" />
  <path
    d="M50.9802 68.861C51.0055 68.7826 51.0266 68.7029 51.0435 68.6222C51.0578 68.559 51.0697 68.4969 51.0793 68.4336C51.1426 68.0169 51.1414 67.5907 51.2405 67.1811C51.3801 66.5949 51.7992 65.9012 51.4542 65.4081C51.7226 65.3531 51.9757 65.2398 52.1956 65.0762C52.401 64.8971 52.5204 64.5867 52.3962 64.3431C52.2732 64.1032 51.9401 63.9444 51.9855 63.6781C52.0081 63.5937 52.0479 63.5148 52.1025 63.4465C52.2835 63.1609 52.3772 62.8286 52.3719 62.4905C52.3666 62.1523 52.2626 61.8231 52.0726 61.5433C51.964 61.3881 51.8303 61.252 51.7312 61.0897C51.6228 60.8911 51.5398 60.6797 51.484 60.4605C51.1393 59.3495 50.631 58.296 49.9761 57.3347C49.8309 57.1497 49.7183 56.9414 49.643 56.7186C49.5989 56.4772 49.5901 56.2307 49.6167 55.9867C49.6406 55.022 49.28 54.08 48.7606 53.2681C48.7224 53.2084 48.683 53.1499 48.6436 53.0914C48.1422 52.3524 47.5201 51.7041 46.9005 51.0605C46.645 51.1799 46.4193 51.2576 46.2868 51.5059C46.2218 51.6459 46.1818 51.7962 46.1686 51.95C45.9991 53.132 45.8522 54.3212 45.7376 55.5092C45.6803 56.1097 45.6218 56.7151 45.6898 57.3144C45.7579 57.9138 45.962 58.5143 46.368 58.9597C46.6223 59.239 46.9447 59.4468 47.2205 59.7047C47.2646 59.7465 47.3076 59.7895 47.3494 59.8336C47.5482 60.0454 47.7246 60.277 47.8759 60.5249C48.5376 61.5938 48.8443 62.8446 48.7523 64.0984C48.7356 64.3244 48.7057 64.5492 48.6627 64.7718C48.6103 65.0904 48.5028 65.3974 48.3451 65.6792C48.2198 65.8857 48.055 66.066 47.9416 66.2797C47.8282 66.4934 47.7744 66.7597 47.8867 66.9734C48.055 66.9732 48.222 67.0032 48.3798 67.0617C48.7515 67.2051 49.0746 67.4515 49.311 67.7721C49.3982 67.8875 49.4772 68.0087 49.5474 68.1351C49.636 68.2926 49.715 68.4552 49.7838 68.6222C49.8125 68.6879 49.84 68.756 49.8662 68.824C49.8722 68.8358 49.877 68.8482 49.8806 68.861H50.9802Z"
    fill="#2F2E41" />
  <path
    d="M41.2184 48.0889L38.6868 49.1931L38.0927 49.2518L35.3938 48.6651L35.5128 51.0667L38.1514 49.8459L38.7455 49.7872L41.5723 50.4672L41.2184 48.0889Z"
    fill="#E9BD43" />
  <path
    d="M46.2939 68.6224C46.3201 68.7012 46.3428 68.7812 46.3631 68.8612H47.249C47.3206 68.7863 47.3868 68.7065 47.4472 68.6224H46.2939ZM22.8938 16.2084V68.8612H55.9063V16.2084H22.8938ZM55.6675 68.6224H23.1326V16.4472H55.6675V68.6224ZM46.2939 68.6224C46.3201 68.7012 46.3428 68.7812 46.3631 68.8612H47.249C47.3206 68.7863 47.3868 68.7065 47.4472 68.6224H46.2939Z"
    fill="white" />
  <path
    d="M33.7409 39.2434L33.7614 39.1407C33.7674 39.1102 34.3517 36.0574 32.8462 33.1968L32.7373 32.9899L32.9687 33.023C33.0352 33.0325 34.5554 33.2763 35.6452 35.6762C35.7409 35.3105 35.8372 34.5413 35.5381 33.2453L35.4955 33.0608L35.6803 33.1019C35.7378 33.1146 37.0497 33.4238 37.5697 35.0171L39.6347 33.2698V36.1081C40.19 35.8257 41.8929 35.0657 42.9761 35.7425L43.1413 35.8458L42.9742 35.9462C42.9601 35.9547 41.6297 36.7617 41.3659 37.5784C41.6766 37.581 42.4178 37.5917 43.1516 37.6357C45.0364 37.7488 45.1943 37.9658 45.1943 38.1603V38.2284L45.1356 38.263C45.1022 38.2828 41.7927 40.2558 41.7194 41.7951L41.7118 41.9536L33.7409 39.2434ZM41.2141 37.8164H41.0731L41.0963 37.6773C41.2273 36.8912 42.2565 36.1331 42.6762 35.8533C41.4932 35.3307 39.5944 36.3994 39.5745 36.4107L39.3959 36.5127V33.7847L37.4418 35.4381L37.3924 35.2574C37.05 34.002 36.1964 33.5417 35.8155 33.3949C36.2085 35.2767 35.776 36.0275 35.7568 36.0597L35.6345 36.2635L35.544 36.0437C34.7544 34.1258 33.6653 33.5159 33.1825 33.3328C34.4242 35.8947 34.0997 38.5342 34.0132 39.0838L41.4973 41.6284C41.7367 40.1521 44.31 38.4902 44.8991 38.1272C44.5355 37.9339 42.7799 37.8164 41.2141 37.8164V37.8164Z"
    fill="#E9BD43" />
  <path
    d="M32.1375 31.8285C32.1375 31.7438 32.1626 31.661 32.2096 31.5905C32.2567 31.5201 32.3236 31.4652 32.4018 31.4328C32.4801 31.4004 32.5662 31.3919 32.6493 31.4084C32.7323 31.425 32.8086 31.4657 32.8685 31.5256C32.9284 31.5855 32.9692 31.6618 32.9857 31.7449C33.0023 31.828 32.9938 31.9141 32.9614 31.9924C32.929 32.0706 32.8741 32.1375 32.8036 32.1845C32.7332 32.2316 32.6504 32.2567 32.5657 32.2567C32.4522 32.2566 32.3433 32.2114 32.263 32.1312C32.1827 32.0509 32.1376 31.942 32.1375 31.8285V31.8285ZM32.3762 31.8285C32.3762 31.8659 32.3874 31.9026 32.4082 31.9337C32.429 31.9649 32.4586 31.9892 32.4932 32.0035C32.5278 32.0178 32.5659 32.0216 32.6027 32.0143C32.6394 32.007 32.6732 31.9889 32.6997 31.9624C32.7262 31.9359 32.7442 31.9022 32.7515 31.8654C32.7588 31.8287 32.7551 31.7906 32.7408 31.756C32.7264 31.7213 32.7021 31.6917 32.671 31.6709C32.6398 31.6501 32.6032 31.639 32.5657 31.639C32.5155 31.6391 32.4673 31.659 32.4318 31.6946C32.3963 31.7301 32.3763 31.7782 32.3762 31.8285V31.8285Z"
    fill="#E9BD43" />
  <path
    d="M35.2261 31.8285C35.2261 31.7438 35.2512 31.661 35.2983 31.5905C35.3453 31.5201 35.4122 31.4652 35.4904 31.4328C35.5687 31.4004 35.6548 31.3919 35.7379 31.4084C35.821 31.425 35.8973 31.4657 35.9572 31.5256C36.017 31.5855 36.0578 31.6618 36.0744 31.7449C36.0909 31.828 36.0824 31.9141 36.05 31.9924C36.0176 32.0706 35.9627 32.1375 35.8923 32.1845C35.8218 32.2316 35.739 32.2567 35.6543 32.2567C35.5408 32.2566 35.4319 32.2114 35.3516 32.1312C35.2714 32.0509 35.2262 31.942 35.2261 31.8285V31.8285ZM35.4649 31.8285C35.4649 31.8659 35.476 31.9026 35.4968 31.9337C35.5176 31.9649 35.5472 31.9892 35.5818 32.0035C35.6164 32.0178 35.6545 32.0216 35.6913 32.0143C35.728 32.007 35.7618 31.9889 35.7883 31.9624C35.8148 31.9359 35.8328 31.9022 35.8402 31.8654C35.8475 31.8287 35.8437 31.7906 35.8294 31.756C35.815 31.7213 35.7908 31.6917 35.7596 31.6709C35.7284 31.6501 35.6918 31.639 35.6543 31.639C35.6041 31.6391 35.5559 31.659 35.5204 31.6946C35.4849 31.7301 35.4649 31.7782 35.4649 31.8285V31.8285Z"
    fill="#E9BD43" />
  <path
    d="M39.7046 32.6007C39.7046 32.516 39.7297 32.4332 39.7768 32.3628C39.8238 32.2923 39.8907 32.2374 39.969 32.205C40.0472 32.1726 40.1333 32.1641 40.2164 32.1807C40.2995 32.1972 40.3758 32.238 40.4357 32.2979C40.4956 32.3578 40.5364 32.4341 40.5529 32.5171C40.5694 32.6002 40.5609 32.6863 40.5285 32.7646C40.4961 32.8428 40.4412 32.9097 40.3708 32.9568C40.3003 33.0038 40.2175 33.0289 40.1328 33.0289C40.0193 33.0288 39.9104 32.9837 39.8302 32.9034C39.7499 32.8231 39.7047 32.7142 39.7046 32.6007V32.6007ZM39.9434 32.6007C39.9434 32.6382 39.9545 32.6748 39.9753 32.7059C39.9961 32.7371 40.0257 32.7614 40.0603 32.7757C40.095 32.7901 40.1331 32.7938 40.1698 32.7865C40.2066 32.7792 40.2403 32.7612 40.2668 32.7347C40.2933 32.7082 40.3114 32.6744 40.3187 32.6376C40.326 32.6009 40.3222 32.5628 40.3079 32.5282C40.2936 32.4936 40.2693 32.464 40.2381 32.4431C40.207 32.4223 40.1703 32.4112 40.1328 32.4112C40.0826 32.4113 40.0345 32.4313 39.9989 32.4668C39.9634 32.5023 39.9434 32.5505 39.9434 32.6007V32.6007Z"
    fill="#E9BD43" />
  <path
    d="M45.7278 37.8513C45.7278 37.7666 45.7529 37.6838 45.8 37.6134C45.847 37.543 45.9139 37.4881 45.9922 37.4557C46.0704 37.4233 46.1565 37.4148 46.2396 37.4313C46.3227 37.4478 46.399 37.4886 46.4589 37.5485C46.5188 37.6084 46.5595 37.6847 46.5761 37.7678C46.5926 37.8508 46.5841 37.937 46.5517 38.0152C46.5193 38.0935 46.4644 38.1603 46.394 38.2074C46.3235 38.2545 46.2407 38.2796 46.156 38.2796C46.0425 38.2795 45.9336 38.2343 45.8533 38.154C45.7731 38.0737 45.7279 37.9649 45.7278 37.8513V37.8513ZM45.9666 37.8513C45.9666 37.8888 45.9777 37.9254 45.9985 37.9566C46.0193 37.9877 46.0489 38.012 46.0835 38.0264C46.1182 38.0407 46.1562 38.0445 46.193 38.0372C46.2298 38.0298 46.2635 38.0118 46.29 37.9853C46.3165 37.9588 46.3346 37.925 46.3419 37.8883C46.3492 37.8515 46.3454 37.8134 46.3311 37.7788C46.3167 37.7442 46.2925 37.7146 46.2613 37.6938C46.2301 37.673 46.1935 37.6619 46.156 37.6619C46.1058 37.6619 46.0576 37.6819 46.0221 37.7174C45.9866 37.7529 45.9666 37.8011 45.9666 37.8513V37.8513Z"
    fill="#E9BD43" />
  <path
    d="M43.5657 35.226C43.5657 35.1413 43.5908 35.0585 43.6378 34.988C43.6849 34.9176 43.7518 34.8627 43.83 34.8303C43.9083 34.7979 43.9944 34.7894 44.0775 34.8059C44.1606 34.8224 44.2369 34.8632 44.2968 34.9231C44.3567 34.983 44.3975 35.0593 44.414 35.1424C44.4305 35.2255 44.4221 35.3116 44.3896 35.3899C44.3572 35.4681 44.3023 35.535 44.2319 35.5821C44.1614 35.6291 44.0786 35.6542 43.9939 35.6542C43.8804 35.6541 43.7715 35.609 43.6912 35.5287C43.611 35.4484 43.5658 35.3395 43.5657 35.226V35.226ZM43.8045 35.226C43.8045 35.2635 43.8156 35.3001 43.8364 35.3313C43.8572 35.3624 43.8868 35.3867 43.9214 35.4011C43.9561 35.4154 43.9942 35.4192 44.0309 35.4119C44.0677 35.4046 44.1015 35.3865 44.128 35.36C44.1545 35.3335 44.1725 35.2997 44.1798 35.263C44.1871 35.2262 44.1834 35.1881 44.169 35.1535C44.1547 35.1189 44.1304 35.0893 44.0992 35.0684C44.0681 35.0476 44.0314 35.0365 43.9939 35.0365C43.9437 35.0366 43.8955 35.0566 43.86 35.0921C43.8245 35.1276 43.8045 35.1758 43.8045 35.226Z"
    fill="#E9BD43" />
  <path d="M109.962 77.0396H1.43262V77.2784H109.962V77.0396Z" fill="#3F3D56" />
</svg>