<svg width="110" height="83" viewBox="0 0 110 83" fill="none" xmlns="http://www.w3.org/2000/svg">
  <path opacity="0.1"
    d="M92.5851 16.2208C93.3059 23.092 98.9217 28.8513 104.225 32.7126C105.999 34.0057 107.915 35.3383 109.033 37.465C110.401 40.0601 110.16 43.1204 109.284 45.4432C107.688 49.6777 104.117 52.3737 99.986 52.4569C96.4217 52.5302 92.603 50.7857 89.0595 50.9847C83.1288 51.3134 79.2259 56.943 76.7052 62.9053C74.923 67.123 73.1953 72.0517 69.23 73.1032C66.44 73.8457 63.1311 72.3883 60.3371 70.1765C58.9876 69.1082 57.6569 67.831 56.1787 67.3646C55.3015 67.0874 54.4332 67.1211 53.6045 67.2409C46.0294 68.3389 41.0255 76.2496 33.3157 76.8071C28.1088 77.1873 22.4059 74.0437 17.7288 69.5794C13.0516 65.1152 9.23979 59.4034 5.62598 53.6757C3.0577 49.6055 0.437934 45.1451 0.0488304 40.5135C-0.367995 35.6126 1.92999 31.4978 5.1745 29.4572C8.41901 27.4167 12.5011 27.18 16.5337 27.6196C21.5772 28.1672 26.9633 29.6859 31.3217 27.7375C34.2919 26.4107 36.4295 23.6098 38.7404 21.1683C42.6017 17.0871 47.0957 13.901 51.6055 10.7971C55.9223 7.82686 60.3183 4.89224 65.2687 3.27246C68.7776 2.12298 72.5062 2.51109 76.1111 1.84377C78.4616 1.40913 80.416 0.0616195 82.8853 0.00320446C85.9268 -0.0740222 89.6802 1.23388 91.5871 5.09224C93.403 8.75655 92.202 12.5743 92.5851 16.2208Z"
    fill="#E9BD43" />
  <path
    d="M78.2229 1.34471L71.4606 0.934817L67.5478 0.655613V0.648682H67.4993H67.4448V0.656603L46.4045 2.33975H44.66L44.4551 9.60202L47.8421 10.7961L49.8946 21.2415L40.5551 39.7432L34.9116 44.0203V48.0985L38.2987 51.3816L38.5036 66.4032L39.5304 66.6012V66.4418L40.0462 66.5408V66.6002L60.0905 73.3407L60.933 73.912L62.6954 72.814L76.8932 64.6111L78.2229 1.34471ZM56.6737 48.0094L62.1647 43.356L56.6737 48.0094ZM37.6294 49.9401L39.1145 51.3826V51.4717L37.6294 49.9401Z"
    fill="url(#paint0_linear)" />
  <path
    d="M40.3294 51.6866L60.3291 56.736L57.3588 53.3697L55.6757 51.2906L38.1512 47.8253L37.3591 48.5183L40.3294 51.6866Z"
    fill="#535461" />
  <path d="M37.3592 48.5183L57.0619 53.0727L57.1609 48.3203L51.5174 46.1421L40.2304 44.261H36.9631L37.3592 48.5183Z"
    fill="#D6D6E3" />
  <path d="M51.6163 21.588L71.715 22.8751V19.1128L70.3289 10.6971L69.6358 10.103L49.5371 10.6971L51.6163 21.588Z"
    fill="#D6D6E3" />
  <path
    d="M46.8639 2.67737H45.8738L45.6758 9.90499L48.9431 11.0931L50.9233 21.489L41.9135 39.9046L36.468 44.1619V48.2213L39.7353 51.4886L39.9333 66.4388L40.9234 66.6369L40.7254 51.7856L37.4581 48.3203L37.3591 44.1619L42.6065 40.0036L51.8143 21.588L49.8342 11.0931L46.5669 9.70697L46.8639 2.67737Z"
    fill="#D6D6E3" />
  <path
    d="M46.0719 2.67737H45.0818L44.8838 9.90499L48.1511 11.0931L50.1313 21.489L41.1215 39.9046L35.676 44.1619V48.2213L38.9433 51.4886L39.1413 66.4388L40.1314 66.6369L39.9334 51.7856L36.6661 48.3203L36.5671 44.1619L42.0126 40.0036L51.0223 21.588L49.0422 11.0931L45.7749 9.70697L46.0719 2.67737Z"
    fill="#535461" />
  <path
    d="M46.0222 9.16242L46.5173 9.85548L49.2895 11.1426L71.2694 10.5485L69.1407 9.90499L66.8635 8.9149L67.1605 8.12283L46.0222 9.16242Z"
    fill="#A8A8A8" />
  <path d="M42.3096 40.3006L62.4083 43.5679L66.4676 34.9542L72.0121 22.5781L51.6164 21.588L42.3096 40.3006Z"
    fill="#E9BD43" />
  <g opacity="0.1">
    <path opacity="0.1" d="M52.7053 25.1523L66.2695 26.2414L59.2399 40.1026L46.0718 38.1224L52.7053 25.1523Z"
      fill="white" />
  </g>
  <g opacity="0.1">
    <path opacity="0.1" d="M53.641 26.1592L54.24 26.2077L53.9301 26.8186L53.3489 26.7315L53.641 26.1592Z"
      fill="white" />
  </g>
  <g opacity="0.1">
    <path opacity="0.1" d="M53.7401 31.9017L54.3391 31.9502L54.0292 32.5611L53.448 32.474L53.7401 31.9017Z"
      fill="white" />
  </g>
  <g opacity="0.1">
    <path opacity="0.1" d="M57.0074 26.8523L57.6064 26.9008L57.2965 27.5117L56.7153 27.4245L57.0074 26.8523Z"
      fill="white" />
  </g>
  <g opacity="0.1">
    <path opacity="0.1" d="M63.245 27.1493L63.844 27.1978L63.5341 27.8087L62.9529 27.7216L63.245 27.1493Z"
      fill="white" />
  </g>
  <g opacity="0.1">
    <path opacity="0.1" d="M54.8292 27.9414L55.4282 27.9899L55.1183 28.6008L54.5371 28.5136L54.8292 27.9414Z"
      fill="white" />
  </g>
  <g opacity="0.1">
    <path opacity="0.1" d="M57.0074 33.9809L57.6064 34.0294L57.2965 34.6403L56.7153 34.5532L57.0074 33.9809Z"
      fill="white" />
  </g>
  <g opacity="0.1">
    <path opacity="0.1" d="M51.661 30.5156L52.26 30.5641L51.9501 31.175L51.3689 31.0879L51.661 30.5156Z" fill="white" />
  </g>
  <g opacity="0.1">
    <path opacity="0.1" d="M60.7696 26.8523L61.3686 26.9008L61.0587 27.5117L60.4775 27.4245L60.7696 26.8523Z"
      fill="white" />
  </g>
  <g opacity="0.1">
    <path opacity="0.1" d="M56.0172 30.2186L56.6162 30.2671L56.3063 30.878L55.7251 30.7908L56.0172 30.2186Z"
      fill="white" />
  </g>
  <g opacity="0.1">
    <path opacity="0.1" d="M55.3241 26.4563L55.9231 26.5048L55.6132 27.1157L55.032 27.0285L55.3241 26.4563Z"
      fill="white" />
  </g>
  <g opacity="0.1">
    <path opacity="0.1" d="M58.3934 29.9215L58.9924 29.9701L58.6825 30.5809L58.1013 30.4938L58.3934 29.9215Z"
      fill="white" />
  </g>
  <g opacity="0.1">
    <path opacity="0.1" d="M59.0865 26.8523L59.6855 26.9008L59.3756 27.5117L58.7944 27.4245L59.0865 26.8523Z"
      fill="white" />
  </g>
  <g opacity="0.1">
    <path opacity="0.1" d="M52.849 28.2384L53.448 28.2869L53.1381 28.8978L52.5569 28.8107L52.849 28.2384Z"
      fill="white" />
  </g>
  <path d="M36.9631 44.261L56.5668 48.2213L61.9667 43.4966L42.3591 40.1521L36.9631 44.261Z" fill="#D6D6E3" />
  <path d="M40.6265 51.1915V66.6369L60.0321 73.3694L60.3292 57.3301L59.5371 55.838L55.9728 54.9539L40.6265 51.1915Z"
    fill="#535461" />
  <path
    d="M43.1511 42.0828C43.6159 42.0828 43.9927 41.8611 43.9927 41.5877C43.9927 41.3143 43.6159 41.0927 43.1511 41.0927C42.6864 41.0927 42.3096 41.3143 42.3096 41.5877C42.3096 41.8611 42.6864 42.0828 43.1511 42.0828Z"
    fill="#575988" />
  <path
    d="M43.844 43.1718C44.3088 43.1718 44.6856 42.9502 44.6856 42.6768C44.6856 42.4034 44.3088 42.1818 43.844 42.1818C43.3792 42.1818 43.0024 42.4034 43.0024 42.6768C43.0024 42.9502 43.3792 43.1718 43.844 43.1718Z"
    fill="#FA595F" />
  <path
    d="M41.468 42.8749C41.9328 42.8749 42.3096 42.6532 42.3096 42.3798C42.3096 42.1064 41.9328 41.8848 41.468 41.8848C41.0032 41.8848 40.6265 42.1064 40.6265 42.3798C40.6265 42.6532 41.0032 42.8749 41.468 42.8749Z"
    fill="#FFD037" />
  <path
    d="M52.1609 43.8649C52.6257 43.8649 53.0025 43.6433 53.0025 43.3699C53.0025 43.0965 52.6257 42.8748 52.1609 42.8748C51.6961 42.8748 51.3193 43.0965 51.3193 43.3699C51.3193 43.6433 51.6961 43.8649 52.1609 43.8649Z"
    fill="#575988" />
  <path
    d="M50.4778 44.756C50.9426 44.756 51.3194 44.5344 51.3194 44.261C51.3194 43.9876 50.9426 43.7659 50.4778 43.7659C50.013 43.7659 49.6362 43.9876 49.6362 44.261C49.6362 44.5344 50.013 44.756 50.4778 44.756Z"
    fill="#FFD037" />
  <path
    d="M47.3094 43.3699C47.9929 43.3699 48.547 43.1039 48.547 42.7758C48.547 42.4477 47.9929 42.1818 47.3094 42.1818C46.6259 42.1818 46.0718 42.4477 46.0718 42.7758C46.0718 43.1039 46.6259 43.3699 47.3094 43.3699Z"
    fill="#A8A8A8" />
  <path
    d="M53.052 44.954C53.5168 44.954 53.8936 44.7324 53.8936 44.459C53.8936 44.1856 53.5168 43.9639 53.052 43.9639C52.5872 43.9639 52.2104 44.1856 52.2104 44.459C52.2104 44.7324 52.5872 44.954 53.052 44.954Z"
    fill="#FA595F" />
  <path
    d="M47.656 42.6778H47.062L46.5511 40.7056C46.5296 40.6226 46.5274 40.5358 46.5447 40.4519C46.562 40.3679 46.5982 40.289 46.6507 40.2213C46.7032 40.1535 46.7705 40.0987 46.8474 40.0609C46.9244 40.0232 47.0089 40.0036 47.0946 40.0036V40.0036C47.2435 40.0036 47.3863 40.0627 47.4916 40.168C47.5969 40.2733 47.656 40.4161 47.656 40.565V42.6778Z"
    fill="#A8A8A8" />
  <path
    d="M56.2203 44.954C56.9038 44.954 57.4579 44.6881 57.4579 44.36C57.4579 44.0319 56.9038 43.7659 56.2203 43.7659C55.5368 43.7659 54.9827 44.0319 54.9827 44.36C54.9827 44.6881 55.5368 44.954 56.2203 44.954Z"
    fill="#A8A8A8" />
  <path
    d="M56.5669 44.2619H55.9729L55.462 42.2897C55.4405 42.2067 55.4383 42.1199 55.4556 42.036C55.4729 41.952 55.5091 41.8731 55.5616 41.8054C55.6141 41.7376 55.6814 41.6828 55.7583 41.645C55.8353 41.6073 55.9198 41.5877 56.0055 41.5877V41.5877C56.1544 41.5877 56.2972 41.6469 56.4025 41.7521C56.5078 41.8574 56.5669 42.0002 56.5669 42.1491V44.2619Z"
    fill="#A8A8A8" />
  <path d="M46.7648 2.67738L67.1606 0.994232L66.6655 8.41987L46.2698 9.40995L46.7648 2.67738Z" fill="#535461" />
  <path
    d="M67.0616 0.994232L76.4674 1.68729L75.1802 64.6567L60.7745 73.914L59.7844 73.2209L59.7349 56.736L56.5667 53.1717V48.2213L62.1111 43.3699L71.5169 22.4791L70.1803 10.5486H70.8734L66.4675 9.01392L67.0616 0.994232Z"
    fill="#D6D6E3" />
  <path
    d="M67.9528 1.09326L77.4576 1.68731L76.1705 64.6567L60.7252 73.8645V56.736L57.5569 53.1717V48.2213L63.1014 43.3699L72.5072 22.4791L70.824 10.4991L67.4577 9.01394L67.9528 1.09326Z"
    fill="#535461" />
  <path
    d="M51.2311 39.2412C49.845 42.1124 46.4332 41.3679 46.4332 41.3679C46.2569 41.2045 45.154 40.9313 44.3174 40.7422C43.7807 40.6204 43.354 40.5352 43.354 40.5352L44.5253 38.9026L45.4035 39.0828L46.7134 39.3521C46.7134 39.3521 52.6222 36.3709 51.2311 39.2412Z"
    fill="url(#paint1_linear)" />
  <g opacity="0.08">
    <path opacity="0.08"
      d="M51.2311 39.2412C49.845 42.1124 46.4332 41.3679 46.4332 41.3679C46.2569 41.2045 45.154 40.9313 44.3174 40.7422C43.7807 40.6204 43.354 40.5352 43.354 40.5352L44.5253 38.9026L45.4035 39.0828L46.7134 39.3521C46.7134 39.3521 52.6222 36.3709 51.2311 39.2412Z"
      fill="url(#paint2_linear)" />
  </g>
  <g opacity="0.1">
    <path opacity="0.1"
      d="M45.4047 39.0828L44.3156 40.7431C43.779 40.6214 43.3523 40.5362 43.3523 40.5362L44.5236 38.9036L45.4047 39.0828Z"
      fill="url(#paint3_linear)" />
  </g>
  <path
    d="M33.2284 33.1482C33.2284 33.1482 38.3343 41.1273 43.8016 41.1085L45.2867 38.8313C45.2867 38.8313 40.2828 35.2571 39.6175 33.3937C39.3719 32.7007 38.865 31.7512 38.3244 30.8195C36.664 27.9651 32.1859 29.8294 33.17 32.966C33.1892 33.0281 33.2086 33.0888 33.2284 33.1482Z"
    fill="url(#paint4_linear)" />
  <g opacity="0.05">
    <path opacity="0.05"
      d="M33.2284 33.1482C33.2284 33.1482 38.3343 41.1273 43.8016 41.1085L45.2867 38.8313C45.2867 38.8313 40.2828 35.2571 39.6175 33.3937C39.3719 32.7007 38.865 31.7512 38.3244 30.8195C36.664 27.9651 32.1859 29.8294 33.17 32.966C33.1892 33.0281 33.2086 33.0888 33.2284 33.1482Z"
      fill="url(#paint5_linear)" />
  </g>
  <path
    d="M29.9048 79.5267L30.1444 82.299C30.1444 82.299 37.9868 80.996 37.9185 78.3911C37.8502 75.7862 29.9048 79.5267 29.9048 79.5267Z"
    fill="url(#paint6_linear)" />
  <g opacity="0.1">
    <path opacity="0.1"
      d="M29.9048 79.5267L30.1444 82.299C30.1444 82.299 37.9868 80.996 37.9185 78.3911C37.8502 75.7862 29.9048 79.5267 29.9048 79.5267Z"
      fill="url(#paint7_linear)" />
  </g>
  <path
    d="M39.0829 80.3951L38.9463 82.8001C38.9463 82.8001 49.8372 81.9981 49.4254 79.7308C49.0135 77.4635 43.2611 78.7249 43.2611 78.7249L39.0829 80.3951Z"
    fill="url(#paint8_linear)" />
  <path
    d="M39.2193 56.8806C39.2193 56.8806 38.5757 58.6627 37.754 60.7043C36.9678 62.6587 36.0193 64.8557 35.3154 65.9656C33.8768 68.2369 33.6719 75.2516 33.6719 75.2516C33.3976 76.3872 34.7679 78.5922 34.7679 78.5922C32.0283 81.4634 29.4937 79.7951 29.4937 79.7951C29.9729 78.9268 29.1511 76.4546 29.1511 76.4546C29.1511 76.4546 30.2471 65.031 30.9333 64.4963C31.6194 63.9617 32.1659 61.2894 32.1659 61.2894L31.5531 52.2084L31.4125 50.1292L37.3025 47.5243L37.7272 49.5955L38.148 51.646L39.2193 56.8806Z"
    fill="url(#paint9_linear)" />
  <g opacity="0.1">
    <path opacity="0.1"
      d="M39.2193 56.8806C39.2193 56.8806 38.5757 58.6627 37.754 60.7043C36.9678 62.6587 36.0193 64.8557 35.3154 65.9656C33.8768 68.2369 33.6719 75.2516 33.6719 75.2516C33.3976 76.3872 34.7679 78.5922 34.7679 78.5922C32.0283 81.4634 29.4937 79.7951 29.4937 79.7951C29.9729 78.9268 29.1511 76.4546 29.1511 76.4546C29.1511 76.4546 30.2471 65.031 30.9333 64.4963C31.6194 63.9617 32.1659 61.2894 32.1659 61.2894L31.5531 52.2084L31.4125 50.1292L37.3025 47.5243L37.7272 49.5955L38.148 51.646L39.2193 56.8806Z"
      fill="url(#paint10_linear)" />
  </g>
  <path
    d="M44.3559 78.9932C43.1233 81.1308 38.8115 80.8634 38.8115 80.8634V74.5833C38.8115 74.5833 37.5788 67.5686 38.2639 65.9696C38.9491 64.3706 37.9897 61.4271 37.9897 61.4271L37.754 60.7053L34.961 52.0916L34.1511 49.5946H43.3975C43.3975 49.5946 43.3975 50.0223 43.3975 50.7173C43.4094 53.3906 43.4649 60.0152 43.7371 61.5528C44.0797 63.4904 43.1203 64.7597 43.1203 64.7597C43.1203 64.7597 43.6678 72.6428 43.1886 75.114C42.7094 77.5853 44.3559 78.9932 44.3559 78.9932Z"
    fill="url(#paint11_linear)" />
  <path
    d="M36.7543 20.2712C36.7543 20.2712 35.3157 24.1454 32.4395 25.5484C29.5633 26.9513 37.1652 27.3523 37.1652 27.3523C37.1652 27.3523 38.3978 24.4127 41.2057 22.3415L36.7543 20.2712Z"
    fill="url(#paint12_linear)" />
  <g opacity="0.1">
    <path opacity="0.1"
      d="M43.4006 50.7213C42.254 50.9421 40.2254 51.3203 38.1472 51.649C37.0581 51.8213 35.9571 51.9797 34.9611 52.0945C33.4284 52.2718 32.1463 52.346 31.5522 52.2074L31.4116 50.1282L37.3016 47.5233L37.7264 49.5946H43.3976C43.3976 49.5946 43.3976 50.0262 43.4006 50.7213Z"
      fill="url(#paint13_linear)" />
  </g>
  <path
    d="M44.356 50.3332C44.356 50.3332 32.7809 52.6718 31.3433 51.9371C29.9057 51.2025 29.5612 49.3322 29.973 47.2609C30.3849 45.1897 29.973 40.0462 29.2196 33.4988C28.8404 30.2018 29.676 27.9889 30.6007 26.6048C31.0066 26.0082 31.5531 25.5206 32.192 25.1851C32.8308 24.8496 33.5425 24.6765 34.2641 24.6811C35.516 24.676 36.7328 25.0947 37.7165 25.8692C38.0056 26.0998 38.2977 26.289 38.5363 26.3533C38.7244 26.4038 39.0076 26.6038 39.3283 26.8761C40.7568 28.1063 41.6534 29.8417 41.8303 31.7186C41.9491 32.9631 42.0748 34.5304 42.1362 36.1146C42.1993 37.4674 42.1854 38.8227 42.0946 40.1739C42.031 41.1632 42.0782 42.1565 42.2352 43.1353C42.7689 46.7451 44.356 50.3332 44.356 50.3332Z"
    fill="url(#paint14_linear)" />
  <g opacity="0.1">
    <path opacity="0.1"
      d="M42.2362 43.1401C38.0353 40.5837 35.863 33.4314 35.863 33.4314C35.863 33.369 35.863 33.3076 35.8561 33.2472C35.762 29.9671 40.5917 29.3354 41.4115 32.5185C41.6778 33.5551 41.9065 34.6066 41.954 35.3333C41.9799 35.6007 42.0415 35.8635 42.1372 36.1145C42.2002 37.4673 42.1864 38.8226 42.0956 40.1739C42.0316 41.1648 42.0788 42.1597 42.2362 43.1401V43.1401Z"
      fill="url(#paint15_linear)" />
  </g>
  <g opacity="0.1">
    <path opacity="0.1"
      d="M36.0344 22.5761C36.7176 23.7058 37.2582 24.8434 38.6453 25.0365C39.3263 24.1723 40.1179 23.4014 40.9997 22.7434L36.5443 20.6722C36.5443 20.6722 36.8057 21.3791 36.0344 22.5761Z"
      fill="url(#paint16_linear)" />
  </g>
  <path
    d="M39.4936 24.6791C41.9904 24.6791 44.0144 22.7052 44.0144 20.2702C44.0144 17.8353 41.9904 15.8614 39.4936 15.8614C36.9969 15.8614 34.9729 17.8353 34.9729 20.2702C34.9729 22.7052 36.9969 24.6791 39.4936 24.6791Z"
    fill="url(#paint17_linear)" />
  <g opacity="0.1">
    <path opacity="0.1"
      d="M43.962 21.6533C44.1491 21.6613 44.3342 21.6123 44.4927 21.5127C44.7096 21.3553 44.7789 21.0731 44.8284 20.8137C44.9462 20.2008 45.0383 19.5553 44.8284 18.9652C44.6927 18.5751 44.4323 18.2375 44.2502 17.8672C43.8442 17.0583 43.7719 16.0851 43.1927 15.3831C42.8314 14.9435 41.5611 15.3831 41.0304 15.1613C39.8898 14.6821 39.3948 13.7098 38.1522 13.7108C37.6969 13.6997 37.2424 13.7565 36.8037 13.8792C36.2483 14.0504 35.7572 14.3742 35.3008 14.7296C34.5087 15.3455 33.7325 16.191 33.8028 17.1791C33.8483 17.8098 34.2335 18.3672 34.4602 18.9553C34.8404 19.9454 34.7711 21.0583 34.4968 22.084C34.38 22.5206 34.2463 23.0424 34.5562 23.376C34.7542 23.585 35.0681 23.6444 35.3483 23.5988C35.6278 23.5369 35.8953 23.4299 36.1404 23.282C36.5859 23.0454 37.0374 22.8048 37.3978 22.4572C37.6364 22.2275 37.8285 21.9563 38.0552 21.7157C38.4991 21.2556 39.0018 20.8561 39.5502 20.5276C39.9888 20.2642 40.4413 20.4286 40.9017 20.5998C41.9136 20.9711 42.8492 21.6731 43.962 21.6533Z"
      fill="url(#paint18_linear)" />
  </g>
  <path
    d="M43.8937 21.586C44.0807 21.594 44.2658 21.545 44.4244 21.4454C44.6412 21.288 44.7105 21.0058 44.76 20.7464C44.8778 20.1336 44.9699 19.488 44.76 18.8979C44.6244 18.5078 44.364 18.1702 44.1818 17.7999C43.7759 16.991 43.7036 16.0178 43.1244 15.3158C42.763 14.8762 41.561 15.3831 41.0304 15.1604C39.8898 14.6812 39.3264 13.6426 38.0839 13.6435C37.6285 13.6324 37.174 13.6892 36.7354 13.8119C36.1799 13.9831 35.6888 14.3069 35.2324 14.6623C34.4403 15.2782 33.6641 16.1237 33.7344 17.1118C33.78 17.7425 34.1651 18.2999 34.3918 18.888C34.772 19.8781 34.7027 20.991 34.4285 22.0167C34.3116 22.4533 34.178 22.9751 34.4879 23.3088C34.6859 23.5177 34.9997 23.5771 35.2799 23.5315C35.5594 23.4696 35.8269 23.3626 36.072 23.2147C36.5175 22.9781 36.969 22.7375 37.3294 22.39C37.568 22.1603 37.7601 21.889 37.9868 21.6484C38.4307 21.1883 38.9334 20.7888 39.4819 20.4603C39.9205 20.1969 40.3729 20.3613 40.8333 20.5326C41.8452 20.9038 42.7808 21.6058 43.8937 21.586Z"
    fill="url(#paint19_linear)" />
  <g opacity="0.05">
    <path opacity="0.05"
      d="M42.2361 43.1401C42.0791 42.1614 42.0319 41.1681 42.0956 40.1788C42.1863 38.8276 42.2002 37.4723 42.1371 36.1195C42.0758 34.5353 41.951 32.968 41.8312 31.7235C41.6535 29.8447 40.7546 28.1079 39.3233 26.878C39.0055 26.6057 38.7223 26.4047 38.5312 26.3552C38.2926 26.2919 38.0006 26.1018 37.7115 25.8711C36.7392 25.0959 37.9748 26.6057 38.2926 26.878C39.724 28.1079 40.6229 29.8447 40.8005 31.7235C40.9193 32.968 41.0451 34.5353 41.1065 36.1195C41.1695 37.4723 41.1556 38.8276 41.0649 40.1788C41.0013 41.1681 41.0484 42.1614 41.2055 43.1401C41.7381 46.747 43.3252 50.3331 43.3252 50.3331C43.3252 50.3331 35.5768 51.8984 31.9709 52.0648C34.7966 52.2628 44.352 50.3331 44.352 50.3331C44.352 50.3331 42.7688 46.745 42.2361 43.1401Z"
      fill="url(#paint20_linear)" />
  </g>
  <path
    d="M51.6847 43.7867C49.5609 46.1916 46.4798 44.5887 46.4798 44.5887C46.3541 44.3847 45.366 43.8352 44.6125 43.4352C44.1283 43.1788 43.7402 42.9847 43.7402 42.9847L45.3155 41.7155L46.1125 42.1174L47.3006 42.7174C47.3006 42.7174 53.8104 41.3818 51.6847 43.7867Z"
    fill="url(#paint21_linear)" />
  <g opacity="0.1">
    <path opacity="0.1"
      d="M46.1125 42.1174L44.6125 43.4352C44.1283 43.1788 43.7402 42.9847 43.7402 42.9847L45.3155 41.7155L46.1125 42.1174Z"
      fill="url(#paint22_linear)" />
  </g>
  <path
    d="M36.0007 33.2314C36.0007 33.2314 38.7403 42.2501 44.0145 43.653L46.0689 41.8491C46.0689 41.8491 42.2264 37.1026 42.0917 35.1333C42.0432 34.4056 41.8155 33.3512 41.5492 32.3185C40.7294 29.1364 35.8997 29.7671 35.9938 33.0472C35.9958 33.108 35.9981 33.1693 36.0007 33.2314Z"
    fill="url(#paint23_linear)" />
  <path opacity="0.05"
    d="M30.6929 42.0165C30.6929 42.0165 32.475 40.6135 34.1176 41.6828C35.7601 42.7521 38.1581 42.6184 38.5007 42.6848"
    fill="url(#paint24_linear)" />
  <path
    d="M50.7183 39.0946C49.3966 41.8946 46.1521 41.1738 46.1521 41.1738C45.9838 41.0144 44.9343 40.7481 44.1392 40.5639C43.6283 40.4451 43.2224 40.3659 43.2224 40.3659L44.3372 38.7729L45.1729 38.9491L46.4194 39.2115C46.4194 39.2115 52.0401 36.2937 50.7183 39.0946Z"
    fill="#F7C4A7" />
  <path opacity="0.08"
    d="M50.7183 39.0946C49.3966 41.8946 46.1521 41.1738 46.1521 41.1738C45.9838 41.0144 44.9343 40.7481 44.1392 40.5639C43.6283 40.4451 43.2224 40.3659 43.2224 40.3659L44.3372 38.7729L45.1729 38.9491L46.4194 39.2115C46.4194 39.2115 52.0401 36.2937 50.7183 39.0946Z"
    fill="black" />
  <path opacity="0.1"
    d="M45.1729 38.9392L44.1392 40.559C43.6283 40.4402 43.2224 40.361 43.2224 40.361L44.3372 38.7679L45.1729 38.9392Z"
    fill="black" />
  <path
    d="M33.5858 33.1492C33.5858 33.1492 38.4451 40.9352 43.647 40.9154L45.0618 38.6976C45.0618 38.6976 40.3005 35.2105 39.6669 33.3917C39.4332 32.7205 38.951 31.7898 38.4372 30.8829C36.853 28.0987 32.5957 29.9175 33.5313 32.9779C33.5491 33.034 33.5673 33.0911 33.5858 33.1492Z"
    fill="#575988" />
  <path opacity="0.05"
    d="M33.5858 33.1492C33.5858 33.1492 38.4451 40.9352 43.647 40.9154L45.0618 38.6976C45.0618 38.6976 40.3005 35.2105 39.6669 33.3917C39.4332 32.7205 38.951 31.7898 38.4372 30.8829C36.853 28.0987 32.5957 29.9175 33.5313 32.9779C33.5491 33.034 33.5673 33.0911 33.5858 33.1492Z"
    fill="black" />
  <path
    d="M30.4226 78.401L30.6503 81.1059C30.6503 81.1059 38.1136 79.8347 38.0482 77.2931C37.9829 74.7516 30.4226 78.401 30.4226 78.401Z"
    fill="#535461" />
  <path opacity="0.1"
    d="M30.4226 78.401L30.6503 81.1059C30.6503 81.1059 38.1136 79.8347 38.0482 77.2931C37.9829 74.7516 30.4226 78.401 30.4226 78.401Z"
    fill="black" />
  <path
    d="M39.1571 79.2485L39.0264 81.596C39.0264 81.596 49.3906 80.8138 48.9995 78.598C48.6084 76.3822 43.1332 77.6198 43.1332 77.6198L39.1571 79.2485Z"
    fill="#535461" />
  <path
    d="M39.2868 56.3043C39.2868 56.3043 38.674 58.0409 37.8918 60.035C37.1433 61.9419 36.2404 64.0854 35.5711 65.1686C34.2067 67.3854 34.0087 74.2288 34.0087 74.2288C33.7483 75.3367 35.0513 77.4882 35.0513 77.4882C32.4444 80.2911 30.0325 78.6614 30.0325 78.6614C30.489 77.8139 29.7068 75.4021 29.7068 75.4021C29.7068 75.4021 30.7493 64.2557 31.4018 63.7349C32.0543 63.2141 32.5741 60.6062 32.5741 60.6062L31.9909 51.746L31.8573 49.7212L37.4631 47.1787L37.87 49.1995L38.2661 51.2004L39.2868 56.3043Z"
    fill="#6A5C99" />
  <path opacity="0.1"
    d="M39.2868 56.3043C39.2868 56.3043 38.674 58.0409 37.8918 60.035C37.1433 61.9419 36.2404 64.0854 35.5711 65.1686C34.2067 67.3854 34.0087 74.2288 34.0087 74.2288C33.7483 75.3367 35.0513 77.4882 35.0513 77.4882C32.4444 80.2911 30.0325 78.6614 30.0325 78.6614C30.489 77.8139 29.7068 75.4021 29.7068 75.4021C29.7068 75.4021 30.7493 64.2557 31.4018 63.7349C32.0543 63.2141 32.5741 60.6062 32.5741 60.6062L31.9909 51.746L31.8573 49.7212L37.4631 47.1787L37.87 49.1995L38.2661 51.2004L39.2868 56.3043Z"
    fill="black" />
  <path
    d="M44.1759 77.8793C43.0026 79.9654 38.8957 79.704 38.8957 79.704V73.5764C38.8957 73.5764 37.7225 66.7319 38.374 65.1676C39.0254 63.6033 38.1136 60.735 38.1136 60.735L37.8918 60.034L35.2334 51.6341L34.4631 49.1985H43.263C43.263 49.1985 43.263 49.6153 43.263 50.2945C43.2739 52.9014 43.3274 59.3667 43.5868 60.8667C43.9125 62.7567 42.9996 63.9953 42.9996 63.9953C42.9996 63.9953 43.5214 71.6863 43.065 74.0942C42.6086 76.5021 44.1759 77.8793 44.1759 77.8793Z"
    fill="#6A5C99" />
  <path
    d="M36.9403 20.5851C36.9403 20.5851 35.571 24.3652 32.8335 25.7335C30.0959 27.1018 37.3314 27.4939 37.3314 27.4939C37.3314 27.4939 38.5047 24.6226 41.1769 22.6048L36.9403 20.5851Z"
    fill="#F7C4A7" />
  <path opacity="0.1"
    d="M43.266 50.2955C42.1749 50.5074 40.2462 50.8797 38.266 51.2005C37.2304 51.3688 36.1819 51.5232 35.2334 51.6351C33.775 51.8074 32.5542 51.8806 31.9889 51.745L31.8552 49.7203L37.4611 47.1777L37.87 49.1995H43.2669C43.2669 49.1995 43.263 49.6163 43.266 50.2955Z"
    fill="black" />
  <path
    d="M44.1759 49.9134C44.1759 49.9134 33.1602 52.1906 31.7919 51.4777C30.4236 50.7648 30.0969 48.9352 30.4879 46.9154C30.879 44.8956 30.4879 39.8759 29.7711 33.4879C29.4097 30.2711 30.2058 28.1127 31.085 26.7612C31.4636 26.1826 31.9807 25.7076 32.5892 25.3791C33.1977 25.0506 33.8785 24.8791 34.5701 24.8801C35.7657 24.8759 36.9262 25.2847 37.8552 26.0375C38.1304 26.2622 38.4086 26.4474 38.6354 26.5097C38.8146 26.5583 39.0839 26.7543 39.3858 27.0196C40.7551 28.2336 41.609 29.9247 41.7729 31.7473C41.8868 32.9611 42.0056 34.4908 42.064 36.0373C42.1243 37.3571 42.1114 38.6793 42.0254 39.9977C41.9648 40.9627 42.0097 41.9314 42.1591 42.8867C42.665 46.4174 44.1759 49.9134 44.1759 49.9134Z"
    fill="#575988" />
  <path opacity="0.1"
    d="M42.1579 42.8985C38.16 40.4045 36.0927 33.4254 36.0927 33.4254C36.0927 33.365 36.0927 33.3046 36.0858 33.2462C35.9966 30.0463 40.5926 29.4294 41.3728 32.5353C41.6263 33.5472 41.8431 34.5719 41.8886 35.2818C41.9132 35.5425 41.9718 35.7988 42.0629 36.0442C42.1232 37.364 42.1103 38.6861 42.0243 40.0045C41.9634 40.9712 42.0082 41.9416 42.1579 42.8985Z"
    fill="black" />
  <path opacity="0.1"
    d="M36.2563 22.8335C36.9058 23.9355 37.4207 25.0463 38.7415 25.2335C39.3871 24.3927 40.1404 23.6404 40.982 22.9959L36.7454 20.9751C36.7454 20.9751 36.99 21.6662 36.2563 22.8335Z"
    fill="black" />
  <path
    d="M39.5483 24.887C41.9241 24.887 43.8502 22.9609 43.8502 20.5851C43.8502 18.2092 41.9241 16.2831 39.5483 16.2831C37.1724 16.2831 35.2463 18.2092 35.2463 20.5851C35.2463 22.9609 37.1724 24.887 39.5483 24.887Z"
    fill="#F7C4A7" />
  <path opacity="0.1"
    d="M43.8005 21.9335C43.9791 21.9407 44.1555 21.8923 44.3054 21.7949C44.5113 21.6414 44.5777 21.3652 44.6242 21.1127C44.7361 20.5187 44.8222 19.885 44.6242 19.3088C44.4955 18.9276 44.2509 18.5989 44.0737 18.2375C43.6866 17.4454 43.6183 16.4989 43.0678 15.8138C42.7232 15.3851 41.5153 15.8138 41.0094 15.597C39.9203 15.1296 39.453 14.1811 38.2708 14.1821C37.8359 14.171 37.4019 14.2264 36.9837 14.3465C36.455 14.5128 35.9877 14.8316 35.554 15.1762C34.7976 15.7772 34.061 16.6019 34.1283 17.5662C34.1719 18.1821 34.5382 18.7207 34.754 19.2989C35.1164 20.2672 35.0511 21.3513 34.7887 22.3513C34.6778 22.7771 34.5501 23.286 34.8451 23.6127C35.0293 23.8157 35.3323 23.8751 35.6025 23.8295C35.8704 23.7693 36.1264 23.6649 36.36 23.5206C36.7837 23.2899 37.2134 23.0553 37.556 22.7167C37.7827 22.4919 37.9659 22.2276 38.1817 21.9929C38.6026 21.5452 39.081 21.1554 39.6045 20.8335C40.0223 20.5771 40.451 20.7345 40.8916 20.9038C41.851 21.2682 42.7411 21.9533 43.8005 21.9335Z"
    fill="black" />
  <path
    d="M43.7353 21.8682C43.9137 21.876 44.0901 21.8282 44.2402 21.7316C44.4461 21.5781 44.5125 21.3019 44.559 21.0494C44.6709 20.4554 44.757 19.8217 44.559 19.2455C44.4303 18.8643 44.1858 18.5356 44.0085 18.1742C43.6214 17.3821 43.5531 16.4356 43.0026 15.7505C42.6581 15.3218 41.5175 15.8168 41.0096 15.599C39.9205 15.1317 39.3878 14.1139 38.2056 14.1139C37.7707 14.1027 37.3367 14.1581 36.9185 14.2782C36.3898 14.4445 35.9225 14.7634 35.4889 15.1079C34.7324 15.7089 33.9958 16.5336 34.0631 17.498C34.1067 18.1138 34.473 18.6524 34.6889 19.2306C35.0512 20.1989 34.9859 21.2831 34.7235 22.283C34.6126 22.7088 34.4849 23.2177 34.7799 23.5444C34.9641 23.7474 35.2671 23.8068 35.5374 23.7612C35.8052 23.701 36.0612 23.5966 36.2948 23.4523C36.7185 23.2216 37.1482 22.987 37.4908 22.6484C37.7175 22.4236 37.9007 22.1593 38.1165 21.9246C38.5419 21.4774 39.0251 21.0888 39.5531 20.7692C39.971 20.5128 40.3997 20.6702 40.8403 20.8395C41.7858 21.2009 42.6759 21.888 43.7353 21.8682Z"
    fill="#632652" />
  <path opacity="0.05"
    d="M42.158 42.8986C42.0101 41.9441 41.9666 40.9764 42.0283 40.0125C42.1143 38.6941 42.1272 37.372 42.0669 36.0522C42.0085 34.5056 41.8896 32.977 41.7758 31.7621C41.6119 29.9395 40.758 28.2484 39.3887 27.0345C39.0867 26.7681 38.8174 26.5731 38.6382 26.5246C38.4115 26.4622 38.1333 26.277 37.858 26.0523C36.9323 25.2959 38.1085 26.7691 38.4115 27.0345C39.7808 28.2484 40.6347 29.9395 40.7986 31.7621C40.9124 32.976 41.0312 34.5056 41.0897 36.0522C41.15 37.372 41.1371 38.6941 41.051 40.0125C40.9905 40.9775 41.0353 41.9463 41.1847 42.9016C41.6916 46.4203 43.2025 49.9193 43.2025 49.9193C43.2025 49.9193 35.8283 51.446 32.3977 51.6094C35.0868 51.8074 44.1797 49.9193 44.1797 49.9193C44.1797 49.9193 42.6649 46.4174 42.158 42.8986Z"
    fill="black" />
  <path
    d="M51.1499 43.5293C49.1292 45.8758 46.1995 44.3115 46.1995 44.3115C46.0807 44.1135 45.1401 43.5758 44.4173 43.1867C43.9569 42.9362 43.5876 42.7471 43.5876 42.7471L45.0866 41.5085L45.845 41.9046L46.9787 42.4877C46.9787 42.4877 53.1707 41.1828 51.1499 43.5293Z"
    fill="#F7C4A7" />
  <path opacity="0.1"
    d="M45.847 41.9006L44.4193 43.1877C43.9589 42.9372 43.5896 42.7481 43.5896 42.7481L45.0886 41.5095L45.847 41.9006Z"
    fill="black" />
  <path
    d="M36.2236 33.2304C36.2236 33.2304 38.8305 42.0303 43.8473 43.3986L45.8027 41.6382C45.8027 41.6382 42.1394 37.0076 42.0176 35.0858C41.971 34.3759 41.7552 33.3502 41.5008 32.3393C40.7206 29.2344 36.1246 29.8502 36.2147 33.0502C36.218 33.1096 36.221 33.1697 36.2236 33.2304Z"
    fill="#575988" />
  <path opacity="0.05"
    d="M31.1721 41.8016C31.1721 41.8016 32.8671 40.4323 34.4315 41.4759C35.9958 42.5194 38.277 42.3887 38.6027 42.4541"
    fill="black" />
  <defs>
    <linearGradient id="paint0_linear" x1="56.5668" y1="73.915" x2="56.5668" y2="0.648682"
      gradientUnits="userSpaceOnUse">
      <stop stop-color="#808080" stop-opacity="0.25" />
      <stop offset="0.54" stop-color="#808080" stop-opacity="0.12" />
      <stop offset="1" stop-color="#808080" stop-opacity="0.1" />
    </linearGradient>
    <linearGradient id="paint1_linear" x1="4275.92" y1="1597.45" x2="4275.92" y2="1476.45"
      gradientUnits="userSpaceOnUse">
      <stop stop-color="#808080" stop-opacity="0.25" />
      <stop offset="0.54" stop-color="#808080" stop-opacity="0.12" />
      <stop offset="1" stop-color="#808080" stop-opacity="0.1" />
    </linearGradient>
    <linearGradient id="paint2_linear" x1="4275.92" y1="1597.45" x2="4275.92" y2="1476.45"
      gradientUnits="userSpaceOnUse">
      <stop stop-color="#808080" stop-opacity="0.25" />
      <stop offset="0.54" stop-color="#808080" stop-opacity="0.12" />
      <stop offset="1" stop-color="#808080" stop-opacity="0.1" />
    </linearGradient>
    <linearGradient id="paint3_linear" x1="1054.7" y1="854.518" x2="1054.7" y2="820.339" gradientUnits="userSpaceOnUse">
      <stop stop-color="#808080" stop-opacity="0.25" />
      <stop offset="0.54" stop-color="#808080" stop-opacity="0.12" />
      <stop offset="1" stop-color="#808080" stop-opacity="0.1" />
    </linearGradient>
    <linearGradient id="paint4_linear" x1="5426.22" y1="5259.97" x2="5426.22" y2="3878.21"
      gradientUnits="userSpaceOnUse">
      <stop stop-color="#808080" stop-opacity="0.25" />
      <stop offset="0.54" stop-color="#808080" stop-opacity="0.12" />
      <stop offset="1" stop-color="#808080" stop-opacity="0.1" />
    </linearGradient>
    <linearGradient id="paint5_linear" x1="5426.22" y1="5259.97" x2="5426.22" y2="3878.21"
      gradientUnits="userSpaceOnUse">
      <stop stop-color="#808080" stop-opacity="0.25" />
      <stop offset="0.54" stop-color="#808080" stop-opacity="0.12" />
      <stop offset="1" stop-color="#808080" stop-opacity="0.1" />
    </linearGradient>
    <linearGradient id="paint6_linear" x1="3131.56" y1="4246.41" x2="3131.56" y2="4010.75"
      gradientUnits="userSpaceOnUse">
      <stop stop-color="#808080" stop-opacity="0.25" />
      <stop offset="0.54" stop-color="#808080" stop-opacity="0.12" />
      <stop offset="1" stop-color="#808080" stop-opacity="0.1" />
    </linearGradient>
    <linearGradient id="paint7_linear" x1="3131.56" y1="4246.41" x2="3131.56" y2="4010.75"
      gradientUnits="userSpaceOnUse">
      <stop stop-color="#808080" stop-opacity="0.25" />
      <stop offset="0.54" stop-color="#808080" stop-opacity="0.12" />
      <stop offset="1" stop-color="#808080" stop-opacity="0.1" />
    </linearGradient>
    <linearGradient id="paint8_linear" x1="5188.08" y1="3920.08" x2="5188.08" y2="3722.15"
      gradientUnits="userSpaceOnUse">
      <stop stop-color="#808080" stop-opacity="0.25" />
      <stop offset="0.54" stop-color="#808080" stop-opacity="0.12" />
      <stop offset="1" stop-color="#808080" stop-opacity="0.1" />
    </linearGradient>
    <linearGradient id="paint9_linear" x1="3953.62" y1="27647.6" x2="3953.62" y2="16813.7"
      gradientUnits="userSpaceOnUse">
      <stop stop-color="#808080" stop-opacity="0.25" />
      <stop offset="0.54" stop-color="#808080" stop-opacity="0.12" />
      <stop offset="1" stop-color="#808080" stop-opacity="0.1" />
    </linearGradient>
    <linearGradient id="paint10_linear" x1="3953.62" y1="27647.6" x2="3953.62" y2="16813.7"
      gradientUnits="userSpaceOnUse">
      <stop stop-color="#808080" stop-opacity="0.25" />
      <stop offset="0.54" stop-color="#808080" stop-opacity="0.12" />
      <stop offset="1" stop-color="#808080" stop-opacity="0.1" />
    </linearGradient>
    <linearGradient id="paint11_linear" x1="4534.27" y1="26596.9" x2="4534.27" y2="16716"
      gradientUnits="userSpaceOnUse">
      <stop stop-color="#808080" stop-opacity="0.25" />
      <stop offset="0.54" stop-color="#808080" stop-opacity="0.12" />
      <stop offset="1" stop-color="#808080" stop-opacity="0.1" />
    </linearGradient>
    <linearGradient id="paint12_linear" x1="3921.98" y1="2202.17" x2="3921.98" y2="1695.73"
      gradientUnits="userSpaceOnUse">
      <stop stop-color="#808080" stop-opacity="0.25" />
      <stop offset="0.54" stop-color="#808080" stop-opacity="0.12" />
      <stop offset="1" stop-color="#808080" stop-opacity="0.1" />
    </linearGradient>
    <linearGradient id="paint13_linear" x1="5094.46" y1="2710.5" x2="5094.46" y2="2482.2"
      gradientUnits="userSpaceOnUse">
      <stop stop-color="#808080" stop-opacity="0.25" />
      <stop offset="0.54" stop-color="#808080" stop-opacity="0.12" />
      <stop offset="1" stop-color="#808080" stop-opacity="0.1" />
    </linearGradient>
    <linearGradient id="paint14_linear" x1="6358.72" y1="15310" x2="6358.72" y2="7727.62"
      gradientUnits="userSpaceOnUse">
      <stop stop-color="#808080" stop-opacity="0.25" />
      <stop offset="0.54" stop-color="#808080" stop-opacity="0.12" />
      <stop offset="1" stop-color="#808080" stop-opacity="0.1" />
    </linearGradient>
    <linearGradient id="paint15_linear" x1="2836.55" y1="5972.42" x2="2836.55" y2="4341.51"
      gradientUnits="userSpaceOnUse">
      <stop stop-color="#808080" stop-opacity="0.25" />
      <stop offset="0.54" stop-color="#808080" stop-opacity="0.12" />
      <stop offset="1" stop-color="#808080" stop-opacity="0.1" />
    </linearGradient>
    <linearGradient id="paint16_linear" x1="2188.68" y1="1263.32" x2="2188.68" y2="1070.98"
      gradientUnits="userSpaceOnUse">
      <stop stop-color="#808080" stop-opacity="0.25" />
      <stop offset="0.54" stop-color="#808080" stop-opacity="0.12" />
      <stop offset="1" stop-color="#808080" stop-opacity="0.1" />
    </linearGradient>
    <linearGradient id="paint17_linear" x1="3641.7" y1="2214.2" x2="3641.7" y2="1428.81" gradientUnits="userSpaceOnUse">
      <stop stop-color="#808080" stop-opacity="0.25" />
      <stop offset="0.54" stop-color="#808080" stop-opacity="0.12" />
      <stop offset="1" stop-color="#808080" stop-opacity="0.1" />
    </linearGradient>
    <linearGradient id="paint18_linear" x1="4967.1" y1="2691.19" x2="4967.1" y2="1700.71"
      gradientUnits="userSpaceOnUse">
      <stop stop-color="#808080" stop-opacity="0.25" />
      <stop offset="0.54" stop-color="#808080" stop-opacity="0.12" />
      <stop offset="1" stop-color="#808080" stop-opacity="0.1" />
    </linearGradient>
    <linearGradient id="paint19_linear" x1="4959.22" y1="2684.48" x2="4959.22" y2="1694.01"
      gradientUnits="userSpaceOnUse">
      <stop stop-color="#808080" stop-opacity="0.25" />
      <stop offset="0.54" stop-color="#808080" stop-opacity="0.12" />
      <stop offset="1" stop-color="#808080" stop-opacity="0.1" />
    </linearGradient>
    <linearGradient id="paint20_linear" x1="5355.68" y1="14768.8" x2="5355.68" y2="7713.55"
      gradientUnits="userSpaceOnUse">
      <stop stop-color="#808080" stop-opacity="0.25" />
      <stop offset="0.54" stop-color="#808080" stop-opacity="0.12" />
      <stop offset="1" stop-color="#808080" stop-opacity="0.1" />
    </linearGradient>
    <linearGradient id="paint21_linear" x1="4468.33" y1="1697.53" x2="4468.33" y2="1581.03"
      gradientUnits="userSpaceOnUse">
      <stop stop-color="#808080" stop-opacity="0.25" />
      <stop offset="0.54" stop-color="#808080" stop-opacity="0.12" />
      <stop offset="1" stop-color="#808080" stop-opacity="0.1" />
    </linearGradient>
    <linearGradient id="paint22_linear" x1="1225.76" y1="850.991" x2="1225.76" y2="821.118"
      gradientUnits="userSpaceOnUse">
      <stop stop-color="#808080" stop-opacity="0.25" />
      <stop offset="0.54" stop-color="#808080" stop-opacity="0.12" />
      <stop offset="1" stop-color="#808080" stop-opacity="0.1" />
    </linearGradient>
    <linearGradient id="paint23_linear" x1="4660.28" y1="6374.87" x2="4660.28" y2="4555.91"
      gradientUnits="userSpaceOnUse">
      <stop stop-color="#808080" stop-opacity="0.25" />
      <stop offset="0.54" stop-color="#808080" stop-opacity="0.12" />
      <stop offset="1" stop-color="#808080" stop-opacity="0.1" />
    </linearGradient>
    <linearGradient id="paint24_linear" x1="3106.5" y1="691.229" x2="3106.5" y2="671.337"
      gradientUnits="userSpaceOnUse">
      <stop stop-color="#808080" stop-opacity="0.25" />
      <stop offset="0.54" stop-color="#808080" stop-opacity="0.12" />
      <stop offset="1" stop-color="#808080" stop-opacity="0.1" />
    </linearGradient>
  </defs>
</svg>