<svg width="110" height="80" viewBox="0 0 110 80" fill="none" xmlns="http://www.w3.org/2000/svg">
  <path
    d="M99.885 34.2258C101.396 35.9305 103.082 36.2025 104.942 35.0419C104.162 33.6959 103.976 32.2319 104.184 30.6896H100.559C100.72 32.0449 100.677 33.3068 99.885 34.2258Z"
    fill="#FFB8B8" />
  <path d="M105.587 77.4713L107.782 76.4452L108.736 65.585V59.8556L103.678 59.7701L105.11 65.4995L105.587 77.4713Z"
    fill="#FFB8B8" />
  <path d="M99.7179 77.4713L98.0718 76.4452L97.3562 65.585V59.8556L101.149 59.7701L100.076 65.4995L99.7179 77.4713Z"
    fill="#FFB8B8" />
  <path
    d="M96.7055 61.0344L101.613 60.6034L102.401 56.2069L103.365 60.5172L108.711 60.1724C108.828 58.0777 108.531 55.9219 107.835 53.7069L96.092 53.4482L96.7055 61.0344Z"
    fill="#2F2E41" />
  <path
    d="M92.1618 44.4195L86.1062 39.8769C86.0433 39.8297 85.9742 39.7911 85.9007 39.7619L85.0205 39.4131C84.3136 39.1329 82.9671 38.2009 83.6238 37.2413C84.1533 36.4676 86.18 37.8536 86.4293 38.3671C86.5081 38.5287 86.6373 38.6618 86.7985 38.7476L88.0291 39.4045C88.0591 39.4205 88.0899 39.4348 88.1215 39.4472L92.8069 41.2973C92.9367 41.3485 93.0773 41.3689 93.2169 41.3566C93.3564 41.3443 93.491 41.2998 93.6093 41.2267L94.4588 40.702C94.5796 40.6274 94.7174 40.5825 94.86 40.5714C95.0027 40.5602 95.146 40.5831 95.2775 40.6381C95.409 40.693 95.5248 40.7783 95.6149 40.8867C95.705 40.995 95.7666 41.1231 95.7944 41.2599L96.0751 42.6402C96.1155 42.8389 96.0825 43.0452 95.9818 43.2224C95.881 43.3997 95.7192 43.5365 95.5249 43.6087L93.0129 44.5414C92.8721 44.5937 92.72 44.6099 92.571 44.5886C92.422 44.5672 92.2811 44.509 92.1618 44.4195V44.4195Z"
    fill="#FFB8B8" />
  <path
    d="M92.2988 40.3521C93.9003 39.9118 93.7322 42.2055 94.954 43.3333L97.3563 41.389L95.9648 34.4827C95.5915 34.5921 95.2481 34.7889 94.9618 35.0577C94.6754 35.3265 94.454 35.6599 94.3149 36.0316L92.2988 40.3521Z"
    fill="#E9BD43" />
  <path
    d="M96.092 53.4483H108.736C106.689 47.8697 106.889 42.1322 108.631 36.2855C108.66 36.1884 108.655 36.0841 108.616 35.9904C108.578 35.8968 108.508 35.8197 108.419 35.7726L104.79 33.8534C103.366 34.7912 101.835 34.503 100.217 33.2184L96.2714 34.307C97.3455 40.8331 97.376 47.2251 96.092 53.4483Z"
    fill="#E9BD43" />
  <path
    d="M101.782 31.954C103.527 31.954 104.942 30.8219 104.942 29.4253C104.942 28.0287 103.527 26.8965 101.782 26.8965C100.036 26.8965 98.6206 28.0287 98.6206 29.4253C98.6206 30.8219 100.036 31.954 101.782 31.954Z"
    fill="#FFB8B8" />
  <path
    d="M105.882 52.2809L105.066 54.1062C104.994 54.2673 104.953 54.4441 104.944 54.625C104.936 54.8059 104.961 54.9868 105.017 55.1557C105.074 55.3247 105.161 55.478 105.273 55.6054C105.385 55.7329 105.519 55.8316 105.666 55.8952V55.8952C105.822 55.9626 105.989 55.9888 106.155 55.9721C106.321 55.9553 106.482 55.896 106.625 55.7985C106.768 55.701 106.891 55.5678 106.984 55.4086C107.076 55.2494 107.137 55.0683 107.161 54.8786L107.502 52.1921L108.736 45.4433L108.659 42.0689H106.19C107.032 44.5787 106.614 48.2806 105.882 52.2809Z"
    fill="#FFB8B8" />
  <path
    d="M106.207 42.069H110L109.449 38.1973C109.375 37.6722 109.16 37.1729 108.825 36.7449C108.489 36.3169 108.044 35.9739 107.53 35.7472L106.207 42.069Z"
    fill="#E9BD43" />
  <path
    d="M104.909 27.7527C104.972 27.3278 104.946 26.8943 104.831 26.4803C104.717 26.0664 104.517 25.6814 104.245 25.3504C103.707 24.7082 102.804 24.1826 101.306 24.4305C98.0374 24.9716 97.0949 27.7129 97.4151 28.4022C97.7353 29.0916 98.7168 30.6897 98.7168 30.6897C98.7168 30.6897 97.9965 29.1078 98.7783 28.7858C99.5601 28.4638 102.586 27.1952 103.642 27.7667C103.941 27.9179 104.194 28.1463 104.377 28.4284C104.56 28.7106 104.665 29.0366 104.683 29.3732L104.909 27.7527Z"
    fill="#2F2E41" />
  <path
    d="M55.6321 15.2692L54.5088 15.851C53.2149 13.2507 51.5008 10.8917 49.4385 8.87316C39.3106 -1.06425 23.1496 -0.739357 13.413 9.5974C3.6764 19.9342 3.99473 36.4284 14.1226 46.3658C16.0502 48.2609 18.2586 49.834 20.6663 51.0271L20.1168 52.1839C16.3004 50.2927 12.9798 47.5017 10.4293 44.0417C7.87869 40.5817 6.17141 36.5519 5.44846 32.2853C4.72552 28.0187 5.00767 23.6378 6.2716 19.5045C7.53554 15.3712 9.74497 11.6041 12.7173 8.51463C15.6897 5.42512 19.3397 3.10182 23.3658 1.73668C27.3919 0.371542 31.6784 0.00374741 35.8713 0.663688C40.0642 1.32363 44.043 2.99236 47.4791 5.53201C50.9151 8.07166 53.7098 11.4093 55.6321 15.2692V15.2692Z"
    fill="#E6E6E6" />
  <path
    d="M16.5178 39.969C14.7991 41.7768 13.8609 44.2009 13.9098 46.7081C13.9586 49.2152 14.9904 51.6001 16.7782 53.338C18.5659 55.0759 20.9632 56.0245 23.4427 55.9752C25.9221 55.9258 28.2806 54.8824 29.9993 53.0747L31.6091 51.3815L18.1275 38.2758L16.5178 39.969Z"
    fill="#E6E6E6" />
  <path
    d="M18.2786 37.6152C17.8983 37.9921 17.6908 38.4971 17.7016 39.0192C17.7124 39.5414 17.9407 40.0381 18.3363 40.4005L30.6294 51.6341C31.0256 51.9962 31.5569 52.1938 32.1064 52.1835C32.6559 52.1732 33.1786 51.9559 33.5595 51.5793C33.9405 51.2026 34.1484 50.6976 34.1375 50.1753C34.1267 49.6529 33.8981 49.1561 33.5018 48.794L21.2088 37.5604C20.8123 37.1989 20.2811 37.0016 19.7318 37.0119C19.1824 37.0222 18.6598 37.2392 18.2786 37.6152Z"
    fill="#535461" />
  <path
    d="M55.2057 28.161L56.8155 26.4678C58.5342 24.66 59.4723 22.2359 59.4235 19.7287C59.3746 17.2216 58.3428 14.8367 56.5551 13.0988C55.6698 12.2383 54.6257 11.5625 53.4822 11.11C52.3387 10.6575 51.1182 10.4372 49.8905 10.4616C47.4111 10.511 45.0526 11.5544 43.3339 13.3621L41.7241 15.0553L55.2057 28.161Z"
    fill="#E6E6E6" />
  <path
    d="M39.7728 13.6425C39.3924 14.0509 39.1849 14.5979 39.1957 15.1636C39.2065 15.7293 39.4348 16.2675 39.8305 16.6601L52.1243 28.8306C52.5207 29.2224 53.0519 29.4362 53.6012 29.4248C54.1504 29.4135 54.6729 29.178 55.0537 28.7702C55.4344 28.3623 55.6423 27.8155 55.6317 27.2498C55.6211 26.6842 55.3928 26.146 54.997 25.7536L42.7031 13.5831C42.3066 13.1914 41.7754 12.9777 41.226 12.9889C40.6767 13 40.154 13.2351 39.7728 13.6425V13.6425Z"
    fill="#535461" />
  <path d="M45.5173 40.8047V40.2C45.5173 40.2 49.7028 38.7157 53.1035 40.2V40.7497L45.5173 40.8047Z" fill="#535461" />
  <path d="M82.1838 40.8047V40.2C82.1838 40.2 86.3693 38.7157 89.77 40.2V40.7497L82.1838 40.8047Z" fill="#535461" />
  <path
    d="M57.5673 41.8997H53.5581C53.5581 41.8997 52.5344 40.725 49.1223 40.8089C45.7102 40.8928 45.0278 41.8997 45.0278 41.8997C45.0278 41.8997 41.6584 44.1232 40.8906 46.8921C40.8906 46.8921 36.7535 59.1005 36.6682 68.6658C36.5829 78.2312 40.3362 79.5737 42.2981 79.8254C44.2601 80.0771 47.7575 79.7415 51.1696 71.2669L52.6197 66.3165C52.6197 66.3165 52.8756 63.3797 55.9465 65.2257C59.0174 67.0716 61.7471 64.2188 61.7471 64.2188H73.2629C73.2629 64.2188 77.1015 66.5682 80.5989 64.7222C80.5989 64.7222 81.9637 62.9602 83.2433 68.9176C83.2433 68.9176 87.1672 81.1679 93.2236 79.9093C99.2801 78.6507 98.5977 68.4141 98.5977 68.4141C98.5977 68.4141 97.7873 52.7656 94.4605 47.2278C94.4605 47.2278 91.2617 41.4802 89.1291 41.2284C89.1291 41.2284 84.5228 40.3894 82.7315 41.1445L81.7078 41.9836L57.5673 41.8997Z"
    fill="#E6E6E6" />
  <path
    d="M48.0459 57.2414C52.2357 57.2414 55.6321 53.8449 55.6321 49.6551C55.6321 45.4654 52.2357 42.0689 48.0459 42.0689C43.8562 42.0689 40.4597 45.4654 40.4597 49.6551C40.4597 53.8449 43.8562 57.2414 48.0459 57.2414Z"
    fill="#535461" />
  <path
    d="M87.2415 57.2414C91.4312 57.2414 94.8277 53.8449 94.8277 49.6551C94.8277 45.4654 91.4312 42.0689 87.2415 42.0689C83.0517 42.0689 79.6553 45.4654 79.6553 49.6551C79.6553 53.8449 83.0517 57.2414 87.2415 57.2414Z"
    fill="#535461" />
  <path
    d="M49.1719 47.4964L48.3094 48.2874C48.2364 48.354 48.1424 48.3908 48.0451 48.3908C47.9478 48.3908 47.8538 48.354 47.7808 48.2874L46.9168 47.4964C46.8746 47.4578 46.8407 47.4104 46.8173 47.3572C46.794 47.3041 46.7818 47.2464 46.7815 47.188V45.0117C46.7817 44.9018 46.8239 44.7965 46.8989 44.7189C46.9739 44.6413 47.0755 44.5977 47.1815 44.5977H48.9102C49.0161 44.5975 49.1177 44.6409 49.1928 44.7184C49.2678 44.7959 49.31 44.9011 49.3102 45.0109V47.1865C49.3098 47.2454 49.2972 47.3035 49.2733 47.3569C49.2495 47.4104 49.2149 47.4579 49.1719 47.4964Z"
    fill="#E6E6E6" />
  <path
    d="M49.1719 50.5492L48.3094 49.7586C48.2364 49.6919 48.1424 49.6552 48.0451 49.6552C47.9478 49.6552 47.8538 49.6919 47.7808 49.7586L46.9168 50.5499C46.8746 50.5886 46.8407 50.636 46.8173 50.6892C46.794 50.7423 46.7818 50.8 46.7815 50.8584V53.0333C46.7813 53.1432 46.8232 53.2486 46.8979 53.3264C46.9727 53.4042 47.0741 53.448 47.18 53.4483H48.9102C49.0161 53.4485 49.1177 53.405 49.1928 53.3275C49.2678 53.25 49.31 53.1447 49.3102 53.0349V50.8592C49.3098 50.8003 49.2972 50.7422 49.2733 50.6887C49.2495 50.6352 49.2149 50.5877 49.1719 50.5492V50.5492Z"
    fill="#E6E6E6" />
  <path
    d="M45.8867 50.7827L46.6781 49.9188C46.7448 49.8457 46.7816 49.7517 46.7816 49.6544C46.7816 49.5571 46.7448 49.4631 46.6781 49.3901L45.8867 48.5261C45.848 48.4839 45.8005 48.45 45.7474 48.4267C45.6942 48.4034 45.6365 48.3912 45.5781 48.3908H43.4028C43.2928 48.391 43.1875 48.4332 43.1098 48.5082C43.0321 48.5832 42.9885 48.6849 42.9885 48.7908V50.5195C42.9883 50.6254 43.0318 50.7271 43.1093 50.8021C43.1869 50.8771 43.2921 50.9193 43.402 50.9195H45.5789C45.6373 50.9189 45.6949 50.9064 45.748 50.8829C45.801 50.8593 45.8483 50.8252 45.8867 50.7827V50.7827Z"
    fill="#E6E6E6" />
  <path
    d="M50.2037 50.7835L49.414 49.9188C49.3472 49.8458 49.3103 49.7518 49.3103 49.6544C49.3103 49.5571 49.3472 49.4631 49.414 49.3901L50.2053 48.5261C50.2439 48.4839 50.2913 48.45 50.3445 48.4267C50.3977 48.4033 50.4553 48.3911 50.5138 48.3908H52.6885C52.7983 48.3906 52.9038 48.4325 52.9816 48.5072C53.0594 48.582 53.1032 48.6834 53.1034 48.7893V50.5195C53.1036 50.6254 53.0602 50.7271 52.9827 50.8021C52.9051 50.8771 52.7999 50.9193 52.69 50.9195H50.5145C50.4557 50.9195 50.3975 50.9073 50.3439 50.8838C50.2903 50.8603 50.2425 50.8261 50.2037 50.7835V50.7835Z"
    fill="#E6E6E6" />
  <path
    d="M58.161 63.5632C60.9542 63.5632 63.2185 61.0159 63.2185 57.8736C63.2185 54.7312 60.9542 52.1839 58.161 52.1839C55.3678 52.1839 53.1035 54.7312 53.1035 57.8736C53.1035 61.0159 55.3678 63.5632 58.161 63.5632Z"
    fill="#535461" />
  <path
    d="M77.1263 63.5632C79.9195 63.5632 82.1838 61.0159 82.1838 57.8736C82.1838 54.7312 79.9195 52.1839 77.1263 52.1839C74.3332 52.1839 72.0688 54.7312 72.0688 57.8736C72.0688 61.0159 74.3332 63.5632 77.1263 63.5632Z"
    fill="#535461" />
  <path
    d="M58.161 62.2988C60.2559 62.2988 61.9541 60.3175 61.9541 57.8735C61.9541 55.4295 60.2559 53.4482 58.161 53.4482C56.0661 53.4482 54.3679 55.4295 54.3679 57.8735C54.3679 60.3175 56.0661 62.2988 58.161 62.2988Z"
    fill="#E6E6E6" />
  <path
    d="M58.1608 59.7701C57.6607 59.7701 57.1718 59.6218 56.7559 59.344C56.3401 59.0661 56.016 58.6712 55.8246 58.2091C55.6332 57.7471 55.5831 57.2386 55.6807 56.7481C55.7782 56.2576 56.0191 55.807 56.3727 55.4533C56.7264 55.0997 57.177 54.8588 57.6675 54.7613C58.158 54.6637 58.6665 54.7138 59.1285 54.9052C59.5906 55.0966 59.9855 55.4207 60.2634 55.8365C60.5412 56.2524 60.6896 56.7413 60.6896 57.2414C60.6888 57.9118 60.4221 58.5546 59.9481 59.0287C59.474 59.5027 58.8313 59.7694 58.1608 59.7701V59.7701ZM58.1608 54.8871C57.6952 54.8871 57.24 55.0252 56.8528 55.2839C56.4657 55.5426 56.1639 55.9102 55.9857 56.3404C55.8075 56.7706 55.7609 57.244 55.8517 57.7007C55.9426 58.1574 56.1668 58.5769 56.496 58.9062C56.8253 59.2354 57.2448 59.4597 57.7015 59.5505C58.1582 59.6414 58.6316 59.5947 59.0618 59.4165C59.492 59.2383 59.8597 58.9366 60.1184 58.5494C60.3771 58.1623 60.5152 57.7071 60.5152 57.2414C60.5145 56.6172 60.2662 56.0188 59.8248 55.5774C59.3834 55.1361 58.785 54.8878 58.1608 54.8871V54.8871Z"
    fill="#535461" />
  <path
    d="M77.1264 62.2988C79.2212 62.2988 80.9195 60.3175 80.9195 57.8735C80.9195 55.4295 79.2212 53.4482 77.1264 53.4482C75.0315 53.4482 73.3333 55.4295 73.3333 57.8735C73.3333 60.3175 75.0315 62.2988 77.1264 62.2988Z"
    fill="#E6E6E6" />
  <path
    d="M77.1264 59.7701C76.6263 59.7701 76.1374 59.6218 75.7215 59.344C75.3057 59.0661 74.9815 58.6712 74.7901 58.2091C74.5988 57.7471 74.5487 57.2386 74.6462 56.7481C74.7438 56.2576 74.9847 55.807 75.3383 55.4533C75.692 55.0997 76.1425 54.8588 76.6331 54.7613C77.1236 54.6637 77.632 54.7138 78.0941 54.9052C78.5562 55.0966 78.9511 55.4207 79.229 55.8365C79.5068 56.2524 79.6551 56.7413 79.6551 57.2414C79.6544 57.9118 79.3877 58.5546 78.9136 59.0287C78.4396 59.5027 77.7968 59.7694 77.1264 59.7701ZM77.1264 54.8871C76.6607 54.8871 76.2056 55.0252 75.8184 55.2839C75.4312 55.5426 75.1295 55.9102 74.9513 56.3404C74.7731 56.7706 74.7264 57.244 74.8173 57.7007C74.9081 58.1574 75.1324 58.5769 75.4616 58.9062C75.7909 59.2354 76.2104 59.4597 76.6671 59.5505C77.1238 59.6414 77.5972 59.5947 78.0274 59.4165C78.4576 59.2383 78.8253 58.9366 79.084 58.5494C79.3427 58.1623 79.4807 57.7071 79.4807 57.2414C79.48 56.6172 79.2317 56.0188 78.7904 55.5774C78.349 55.1361 77.7506 54.8878 77.1264 54.8871V54.8871Z"
    fill="#535461" />
  <path
    d="M68.2758 59.7701C68.9741 59.7701 69.5402 58.921 69.5402 57.8736C69.5402 56.8261 68.9741 55.977 68.2758 55.977C67.5776 55.977 67.0115 56.8261 67.0115 57.8736C67.0115 58.921 67.5776 59.7701 68.2758 59.7701Z"
    fill="#535461" />
  <path
    d="M65.747 53.4483C66.4453 53.4483 67.0114 53.1652 67.0114 52.8161C67.0114 52.4669 66.4453 52.1839 65.747 52.1839C65.0487 52.1839 64.4827 52.4669 64.4827 52.8161C64.4827 53.1652 65.0487 53.4483 65.747 53.4483Z"
    fill="#535461" />
  <path
    d="M68.9081 54.7126C69.2572 54.7126 69.5402 54.4296 69.5402 54.0804C69.5402 53.7313 69.2572 53.4482 68.9081 53.4482C68.5589 53.4482 68.2759 53.7313 68.2759 54.0804C68.2759 54.4296 68.5589 54.7126 68.9081 54.7126Z"
    fill="#535461" />
  <path
    d="M68.9081 53.4483C69.2572 53.4483 69.5402 53.1652 69.5402 52.8161C69.5402 52.4669 69.2572 52.1839 68.9081 52.1839C68.5589 52.1839 68.2759 52.4669 68.2759 52.8161C68.2759 53.1652 68.5589 53.4483 68.9081 53.4483Z"
    fill="#535461" />
  <path
    d="M70.1725 53.4483C70.5216 53.4483 70.8047 53.1652 70.8047 52.8161C70.8047 52.4669 70.5216 52.1839 70.1725 52.1839C69.8233 52.1839 69.5403 52.4669 69.5403 52.8161C69.5403 53.1652 69.8233 53.4483 70.1725 53.4483Z"
    fill="#535461" />
  <path
    d="M55.2987 42.0689C55.052 42.0691 54.8154 42.1223 54.6409 42.2169C54.4664 42.3116 54.3682 42.4399 54.3679 42.5737V44.0929C54.3682 44.2268 54.4664 44.3551 54.6409 44.4497C54.8154 44.5443 55.052 44.5975 55.2987 44.5977H55.9658C56.2126 44.5975 56.4492 44.5443 56.6237 44.4497C56.7982 44.3551 56.8964 44.2268 56.8967 44.0929V42.5737C56.8964 42.4399 56.7982 42.3116 56.6237 42.2169C56.4492 42.1223 56.2126 42.0691 55.9658 42.0689H55.2987Z"
    fill="#535461" />
  <path
    d="M80.1207 42.0689C79.9973 42.0691 79.879 42.1223 79.7917 42.2169C79.7045 42.3116 79.6554 42.4399 79.6553 42.5737V44.0929C79.6554 44.2268 79.7045 44.3551 79.7917 44.4497C79.879 44.5443 79.9973 44.5975 80.1207 44.5977H80.4542C80.5776 44.5975 80.6959 44.5443 80.7832 44.4497C80.8704 44.3551 80.9195 44.2268 80.9196 44.0929V42.5737C80.9195 42.4399 80.8704 42.3116 80.7832 42.2169C80.6959 42.1223 80.5776 42.0691 80.4542 42.0689H80.1207Z"
    fill="#535461" />
  <path
    d="M87.8736 45.862C88.921 45.862 89.7702 45.0129 89.7702 43.9655C89.7702 42.9181 88.921 42.0689 87.8736 42.0689C86.8262 42.0689 85.9771 42.9181 85.9771 43.9655C85.9771 45.0129 86.8262 45.862 87.8736 45.862Z"
    fill="#E6E6E6" />
  <path
    d="M82.816 52.184C83.8634 52.184 84.7125 51.0518 84.7125 49.6552C84.7125 48.2586 83.8634 47.1265 82.816 47.1265C81.7686 47.1265 80.9194 48.2586 80.9194 49.6552C80.9194 51.0518 81.7686 52.184 82.816 52.184Z"
    fill="#E6E6E6" />
  <path
    d="M91.6666 50.9195C92.714 50.9195 93.5631 49.7873 93.5631 48.3908C93.5631 46.9942 92.714 45.862 91.6666 45.862C90.6191 45.862 89.77 46.9942 89.77 48.3908C89.77 49.7873 90.6191 50.9195 91.6666 50.9195Z"
    fill="#E6E6E6" />
  <path
    d="M87.8736 55.977C88.921 55.977 89.7702 55.1279 89.7702 54.0805C89.7702 53.033 88.921 52.1839 87.8736 52.1839C86.8262 52.1839 85.9771 53.033 85.9771 54.0805C85.9771 55.1279 86.8262 55.977 87.8736 55.977Z"
    fill="#E6E6E6" />
  <path
    d="M58.6642 40.8046C58.1955 40.8052 57.7462 40.9919 57.4148 41.324C57.0834 41.656 56.897 42.1062 56.8965 42.5758V50.4128C56.897 50.8823 57.0834 51.3325 57.4148 51.6646C57.7462 51.9966 58.1955 52.1834 58.6642 52.1839H76.6231C77.0917 52.1834 77.541 51.9966 77.8724 51.6646C78.2038 51.3325 78.3902 50.8823 78.3907 50.4128V42.5758C78.3902 42.1062 78.2038 41.656 77.8724 41.324C77.541 40.9919 77.0917 40.8052 76.6231 40.8046H58.6642Z"
    fill="#535461" />
  <path
    d="M89.7702 45.8621H85.9771L87.8082 43.3334L89.7702 45.8621ZM86.3829 45.6743H89.3495L87.815 43.6965L86.3829 45.6743Z"
    fill="#535461" />
  <path d="M83.4482 49.6552H82.1838V48.3908H83.4482V49.6552ZM82.2775 49.5498H83.3546V48.4962H82.2775V49.5498Z"
    fill="#535461" />
  <path
    d="M92.2988 49.6552C92.0487 49.6552 91.8043 49.6181 91.5964 49.5486C91.3884 49.4792 91.2264 49.3804 91.1307 49.2649C91.035 49.1494 91.0099 49.0223 91.0587 48.8997C91.1075 48.777 91.2279 48.6644 91.4048 48.576C91.5816 48.4876 91.8069 48.4273 92.0521 48.403C92.2974 48.3786 92.5516 48.3911 92.7826 48.4389C93.0137 48.4868 93.2111 48.5678 93.3501 48.6718C93.489 48.7757 93.5632 48.898 93.5632 49.023C93.5628 49.1906 93.4295 49.3513 93.1924 49.4698C92.9554 49.5883 92.634 49.655 92.2988 49.6552ZM92.2988 48.4751C92.0821 48.4751 91.8702 48.5072 91.69 48.5674C91.5098 48.6276 91.3694 48.7132 91.2864 48.8133C91.2035 48.9134 91.1818 49.0236 91.2241 49.1299C91.2663 49.2362 91.3707 49.3338 91.524 49.4104C91.6772 49.487 91.8725 49.5392 92.085 49.5604C92.2976 49.5815 92.5179 49.5706 92.7181 49.5292C92.9184 49.4877 93.0895 49.4175 93.2099 49.3274C93.3303 49.2373 93.3946 49.1314 93.3946 49.023C93.3943 48.8777 93.2787 48.7385 93.0733 48.6357C92.8678 48.533 92.5893 48.4753 92.2988 48.4751Z"
    fill="#535461" />
  <path d="M86.8575 52.5601L86.7356 52.682L88.6754 54.6219L88.7973 54.4999L86.8575 52.5601Z" fill="#535461" />
  <path d="M88.7198 52.5587L86.7371 54.4557L86.8563 54.5803L88.839 52.6833L88.7198 52.5587Z" fill="#535461" />
  <path
    d="M17.7011 20.2705C13.1263 21.6025 8.11679 22.6053 6.32178 21.0496C7.30456 19.3216 7.8714 17.6184 7.91949 15.9462C7.93032 15.1811 8.22374 14.4507 8.73716 13.9108C9.07707 13.5639 9.48735 13.3035 9.93683 13.1492C10.3863 12.995 10.8632 12.951 11.3312 13.0205L12.5184 13.1965C12.5584 13.2024 12.5982 13.2091 12.6377 13.2166C13.2076 13.3307 13.7293 13.6303 14.1297 14.0735C14.5301 14.5167 14.789 15.0812 14.8702 15.6878C15.1203 17.5011 15.9615 19.0709 17.7011 20.2705Z"
    fill="#2F2E41" />
  <path
    d="M22.7387 38.4991L24.5346 38.8807C24.6717 38.9098 24.8009 38.9701 24.9126 39.0571C25.0244 39.1441 25.1159 39.2556 25.1807 39.3836C25.2454 39.5116 25.2816 39.6528 25.2867 39.7971C25.2918 39.9413 25.2657 40.0849 25.2103 40.2174V40.2174C25.1567 40.3455 25.077 40.4601 24.9766 40.5537C24.8762 40.6472 24.7575 40.7173 24.6284 40.7594C24.4994 40.8014 24.363 40.8144 24.2287 40.7973C24.0944 40.7802 23.9652 40.7336 23.8499 40.6605L21.1028 38.9195L16.4368 27.6169L18.8535 26.8965L22.7387 38.4991Z"
    fill="#A0616A" />
  <path d="M10.1149 51.8095L8.67563 52.1839L7.58618 50.1715L8.69405 49.6552L10.1149 51.8095Z" fill="#A0616A" />
  <path d="M8.82924 62.2989L7.58618 61.7924L7.78078 58.5058L8.85055 58.6072L8.82924 62.2989Z" fill="#A0616A" />
  <path
    d="M9.69124 51.0116L7.77639 52.1839L0.411676 44.4339C0.251927 44.2658 0.133961 44.067 0.0661708 43.8517C-0.00161972 43.6364 -0.017568 43.4098 0.0194576 43.1881C0.0564832 42.9663 0.145574 42.7549 0.280393 42.5689C0.415212 42.3828 0.592445 42.2267 0.799485 42.1116L9.9741 37.0115L11.3793 40.7669L6.60205 44.9377L9.69124 51.0116Z"
    fill="#2F2E41" />
  <path
    d="M10.9587 54.5717C10.9542 54.5778 10.9496 54.5839 10.9451 54.5901C10.8293 55.2956 10.626 55.9392 10.172 56.4051C10.0374 56.7211 9.79574 56.9745 9.4931 57.1168C9.19047 57.2591 8.8481 57.2803 8.53137 57.1765V57.1765C8.23266 57.0786 7.9759 56.8757 7.80502 56.6025C7.63414 56.3293 7.55974 56.0027 7.59456 55.6787L7.93299 52.5296C8.74481 52.3353 9.36398 51.8547 9.67738 50.9196L10.4664 51.4791C10.6999 51.6433 10.8987 51.8553 11.0509 52.1022C11.2031 52.3491 11.3053 52.6257 11.3514 52.9151C11.3974 53.2045 11.3864 53.5007 11.3189 53.7855C11.2514 54.0703 11.1288 54.3378 10.9587 54.5717V54.5717Z"
    fill="#2F2E41" />
  <path
    d="M11.3793 20.5747C12.7759 20.5747 13.9081 19.4426 13.9081 18.046C13.9081 16.6494 12.7759 15.5172 11.3793 15.5172C9.98274 15.5172 8.85059 16.6494 8.85059 18.046C8.85059 19.4426 9.98274 20.5747 11.3793 20.5747Z"
    fill="#A0616A" />
  <path
    d="M13.9081 22.0491L9.21602 25.6322L8.85059 24.1573L9.66955 23.0062C9.89683 21.8768 9.7501 20.6314 9.35955 19.3103L12.4208 19.3129C12.5529 20.3805 13.0037 21.3118 13.9081 22.0491Z"
    fill="#A0616A" />
  <path
    d="M14.7265 31.27L9.17313 33.2185L8.74108 30.9435C7.70035 29.334 7.24794 27.8649 7.92882 26.6664L7.58618 24.8622C8.56907 23.9708 9.34198 23.0588 9.76639 22.1126L13.1832 20.5748L15.695 20.7528L16.4368 23.6158L14.7265 31.27Z"
    fill="#E9BD43" />
  <path
    d="M18.9655 25.964C18.0627 25.9525 17.1792 26.2783 16.4368 26.8966L16.6953 21.8391C16.9577 21.8813 17.2065 22.005 17.4172 22.198C17.6278 22.391 17.7931 22.6467 17.8967 22.94L18.9655 25.964Z"
    fill="#E9BD43" />
  <path
    d="M9.40895 59.7701L7.58618 59.2923L7.85448 42.7967L10.3021 39.942L9.75421 36.3229L9.39967 32.2686L15.3784 30.6896C17.3993 34.5977 18.6207 38.1508 16.8378 40.3703L9.40895 59.7701Z"
    fill="#2F2E41" />
  <path
    d="M8.79992 64.3924C8.79293 64.3958 8.78593 64.3992 8.77891 64.4026C8.32616 65.0594 7.82872 65.5949 7.20329 65.7832C6.92896 66.0236 6.59337 66.1293 6.2606 66.0802C5.92783 66.0311 5.6212 65.8305 5.39926 65.5169V65.5169C5.18995 65.2211 5.0694 64.8437 5.05823 64.4491C5.04705 64.0545 5.14596 63.6674 5.33801 63.3538L7.20475 60.3065C8.00374 60.6327 8.77929 60.5366 9.51764 59.7701L9.92013 60.8635C10.0399 61.1857 10.1059 61.535 10.114 61.8901C10.1221 62.2452 10.0723 62.5987 9.96742 62.9289C9.8626 63.2591 9.70501 63.5592 9.50428 63.8108C9.30355 64.0624 9.06389 64.2603 8.79992 64.3924V64.3924Z"
    fill="#2F2E41" />
  <path
    d="M2.06427 38.9022L0.381737 40.2592C0.242115 40.3718 0.13493 40.5158 0.0701213 40.6778C0.00531243 40.8399 -0.0150243 41.0147 0.0109959 41.1861C0.0370161 41.3575 0.108552 41.5199 0.218971 41.6584C0.32939 41.7968 0.475119 41.9067 0.64265 41.9779V41.9779C0.894851 42.0852 1.18087 42.0982 1.44288 42.0144C1.70489 41.9306 1.92335 41.7562 2.0541 41.5265L3.2708 39.3887L8.85057 29.7969L6.75202 29.4253L2.06427 38.9022Z"
    fill="#A0616A" />
  <path
    d="M8.61492 30.6897C7.75387 30.359 6.94731 30.1643 6.32178 30.4213C6.4529 28.3572 6.72315 26.5133 7.60166 25.6322L8.85051 25.8188L8.61492 30.6897Z"
    fill="#E9BD43" />
  <path
    d="M15.0956 16.7817L8.85059 16.4146L8.92743 15.2216C11.1074 13.8175 13.1891 13.9399 15.1724 15.5886L15.0956 16.7817Z"
    fill="#2F2E41" />
</svg>