<svg width="111" height="96" viewBox="0 0 111 96" fill="none" xmlns="http://www.w3.org/2000/svg">
  <path d="M110.275 94.8077L31.3351 95.9978L0 90.4442H48.9183L110.275 94.8077Z" fill="#E6E6E6" />
  <path
    d="M90.9039 25.2556C97.8781 25.2556 103.532 19.602 103.532 12.6278C103.532 5.65367 97.8781 0 90.9039 0C83.9298 0 78.2761 5.65367 78.2761 12.6278C78.2761 19.602 83.9298 25.2556 90.9039 25.2556Z"
    fill="#FF6584" />
  <path d="M22.3389 91.1043C22.3389 91.1043 22.5236 87.2339 26.3102 87.6838Z" fill="#3F3D56" />
  <path
    d="M21.2692 87.4211C22.3159 87.4211 23.1644 86.5726 23.1644 85.5259C23.1644 84.4792 22.3159 83.6307 21.2692 83.6307C20.2225 83.6307 19.374 84.4792 19.374 85.5259C19.374 86.5726 20.2225 87.4211 21.2692 87.4211Z"
    fill="#E9BD43" />
  <path d="M21.4957 88.7173H20.9607V92.4621H21.4957V88.7173Z" fill="#3F3D56" />
  <path d="M84.751 91.7654C84.751 91.7654 84.9357 87.895 88.7223 88.3449Z" fill="#3F3D56" />
  <path
    d="M83.6808 88.0822C84.7275 88.0822 85.576 87.2337 85.576 86.187C85.576 85.1404 84.7275 84.2919 83.6808 84.2919C82.6341 84.2919 81.7856 85.1404 81.7856 86.187C81.7856 87.2337 82.6341 88.0822 83.6808 88.0822Z"
    fill="#E9BD43" />
  <path d="M83.9075 89.3784H83.3726V93.1231H83.9075V89.3784Z" fill="#3F3D56" />
  <path d="M93.8748 92.4265C93.8748 92.4265 94.0595 88.5561 97.8461 89.006Z" fill="#3F3D56" />
  <path
    d="M92.8046 88.7433C93.8513 88.7433 94.6998 87.8948 94.6998 86.8482C94.6998 85.8015 93.8513 84.953 92.8046 84.953C91.7579 84.953 90.9094 85.8015 90.9094 86.8482C90.9094 87.8948 91.7579 88.7433 92.8046 88.7433Z"
    fill="#E9BD43" />
  <path d="M93.0311 90.0396H92.4961V93.7843H93.0311V90.0396Z" fill="#3F3D56" />
  <path d="M37.2808 89.2531C37.2808 89.2531 37.4655 85.3826 41.2521 85.8325Z" fill="#3F3D56" />
  <path
    d="M36.2111 85.5698C37.2578 85.5698 38.1063 84.7213 38.1063 83.6747C38.1063 82.628 37.2578 81.7795 36.2111 81.7795C35.1644 81.7795 34.3159 82.628 34.3159 83.6747C34.3159 84.7213 35.1644 85.5698 36.2111 85.5698Z"
    fill="#E9BD43" />
  <path d="M36.4376 86.8661H35.9026V90.6108H36.4376V86.8661Z" fill="#3F3D56" />
  <path d="M9.11621 89.9142C9.11621 89.9142 9.30092 86.0438 13.0875 86.4937Z" fill="#3F3D56" />
  <path
    d="M8.0463 86.231C9.09297 86.231 9.94147 85.3825 9.94147 84.3358C9.94147 83.2891 9.09297 82.4406 8.0463 82.4406C6.99962 82.4406 6.15112 83.2891 6.15112 84.3358C6.15112 85.3825 6.99962 86.231 8.0463 86.231Z"
    fill="#E9BD43" />
  <path d="M8.27276 87.5272H7.73779V91.2719H8.27276V87.5272Z" fill="#3F3D56" />
  <path
    d="M54.9377 83.1887C66.3414 83.1887 75.5859 73.9442 75.5859 62.5405C75.5859 51.1368 66.3414 41.8923 54.9377 41.8923C43.5341 41.8923 34.2896 51.1368 34.2896 62.5405C34.2896 73.9442 43.5341 83.1887 54.9377 83.1887Z"
    fill="#3F3D56" />
  <path
    d="M41.9384 64.198C42.4512 63.584 43.0925 63.0902 43.8171 62.7513C44.5417 62.4125 45.3319 62.2368 46.1318 62.2368C46.9318 62.2368 47.7219 62.4125 48.4465 62.7513C49.1711 63.0902 49.8125 63.584 50.3253 64.198C51.2028 63.3603 51.8093 62.279 52.0666 61.0935C52.324 59.908 52.2204 58.6725 51.7691 57.5464C51.3179 56.4204 50.5398 55.4552 49.535 54.7754C48.5303 54.0956 47.345 53.7322 46.1318 53.7322C44.9187 53.7322 43.7334 54.0956 42.7286 54.7754C41.7239 55.4552 40.9457 56.4204 40.4945 57.5464C40.0433 58.6725 39.9397 59.908 40.1971 61.0935C40.4544 62.279 41.0609 63.3603 41.9384 64.198V64.198Z"
    fill="white" />
  <path
    d="M58.3356 64.198C58.8484 63.584 59.4898 63.0902 60.2144 62.7513C60.939 62.4125 61.7291 62.2368 62.5291 62.2368C63.329 62.2368 64.1191 62.4125 64.8438 62.7513C65.5684 63.0902 66.2097 63.584 66.7225 64.198C67.6 63.3603 68.2065 62.279 68.4638 61.0935C68.7212 59.908 68.6176 58.6725 68.1664 57.5464C67.7151 56.4203 66.937 55.4552 65.9323 54.7754C64.9275 54.0956 63.7422 53.7322 62.5291 53.7322C61.3159 53.7322 60.1306 54.0956 59.1258 54.7754C58.1211 55.4552 57.343 56.4203 56.8918 57.5464C56.4405 58.6725 56.3369 59.908 56.5943 61.0935C56.8516 62.279 57.4581 63.3603 58.3356 64.198Z"
    fill="white" />
  <path
    d="M44.0602 59.8264C45.214 59.8264 46.1493 58.8911 46.1493 57.7373C46.1493 56.5836 45.214 55.6483 44.0602 55.6483C42.9065 55.6483 41.9712 56.5836 41.9712 57.7373C41.9712 58.8911 42.9065 59.8264 44.0602 59.8264Z"
    fill="#3F3D56" />
  <path
    d="M60.4567 59.8264C61.6105 59.8264 62.5458 58.8911 62.5458 57.7373C62.5458 56.5836 61.6105 55.6483 60.4567 55.6483C59.303 55.6483 58.3677 56.5836 58.3677 57.7373C58.3677 58.8911 59.303 59.8264 60.4567 59.8264Z"
    fill="#3F3D56" />
  <path
    d="M40.0591 70.1317C41.4007 70.1317 42.4883 69.0441 42.4883 67.7025C42.4883 66.3609 41.4007 65.2733 40.0591 65.2733C38.7175 65.2733 37.6299 66.3609 37.6299 67.7025C37.6299 69.0441 38.7175 70.1317 40.0591 70.1317Z"
    fill="#FF6584" />
  <path
    d="M67.9949 70.1317C69.3365 70.1317 70.4241 69.0441 70.4241 67.7025C70.4241 66.3609 69.3365 65.2733 67.9949 65.2733C66.6533 65.2733 65.5657 66.3609 65.5657 67.7025C65.5657 69.0441 66.6533 70.1317 67.9949 70.1317Z"
    fill="#FF6584" />
  <path d="M54.0267 62.844L52.2048 70.7389L55.2413 67.7025L54.0267 62.844Z" fill="#FF6584" />
  <path
    d="M63.3883 93.2091L61.3198 91.4731L61.368 93.2091H60.7256L60.6743 91.3735L57.8815 93.2091H56.7124L60.6534 90.6187L60.5007 85.1794L60.3867 81.0715L61.0275 81.0539L61.1432 85.1794L61.2957 90.6139L64.3871 93.2091H63.3883Z"
    fill="#3F3D56" />
  <path
    d="M53.6708 93.2091L51.6024 91.4731L51.6506 93.2091H51.0099L50.9584 91.3735L48.1657 93.2091H46.9966L50.936 90.6187L50.7834 85.1794L50.6694 81.0715L51.3117 81.0539L51.4274 85.1794L51.5783 90.6139L54.6698 93.2091H53.6708Z"
    fill="#3F3D56" />
  <path
    d="M55.2413 40.374C54.6748 40.374 54.175 40.8141 53.8408 41.4901C53.5463 40.4736 52.9275 39.7667 52.2048 39.7667C52.1557 39.7716 52.107 39.7798 52.059 39.7912C51.7812 38.7059 51.1356 37.9448 50.3829 37.9448C49.3767 37.9448 48.561 39.3043 48.561 40.9813C48.561 42.6583 49.3767 44.0178 50.3829 44.0178C50.432 44.0129 50.4808 44.0048 50.5288 43.9933C50.8066 45.0786 51.4522 45.8397 52.2048 45.8397C52.7714 45.8397 53.2712 45.3996 53.6054 44.7236C53.8999 45.7401 54.5187 46.447 55.2413 46.447C56.2475 46.447 57.0632 45.0875 57.0632 43.4105C57.0632 41.7335 56.2475 40.374 55.2413 40.374Z"
    fill="#3F3D56" />
  <path
    d="M35.5569 70.3651C34.7594 70.3651 33.9697 70.208 33.2329 69.9028C32.496 69.5976 31.8266 69.1503 31.2626 68.5864C30.6987 68.0224 30.2514 67.353 29.9462 66.6162C29.641 65.8793 29.4839 65.0896 29.4839 64.2921V61.2556C29.4839 59.645 30.1237 58.1003 31.2626 56.9614C32.4015 55.8225 33.9462 55.1826 35.5569 55.1826V55.1826V70.3651Z"
    fill="#E9BD43" />
  <path
    d="M74.3186 55.1826C75.1161 55.1826 75.9058 55.3397 76.6426 55.6449C77.3794 55.9501 78.0489 56.3974 78.6129 56.9613C79.1768 57.5253 79.6241 58.1948 79.9293 58.9316C80.2345 59.6684 80.3916 60.4581 80.3916 61.2556V64.2921C80.3916 65.0896 80.2345 65.8793 79.9293 66.6161C79.6241 67.353 79.1768 68.0224 78.6129 68.5864C78.0489 69.1503 77.3794 69.5976 76.6426 69.9028C75.9058 70.208 75.1161 70.3651 74.3186 70.3651V70.3651V55.1826H74.3186Z"
    fill="#E9BD43" />
  <path
    d="M77.501 61.7329H76.5374C76.5374 49.5128 66.5957 39.571 54.3756 39.571C42.1556 39.571 32.2138 49.5128 32.2138 61.7329H31.2502C31.2502 48.9815 41.6243 38.6075 54.3756 38.6075C67.1271 38.6075 77.501 48.9815 77.501 61.7329Z"
    fill="#E9BD43" />
  <path
    d="M21.3089 43.1617L21.3091 43.1613L20.8564 42.9728L18.9464 42.1654L18.2618 41.876L18.2092 42.0086L17.2896 44.3307L19.8778 45.4262L19.8914 45.4385L19.717 45.8498C19.6931 45.8874 19.6727 45.9271 19.6561 45.9685C19.5339 46.2769 19.7647 46.5838 19.9829 46.6702C20.201 46.7566 20.4769 46.5766 20.5991 46.2681C20.7196 45.9638 20.6018 45.5772 20.3892 45.4838L20.3894 45.4834L19.9367 45.2949L18.3882 44.6929L19.273 42.4589L19.1418 42.4069L18.2567 44.6418L18.0652 44.5674L18.9538 42.3238L18.9772 42.3337L20.7975 43.1041L20.8111 43.1164L20.6367 43.5277C20.6128 43.5653 20.5924 43.605 20.5758 43.6464C20.4536 43.9548 20.6844 44.2617 20.9025 44.3481C21.1207 44.4345 21.3966 44.2545 21.5187 43.946C21.6393 43.6417 21.5215 43.2551 21.3089 43.1617Z"
    fill="#3F3D56" />
  <path
    d="M30.2673 48.8624C29.3278 48.3253 29.5158 47.1464 29.5158 47.1464C29.4921 46.3806 28.8594 46.489 28.8594 46.489L28.6291 46.5415C28.5222 46.4919 28.4044 46.4701 28.2867 46.4782L27.9364 46.5372C28.7341 46.7246 28.6685 47.3918 28.6685 47.3918L28.7803 48.172L26.6903 47.3289L26.9302 46.7631C26.9634 46.7108 26.9917 46.6556 27.0147 46.5982C27.1844 46.1697 26.8639 45.7436 26.561 45.6236C26.258 45.5036 25.8748 45.7536 25.7051 46.1821C25.5377 46.6047 25.7013 47.1416 25.9965 47.2713L25.9963 47.2719L26.625 47.5337L26.6297 47.5189L30.2673 48.8624ZM29.206 47.4916L29.273 48.2384C29.0364 47.9063 28.9252 47.5011 28.9593 47.0948C28.9537 46.9502 28.905 46.8107 28.8193 46.6941C28.951 46.7785 29.0568 46.8976 29.125 47.0384C29.1933 47.1791 29.2213 47.3359 29.206 47.4916V47.4916Z"
    fill="#3F3D56" />
  <path
    d="M14.3244 37.8182L14.3247 37.8177L13.696 37.5559L11.0682 36.5344L11.7315 35.9443C11.8612 35.7714 12.0528 35.6553 12.2662 35.6203C12.4795 35.5854 12.6982 35.6343 12.8763 35.7568L12.6705 35.4509C12.6705 35.4509 12.2836 34.9387 11.742 35.4806C11.742 35.4806 11.0719 36.4685 10.0193 36.2167L13.6141 37.7382L13.633 37.7553L13.3908 38.3265C13.3576 38.3788 13.3293 38.4339 13.3062 38.4914C13.1365 38.9198 13.457 39.346 13.76 39.466C14.063 39.586 14.4462 39.3359 14.6159 38.9075C14.7833 38.4849 14.6197 37.948 14.3244 37.8182Z"
    fill="#3F3D56" />
  <path
    d="M23.9445 34.475L23.7023 35.0462C23.6691 35.0984 23.6408 35.1536 23.6178 35.211C23.4481 35.6395 23.7686 36.0657 24.0715 36.1857C24.3745 36.3057 24.7577 36.0556 24.9274 35.6272C25.0948 35.2045 24.9312 34.6676 24.636 34.5379L24.6362 34.5374L24.0075 34.2756L21.8567 33.4395L23.0856 30.3366L22.9035 30.2644L21.6741 33.3685L21.4081 33.2651L22.6423 30.1489L22.6748 30.1627L25.203 31.2327L25.2218 31.2498L24.9796 31.821C24.9465 31.8733 24.9182 31.9284 24.8951 31.9859C24.7254 32.4143 25.0459 32.8405 25.3489 32.9605C25.6519 33.0805 26.0351 32.8305 26.2047 32.402C26.3721 31.9794 26.2086 31.4424 25.9133 31.3127L25.9135 31.3122L25.2848 31.0504L22.7154 29.9642L22.7153 29.9642L22.632 29.929L21.6811 29.527L20.3308 32.9364L23.9256 34.4579L23.9445 34.475Z"
    fill="#3F3D56" />
  <path
    d="M12.5524 17.0141L12.5529 17.0132L11.4705 16.5625L6.94706 14.804L8.08875 13.7883C8.08875 13.7883 8.84817 12.7346 10.0596 13.4654L9.70531 12.9389C9.70531 12.9389 9.03925 12.0571 8.10693 12.9901C8.10693 12.9901 6.95335 14.6907 5.14136 14.2572L11.3297 16.8764L11.3621 16.9058L10.9451 17.8891C10.8881 17.979 10.8393 18.074 10.7996 18.1728C10.5075 18.9104 11.0592 19.6441 11.5808 19.8507C12.1024 20.0572 12.762 19.6268 13.0541 18.8892C13.3423 18.1617 13.0607 17.2374 12.5524 17.0141Z"
    fill="#3F3D56" />
  <path
    d="M15.8742 31.785C13.6277 30.5007 14.0773 27.6822 14.0773 27.6822C14.0207 25.8511 12.5079 26.1103 12.5079 26.1103L11.9574 26.236C11.7016 26.1173 11.42 26.0652 11.1387 26.0845L10.3012 26.2255C12.2082 26.6736 12.0516 28.2689 12.0516 28.2689L12.3187 30.1343L7.32166 28.1184L7.8954 26.7656C7.97469 26.6407 8.04234 26.5088 8.0975 26.3715C8.50323 25.347 7.73694 24.328 7.01252 24.0411C6.28811 23.7542 5.37194 24.3521 4.96621 25.3765C4.56601 26.387 4.95712 27.6707 5.66304 27.9809L5.66245 27.9821L7.16568 28.6081L7.17687 28.5727L15.8742 31.785ZM13.3366 28.5075L13.4974 30.2991C12.5539 29.0467 12.7467 27.5587 12.7467 27.5587C12.7334 27.2131 12.6168 26.8795 12.412 26.6008C13.4958 27.2494 13.3365 28.5075 13.3365 28.5075H13.3366Z"
    fill="#3F3D56" />
</svg>