<svg width="110" height="78" viewBox="0 0 110 78" fill="none" xmlns="http://www.w3.org/2000/svg">
  <path d="M107.433 61.8482H78.1716V62.0535H107.433V61.8482Z" fill="#3F3D56" />
  <path d="M110 65.8524H85.9749V66.0577H110V65.8524Z" fill="#3F3D56" />
  <path d="M92.0315 25.3279H91.8262V62.0486H92.0315V25.3279Z" fill="#3F3D56" />
  <path
    d="M91.9683 58.9016C94.1798 58.9016 95.9725 54.8105 95.9725 49.7638C95.9725 44.7171 94.1798 40.626 91.9683 40.626C89.7569 40.626 87.9641 44.7171 87.9641 49.7638C87.9641 54.8105 89.7569 58.9016 91.9683 58.9016Z"
    fill="#3F3D56" />
  <path
    d="M91.9683 38.0593C94.1798 38.0593 95.9725 33.9682 95.9725 28.9215C95.9725 23.8748 94.1798 19.7837 91.9683 19.7837C89.7569 19.7837 87.9641 23.8748 87.9641 28.9215C87.9641 33.9682 89.7569 38.0593 91.9683 38.0593Z"
    fill="#3F3D56" />
  <path
    d="M92.0668 21.4558L91.8701 21.3968C91.8825 21.3553 93.0897 17.2184 91.1075 14.5553C89.988 13.0512 88.0668 12.2885 85.3975 12.2885V12.0832C88.1357 12.0832 90.1125 12.8739 91.2728 14.4334C93.3164 17.1801 92.0796 21.4134 92.0668 21.4558Z"
    fill="#3F3D56" />
  <path
    d="M85.3974 14.7528C86.815 14.7528 87.9642 13.6036 87.9642 12.186C87.9642 10.7684 86.815 9.61917 85.3974 9.61917C83.9798 9.61917 82.8306 10.7684 82.8306 12.186C82.8306 13.6036 83.9798 14.7528 85.3974 14.7528Z"
    fill="#E9BD43" />
  <path d="M82.8448 59.1902H80.1753V56.5208H82.8448V59.1902ZM80.3806 58.9849H82.6394V56.7261H80.3806V58.9849Z"
    fill="#3F3D56" />
  <path
    d="M18.7194 54.0576C18.7227 60.9616 14.6195 63.3739 9.55696 63.3764C9.43936 63.3764 9.32234 63.3752 9.20587 63.3726C8.97125 63.3677 8.73906 63.3571 8.50932 63.3409C3.94004 63.0196 0.388614 60.4872 0.385499 54.0665C0.382272 47.4218 8.87055 39.0323 9.50714 38.4119C9.5077 38.4119 9.5077 38.4119 9.50826 38.4114C9.53244 38.3877 9.54482 38.3759 9.54482 38.3759C9.54482 38.3759 18.716 47.1541 18.7194 54.0576Z"
    fill="#E9BD43" />
  <path
    d="M9.22287 62.3205L12.5733 57.6344L9.21468 62.8347L9.20595 63.3726C8.97132 63.3677 8.73913 63.3571 8.50939 63.3409L8.86725 56.4338L8.86441 56.3804L8.87059 56.3703L8.9046 55.7176L5.53247 50.5076L8.91448 55.2287L8.92299 55.3671L9.19333 50.1485L6.30611 44.7644L9.22833 49.2314L9.5072 38.4119L9.5083 38.3759L9.50832 38.4114L9.46522 46.9437L12.3347 43.5597L9.45319 47.6785L9.3795 52.3511L12.0594 47.8657L9.36915 53.0381L9.32821 55.6364L13.2175 49.3927L9.31346 56.5428L9.22287 62.3205Z"
    fill="#3F3D56" />
  <path d="M17.7466 63.2721H0.39502V63.4775H17.7466V63.2721Z" fill="#3F3D56" />
  <path
    d="M35.3114 3.90154C36.3887 3.90154 37.2621 3.02815 37.2621 1.95077C37.2621 0.873389 36.3887 0 35.3114 0C34.234 0 33.3606 0.873389 33.3606 1.95077C33.3606 3.02815 34.234 3.90154 35.3114 3.90154Z"
    fill="#E9BD43" />
  <path
    d="M1.57142 39.7859C1.32774 39.7859 1.08953 39.7136 0.886921 39.5782C0.684309 39.4429 0.526392 39.2504 0.43314 39.0253C0.339889 38.8002 0.31549 38.5524 0.36303 38.3134C0.41057 38.0744 0.527913 37.8549 0.700221 37.6826C0.872528 37.5103 1.09206 37.393 1.33106 37.3454C1.57006 37.2979 1.81778 37.3223 2.04291 37.4155C2.26804 37.5088 2.46046 37.6667 2.59585 37.8693C2.73123 38.0719 2.80349 38.3101 2.80349 38.5538C2.80312 38.8805 2.6732 39.1936 2.44222 39.4246C2.21124 39.6556 1.89807 39.7855 1.57142 39.7859V39.7859ZM1.57142 37.5271C1.36835 37.5271 1.16985 37.5873 1.001 37.7001C0.83216 37.8129 0.700563 37.9733 0.622853 38.1609C0.545143 38.3485 0.52481 38.555 0.564426 38.7541C0.604043 38.9533 0.701828 39.1362 0.845418 39.2798C0.989007 39.4234 1.17195 39.5212 1.37112 39.5608C1.57028 39.6004 1.77672 39.5801 1.96433 39.5024C2.15194 39.4247 2.31229 39.2931 2.42511 39.1242C2.53792 38.9554 2.59814 38.7569 2.59814 38.5538C2.59783 38.2816 2.48956 38.0206 2.29708 37.8282C2.1046 37.6357 1.84363 37.5274 1.57142 37.5271V37.5271Z"
    fill="#3F3D56" />
  <path d="M19.0752 35.1598H16.4058V32.4903H19.0752V35.1598ZM16.6111 34.9544H18.8699V32.6956H16.6111V34.9544Z"
    fill="#3F3D56" />
  <path
    d="M45.7305 71.7445C70.9867 71.7445 91.461 71.2689 91.461 70.6823C91.461 70.0957 70.9867 69.6201 45.7305 69.6201C20.4742 69.6201 0 70.0957 0 70.6823C0 71.2689 20.4742 71.7445 45.7305 71.7445Z"
    fill="#3F3D56" />
  <path
    d="M45.7306 74.931C63.2157 74.931 77.3902 74.6018 77.3902 74.1957C77.3902 73.7895 63.2157 73.4603 45.7306 73.4603C28.2455 73.4603 14.071 73.7895 14.071 74.1957C14.071 74.6018 28.2455 74.931 45.7306 74.931Z"
    fill="#3F3D56" />
  <path
    d="M45.7451 77.9821C60.0084 77.9821 71.5712 77.7135 71.5712 77.3822C71.5712 77.0509 60.0084 76.7824 45.7451 76.7824C31.4817 76.7824 19.9189 77.0509 19.9189 77.3822C19.9189 77.7135 31.4817 77.9821 45.7451 77.9821Z"
    fill="#3F3D56" />
  <path
    d="M68.2412 51.3052L68.0908 54.4622L75.3068 56.8676C75.3068 56.8676 74.931 52.8837 75.1565 52.5079L68.2412 51.3052Z"
    fill="#FFB8B8" />
  <path d="M56.5154 65.3615L55.8389 67.9922H58.9959V65.3615H56.5154Z" fill="#FFB8B8" />
  <path d="M72.9016 66.0608L74.3297 66.5641L75.0813 64.6767L73.8035 63.6701L72.9016 66.0608Z" fill="#A0616A" />
  <path
    d="M75.4323 62.7848C75.4323 62.7848 77.5619 62.505 77.5619 64.309C77.5619 66.113 77.8626 70.5478 74.8559 70.0217C74.8559 70.0217 73.5029 70.172 74.0291 68.5935C74.0291 68.5935 74.5647 67.9514 74.372 67.5584C74.1794 67.1653 73.0519 66.8647 73.2022 66.6392C73.3526 66.4137 75.0062 64.6097 75.0062 64.6097L75.4323 62.7848Z"
    fill="#2F2E41" />
  <path
    d="M75.4572 56.4917L68.0909 53.9361L67.6399 55.74C67.6399 55.74 56.5904 49.3509 55.9139 53.7105C55.9139 53.7105 55.3125 57.2434 56.2146 61.9037L56.2897 65.6621C56.2897 65.6621 58.1689 66.1131 59.0709 65.7372L59.1461 61.6782C59.1461 61.6782 59.8977 59.0474 59.5219 57.0179C59.5219 57.0179 65.1594 61.4527 67.7151 61.9789C67.7151 61.9789 58.7702 68.8942 59.8226 71.0741C60.8749 73.2539 62.1527 73.6297 63.8064 73.2539C64.946 72.9949 70.0479 68.8807 73.1098 66.3477C74.1593 65.4879 74.9927 64.394 75.543 63.1539C76.0934 61.9139 76.3455 60.562 76.279 59.2069C76.2243 58.2098 75.9941 57.2434 75.4572 56.4917Z"
    fill="#2F2E41" />
  <path
    d="M56.3649 67.015C56.3649 67.015 56.2898 66.113 55.8388 66.4888C55.3878 66.8647 53.8093 68.2928 53.8093 68.2928C53.8093 68.2928 48.0966 68.9199 51.5543 70.3481C53.1334 70.5855 54.7475 70.3773 56.2146 69.7467C56.2146 69.7467 60.0565 70.7331 59.9771 69.776C59.8978 68.819 58.9958 67.2207 58.9958 67.2207C58.9958 67.2207 57.9434 67.9922 56.7408 66.9398L56.3649 67.015Z"
    fill="#2F2E41" />
  <path
    d="M71.248 42.661C72.784 42.661 74.0291 41.4159 74.0291 39.8799C74.0291 38.3439 72.784 37.0987 71.248 37.0987C69.712 37.0987 68.4668 38.3439 68.4668 39.8799C68.4668 41.4159 69.712 42.661 71.248 42.661Z"
    fill="#FFB8B8" />
  <path
    d="M73.503 40.0302C73.503 40.0302 73.954 42.2852 74.7808 42.8114L70.1956 48.2234L68.4668 46.5697L69.7446 44.3147C69.7446 44.3147 71.1728 43.4879 70.7218 42.3604L73.503 40.0302Z"
    fill="#FFB8B8" />
  <path
    d="M75.1565 43.0369C75.1565 43.0369 78.4639 43.7134 78.8397 45.8932C79.2156 48.073 78.4639 52.0569 78.4639 52.0569L76.8854 63.7829C76.8854 63.7829 76.8102 68.7439 74.8559 67.9171C72.9015 67.0902 75.382 63.3319 75.382 63.3319L76.0585 55.9655C76.0585 55.9655 76.3592 49.7267 75.7579 48.975L73.3525 48.2234C73.3525 48.2234 73.8787 43.2624 75.1565 43.0369Z"
    fill="#FFB8B8" />
  <path
    d="M69.7446 44.3147C69.7446 44.3147 67.4896 44.2396 66.0615 46.0436C64.6333 47.8476 61.1756 49.2006 61.1756 49.2006L52.5314 52.5831C52.5314 52.5831 50.9529 49.8019 49.9758 50.7791C48.9986 51.7563 51.7798 54.2368 53.0576 53.9361C54.3355 53.6354 62.0776 51.3053 62.0776 51.3053L68.2413 48.5241L69.7446 44.3147Z"
    fill="#FFB8B8" />
  <path
    d="M74.6642 42.6322C74.6642 42.6322 71.774 46.4945 70.4962 46.4193C69.2184 46.3441 70.079 44.0604 70.079 44.0604L69.177 44.2859C69.177 44.2859 67.9405 46.6448 67.7902 46.7952C67.7902 46.7952 65.9862 49.7267 68.0157 50.4032L68.0909 51.9817C68.0909 51.9817 73.127 51.7562 75.3069 52.8837L75.7579 48.975C75.7579 48.975 72.9015 47.5468 74.48 44.7657C74.48 44.7657 75.04 43.3087 75.6413 43.1584L74.6642 42.6322Z"
    fill="#3F3D56" />
  <path opacity="0.1" d="M75.4197 63.2943L63.9192 71.713C63.9192 71.713 75.4949 64.8728 75.4197 63.2943Z"
    fill="black" />
  <path
    d="M74.142 40.1428C74.2619 40.1428 74.3591 39.9241 74.3591 39.6543C74.3591 39.3844 74.2619 39.1657 74.142 39.1657C74.022 39.1657 73.9248 39.3844 73.9248 39.6543C73.9248 39.9241 74.022 40.1428 74.142 40.1428Z"
    fill="#FFB8B8" />
  <path
    d="M68.1816 38.4028C68.1816 38.4028 67.4021 33.138 72.9687 34.7625C72.9687 34.7625 76.9068 33.9615 78.2977 38.8799L79.7095 44.0366L79.0633 43.7007L78.7776 44.3582L77.7463 44.6406L77.2859 43.7688L77.0919 44.8419L68.6197 45.8511C68.6197 45.8511 72.3784 43.5298 72.3613 39.499L71.6518 40.2782L68.1816 38.4028Z"
    fill="#2F2E41" />
  <path
    d="M49.1094 16.7754L49.088 28.7757L49.0666 40.776L48.0808 37.9902V37.9831L46.8022 64.6979C48.0594 68.2409 48.7309 70.1338 48.738 70.1409C48.7451 70.1481 49.4594 70.1909 50.3238 70.2338C52.9381 70.3623 56.181 70.6409 58.6454 70.9481C59.2168 71.0195 59.7025 71.0552 59.7383 71.0266C59.774 70.9981 59.7811 58.7835 59.774 43.876L59.7525 16.7754H49.1094V16.7754Z"
    fill="#B1060F" />
  <path
    d="M29.8591 16.7397V43.8688C29.8591 58.7906 29.8734 71.0123 29.8948 71.0337C29.9163 71.0552 30.8377 70.9623 31.952 70.8409C33.0663 70.7195 34.6021 70.5623 35.3664 70.498C36.5379 70.398 40.0522 70.1766 40.4522 70.1694C40.5737 70.1694 40.5808 69.5623 40.5951 58.6763L40.6165 47.1832L41.4665 49.5833C41.5951 49.9547 41.638 50.069 41.7665 50.4333L43.0451 23.7255C42.7737 22.9612 42.9166 23.3612 42.6094 22.4898C41.5665 19.5397 40.6808 17.0468 40.6451 16.9325L40.5737 16.7325H29.8591L29.8591 16.7397Z"
    fill="#B1060F" />
  <path
    d="M29.8591 16.7397L40.6094 47.2046V47.1904L41.4594 49.5904C46.1809 62.955 48.7167 70.1266 48.731 70.1409C48.7381 70.148 49.4524 70.1909 50.3167 70.2337C52.9311 70.3623 56.174 70.6409 58.6384 70.948C59.2027 71.0195 59.6955 71.0552 59.7241 71.0266L49.0667 40.7688V40.7759L48.081 37.9901C47.1167 35.2687 46.4738 33.4472 42.5951 22.4898C41.5523 19.5397 40.6665 17.0468 40.6308 16.9325L40.5594 16.7325H35.2093L29.8591 16.7397V16.7397Z"
    fill="#E50914" />
</svg>