<svg width="77" height="69" viewBox="0 0 77 69" fill="none" xmlns="http://www.w3.org/2000/svg">
  <path
    d="M59.7051 41.2647C59.9282 41.2647 60.1462 41.1986 60.3317 41.0747C60.5172 40.9508 60.6618 40.7747 60.7472 40.5687C60.8325 40.3627 60.8549 40.136 60.8113 39.9173C60.7678 39.6986 60.6604 39.4977 60.5026 39.34C60.3449 39.1824 60.1439 39.075 59.9251 39.0315C59.7063 38.988 59.4795 39.0103 59.2734 39.0956C59.0673 39.181 58.8912 39.3255 58.7672 39.5109C58.6433 39.6963 58.5771 39.9143 58.5771 40.1373C58.5772 40.4363 58.696 40.723 58.9075 40.9345C59.119 41.1459 59.4059 41.2647 59.7051 41.2647ZM38.5 15.4085C36.2692 15.4085 34.0884 16.0697 32.2336 17.3086C30.3787 18.5475 28.933 20.3083 28.0793 22.3684C27.2256 24.4286 27.0022 26.6955 27.4374 28.8826C27.8726 31.0696 28.9469 33.0785 30.5243 34.6553C32.1018 36.2321 34.1115 37.3059 36.2995 37.7409C38.4875 38.1759 40.7554 37.9526 42.8164 37.0993C44.8774 36.246 46.639 34.8009 47.8784 32.9468C49.1178 31.0927 49.7793 28.9129 49.7793 26.683C49.7759 23.6939 48.5865 20.8281 46.4719 18.7145C44.3574 16.6008 41.4904 15.4119 38.5 15.4085ZM38.5 35.7026C36.7153 35.7026 34.9707 35.1736 33.4868 34.1825C32.003 33.1915 30.8464 31.7828 30.1634 30.1347C29.4805 28.4865 29.3018 26.673 29.6499 24.9234C29.9981 23.1737 30.8575 21.5666 32.1195 20.3052C33.3814 19.0438 34.9892 18.1847 36.7396 17.8367C38.49 17.4887 40.3043 17.6673 41.9531 18.35C43.6019 19.0326 45.0112 20.1887 46.0027 21.672C46.9942 23.1553 47.5234 24.8991 47.5234 26.683C47.5207 29.0743 46.5692 31.3669 44.8775 33.0578C43.1859 34.7488 40.8923 35.6999 38.5 35.7026ZM71.3604 0L5.63965 0C4.14444 0.00168184 2.71095 0.596145 1.65367 1.65297C0.596398 2.7098 0.00168256 4.14268 0 5.63726L0 47.7288C0.00168216 49.2233 0.596398 50.6562 1.65367 51.713C2.71095 52.7699 4.14444 53.3643 5.63965 53.366H32.8604V62.2353H31.8076C30.3124 62.237 28.8789 62.8314 27.8216 63.8883C26.7644 64.9451 26.1697 66.378 26.168 67.8726C26.168 68.1716 26.2868 68.4583 26.4983 68.6698C26.7099 68.8812 26.9968 69 27.2959 69H49.5537C49.8529 69 50.1397 68.8812 50.3513 68.6698C50.5628 68.4583 50.6816 68.1716 50.6816 67.8726C50.68 66.378 50.0852 64.9451 49.028 63.8883C47.9707 62.8314 46.5372 62.237 45.042 62.2353H44.1396V53.366H52.9375V66.3693C52.9383 67.0667 53.2158 67.7354 53.7092 68.2286C54.2026 68.7218 54.8716 68.9992 55.5693 69H63.8408C64.5386 68.9992 65.2075 68.7218 65.7009 68.2286C66.1943 67.7354 66.4719 67.0667 66.4727 66.3693L66.4727 53.366H71.3604C72.8556 53.3643 74.2891 52.7699 75.3463 51.713C76.4036 50.6562 76.9983 49.2233 77 47.7288V5.63726C76.9983 4.14268 76.4036 2.7098 75.3463 1.65297C74.2891 0.596145 72.8556 0.00168184 71.3604 0ZM45.042 64.4902C45.7416 64.491 46.4238 64.7081 46.995 65.1119C47.5662 65.5156 47.9985 66.0861 48.2325 66.7451H28.6171C28.8511 66.0861 29.2834 65.5156 29.8546 65.1119C30.4258 64.7081 31.108 64.491 31.8076 64.4902H45.042ZM35.1162 62.2353V53.366L41.8838 53.366V62.2353L35.1162 62.2353ZM64.2168 66.3693C64.2167 66.4689 64.177 66.5644 64.1065 66.6349C64.0361 66.7054 63.9405 66.745 63.8408 66.7451H55.5693C55.4697 66.745 55.3741 66.7054 55.3036 66.6349C55.2331 66.5644 55.1935 66.4689 55.1934 66.3693V37.3562C55.1935 37.2566 55.2331 37.1611 55.3036 37.0906C55.3741 37.0201 55.4697 36.9805 55.5693 36.9804H63.8408C63.9405 36.9805 64.0361 37.0201 64.1065 37.0906C64.177 37.1611 64.2167 37.2566 64.2168 37.3562L64.2168 66.3693ZM63.8408 34.7255H55.5693C54.8716 34.7263 54.2026 35.0037 53.7092 35.4969C53.2158 35.9901 52.9383 36.6587 52.9375 37.3562V45.098L8.27148 45.098L8.27148 8.26797L68.7285 8.26797V45.098H66.4727V37.3562C66.4719 36.6587 66.1943 35.9901 65.7009 35.4969C65.2075 35.0037 64.5386 34.7263 63.8408 34.7255ZM74.7441 47.7288C74.7431 48.6255 74.3863 49.4852 73.7519 50.1193C73.1176 50.7534 72.2575 51.1101 71.3604 51.1111H66.4727V47.3529H69.8564C70.1556 47.3529 70.4425 47.2342 70.654 47.0227C70.8655 46.8113 70.9844 46.5245 70.9844 46.2255V7.14052C70.9844 6.84151 70.8655 6.55474 70.654 6.3433C70.4425 6.13186 70.1556 6.01307 69.8564 6.01307L7.14355 6.01307C6.84441 6.01307 6.55752 6.13186 6.34599 6.3433C6.13446 6.55474 6.01563 6.84151 6.01562 7.14052L6.01562 46.2255C6.01563 46.5245 6.13446 46.8113 6.34599 47.0227C6.55752 47.2342 6.84441 47.3529 7.14355 47.3529L52.9375 47.3529V51.1111L5.63965 51.1111C4.74252 51.1101 3.88242 50.7534 3.24806 50.1193C2.61369 49.4852 2.25686 48.6255 2.25586 47.7288L2.25586 5.63726C2.25686 4.74051 2.61369 3.88078 3.24806 3.24668C3.88242 2.61258 4.74252 2.25591 5.63965 2.2549L71.3604 2.2549C72.2575 2.25591 73.1176 2.61258 73.7519 3.24668C74.3863 3.88078 74.7431 4.74051 74.7441 5.63726V47.7288ZM43.1852 25.3715L37.6186 21.6454C37.3809 21.4863 37.1044 21.3947 36.8186 21.3805C36.5329 21.3662 36.2487 21.4299 35.9963 21.5645C35.7439 21.6992 35.5329 21.8999 35.3858 22.1452C35.2386 22.3904 35.1609 22.671 35.1609 22.957L35.1609 30.409C35.1608 30.6951 35.2384 30.9758 35.3855 31.2211C35.5326 31.4665 35.7436 31.6672 35.996 31.8019C36.2485 31.9367 36.5328 32.0003 36.8186 31.9859C37.1044 31.9716 37.3809 31.8799 37.6186 31.7206L43.1851 27.9946C43.4007 27.8504 43.5774 27.6552 43.6996 27.4265C43.8218 27.1977 43.8857 26.9424 43.8857 26.6831C43.8857 26.4237 43.8218 26.1684 43.6996 25.9396C43.5774 25.7109 43.4007 25.5157 43.1852 25.3715ZM37.4168 29.1419L37.4168 24.2241L41.0903 26.683L37.4168 29.1419ZM61.585 62.2353H57.8252C57.526 62.2353 57.2392 62.3541 57.0276 62.5655C56.8161 62.777 56.6973 63.0637 56.6973 63.3627C56.6973 63.6618 56.8161 63.9485 57.0276 64.16C57.2392 64.3714 57.526 64.4902 57.8252 64.4902H61.585C61.8841 64.4902 62.171 64.3714 62.3825 64.16C62.5941 63.9485 62.7129 63.6618 62.7129 63.3627C62.7129 63.0637 62.5941 62.777 62.3825 62.5655C62.171 62.3541 61.8841 62.2353 61.585 62.2353ZM61.585 57.7255H57.8252C57.526 57.7255 57.2392 57.8443 57.0276 58.0557C56.8161 58.2672 56.6973 58.5539 56.6973 58.8529C56.6973 59.152 56.8161 59.4387 57.0276 59.6502C57.2392 59.8616 57.526 59.9804 57.8252 59.9804H61.585C61.8841 59.9804 62.171 59.8616 62.3825 59.6502C62.5941 59.4387 62.7129 59.152 62.7129 58.8529C62.7129 58.5539 62.5941 58.2672 62.3825 58.0557C62.171 57.8443 61.8841 57.7255 61.585 57.7255Z"
    fill="url(#paint0_linear)" />
  <defs>
    <linearGradient id="paint0_linear" x1="38.5" y1="0" x2="38.5" y2="69" gradientUnits="userSpaceOnUse">
      <stop stop-color="#4A2C40" />
      <stop offset="1" stop-color="#E9BD43" />
    </linearGradient>
  </defs>
</svg>