<svg width="64" height="67" viewBox="0 0 64 67" fill="none" xmlns="http://www.w3.org/2000/svg">
  <path
    d="M9.41211 39.2686C9.41211 37.0805 11.1859 35.3066 13.3741 35.3066L62.1063 35.3066C62.8003 35.3066 63.1588 36.4636 62.6623 36.9483C61.4202 38.1602 60.1134 40.0451 60.1134 42.6103C60.1134 45.2581 61.506 47.221 62.7818 48.4638C63.2731 48.9424 62.9224 50.0499 62.2363 50.0499L13.3741 50.0499C11.1859 50.0499 9.41211 48.2761 9.41211 46.088L9.41211 39.2686Z"
    fill="url(#paint0_linear)" />
  <path
    d="M37.1635 11.4573C37.1635 15.2643 34.3391 19.7291 28.6904 19.7291C23.0416 19.7291 20.2173 15.2643 20.2173 11.4573C20.2173 7.35298 22.892 6.46214 25.7912 6.54871C26.9811 6.58423 28.6904 7.49013 28.6904 7.49013C28.6904 7.49013 30.3997 6.58423 31.5896 6.54871C34.4888 6.46214 37.1635 7.32135 37.1635 11.4573Z"
    fill="white" stroke="url(#paint1_linear)" stroke-width="2" stroke-linecap="round" stroke-linejoin="round" />
  <path d="M31.1973 17.2583C32.0799 16.917 34.0075 15.5778 34.6571 12.9512" stroke="url(#paint2_linear)"
    stroke-width="2" stroke-linecap="round" stroke-linejoin="round" />
  <path
    d="M28.9094 7.21418C27.1684 7.23062 25.5762 6.04989 25.1558 2.68164C26.8144 3.32817 29.5159 3.02521 28.9094 7.21418Z"
    fill="white" stroke="url(#paint3_linear)" stroke-width="2" stroke-linecap="round" stroke-linejoin="round" />
  <path
    d="M24.0305 12.5865C23.6681 11.9073 23.5658 10.7868 23.9359 9.92535M28.9374 7.16064C29.7141 6.18976 30.8792 3.18885 29.873 1L28.9374 7.16064Z"
    stroke="url(#paint4_linear)" stroke-width="2" stroke-linecap="round" stroke-linejoin="round" />
  <path
    d="M4.70996 24.4307C4.70996 22.2426 6.48379 20.4688 8.67191 20.4688L55.9039 20.4687C55.9039 20.4687 52.2464 22.8295 51.8656 27.291C51.4848 31.7525 55.9039 34.0823 55.9039 34.0823L8.67191 34.0823C6.48379 34.0823 4.70996 32.3084 4.70996 30.1203V24.4307Z"
    fill="white" />
  <path fill-rule="evenodd" clip-rule="evenodd"
    d="M56.6227 21.577C56.6221 21.5774 56.6214 21.5778 56.6208 21.5782L56.6082 21.5869C56.591 21.5984 56.562 21.6186 56.5224 21.6474C56.4431 21.705 56.3223 21.7967 56.1723 21.9217C55.8715 22.1728 55.461 22.5527 55.0396 23.0554C54.1941 24.0644 53.3419 25.5216 53.1813 27.4037C53.0333 29.1372 53.8043 30.4851 54.7102 31.4621C55.1615 31.9488 55.6273 32.3205 55.9806 32.5698C56.156 32.6936 56.3005 32.7848 56.3969 32.8429C56.4445 32.8718 56.4801 32.8923 56.5019 32.9043C56.5125 32.9103 56.5191 32.9141 56.5224 32.9158L56.521 32.9153L56.5204 32.9148C56.5217 32.9154 56.523 32.916 56.5237 32.9165C57.0579 33.2007 57.3313 33.812 57.186 34.3998C57.0401 34.9892 56.5111 35.4033 55.9038 35.4033H8.67176C5.75425 35.4033 3.38916 33.0382 3.38916 30.1207L3.38916 24.431C3.38916 21.5135 5.75425 19.1484 8.67176 19.1484L55.9038 19.1484C56.4894 19.1484 57.0051 19.5341 57.1708 20.0958C57.3359 20.6559 57.1134 21.2576 56.6241 21.5759C56.6234 21.5763 56.6234 21.5767 56.6227 21.577ZM54.1388 32.762C55.0583 33.6369 55.9038 34.0826 55.9038 34.0826L8.67176 34.0826C6.48364 34.0826 4.70981 32.3088 4.70981 30.1207L4.70981 24.431C4.70981 22.2429 6.48364 20.4691 8.67176 20.4691L55.9038 20.4691C55.9038 20.4691 55.2106 20.9165 54.3965 21.7897C53.3403 22.9225 52.0805 24.772 51.8654 27.2914C51.6512 29.8013 52.9562 31.6366 54.1388 32.762Z"
    fill="url(#paint5_linear)" />
  <path
    d="M1.3208 55.2373C1.3208 53.0492 3.09463 51.2754 5.28275 51.2754L52.5148 51.2754C52.5148 51.2754 49.1976 53.3493 48.6466 57.9953C48.0957 62.642 52.5148 64.889 52.5148 64.889H5.28275C3.09463 64.889 1.3208 63.1148 1.3208 60.9271L1.3208 55.2373Z"
    fill="white" />
  <path fill-rule="evenodd" clip-rule="evenodd"
    d="M53.218 52.3935C53.2179 52.3935 53.2181 52.3934 53.218 52.3935C53.2173 52.3939 53.2165 52.3944 53.2158 52.3948C53.2157 52.3948 53.2158 52.3948 53.2158 52.3948L53.218 52.3935ZM51.0401 52.5964C51.8351 51.7005 52.5146 51.2757 52.5146 51.2757L5.2826 51.2757C3.09448 51.2757 1.32065 53.0496 1.32065 55.2377L1.32065 60.9274C1.32065 63.1151 3.09448 64.8894 5.2826 64.8894H52.5146C52.5146 64.8894 51.6574 64.4536 50.7452 63.5687C49.5861 62.4442 48.3381 60.596 48.6464 57.9956C48.948 55.4525 50.0785 53.6799 51.0401 52.5964ZM53.1142 63.7127C53.1155 63.7134 53.1168 63.714 53.1181 63.7147C53.1187 63.7147 53.1185 63.7147 53.1181 63.7147C53.6593 63.9927 53.9408 64.6048 53.7989 65.1971C53.6565 65.7907 53.1254 66.21 52.5146 66.21H5.2826C2.36509 66.21 0 63.8448 0 60.9274L0 55.2377C0 52.3202 2.36509 49.9551 5.2826 49.9551L52.5146 49.9551C53.1037 49.9551 53.6216 50.3453 53.784 50.9116C53.9458 51.4753 53.7163 52.0778 53.2214 52.3913C53.2204 52.3919 53.219 52.3928 53.218 52.3935L53.1142 63.7127ZM53.1172 63.714C53.1146 63.7127 53.108 63.7094 53.0979 63.7034C53.0775 63.6922 53.0428 63.6731 52.9959 63.6453C52.902 63.5905 52.7606 63.5027 52.5888 63.3825C52.2427 63.1408 51.7881 62.7783 51.3523 62.2976C50.4863 61.3428 49.7406 59.9832 49.9579 58.1514C50.198 56.1265 51.0365 54.6756 51.8098 53.7291C52.1979 53.2541 52.5682 52.9082 52.8345 52.6859C52.9672 52.5749 53.0729 52.4957 53.1403 52.4473C53.174 52.4232 53.198 52.4068 53.2109 52.3982L53.218 52.3935L53.2166 52.3943L53.2158 52.3948L53.1172 63.714ZM53.1172 63.714H53.1165L53.115 63.7127"
    fill="url(#paint6_linear)" />
  <path d="M13.3682 42.6784H30.1732M13.3682 39.2969H44.1538H13.3682Z" stroke="white" stroke-width="2"
    stroke-linecap="round" stroke-linejoin="round" />
  <path
    d="M40.9766 20.0156H46.4486V28.1115C46.4486 28.6998 45.7373 28.9944 45.3213 28.5784L44.1795 27.4366C43.9216 27.1787 43.5035 27.1787 43.2456 27.4366L42.1038 28.5784C41.6878 28.9944 40.9766 28.6998 40.9766 28.1115V20.0156Z"
    fill="url(#paint7_linear)" />
  <path d="M8.28473 23.998L34.1277 23.998M4.33057 54.6999H35.1162H4.33057ZM4.33057 58.0815H21.1356H4.33057Z"
    stroke="url(#paint8_linear)" stroke-width="2" stroke-linecap="round" stroke-linejoin="round" />
  <defs>
    <linearGradient id="paint0_linear" x1="36.2117" y1="35.3066" x2="36.2117" y2="50.0499"
      gradientUnits="userSpaceOnUse">
      <stop stop-color="#4A2C40" />
      <stop offset="1" stop-color="#E9BD43" />
    </linearGradient>
    <linearGradient id="paint1_linear" x1="28.6904" y1="6.54297" x2="28.6904" y2="19.7291"
      gradientUnits="userSpaceOnUse">
      <stop stop-color="#4A2C40" />
      <stop offset="1" stop-color="#E9BD43" />
    </linearGradient>
    <linearGradient id="paint2_linear" x1="32.9272" y1="12.9512" x2="32.9272" y2="17.2583"
      gradientUnits="userSpaceOnUse">
      <stop stop-color="#4A2C40" />
      <stop offset="1" stop-color="#E9BD43" />
    </linearGradient>
    <linearGradient id="paint3_linear" x1="27.0761" y1="2.68164" x2="27.0761" y2="7.21435"
      gradientUnits="userSpaceOnUse">
      <stop stop-color="#4A2C40" />
      <stop offset="1" stop-color="#E9BD43" />
    </linearGradient>
    <linearGradient id="paint4_linear" x1="26.9837" y1="1" x2="26.9837" y2="12.5865" gradientUnits="userSpaceOnUse">
      <stop stop-color="#4A2C40" />
      <stop offset="1" stop-color="#E9BD43" />
    </linearGradient>
    <linearGradient id="paint5_linear" x1="30.307" y1="19.1484" x2="30.307" y2="35.4033" gradientUnits="userSpaceOnUse">
      <stop stop-color="#4A2C40" />
      <stop offset="1" stop-color="#E9BD43" />
    </linearGradient>
    <linearGradient id="paint6_linear" x1="26.9177" y1="49.9551" x2="26.9177" y2="66.21" gradientUnits="userSpaceOnUse">
      <stop stop-color="#4A2C40" />
      <stop offset="1" stop-color="#E9BD43" />
    </linearGradient>
    <linearGradient id="paint7_linear" x1="43.7126" y1="20.0156" x2="43.7126" y2="28.7731"
      gradientUnits="userSpaceOnUse">
      <stop stop-color="#4A2C40" />
      <stop offset="1" stop-color="#E9BD43" />
    </linearGradient>
    <linearGradient id="paint8_linear" x1="19.7234" y1="23.998" x2="19.7234" y2="58.0815"
      gradientUnits="userSpaceOnUse">
      <stop stop-color="#4A2C40" />
      <stop offset="1" stop-color="#E9BD43" />
    </linearGradient>
  </defs>
</svg>