<svg width="80" height="81" viewBox="0 0 80 81" fill="none" xmlns="http://www.w3.org/2000/svg">
  <path
    d="M72.8079 72.16L80 0.75H0L0.0939894 1.67667L7.18079 72.17L7.24094 72.7567L39.6974 80.75H40.2087L72.7403 72.75L72.8004 72.1633L72.8079 72.16ZM40.0696 16.3467H63.315L62.6157 23.5467L39.6823 32.5867L40.0658 34.2133H61.5856L59.108 59.3833L39.9868 64.0833L20.8732 59.39L19.6701 47.3367H27.5389L28.1705 53.4467L28.2307 54.04L39.8289 56.7733H40.329L51.7994 53.9467L51.8558 53.3567L52.9386 42.07L53.0251 41.15H19.0122L18.2979 33.9067L42.017 24.9033L41.6411 23.27H17.279L16.5835 16.3367H40.0432L40.0696 16.3467Z"
    fill="#E9BD43" />
</svg>