<svg width="80" height="81" viewBox="0 0 80 81" fill="none" xmlns="http://www.w3.org/2000/svg">
  <path
    d="M68.3382 0.75H11.6618C5.22117 0.75 0 5.97117 0 12.4118V69.0882C0 75.5288 5.22117 80.75 11.6618 80.75H68.3382C74.7788 80.75 80 75.5288 80 69.0882V12.4118C80 5.97117 74.7788 0.75 68.3382 0.75Z"
    fill="#E9BD43" />
  <path
    d="M68.3382 4.24854C70.5032 4.24854 72.5796 5.1086 74.1105 6.63951C75.6414 8.17042 76.5015 10.2468 76.5015 12.4118V69.0882C76.5015 71.2532 75.6414 73.3296 74.1105 74.8605C72.5796 76.3914 70.5032 77.2515 68.3382 77.2515H11.6618C9.49677 77.2515 7.42042 76.3914 5.88951 74.8605C4.3586 73.3296 3.49854 71.2532 3.49854 69.0882V12.4118C3.49854 10.2468 4.3586 8.17042 5.88951 6.63951C7.42042 5.1086 9.49677 4.24854 11.6618 4.24854H68.3382ZM68.3382 0.75H11.6618C8.5689 0.75 5.60268 1.97865 3.41566 4.16566C1.22865 6.35268 0 9.3189 0 12.4118V69.0882C0 72.1811 1.22865 75.1473 3.41566 77.3343C5.60268 79.5213 8.5689 80.75 11.6618 80.75H68.3382C71.4311 80.75 74.3973 79.5213 76.5843 77.3343C78.7713 75.1473 80 72.1811 80 69.0882V12.4118C80 9.3189 78.7713 6.35268 76.5843 4.16566C74.3973 1.97865 71.4311 0.75 68.3382 0.75V0.75Z"
    fill="#E9BD43" />
  <path
    d="M30.0314 70.6624C31.3408 70.6624 32.6373 70.4045 33.8471 69.9034C35.0568 69.4023 36.156 68.6679 37.0818 67.742C38.0077 66.8161 38.7422 65.7169 39.2432 64.5072C39.7443 63.2975 40.0022 62.0009 40.0022 60.6915V50.7207H30.0314C28.722 50.7207 27.4254 50.9786 26.2157 51.4797C25.006 51.9808 23.9068 52.7152 22.9809 53.6411C22.0551 54.567 21.3206 55.6662 20.8195 56.8759C20.3185 58.0856 20.0605 59.3822 20.0605 60.6915C20.0605 62.0009 20.3185 63.2975 20.8195 64.5072C21.3206 65.7169 22.0551 66.8161 22.9809 67.742C23.9068 68.6679 25.006 69.4023 26.2157 69.9034C27.4254 70.4045 28.722 70.6624 30.0314 70.6624V70.6624Z"
    fill="#0ACF83" />
  <path
    d="M20.0605 40.7501C20.0605 38.1057 21.111 35.5696 22.9809 33.6997C24.8508 31.8298 27.387 30.7793 30.0314 30.7793H40.0022V50.721H30.0314C27.387 50.721 24.8508 49.6705 22.9809 47.8006C21.111 45.9307 20.0605 43.3946 20.0605 40.7501V40.7501Z"
    fill="#A259FF" />
  <path
    d="M20.0605 20.8087C20.0605 18.1643 21.111 15.6282 22.9809 13.7583C24.8508 11.8884 27.387 10.8379 30.0314 10.8379H40.0022V30.7796H30.0314C27.387 30.7796 24.8508 29.7291 22.9809 27.8592C21.111 25.9893 20.0605 23.4532 20.0605 20.8087V20.8087Z"
    fill="#F24E1E" />
  <path
    d="M40.002 10.8965H49.9728C52.6172 10.8965 55.1533 11.947 57.0232 13.8169C58.8931 15.6868 59.9436 18.2229 59.9436 20.8673C59.9436 23.5118 58.8931 26.0479 57.0232 27.9178C55.1533 29.7877 52.6172 30.8382 49.9728 30.8382H40.002V10.8965Z"
    fill="#FF7262" />
  <path
    d="M59.9436 40.7501C59.9436 42.7222 59.3589 44.65 58.2633 46.2897C57.1676 47.9293 55.6104 49.2073 53.7885 49.962C51.9665 50.7167 49.9617 50.9141 48.0276 50.5294C46.0934 50.1447 44.3168 49.195 42.9224 47.8006C41.5279 46.4061 40.5783 44.6295 40.1935 42.6954C39.8088 40.7612 40.0063 38.7564 40.7609 36.9345C41.5156 35.1125 42.7936 33.5553 44.4333 32.4597C46.073 31.3641 48.0008 30.7793 49.9728 30.7793C52.6172 30.7793 55.1534 31.8298 57.0233 33.6997C58.8931 35.5696 59.9436 38.1057 59.9436 40.7501Z"
    fill="#1ABCFE" />
</svg>