<svg width="80" height="81" viewBox="0 0 80 81" fill="none" xmlns="http://www.w3.org/2000/svg">
  <path
    d="M75.5556 0.75H4.44444C1.98985 0.75 0 2.73985 0 5.19444V76.3056C0 78.7602 1.98985 80.75 4.44444 80.75H75.5556C78.0102 80.75 80 78.7602 80 76.3056V5.19444C80 2.73985 78.0102 0.75 75.5556 0.75Z"
    fill="#E9BD43" />
  <path fill-rule="evenodd" clip-rule="evenodd"
    d="M4.44444 0.75C1.98889 0.75 0 2.74778 0 5.19444V76.3056C0 78.7611 1.98333 80.75 4.44444 80.75H26.6667C28.8889 80.75 30.0878 77.5944 30.0878 76.5411C30.0878 75.59 30.0511 72.4489 30.0333 69.1178C18.9056 71.5289 16.5567 64.4133 16.5567 64.4133C14.7378 59.8044 12.1156 58.5789 12.1156 58.5789C8.48667 56.1044 12.3889 56.1544 12.3889 56.1544C16.4056 56.4356 18.5211 60.2633 18.5211 60.2633C22.0878 66.36 27.8789 64.5967 30.1611 63.5789C30.52 61.0011 31.5567 59.2422 32.7011 58.2456C23.8167 57.2378 14.4767 53.8189 14.4767 38.5411C14.4767 34.1878 16.0389 30.63 18.5989 27.8378C18.1822 26.8344 16.8133 22.7789 18.9856 17.2867C18.9856 17.2867 22.3444 16.2144 29.9878 21.3733C33.1789 20.49 36.6011 20.0467 40 20.0322C43.4 20.0467 46.8244 20.49 50.0211 21.3733C57.6556 16.2144 61.01 17.2867 61.01 17.2867C63.1878 22.7789 61.8178 26.8344 61.4022 27.8378C63.9667 30.6311 65.5189 34.1878 65.5189 38.5411C65.5189 53.8556 56.1611 57.2278 47.2544 58.2144C48.6889 59.4522 49.9678 61.8789 49.9678 65.5989C49.9678 70.9344 49.9211 75.2278 49.9211 76.5411C49.9211 77.6022 49.9211 80.75 53.3333 80.75H75.5533C76.732 80.7491 77.8622 80.2807 78.6958 79.4474C79.5295 78.6142 79.9985 77.4842 80 76.3056V5.19444C80 2.73889 78.0022 0.75 75.5556 0.75H4.44444ZM15.15 58C15.0611 58.1978 14.75 58.2567 14.4644 58.1211C14.1744 57.9911 14.0111 57.7211 14.1056 57.5222C14.1922 57.3178 14.5056 57.2611 14.7944 57.3978C15.0856 57.5278 15.25 57.8011 15.15 58ZM16.77 59.8C16.58 59.9778 16.2067 59.8956 15.9533 59.6167C15.6922 59.3389 15.6422 58.9667 15.8367 58.7878C16.0333 58.6111 16.3944 58.6944 16.6567 58.9722C16.9189 59.2533 16.97 59.6222 16.77 59.8011V59.8ZM18.3478 62.0978C18.1033 62.2667 17.7022 62.1089 17.4544 61.7533C17.2089 61.3978 17.2089 60.9733 17.4589 60.8033C17.7078 60.6333 18.1033 60.7856 18.3533 61.1378C18.5978 61.4989 18.5978 61.9233 18.3478 62.0978ZM20.5078 64.3156C20.2889 64.5567 19.8222 64.4922 19.48 64.1633C19.13 63.8411 19.0333 63.3856 19.2533 63.1444C19.4756 62.9033 19.9444 62.9711 20.2889 63.2967C20.6356 63.6189 20.7422 64.0778 20.5078 64.3156V64.3156ZM23.4889 65.6044C23.3922 65.9156 22.9422 66.0589 22.4889 65.9267C22.0367 65.7889 21.7411 65.4233 21.8333 65.1078C21.9267 64.7933 22.3778 64.6456 22.8344 64.7878C23.2867 64.9233 23.5833 65.2867 23.49 65.6044H23.4889ZM26.7622 65.8433C26.7733 66.1722 26.39 66.4444 25.9144 66.4511C25.4367 66.4611 25.0489 66.1956 25.0433 65.8711C25.0433 65.5389 25.4189 65.2689 25.8978 65.2611C26.3733 65.2522 26.7622 65.5167 26.7622 65.8433V65.8433ZM29.8089 65.3267C29.8656 65.6467 29.5356 65.9767 29.0633 66.0644C28.5989 66.1489 28.1689 65.9511 28.11 65.6322C28.0522 65.3033 28.3878 64.9744 28.8522 64.8889C29.3256 64.8067 29.7489 65 29.8078 65.3267H29.8089Z"
    fill="#161614" />
</svg>