<svg width="80" height="81" viewBox="0 0 80 81" fill="none" xmlns="http://www.w3.org/2000/svg">
  <path d="M7.27273 72.625L0 0.75H80L72.7273 72.625L39.9113 80.75" fill="#E9BD43" />
  <path d="M40.0879 74.5L66.518 68.0938L72.7265 6.53125H40.0879" fill="#EF652A" />
  <path
    d="M40.0889 33.25H26.7851L25.8982 24.1875H40.0889V15.4375H14.9004L17.5611 42.1562H40.0889V33.25ZM39.9115 56.2188L28.7363 53.5625L28.0268 46.5312H18.0933L19.335 60.4375L39.9115 65.4375V56.2188Z"
    fill="#EBEBEB" />
  <path
    d="M39.9121 33.25V42.1562H52.329L51.0873 53.5625L39.9121 56.2188V65.4375L60.4886 60.4375L63.3267 33.25H39.9121ZM39.9121 15.4375V24.1875H64.2137L65.1006 15.4375H39.9121Z"
    fill="white" />
</svg>