<svg width="80" height="81" viewBox="0 0 80 81" fill="none" xmlns="http://www.w3.org/2000/svg">
  <path d="M0 0.75H80V80.75H0V0.75Z" fill="#E9BD43" />
  <path
    d="M21.0355 67.6028L27.1573 63.8978C28.3386 65.9919 29.413 67.7638 31.9902 67.7638C34.4605 67.7638 36.0183 66.7975 36.0183 63.0387V37.4769H43.5361V63.145C43.5361 70.9316 38.9717 74.4759 32.3123 74.4759C26.2983 74.4759 22.8073 71.3612 21.0352 67.6022L21.0355 67.6028ZM47.6195 66.7972L53.7408 63.2531C55.3523 65.8847 57.4467 67.8178 61.1517 67.8178C64.267 67.8178 66.2533 66.2603 66.2533 64.1122C66.2533 61.5347 64.2127 60.6216 60.7758 59.1184L58.8967 58.3122C53.4727 56.0037 49.8748 53.1038 49.8748 46.9819C49.8748 41.3431 54.1708 37.0469 60.8836 37.0469C65.663 37.0469 69.0998 38.7119 71.5698 43.0616L65.7161 46.8209C64.427 44.5119 63.0314 43.5991 60.8833 43.5991C58.6814 43.5991 57.2852 44.9953 57.2852 46.8209C57.2852 49.0762 58.6814 49.9897 61.9033 51.3859L63.7827 52.1913C70.1733 54.9303 73.7711 57.7225 73.7711 64.005C73.7711 70.7719 68.4548 74.4769 61.3127 74.4769C54.3317 74.4769 49.8208 71.1475 47.6192 66.7975"
    fill="black" />
</svg>