<svg width="80" height="81" viewBox="0 0 80 81" fill="none" xmlns="http://www.w3.org/2000/svg">
  <path d="M1 1.75H79V79.75H1V1.75Z" fill="#222222" stroke="#E9BD43" stroke-width="2" />
  <path
    d="M39.9379 47.3915C43.6326 47.3915 46.6278 44.3963 46.6278 40.7016C46.6278 37.0069 43.6326 34.0117 39.9379 34.0117C36.2432 34.0117 33.248 37.0069 33.248 40.7016C33.248 44.3963 36.2432 47.3915 39.9379 47.3915Z"
    fill="#E9BD43" />
  <path
    d="M39.9387 27.0996C48.919 27.0996 57.2626 28.3885 63.5523 30.5529C71.1309 33.1616 75.7913 37.1167 75.7913 40.6982C75.7913 44.4301 70.8523 48.6328 62.7144 51.3278C56.5617 53.3661 48.4636 54.4317 39.9387 54.4317C31.1972 54.4317 22.9222 53.4324 16.6988 51.3057C8.82615 48.6151 4.08398 44.3593 4.08398 40.6982C4.08398 37.1455 8.53432 33.2213 16.0068 30.617C22.3209 28.4172 30.87 27.0996 39.9387 27.0996V27.0996Z"
    stroke="#E9BD43" stroke-width="2" stroke-miterlimit="10" />
  <path
    d="M28.0986 33.9401C32.5843 26.1603 37.8703 19.5766 42.8888 15.2102C48.9353 9.94854 54.6901 7.88807 57.7918 9.67661C61.024 11.5403 62.1979 17.9185 60.4669 26.3173C59.1581 32.6667 56.0364 40.2122 51.7762 47.5985C47.4099 55.1705 42.4091 61.8404 37.4591 66.1692C31.1959 71.6453 25.1383 73.6262 21.968 71.7979C18.8906 70.0226 17.7144 64.2082 19.189 56.4328C20.4359 49.8579 23.5664 41.7951 28.0986 33.9401V33.9401Z"
    stroke="#E9BD43" stroke-width="2" stroke-miterlimit="10" />
  <path
    d="M28.1096 47.6136C23.6106 39.8404 20.5464 31.9744 19.2686 25.4459C17.7299 17.5799 18.8176 11.5643 21.9171 9.77132C25.1471 7.90099 31.2577 10.0698 37.6691 15.7626C42.5174 20.067 47.4939 26.5402 51.7651 33.9199C56.1447 41.4852 59.4278 49.1479 60.7034 55.5968C62.3195 63.7591 61.0107 69.9957 57.8426 71.8285C54.7674 73.6082 49.1431 71.7246 43.143 66.5623C38.0759 62.2004 32.6528 55.4619 28.1096 47.6136V47.6136Z"
    stroke="#E9BD43" stroke-width="2" stroke-miterlimit="10" />
</svg>