<svg width="80" height="81" viewBox="0 0 80 81" fill="none" xmlns="http://www.w3.org/2000/svg">
  <path
    d="M79.9766 0.75H0.0234375C0.0104933 0.75 0 0.760493 0 0.773438V80.7266C0 80.7395 0.0104933 80.75 0.0234375 80.75H79.9766C79.9895 80.75 80 80.7395 80 80.7266V0.773438C80 0.760493 79.9895 0.75 79.9766 0.75Z"
    fill="#E9BD43" />
  <path
    d="M40.3125 14.4991C25.3125 19.6554 15.625 30.1241 16.5625 36.3741C17.5 42.6241 26.875 47.6241 31.0938 50.9054C25.625 53.7179 18.75 57.9366 18.9063 63.4054C19.2188 70.9054 27.3438 68.5616 30.7813 66.3741C34.2188 64.1866 37.6563 58.0929 35.4688 51.6866C40.3125 50.4366 44.5313 51.9991 45.7813 52.9366C50.625 56.3741 48.125 60.2804 46.4063 60.9054C44.6875 61.5304 45.7813 61.8429 46.875 61.5304C47.9688 61.2179 50.3125 59.6554 50.3125 56.9991C50.3125 50.2804 43.125 47.1554 34.2188 49.4991C29.0625 44.0304 22.0313 41.5304 22.3438 35.5929C22.5 33.4054 23.2813 27.7804 37.1875 20.7491C51.0938 13.7179 60.9375 16.5304 59.6875 22.9366C57.8125 32.6241 40.9375 39.1866 35 33.5616C34.6875 32.9366 33.5938 32.4679 34.2188 34.1866C37.3438 41.9991 62.6563 38.4054 63.75 21.8429C64.0625 13.0929 51.4063 10.7491 40.3125 14.4991ZM26.875 64.4991C22.9688 65.7491 23.125 63.2491 23.2813 62.3116C23.75 59.6554 25.9375 56.3741 32.5 53.0929C34.375 59.0304 30.1563 63.5616 26.875 64.4991Z"
    fill="white" />
</svg>