<svg width="80" height="81" viewBox="0 0 80 81" fill="none" xmlns="http://www.w3.org/2000/svg">
  <path
    d="M80 10.364C80 5.05413 75.6959 0.75 70.386 0.75H9.61397C4.30413 0.75 0 5.05413 0 10.364V71.1354C0 76.4459 4.30413 80.75 9.61397 80.75H70.386C75.6959 80.75 80 76.4459 80 71.1354V10.364V10.364ZM36.1905 63.3151C36.1905 65.7322 34.1041 67.4167 31.687 67.4167H14.3257C11.9086 67.4167 10.1587 65.7322 10.1587 63.3151V14.8643C10.1587 12.4465 11.9086 10.2738 14.3257 10.2738H31.687C34.1041 10.2738 36.1905 12.4465 36.1905 14.8643V63.3151ZM71.1111 21.1208V41.3659C71.1111 43.783 69.247 45.8294 66.8292 45.8294H49.4768C47.0591 45.8294 45.0794 43.7824 45.0794 41.3659V14.6332C45.0794 12.2154 47.0591 10.2738 49.4768 10.2738H66.8292C69.247 10.2738 71.1111 12.2154 71.1111 14.6332V21.1208V21.1208Z"
    fill="#E9BD43" />
</svg>