<svg width="110" height="99" viewBox="0 0 110 99" fill="none" xmlns="http://www.w3.org/2000/svg">
  <path
    d="M13.5601 76.7717L15.9541 86.0117H14.3021L13.7421 83.6597H10.9981L10.4521 86.0117H8.91211L11.4741 76.7717H13.5601ZM11.2501 82.6237H13.5041L12.3701 77.8217L11.2501 82.6237ZM22.4211 84.8637C22.4211 85.3211 22.5658 85.6291 22.8551 85.7877C22.7805 85.9277 22.6685 86.0351 22.5191 86.1097C22.3791 86.1844 22.2158 86.2217 22.0291 86.2217C21.7585 86.2217 21.5345 86.1471 21.3571 85.9977C21.1798 85.8391 21.0725 85.6291 21.0351 85.3677C20.8858 85.6757 20.6431 85.9091 20.3071 86.0677C19.9805 86.2357 19.6258 86.3197 19.2431 86.3197C18.5711 86.3197 18.0578 86.1751 17.7031 85.8857C17.3578 85.5871 17.1291 85.1857 17.0171 84.6817C16.9051 84.1684 16.8491 83.5104 16.8491 82.7077V78.8717H18.3891V82.6377C18.3891 83.2071 18.4078 83.6784 18.4451 84.0517C18.4918 84.4157 18.6085 84.7284 18.7951 84.9897C18.9818 85.2511 19.2665 85.3817 19.6491 85.3817C20.0598 85.3817 20.3678 85.2277 20.5731 84.9197C20.7785 84.6024 20.8811 84.2104 20.8811 83.7437V78.8717H22.4211V84.8637ZM23.4743 79.5017L23.4603 79.0817C23.8803 78.9137 24.277 78.6897 24.6503 78.4097C25.033 78.1297 25.355 77.8217 25.6163 77.4857H26.0503V78.8717H27.3383V79.5017H26.0223V84.5977C26.0223 84.8777 26.0736 85.0877 26.1763 85.2277C26.279 85.3677 26.4423 85.4564 26.6663 85.4937C26.6196 85.7084 26.4936 85.8811 26.2883 86.0117C26.0923 86.1517 25.8636 86.2217 25.6023 86.2217C24.8463 86.2217 24.4683 85.7924 24.4683 84.9337V79.5017H23.4743ZM30.9105 78.5917C31.9558 78.5917 32.7305 78.9324 33.2345 79.6137C33.7385 80.2857 33.9905 81.1957 33.9905 82.3437C33.9905 83.5664 33.7478 84.5371 33.2625 85.2557C32.7772 85.9651 31.9932 86.3197 30.9105 86.3197C29.8465 86.3197 29.0672 85.9791 28.5725 85.2977C28.0872 84.6164 27.8445 83.6784 27.8445 82.4837C27.8445 81.3264 28.0965 80.3884 28.6005 79.6697C29.1045 78.9511 29.8745 78.5917 30.9105 78.5917ZM30.9105 85.4797C31.4892 85.4797 31.8672 85.1951 32.0445 84.6257C32.2218 84.0564 32.3105 83.3191 32.3105 82.4137C32.3105 81.5831 32.2125 80.8784 32.0165 80.2997C31.8298 79.7211 31.4612 79.4317 30.9105 79.4317C29.9865 79.4317 29.5245 80.4257 29.5245 82.4137C29.5245 83.3191 29.6085 84.0564 29.7765 84.6257C29.9538 85.1951 30.3318 85.4797 30.9105 85.4797ZM39.1555 85.3677C38.9782 85.6944 38.7168 85.9324 38.3715 86.0817C38.0355 86.2404 37.6528 86.3197 37.2235 86.3197C36.5795 86.3197 36.0382 86.1237 35.5995 85.7317C35.1702 85.3397 34.9555 84.8311 34.9555 84.2057C34.9555 82.6937 36.3042 81.9377 39.0015 81.9377V80.7197C39.0015 80.2531 38.9315 79.9077 38.7915 79.6837C38.6515 79.4504 38.3855 79.3337 37.9935 79.3337C37.6668 79.3337 37.3962 79.4224 37.1815 79.5997C36.9668 79.7677 36.8595 80.0057 36.8595 80.3137C36.8595 80.5097 36.8968 80.7197 36.9715 80.9437C36.8408 81.0464 36.6542 81.0977 36.4115 81.0977C36.0755 81.0977 35.8095 81.0137 35.6135 80.8457C35.4175 80.6777 35.3195 80.4351 35.3195 80.1177C35.3195 79.6697 35.5715 79.3057 36.0755 79.0257C36.5795 78.7364 37.2515 78.5917 38.0915 78.5917C38.7075 78.5917 39.1928 78.6851 39.5475 78.8717C39.9022 79.0491 40.1542 79.3291 40.3035 79.7117C40.4622 80.0851 40.5415 80.5891 40.5415 81.2237V84.8637C40.5415 85.3211 40.6862 85.6291 40.9755 85.7877C40.9008 85.9277 40.7888 86.0351 40.6395 86.1097C40.4995 86.1844 40.3362 86.2217 40.1495 86.2217C39.8788 86.2217 39.6548 86.1471 39.4775 85.9977C39.3002 85.8391 39.1928 85.6291 39.1555 85.3677ZM37.7695 85.3817C38.1802 85.3817 38.4882 85.2277 38.6935 84.9197C38.8988 84.6024 39.0015 84.2104 39.0015 83.7437V82.6377C37.4242 82.6377 36.6355 83.1417 36.6355 84.1497C36.6355 84.5231 36.7335 84.8217 36.9295 85.0457C37.1348 85.2697 37.4148 85.3817 37.7695 85.3817ZM45.8755 78.5917C46.7528 78.5917 47.3782 78.9464 47.7515 79.6557C48.1248 80.3557 48.3115 81.2517 48.3115 82.3437C48.3115 83.5384 48.0548 84.4997 47.5415 85.2277C47.0282 85.9557 46.2395 86.3197 45.1755 86.3197C44.7275 86.3197 44.3215 86.2591 43.9575 86.1377V88.5457L42.4175 88.7137V78.8717L43.7055 78.7037L43.7755 79.9637C44.1675 79.0491 44.8675 78.5917 45.8755 78.5917ZM45.3295 79.6697C44.8442 79.6697 44.4942 79.8657 44.2795 80.2577C44.0648 80.6404 43.9575 81.1257 43.9575 81.7137V85.0457C44.3868 85.3351 44.8162 85.4797 45.2455 85.4797C45.8148 85.4797 46.1882 85.1904 46.3655 84.6117C46.5428 84.0331 46.6315 83.3004 46.6315 82.4137C46.6315 81.5831 46.5522 80.9204 46.3935 80.4257C46.2348 79.9217 45.8802 79.6697 45.3295 79.6697ZM52.1816 79.6697C51.7803 79.6697 51.519 79.9404 51.3976 80.4817C51.2856 81.0137 51.2296 81.6531 51.2296 82.3997V86.0117H49.6896V78.8717L50.9776 78.7037L51.0476 79.9637C51.1783 79.5437 51.407 79.2124 51.7336 78.9697C52.0603 78.7177 52.4383 78.5917 52.8676 78.5917C53.3343 78.5917 53.703 78.7271 53.9736 78.9977C54.2536 79.2684 54.3936 79.6371 54.3936 80.1037C54.3936 80.8597 54.0296 81.2377 53.3016 81.2377C53.059 81.2377 52.8723 81.1864 52.7416 81.0837C52.807 80.8411 52.8396 80.6311 52.8396 80.4537C52.8396 79.9311 52.6203 79.6697 52.1816 79.6697ZM59.7211 84.0377C59.9357 84.1404 60.0431 84.3411 60.0431 84.6397C60.0431 84.9757 59.9311 85.2744 59.7071 85.5357C59.4831 85.7877 59.1937 85.9791 58.8391 86.1097C58.4844 86.2497 58.1251 86.3197 57.7611 86.3197C56.7344 86.3197 55.9737 85.9884 55.4791 85.3257C54.9844 84.6537 54.7371 83.7531 54.7371 82.6237C54.7371 81.4197 55.0031 80.4491 55.5351 79.7117C56.0764 78.9651 56.8931 78.5917 57.9851 78.5917C58.6757 78.5917 59.2311 78.7737 59.6511 79.1377C60.0711 79.4924 60.2811 79.9964 60.2811 80.6497C60.2811 81.4617 59.9964 82.0311 59.4271 82.3577C58.8671 82.6844 58.1017 82.8477 57.1311 82.8477C56.8604 82.8477 56.6037 82.8384 56.3611 82.8197C56.3891 83.5571 56.5104 84.1451 56.7251 84.5837C56.9491 85.0224 57.3411 85.2417 57.9011 85.2417C58.3117 85.2417 58.6711 85.1391 58.9791 84.9337C59.2964 84.7191 59.5437 84.4204 59.7211 84.0377ZM57.7611 79.3897C57.2571 79.3897 56.9024 79.6557 56.6971 80.1877C56.4917 80.7104 56.3797 81.3544 56.3611 82.1197C56.6411 82.1384 56.8464 82.1477 56.9771 82.1477C58.1531 82.1477 58.7411 81.6764 58.7411 80.7337C58.7411 80.3511 58.6571 80.0337 58.4891 79.7817C58.3304 79.5204 58.0877 79.3897 57.7611 79.3897ZM61.6252 78.8717L62.9132 78.7037L62.9832 79.9637C63.1605 79.5157 63.4312 79.1751 63.7952 78.9417C64.1685 78.7084 64.6025 78.5917 65.0972 78.5917C65.8812 78.5917 66.4272 78.8111 66.7352 79.2497C67.0432 79.6791 67.1972 80.3371 67.1972 81.2237V84.8637C67.1972 85.3211 67.3418 85.6291 67.6312 85.7877C67.5565 85.9277 67.4352 86.0351 67.2672 86.1097C67.0992 86.1844 66.9218 86.2217 66.7352 86.2217C66.3712 86.2217 66.1005 86.1191 65.9232 85.9137C65.7458 85.7084 65.6572 85.4191 65.6572 85.0457V81.4197C65.6572 80.8317 65.5918 80.3931 65.4612 80.1037C65.3305 79.8144 65.0412 79.6697 64.5932 79.6697C64.0238 79.6697 63.6412 79.9217 63.4452 80.4257C63.2585 80.9297 63.1652 81.5784 63.1652 82.3717V86.0117H61.6252V78.8717ZM74.4397 84.8637C74.4397 85.3211 74.5843 85.6291 74.8737 85.7877C74.799 85.9277 74.687 86.0351 74.5377 86.1097C74.3977 86.1844 74.2343 86.2217 74.0477 86.2217C73.777 86.2217 73.553 86.1471 73.3757 85.9977C73.1983 85.8391 73.091 85.6291 73.0537 85.3677C72.9043 85.6757 72.6617 85.9091 72.3257 86.0677C71.999 86.2357 71.6443 86.3197 71.2617 86.3197C70.3097 86.3197 69.619 85.9557 69.1897 85.2277C68.7603 84.4997 68.5457 83.5664 68.5457 82.4277C68.5457 81.2517 68.7977 80.3184 69.3017 79.6277C69.815 78.9371 70.6083 78.5917 71.6817 78.5917C72.1297 78.5917 72.5357 78.6524 72.8997 78.7737V76.2117L74.4397 76.0437V84.8637ZM72.8997 79.8657C72.4703 79.5764 72.041 79.4317 71.6117 79.4317C71.0423 79.4317 70.669 79.7024 70.4917 80.2437C70.3143 80.7851 70.2257 81.4897 70.2257 82.3577C70.2257 83.1884 70.3283 83.9024 70.5337 84.4997C70.739 85.0877 71.117 85.3817 71.6677 85.3817C72.0783 85.3817 72.3863 85.2277 72.5917 84.9197C72.797 84.6024 72.8997 84.2104 72.8997 83.7437V79.8657ZM77.1885 75.9317C77.4965 75.9317 77.7438 76.0064 77.9305 76.1557C78.1265 76.3051 78.2245 76.5197 78.2245 76.7997C78.2245 77.0891 78.1218 77.3131 77.9165 77.4717C77.7205 77.6211 77.4638 77.6957 77.1465 77.6957C76.8385 77.6957 76.5911 77.6211 76.4045 77.4717C76.2178 77.3224 76.1245 77.1077 76.1245 76.8277C76.1245 76.5384 76.2225 76.3191 76.4185 76.1697C76.6238 76.0111 76.8805 75.9317 77.1885 75.9317ZM77.9165 84.8637C77.9165 85.3211 78.0611 85.6291 78.3505 85.7877C78.2758 85.9277 78.1545 86.0351 77.9865 86.1097C77.8185 86.1844 77.6365 86.2217 77.4405 86.2217C77.0858 86.2217 76.8198 86.1191 76.6425 85.9137C76.4651 85.7084 76.3765 85.4191 76.3765 85.0457V78.8717H77.9165V84.8637ZM83.8824 78.8717L83.9804 79.6977L80.7044 85.0737L84.0784 84.9617L83.9804 86.0117H79.1364L79.0384 85.1577L82.2724 79.8237L79.1644 80.0057L79.2764 78.8717L83.8824 78.8717ZM88.9348 85.3677C88.7575 85.6944 88.4961 85.9324 88.1508 86.0817C87.8148 86.2404 87.4321 86.3197 87.0028 86.3197C86.3588 86.3197 85.8175 86.1237 85.3788 85.7317C84.9495 85.3397 84.7348 84.8311 84.7348 84.2057C84.7348 82.6937 86.0835 81.9377 88.7808 81.9377V80.7197C88.7808 80.2531 88.7108 79.9077 88.5708 79.6837C88.4308 79.4504 88.1648 79.3337 87.7728 79.3337C87.4461 79.3337 87.1755 79.4224 86.9608 79.5997C86.7461 79.7677 86.6388 80.0057 86.6388 80.3137C86.6388 80.5097 86.6761 80.7197 86.7508 80.9437C86.6201 81.0464 86.4335 81.0977 86.1908 81.0977C85.8548 81.0977 85.5888 81.0137 85.3928 80.8457C85.1968 80.6777 85.0988 80.4351 85.0988 80.1177C85.0988 79.6697 85.3508 79.3057 85.8548 79.0257C86.3588 78.7364 87.0308 78.5917 87.8708 78.5917C88.4868 78.5917 88.9721 78.6851 89.3268 78.8717C89.6815 79.0491 89.9335 79.3291 90.0828 79.7117C90.2415 80.0851 90.3208 80.5891 90.3208 81.2237V84.8637C90.3208 85.3211 90.4655 85.6291 90.7548 85.7877C90.6801 85.9277 90.5681 86.0351 90.4188 86.1097C90.2788 86.1844 90.1155 86.2217 89.9288 86.2217C89.6581 86.2217 89.4341 86.1471 89.2568 85.9977C89.0795 85.8391 88.9721 85.6291 88.9348 85.3677ZM87.5488 85.3817C87.9595 85.3817 88.2675 85.2277 88.4728 84.9197C88.6781 84.6024 88.7808 84.2104 88.7808 83.7437V82.6377C87.2035 82.6377 86.4148 83.1417 86.4148 84.1497C86.4148 84.5231 86.5128 84.8217 86.7088 85.0457C86.9141 85.2697 87.1941 85.3817 87.5488 85.3817ZM92.9808 75.9317C93.2888 75.9317 93.5361 76.0064 93.7228 76.1557C93.9188 76.3051 94.0168 76.5197 94.0168 76.7997C94.0168 77.0891 93.9141 77.3131 93.7088 77.4717C93.5128 77.6211 93.2561 77.6957 92.9388 77.6957C92.6308 77.6957 92.3835 77.6211 92.1968 77.4717C92.0101 77.3224 91.9168 77.1077 91.9168 76.8277C91.9168 76.5384 92.0148 76.3191 92.2108 76.1697C92.4161 76.0111 92.6728 75.9317 92.9808 75.9317ZM93.7508 85.5217C93.7508 87.7151 93.0975 88.8117 91.7908 88.8117C91.5295 88.8117 91.3008 88.7604 91.1048 88.6577C90.9088 88.5551 90.8108 88.4011 90.8108 88.1957C91.3335 88.1957 91.6928 87.9857 91.8888 87.5657C92.0941 87.1457 92.1968 86.5951 92.1968 85.9137V78.8717H93.7508V85.5217ZM100.108 84.0377C100.322 84.1404 100.43 84.3411 100.43 84.6397C100.43 84.9757 100.318 85.2744 100.094 85.5357C99.8698 85.7877 99.5804 85.9791 99.2258 86.1097C98.8711 86.2497 98.5118 86.3197 98.1478 86.3197C97.1211 86.3197 96.3604 85.9884 95.8658 85.3257C95.3711 84.6537 95.1238 83.7531 95.1238 82.6237C95.1238 81.4197 95.3898 80.4491 95.9218 79.7117C96.4631 78.9651 97.2798 78.5917 98.3718 78.5917C99.0624 78.5917 99.6178 78.7737 100.038 79.1377C100.458 79.4924 100.668 79.9964 100.668 80.6497C100.668 81.4617 100.383 82.0311 99.8138 82.3577C99.2538 82.6844 98.4884 82.8477 97.5178 82.8477C97.2471 82.8477 96.9904 82.8384 96.7478 82.8197C96.7758 83.5571 96.8971 84.1451 97.1118 84.5837C97.3358 85.0224 97.7278 85.2417 98.2878 85.2417C98.6984 85.2417 99.0578 85.1391 99.3658 84.9337C99.6831 84.7191 99.9304 84.4204 100.108 84.0377ZM98.1478 79.3897C97.6438 79.3897 97.2891 79.6557 97.0838 80.1877C96.8784 80.7104 96.7664 81.3544 96.7478 82.1197C97.0278 82.1384 97.2331 82.1477 97.3638 82.1477C98.5398 82.1477 99.1278 81.6764 99.1278 80.7337C99.1278 80.3511 99.0438 80.0337 98.8758 79.7817C98.7171 79.5204 98.4744 79.3897 98.1478 79.3897Z"
    fill="#E9BD43" />
  <path d="M99.5784 26.0078H60.1553V27.1593H99.5784V26.0078Z" fill="#E6E6E6" />
  <path d="M73.4013 16.377H63.4141V26.3214H73.4013V16.377Z" fill="#E6E6E6" />
  <path d="M71.4044 18.3652H65.4121V24.3319H71.4044V18.3652Z" fill="#CCCCCC" />
  <path d="M88.3297 16.377H85.8066V26.3214H88.3297V16.377Z" fill="#E6E6E6" />
  <path d="M88.3297 17.9473H85.8066V19.0987H88.3297V17.9473Z" fill="#CCCCCC" />
  <path d="M88.3297 22.9707H85.8066V24.1222H88.3297V22.9707Z" fill="#CCCCCC" />
  <path d="M84.4401 16.377H81.917V26.3214H84.4401V16.377Z" fill="#E6E6E6" />
  <path d="M84.4401 17.9473H81.917V19.0987H84.4401V17.9473Z" fill="#CCCCCC" />
  <path d="M84.4401 22.9707H81.917V24.1222H84.4401V22.9707Z" fill="#CCCCCC" />
  <path d="M90.5033 16.3365L88.2422 17.4512L92.6734 26.3632L94.9345 25.2485L90.5033 16.3365Z" fill="#E6E6E6" />
  <path d="M91.2035 17.7427L88.9424 18.8574L89.4555 19.8893L91.7166 18.7747L91.2035 17.7427Z" fill="#CCCCCC" />
  <path d="M93.4428 22.2467L91.1816 23.3613L91.6947 24.3932L93.9559 23.2786L93.4428 22.2467Z" fill="#CCCCCC" />
  <path d="M67.1466 20.3691L68.4173 22.5604L69.6878 24.7517H67.1466H64.6055L65.876 22.5604L67.1466 20.3691Z"
    fill="#E6E6E6" />
  <path d="M69.3546 20.7871L70.6252 22.9784L71.8958 25.1697H69.3546H66.8135L68.084 22.9784L69.3546 20.7871Z"
    fill="#E6E6E6" />
  <path
    d="M70.2474 20.1448C70.6538 20.1448 70.9831 19.8168 70.9831 19.4123C70.9831 19.0077 70.6538 18.6797 70.2474 18.6797C69.8411 18.6797 69.5117 19.0077 69.5117 19.4123C69.5117 19.8168 69.8411 20.1448 70.2474 20.1448Z"
    fill="#E6E6E6" />
  <path d="M60.155 11.3516L99.5781 11.3516V10.2001L60.155 10.2001V11.3516Z" fill="#E6E6E6" />
  <path d="M86.3321 10.5156L96.3193 10.5156V0.571157L86.3321 0.571157V10.5156Z" fill="#E6E6E6" />
  <path d="M88.3299 8.52539H94.3223V2.55871L88.3299 2.55871V8.52539Z" fill="#CCCCCC" />
  <path d="M71.4047 10.5156H73.9277V0.571157H71.4047V10.5156Z" fill="#E6E6E6" />
  <path d="M71.4047 8.31641H73.9277V7.16494H71.4047V8.31641Z" fill="#CCCCCC" />
  <path d="M75.2933 10.5156H77.8164V0.571157H75.2933V10.5156Z" fill="#E6E6E6" />
  <path d="M75.2933 8.31641H77.8164V7.16494H75.2933V8.31641Z" fill="#CCCCCC" />
  <path d="M64.7984 9.44196L67.0596 10.5566L71.4908 1.64461L69.2297 0.529932L64.7984 9.44196Z" fill="#E6E6E6" />
  <path d="M65.7779 7.47126L68.0391 8.58594L68.5522 7.55402L66.291 6.43934L65.7779 7.47126Z" fill="#CCCCCC" />
  <path d="M92.587 4.5625L91.3165 6.75379L90.0459 8.94508H92.587H95.1282L93.8576 6.75379L92.587 4.5625Z"
    fill="#E6E6E6" />
  <path d="M90.38 4.98047L89.1094 7.17176L87.8389 9.36304H90.38H92.9212L91.6507 7.17176L90.38 4.98047Z"
    fill="#E6E6E6" />
  <path d="M60.155 42.9648L99.5781 42.9648V41.8134L60.155 41.8134V42.9648Z" fill="#E6E6E6" />
  <path d="M86.3321 42.127H96.3193V32.1825H86.3321V42.127Z" fill="#E6E6E6" />
  <path d="M88.3299 40.1387H94.3223V34.172H88.3299V40.1387Z" fill="#CCCCCC" />
  <path d="M71.4047 42.127H73.9277V32.1825H71.4047V42.127Z" fill="#E6E6E6" />
  <path d="M71.4047 34.9043H73.9277V33.7528H71.4047V34.9043Z" fill="#CCCCCC" />
  <path d="M71.4047 39.9297H73.9277V38.7782H71.4047V39.9297Z" fill="#CCCCCC" />
  <path d="M75.2933 42.127H77.8164V32.1825H75.2933V42.127Z" fill="#E6E6E6" />
  <path d="M75.2933 34.9043H77.8164V33.7528H75.2933V34.9043Z" fill="#CCCCCC" />
  <path d="M75.2933 39.9297H77.8164V38.7782H75.2933V39.9297Z" fill="#CCCCCC" />
  <path d="M64.7984 41.0533L67.0596 42.168L71.4908 33.2559L69.2297 32.1413L64.7984 41.0533Z" fill="#E6E6E6" />
  <path d="M68.0172 34.5806L70.2783 35.6953L70.7914 34.6634L68.5303 33.5487L68.0172 34.5806Z" fill="#CCCCCC" />
  <path d="M65.7779 39.0845L68.0391 40.1992L68.5522 39.1673L66.291 38.0526L65.7779 39.0845Z" fill="#CCCCCC" />
  <path d="M92.587 36.1758L91.3165 38.3671L90.0459 40.5585H92.587H95.1282L93.8576 38.3671L92.587 36.1758Z"
    fill="#E6E6E6" />
  <path d="M90.38 36.5938L89.1094 38.785L87.8389 40.9764H90.38H92.9212L91.6507 38.785L90.38 36.5938Z" fill="#E6E6E6" />
  <path
    d="M89.4857 35.9515C89.892 35.9515 90.2214 35.6235 90.2214 35.2189C90.2214 34.8143 89.892 34.4863 89.4857 34.4863C89.0794 34.4863 88.75 34.8143 88.75 35.2189C88.75 35.6235 89.0794 35.9515 89.4857 35.9515Z"
    fill="#E6E6E6" />
  <path
    d="M52.2295 69.336C77.8779 69.336 98.67 67.8656 98.67 66.0518C98.67 64.238 77.8779 62.7676 52.2295 62.7676C26.5812 62.7676 5.78906 64.238 5.78906 66.0518C5.78906 67.8656 26.5812 69.336 52.2295 69.336Z"
    fill="#E6E6E6" />
  <path
    d="M88.5113 67.8903C80.9388 66.5483 72.6579 66.7713 63.9717 67.8903C67.9307 64.5623 71.3477 61.2343 67.3886 57.9062C75.1112 59.4926 76.1929 59.3321 84.7837 57.9062C82.7911 61.2343 86.5187 64.5623 88.5113 67.8903Z"
    fill="#E9BD43" />
  <path opacity="0.2"
    d="M88.5113 67.8903C80.9388 66.5483 72.6579 66.7713 63.9717 67.8903C67.9307 64.5623 71.3477 61.2343 67.3886 57.9062C75.1112 59.4926 76.1929 59.3321 84.7837 57.9062C82.7911 61.2343 86.5187 64.5623 88.5113 67.8903Z"
    fill="black" />
  <path
    d="M86.6638 66.4714C80.2313 65.4002 73.197 65.5783 65.8184 66.4714C69.1814 63.8149 72.084 61.1584 68.7209 58.502C75.281 59.7682 76.1999 59.6401 83.4974 58.502C81.8048 61.1584 84.9712 63.8149 86.6638 66.4714Z"
    fill="#E9BD43" />
  <path
    d="M84.2145 62.1907C86.1074 62.1907 87.6419 60.6628 87.6419 58.778C87.6419 56.8932 86.1074 55.3652 84.2145 55.3652C82.3216 55.3652 80.7871 56.8932 80.7871 58.778C80.7871 60.6628 82.3216 62.1907 84.2145 62.1907Z"
    fill="#2F2E41" />
  <path d="M68.6552 54.8203L71.03 55.2145L72.2174 58.63L68.7872 60.732L64.8291 54.8203H68.5233H68.6552Z"
    fill="#A0616A" />
  <path
    d="M75.384 60.074C78.4443 60.074 80.9252 57.6038 80.9252 54.5566C80.9252 51.5093 78.4443 49.0391 75.384 49.0391C72.3237 49.0391 69.8428 51.5093 69.8428 54.5566C69.8428 57.6038 72.3237 60.074 75.384 60.074Z"
    fill="#A0616A" />
  <path
    d="M44.7755 34.457C44.7755 34.457 31.3183 35.9021 28.9435 35.6394C26.5687 35.3766 25.5132 35.1139 25.5132 35.1139C25.5132 35.1139 23.93 37.2158 24.7216 38.1354C25.165 38.6653 25.7015 39.1104 26.3048 39.449C26.3048 39.449 27.7561 39.0549 28.8116 39.449C29.8671 39.8432 40.5536 41.5509 42.4007 39.9745C44.2478 38.3981 44.7755 34.457 44.7755 34.457Z"
    fill="#2F2E41" />
  <path
    d="M45.6992 63.752C45.6992 63.752 36.8596 61.256 35.2764 50.221V49.1701C35.2764 49.1701 33.5275 52.2253 32.9016 52.8484C32.176 53.5709 29.6033 60.0737 29.7352 60.7305C29.8672 61.3874 29.7352 61.6501 29.7352 61.6501L25.9092 61.256V60.0737C25.9092 60.0737 27.9541 53.9651 28.0861 52.52C28.218 51.0749 33.1655 41.0252 33.1655 41.0252C33.1655 41.0252 35.0126 37.2155 38.179 41.0252C41.3454 44.8349 41.6092 47.4623 41.6092 47.4623L45.6992 55.3444L45.6992 63.752Z"
    fill="#2F2E41" />
  <path
    d="M25.9087 34.7198L21.6869 33.2747C21.6869 33.2747 17.7289 30.3846 18.6524 33.2747C19.5759 36.1648 23.7978 42.4705 24.9852 41.8137C26.1726 41.1569 27.6006 39.5264 27.2824 39.2907C26.9642 39.055 24.8532 37.3472 25.9087 34.7198Z"
    fill="#2F2E41" />
  <path
    d="M26.4193 59.2988L23.0113 60.9561C23.0113 60.9561 18.8899 61.5875 21.1883 62.7713C23.4868 63.955 29.8274 65.2177 30.1445 64.1129C30.4615 63.008 30.3357 61.1743 30.0023 61.2231C29.6689 61.2718 27.3704 61.5086 26.4193 59.2988Z"
    fill="#2F2E41" />
  <path
    d="M43.9837 55.0821C43.9837 55.0821 42.2686 62.4388 45.1711 64.0152C48.0736 65.5916 68.3913 65.8544 69.9745 62.9642C71.5577 60.0741 70.7661 60.0741 70.7661 60.0741L66.5443 55.3448L69.9745 55.0821C69.9745 55.0821 69.9745 54.0312 68.7871 53.8998C67.5997 53.7684 63.9056 52.4547 60.7392 53.3743C57.5728 54.2939 55.7258 51.5352 55.7258 51.5352L43.9837 55.0821Z"
    fill="#575A89" />
  <path d="M41.741 32.0924L39.498 44.3098L54.9343 42.4706L57.7049 31.4355L41.741 32.0924Z" fill="#3F3D56" />
  <path d="M42.2025 32.5533L40.3555 43.4569L54.4063 41.8149L57.1109 31.8965L42.2025 32.5533Z" fill="white" />
  <path
    d="M40.0259 44.4419L39.4982 44.3105L39.2344 44.8359L43.4563 56.5278L43.8533 56.3767L43.9839 55.6083L40.0259 44.4419Z"
    fill="#B3B3B3" />
  <path d="M39.498 44.1784L43.7199 56.3958L59.6838 54.0311L54.9343 42.4707L39.498 44.1784Z" fill="#D0CDE1" />
  <path d="M41.6094 43.7844V44.4412L53.3514 43.1275L53.2195 42.4707L41.6094 43.7844Z" fill="#3F3D56" />
  <path d="M41.8721 45.0983L43.7191 50.2217L55.7251 48.7767L53.6142 43.916L41.8721 45.0983Z" fill="#3F3D56" />
  <path
    d="M56.9134 52.3234L56.5176 51.2725C56.5176 51.2725 53.4831 46.0177 51.8999 47.0687C50.3167 48.1196 55.1983 53.243 55.1983 53.243H56.7815L56.9134 52.3234Z"
    fill="#A0616A" />
  <path
    d="M46.8865 53.1123L46.4907 51.5359C46.4907 51.5359 45.4352 46.6753 47.2822 46.938C49.1293 47.2008 49.6571 51.7987 49.6571 51.7987L49.5251 52.8496L46.8865 53.1123Z"
    fill="#A0616A" />
  <path
    d="M50.0527 52.4548C50.0527 52.4548 46.6224 51.9293 46.4905 52.7175C46.3586 53.5057 45.6989 65.3289 48.9972 65.723C52.2956 66.1171 68.6553 67.8249 66.9402 63.7525C65.225 59.6801 62.5864 60.2055 62.5864 60.2055L51.372 61.3879L50.0527 52.4548Z"
    fill="#575A89" />
  <path d="M60.4095 53.9655L56.9134 51.5352L54.6045 53.3087L57.5071 56.4615L60.4095 53.9655Z" fill="#575A89" />
  <path opacity="0.2" d="M51.042 56.3301L51.5696 61.3221L60.6731 60.7966L52.757 60.6653L51.042 56.3301Z" fill="black" />
  <path
    d="M78.1191 62.1271C81.7624 62.1271 84.7158 59.1863 84.7158 55.5587C84.7158 51.931 81.7624 48.9902 78.1191 48.9902C74.4759 48.9902 71.5225 51.931 71.5225 55.5587C71.5225 59.1863 74.4759 62.1271 78.1191 62.1271Z"
    fill="#2F2E41" />
  <path d="M44.1816 36.3623L52.3615 36.0788L53.1531 33.0781L44.7094 33.3318L44.1816 36.3623Z" fill="#E9BD43" />
  <path d="M42.0703 38.07L54.472 37.6759L54.6039 37.1504L42.2022 37.5852L42.0703 38.07Z" fill="#E6E6E6" />
  <path d="M41.8066 39.3845L54.2084 38.9903L54.3403 38.4648L41.9385 38.8996L41.8066 39.3845Z" fill="#E6E6E6" />
  <path d="M41.6748 40.4352L54.0765 40.0411L54.2085 39.5156L41.8067 39.9503L41.6748 40.4352Z" fill="#E6E6E6" />
</svg>