<svg width="110" height="127" viewBox="0 0 110 127" fill="none" xmlns="http://www.w3.org/2000/svg">
  <path
    d="M21.0722 99.294C21.0722 99.9287 20.9089 100.47 20.5822 100.918C20.2649 101.366 19.8262 101.669 19.2662 101.828L21.7022 106H19.9102L17.4182 101.576C17.3622 101.473 17.3342 101.38 17.3342 101.296C18.0342 101.296 18.5522 101.142 18.8882 100.834C19.2242 100.517 19.3922 100.022 19.3922 99.35C19.3922 98.79 19.2476 98.3747 18.9582 98.104C18.6782 97.824 18.2442 97.684 17.6562 97.684C17.3669 97.684 17.0682 97.7073 16.7602 97.754V106H15.1222L15.1222 96.816C16.2236 96.7413 17.1009 96.704 17.7542 96.704C19.9662 96.704 21.0722 97.5673 21.0722 99.294ZM27.1517 104.026C27.3664 104.129 27.4737 104.329 27.4737 104.628C27.4737 104.964 27.3617 105.263 27.1377 105.524C26.9137 105.776 26.6244 105.967 26.2697 106.098C25.9151 106.238 25.5557 106.308 25.1917 106.308C24.1651 106.308 23.4044 105.977 22.9097 105.314C22.4151 104.642 22.1677 103.741 22.1677 102.612C22.1677 101.408 22.4337 100.437 22.9657 99.7C23.5071 98.9533 24.3237 98.58 25.4157 98.58C26.1064 98.58 26.6617 98.762 27.0817 99.126C27.5017 99.4807 27.7117 99.9847 27.7117 100.638C27.7117 101.45 27.4271 102.019 26.8577 102.346C26.2977 102.673 25.5324 102.836 24.5617 102.836C24.2911 102.836 24.0344 102.827 23.7917 102.808C23.8197 103.545 23.9411 104.133 24.1557 104.572C24.3797 105.011 24.7717 105.23 25.3317 105.23C25.7424 105.23 26.1017 105.127 26.4097 104.922C26.7271 104.707 26.9744 104.409 27.1517 104.026ZM25.1917 99.378C24.6877 99.378 24.3331 99.644 24.1277 100.176C23.9224 100.699 23.8104 101.343 23.7917 102.108C24.0717 102.127 24.2771 102.136 24.4077 102.136C25.5837 102.136 26.1717 101.665 26.1717 100.722C26.1717 100.339 26.0877 100.022 25.9197 99.77C25.7611 99.5087 25.5184 99.378 25.1917 99.378ZM31.3238 99.322C31.0438 99.322 30.8198 99.3967 30.6518 99.546C30.4838 99.686 30.3998 99.8913 30.3998 100.162C30.3998 100.526 30.5212 100.825 30.7638 101.058C31.0158 101.282 31.3985 101.534 31.9118 101.814C32.3225 102.038 32.6492 102.239 32.8918 102.416C33.1438 102.593 33.3585 102.822 33.5358 103.102C33.7132 103.373 33.8018 103.704 33.8018 104.096C33.8018 104.805 33.5452 105.351 33.0318 105.734C32.5278 106.117 31.8838 106.308 31.0998 106.308C30.4185 106.308 29.8445 106.191 29.3778 105.958C28.9205 105.725 28.6918 105.337 28.6918 104.796C28.6918 104.479 28.7898 104.236 28.9858 104.068C29.1818 103.9 29.4478 103.816 29.7838 103.816C30.0265 103.816 30.2132 103.867 30.3438 103.97C30.2692 104.194 30.2318 104.404 30.2318 104.6C30.2318 104.899 30.3252 105.137 30.5118 105.314C30.6985 105.482 30.9505 105.566 31.2678 105.566C31.6132 105.566 31.8745 105.477 32.0518 105.3C32.2385 105.113 32.3318 104.843 32.3318 104.488C32.3318 104.124 32.2058 103.83 31.9538 103.606C31.7112 103.373 31.3332 103.116 30.8198 102.836C30.4092 102.603 30.0778 102.397 29.8258 102.22C29.5832 102.043 29.3732 101.819 29.1958 101.548C29.0185 101.268 28.9298 100.932 28.9298 100.54C28.9298 99.9147 29.1818 99.434 29.6858 99.098C30.1898 98.7527 30.8012 98.58 31.5198 98.58C32.1825 98.58 32.7238 98.7013 33.1438 98.944C33.5732 99.1773 33.7878 99.5647 33.7878 100.106C33.7878 100.423 33.6852 100.666 33.4798 100.834C33.2838 101.002 33.0178 101.086 32.6818 101.086C32.4392 101.086 32.2525 101.035 32.1218 100.932C32.1965 100.708 32.2338 100.498 32.2338 100.302C32.2338 99.994 32.1545 99.756 31.9958 99.588C31.8465 99.4107 31.6225 99.322 31.3238 99.322ZM37.8665 98.58C38.9119 98.58 39.6865 98.9207 40.1905 99.602C40.6945 100.274 40.9465 101.184 40.9465 102.332C40.9465 103.555 40.7039 104.525 40.2185 105.244C39.7332 105.953 38.9492 106.308 37.8665 106.308C36.8025 106.308 36.0232 105.967 35.5285 105.286C35.0432 104.605 34.8005 103.667 34.8005 102.472C34.8005 101.315 35.0525 100.377 35.5565 99.658C36.0605 98.9393 36.8305 98.58 37.8665 98.58ZM37.8665 105.468C38.4452 105.468 38.8232 105.183 39.0005 104.614C39.1779 104.045 39.2665 103.307 39.2665 102.402C39.2665 101.571 39.1685 100.867 38.9725 100.288C38.7859 99.7093 38.4172 99.42 37.8665 99.42C36.9425 99.42 36.4805 100.414 36.4805 102.402C36.4805 103.307 36.5645 104.045 36.7325 104.614C36.9099 105.183 37.2879 105.468 37.8665 105.468ZM43.8856 96.032V104.852C43.8856 105.309 44.0302 105.617 44.3196 105.776C44.2449 105.916 44.1189 106.023 43.9416 106.098C43.7736 106.173 43.5962 106.21 43.4096 106.21C43.0549 106.21 42.7889 106.107 42.6116 105.902C42.4342 105.697 42.3456 105.407 42.3456 105.034V96.2L43.8856 96.032ZM51.3889 104.852C51.3889 105.309 51.5336 105.617 51.8229 105.776C51.7482 105.916 51.6362 106.023 51.4869 106.098C51.3469 106.173 51.1836 106.21 50.9969 106.21C50.7262 106.21 50.5022 106.135 50.3249 105.986C50.1476 105.827 50.0402 105.617 50.0029 105.356C49.8536 105.664 49.6109 105.897 49.2749 106.056C48.9482 106.224 48.5936 106.308 48.2109 106.308C47.5389 106.308 47.0256 106.163 46.6709 105.874C46.3256 105.575 46.0969 105.174 45.9849 104.67C45.8729 104.157 45.8169 103.499 45.8169 102.696V98.86H47.3569V102.626C47.3569 103.195 47.3756 103.667 47.4129 104.04C47.4596 104.404 47.5762 104.717 47.7629 104.978C47.9496 105.239 48.2342 105.37 48.6169 105.37C49.0276 105.37 49.3356 105.216 49.5409 104.908C49.7462 104.591 49.8489 104.199 49.8489 103.732V98.86H51.3889V104.852ZM55.8441 99.406C54.9107 99.406 54.4441 100.423 54.4441 102.458C54.4441 103.289 54.5467 103.961 54.7521 104.474C54.9667 104.978 55.3774 105.23 55.9841 105.23C56.3947 105.23 56.7447 105.123 57.0341 104.908C57.3327 104.684 57.5334 104.371 57.6361 103.97C57.7947 104.045 57.9067 104.133 57.9721 104.236C58.0467 104.329 58.0841 104.46 58.0841 104.628C58.0841 104.964 57.9721 105.263 57.7481 105.524C57.5334 105.776 57.2534 105.967 56.9081 106.098C56.5627 106.238 56.2081 106.308 55.8441 106.308C54.8174 106.308 54.0567 105.977 53.5621 105.314C53.0674 104.642 52.8201 103.741 52.8201 102.612C52.8201 101.408 53.0861 100.437 53.6181 99.7C54.1594 98.9533 54.9714 98.58 56.0541 98.58C56.6887 98.58 57.2114 98.7107 57.6221 98.972C58.0327 99.2333 58.2381 99.6347 58.2381 100.176C58.2381 100.493 58.1401 100.736 57.9441 100.904C57.7481 101.072 57.4821 101.156 57.1461 101.156C57.0434 101.156 56.9361 101.142 56.8241 101.114C56.7214 101.086 56.6374 101.049 56.5721 101.002C56.6467 100.778 56.6841 100.568 56.6841 100.372C56.6841 99.728 56.4041 99.406 55.8441 99.406ZM60.3281 95.92C60.6361 95.92 60.8835 95.9947 61.0701 96.144C61.2661 96.2933 61.3641 96.508 61.3641 96.788C61.3641 97.0773 61.2615 97.3013 61.0561 97.46C60.8601 97.6093 60.6035 97.684 60.2861 97.684C59.9781 97.684 59.7308 97.6093 59.5441 97.46C59.3575 97.3107 59.2641 97.096 59.2641 96.816C59.2641 96.5267 59.3621 96.3073 59.5581 96.158C59.7635 95.9993 60.0201 95.92 60.3281 95.92ZM61.0561 104.852C61.0561 105.309 61.2008 105.617 61.4901 105.776C61.4155 105.916 61.2941 106.023 61.1261 106.098C60.9581 106.173 60.7761 106.21 60.5801 106.21C60.2255 106.21 59.9595 106.107 59.7821 105.902C59.6048 105.697 59.5161 105.407 59.5161 105.034V98.86H61.0561V104.852ZM65.5521 98.58C66.5974 98.58 67.3721 98.9207 67.8761 99.602C68.3801 100.274 68.6321 101.184 68.6321 102.332C68.6321 103.555 68.3894 104.525 67.9041 105.244C67.4188 105.953 66.6348 106.308 65.5521 106.308C64.4881 106.308 63.7088 105.967 63.2141 105.286C62.7288 104.605 62.4861 103.667 62.4861 102.472C62.4861 101.315 62.7381 100.377 63.2421 99.658C63.7461 98.9393 64.5161 98.58 65.5521 98.58ZM65.5521 105.468C66.1308 105.468 66.5088 105.183 66.6861 104.614C66.8634 104.045 66.9521 103.307 66.9521 102.402C66.9521 101.571 66.8541 100.867 66.6581 100.288C66.4714 99.7093 66.1028 99.42 65.5521 99.42C64.6281 99.42 64.1661 100.414 64.1661 102.402C64.1661 103.307 64.2501 104.045 64.4181 104.614C64.5954 105.183 64.9734 105.468 65.5521 105.468ZM66.8121 95.374C66.9988 95.4207 67.1528 95.5187 67.2741 95.668C67.4048 95.8173 67.4701 95.9853 67.4701 96.172C67.4701 96.424 67.3581 96.6387 67.1341 96.816C66.9101 96.9933 66.6254 97.1567 66.2801 97.306L64.7541 97.992L64.4041 97.502L66.8121 95.374ZM70.0031 98.86L71.2911 98.692L71.3611 99.952C71.5384 99.504 71.8091 99.1633 72.1731 98.93C72.5464 98.6967 72.9804 98.58 73.4751 98.58C74.2591 98.58 74.8051 98.7993 75.1131 99.238C75.4211 99.6673 75.5751 100.325 75.5751 101.212V104.852C75.5751 105.309 75.7198 105.617 76.0091 105.776C75.9344 105.916 75.8131 106.023 75.6451 106.098C75.4771 106.173 75.2998 106.21 75.1131 106.21C74.7491 106.21 74.4784 106.107 74.3011 105.902C74.1238 105.697 74.0351 105.407 74.0351 105.034V101.408C74.0351 100.82 73.9698 100.381 73.8391 100.092C73.7084 99.8027 73.4191 99.658 72.9711 99.658C72.4018 99.658 72.0191 99.91 71.8231 100.414C71.6364 100.918 71.5431 101.567 71.5431 102.36V106H70.0031V98.86ZM85.2649 104.852C85.2649 105.309 85.4095 105.617 85.6989 105.776C85.6242 105.916 85.5122 106.023 85.3629 106.098C85.2229 106.173 85.0595 106.21 84.8729 106.21C84.6022 106.21 84.3782 106.135 84.2009 105.986C84.0235 105.827 83.9162 105.617 83.8789 105.356C83.7295 105.664 83.4869 105.897 83.1509 106.056C82.8242 106.224 82.4695 106.308 82.0869 106.308C81.1349 106.308 80.4442 105.944 80.0149 105.216C79.5855 104.488 79.3709 103.555 79.3709 102.416C79.3709 101.24 79.6229 100.307 80.1269 99.616C80.6402 98.9253 81.4335 98.58 82.5069 98.58C82.9549 98.58 83.3609 98.6407 83.7249 98.762V96.2L85.2649 96.032V104.852ZM83.7249 99.854C83.2955 99.5647 82.8662 99.42 82.4369 99.42C81.8675 99.42 81.4942 99.6907 81.3169 100.232C81.1395 100.773 81.0509 101.478 81.0509 102.346C81.0509 103.177 81.1535 103.891 81.3589 104.488C81.5642 105.076 81.9422 105.37 82.4929 105.37C82.9035 105.37 83.2115 105.216 83.4169 104.908C83.6222 104.591 83.7249 104.199 83.7249 103.732V99.854ZM91.7377 104.026C91.9523 104.129 92.0597 104.329 92.0597 104.628C92.0597 104.964 91.9477 105.263 91.7237 105.524C91.4997 105.776 91.2103 105.967 90.8557 106.098C90.501 106.238 90.1417 106.308 89.7777 106.308C88.751 106.308 87.9903 105.977 87.4957 105.314C87.001 104.642 86.7537 103.741 86.7537 102.612C86.7537 101.408 87.0197 100.437 87.5517 99.7C88.093 98.9533 88.9097 98.58 90.0017 98.58C90.6923 98.58 91.2477 98.762 91.6677 99.126C92.0877 99.4807 92.2977 99.9847 92.2977 100.638C92.2977 101.45 92.013 102.019 91.4437 102.346C90.8837 102.673 90.1183 102.836 89.1477 102.836C88.877 102.836 88.6203 102.827 88.3777 102.808C88.4057 103.545 88.527 104.133 88.7417 104.572C88.9657 105.011 89.3577 105.23 89.9177 105.23C90.3283 105.23 90.6877 105.127 90.9957 104.922C91.313 104.707 91.5603 104.409 91.7377 104.026ZM89.7777 99.378C89.2737 99.378 88.919 99.644 88.7137 100.176C88.5083 100.699 88.3963 101.343 88.3777 102.108C88.6577 102.127 88.863 102.136 88.9937 102.136C90.1697 102.136 90.7577 101.665 90.7577 100.722C90.7577 100.339 90.6737 100.022 90.5057 99.77C90.347 99.5087 90.1043 99.378 89.7777 99.378ZM29.6308 116.364C29.6308 117.176 29.3928 117.834 28.9168 118.338C28.4408 118.833 27.8015 119.08 26.9988 119.08C26.7002 119.08 26.4388 119.033 26.2148 118.94C25.9908 118.837 25.8788 118.669 25.8788 118.436C26.5882 118.436 27.1108 118.273 27.4468 117.946C27.7828 117.619 27.9508 117.111 27.9508 116.42C27.9508 115.832 27.8062 115.398 27.5168 115.118C27.2368 114.829 26.8028 114.684 26.2148 114.684C25.9255 114.684 25.6268 114.707 25.3188 114.754V123H23.6808V113.816C24.7822 113.741 25.6595 113.704 26.3128 113.704C27.3768 113.704 28.1935 113.914 28.7628 114.334C29.3415 114.745 29.6308 115.421 29.6308 116.364ZM33.1885 116.658C32.7871 116.658 32.5258 116.929 32.4045 117.47C32.2925 118.002 32.2365 118.641 32.2365 119.388V123H30.6965V115.86L31.9845 115.692L32.0545 116.952C32.1851 116.532 32.4138 116.201 32.7405 115.958C33.0671 115.706 33.4451 115.58 33.8745 115.58C34.3411 115.58 34.7098 115.715 34.9805 115.986C35.2605 116.257 35.4005 116.625 35.4005 117.092C35.4005 117.848 35.0365 118.226 34.3085 118.226C34.0658 118.226 33.8791 118.175 33.7485 118.072C33.8138 117.829 33.8465 117.619 33.8465 117.442C33.8465 116.919 33.6271 116.658 33.1885 116.658ZM38.8099 115.58C39.8552 115.58 40.6299 115.921 41.1339 116.602C41.6379 117.274 41.8899 118.184 41.8899 119.332C41.8899 120.555 41.6472 121.525 41.1619 122.244C40.6766 122.953 39.8926 123.308 38.8099 123.308C37.7459 123.308 36.9666 122.967 36.4719 122.286C35.9866 121.605 35.7439 120.667 35.7439 119.472C35.7439 118.315 35.9959 117.377 36.4999 116.658C37.0039 115.939 37.7739 115.58 38.8099 115.58ZM38.8099 122.468C39.3886 122.468 39.7666 122.183 39.9439 121.614C40.1212 121.045 40.2099 120.307 40.2099 119.402C40.2099 118.571 40.1119 117.867 39.9159 117.288C39.7292 116.709 39.3606 116.42 38.8099 116.42C37.8859 116.42 37.4239 117.414 37.4239 119.402C37.4239 120.307 37.5079 121.045 37.6759 121.614C37.8532 122.183 38.2312 122.468 38.8099 122.468ZM44.8569 114.614C44.8569 115.631 44.8102 116.378 44.7169 116.854C44.8942 116.462 45.1602 116.154 45.5149 115.93C45.8696 115.697 46.2616 115.58 46.6909 115.58C47.5776 115.58 48.2216 115.935 48.6229 116.644C49.0242 117.353 49.2249 118.249 49.2249 119.332C49.2249 120.527 48.9682 121.488 48.4549 122.216C47.9416 122.944 47.1529 123.308 46.0889 123.308C45.6316 123.308 45.1462 123.247 44.6329 123.126C44.1289 123.014 43.6902 122.855 43.3169 122.65L43.3169 113.2L44.8569 113.032V114.614ZM44.8569 122.048C45.2676 122.328 45.7016 122.468 46.1589 122.468C46.7282 122.468 47.1016 122.179 47.2789 121.6C47.4562 121.021 47.5449 120.289 47.5449 119.402C47.5449 118.609 47.4562 117.955 47.2789 117.442C47.1109 116.919 46.7609 116.658 46.2289 116.658C45.6876 116.658 45.3236 116.915 45.1369 117.428C44.9502 117.932 44.8569 118.576 44.8569 119.36L44.8569 122.048ZM52.1707 113.032L52.1707 121.852C52.1707 122.309 52.3154 122.617 52.6047 122.776C52.53 122.916 52.404 123.023 52.2267 123.098C52.0587 123.173 51.8814 123.21 51.6947 123.21C51.34 123.21 51.074 123.107 50.8967 122.902C50.7194 122.697 50.6307 122.407 50.6307 122.034L50.6307 113.2L52.1707 113.032ZM58.6381 121.026C58.8527 121.129 58.9601 121.329 58.9601 121.628C58.9601 121.964 58.8481 122.263 58.6241 122.524C58.4001 122.776 58.1107 122.967 57.7561 123.098C57.4014 123.238 57.0421 123.308 56.6781 123.308C55.6514 123.308 54.8907 122.977 54.3961 122.314C53.9014 121.642 53.6541 120.741 53.6541 119.612C53.6541 118.408 53.9201 117.437 54.4521 116.7C54.9934 115.953 55.8101 115.58 56.9021 115.58C57.5927 115.58 58.1481 115.762 58.5681 116.126C58.9881 116.481 59.1981 116.985 59.1981 117.638C59.1981 118.45 58.9134 119.019 58.3441 119.346C57.7841 119.673 57.0187 119.836 56.0481 119.836C55.7774 119.836 55.5207 119.827 55.2781 119.808C55.3061 120.545 55.4274 121.133 55.6421 121.572C55.8661 122.011 56.2581 122.23 56.8181 122.23C57.2287 122.23 57.5881 122.127 57.8961 121.922C58.2134 121.707 58.4607 121.409 58.6381 121.026ZM56.6781 116.378C56.1741 116.378 55.8194 116.644 55.6141 117.176C55.4087 117.699 55.2967 118.343 55.2781 119.108C55.5581 119.127 55.7634 119.136 55.8941 119.136C57.0701 119.136 57.6581 118.665 57.6581 117.722C57.6581 117.339 57.5741 117.022 57.4061 116.77C57.2474 116.509 57.0047 116.378 56.6781 116.378ZM60.5422 115.86L61.8302 115.692L61.9002 116.952C62.0775 116.504 62.3482 116.163 62.7122 115.93C63.0855 115.697 63.5195 115.58 64.0142 115.58C64.5648 115.58 64.9942 115.692 65.3022 115.916C65.6102 116.131 65.8295 116.453 65.9602 116.882C66.3242 116.014 66.9868 115.58 67.9482 115.58C68.7322 115.58 69.2782 115.799 69.5862 116.238C69.8942 116.667 70.0482 117.325 70.0482 118.212V121.852C70.0482 122.309 70.1928 122.617 70.4822 122.776C70.4075 122.916 70.2862 123.023 70.1182 123.098C69.9502 123.173 69.7728 123.21 69.5862 123.21C69.2222 123.21 68.9515 123.107 68.7742 122.902C68.5968 122.697 68.5082 122.407 68.5082 122.034V118.408C68.5082 117.82 68.4428 117.381 68.3122 117.092C68.1815 116.803 67.8922 116.658 67.4442 116.658C66.9122 116.658 66.5575 116.91 66.3802 117.414C66.2028 117.918 66.1142 118.567 66.1142 119.36V123H64.5742V118.408C64.5742 117.82 64.5088 117.381 64.3782 117.092C64.2475 116.803 63.9582 116.658 63.5102 116.658C62.9408 116.658 62.5582 116.91 62.3622 117.414C62.1755 117.918 62.0822 118.567 62.0822 119.36L62.0822 123H60.5422L60.5422 115.86ZM75.6565 122.356C75.4791 122.683 75.2178 122.921 74.8725 123.07C74.5365 123.229 74.1538 123.308 73.7245 123.308C73.0805 123.308 72.5391 123.112 72.1005 122.72C71.6711 122.328 71.4565 121.819 71.4565 121.194C71.4565 119.682 72.8051 118.926 75.5025 118.926V117.708C75.5025 117.241 75.4325 116.896 75.2925 116.672C75.1525 116.439 74.8865 116.322 74.4945 116.322C74.1678 116.322 73.8971 116.411 73.6825 116.588C73.4678 116.756 73.3605 116.994 73.3605 117.302C73.3605 117.498 73.3978 117.708 73.4725 117.932C73.3418 118.035 73.1551 118.086 72.9125 118.086C72.5765 118.086 72.3105 118.002 72.1145 117.834C71.9185 117.666 71.8205 117.423 71.8205 117.106C71.8205 116.658 72.0725 116.294 72.5765 116.014C73.0805 115.725 73.7525 115.58 74.5925 115.58C75.2085 115.58 75.6938 115.673 76.0485 115.86C76.4031 116.037 76.6551 116.317 76.8045 116.7C76.9631 117.073 77.0425 117.577 77.0425 118.212V121.852C77.0425 122.309 77.1871 122.617 77.4765 122.776C77.4018 122.916 77.2898 123.023 77.1405 123.098C77.0005 123.173 76.8371 123.21 76.6505 123.21C76.3798 123.21 76.1558 123.135 75.9785 122.986C75.8011 122.827 75.6938 122.617 75.6565 122.356ZM74.2705 122.37C74.6811 122.37 74.9891 122.216 75.1945 121.908C75.3998 121.591 75.5025 121.199 75.5025 120.732V119.626C73.9251 119.626 73.1365 120.13 73.1365 121.138C73.1365 121.511 73.2345 121.81 73.4305 122.034C73.6358 122.258 73.9158 122.37 74.2705 122.37ZM81.1305 116.322C80.8505 116.322 80.6265 116.397 80.4585 116.546C80.2905 116.686 80.2065 116.891 80.2065 117.162C80.2065 117.526 80.3278 117.825 80.5705 118.058C80.8225 118.282 81.2051 118.534 81.7185 118.814C82.1291 119.038 82.4558 119.239 82.6985 119.416C82.9505 119.593 83.1651 119.822 83.3425 120.102C83.5198 120.373 83.6085 120.704 83.6085 121.096C83.6085 121.805 83.3518 122.351 82.8385 122.734C82.3345 123.117 81.6905 123.308 80.9065 123.308C80.2251 123.308 79.6511 123.191 79.1845 122.958C78.7271 122.725 78.4985 122.337 78.4985 121.796C78.4985 121.479 78.5965 121.236 78.7925 121.068C78.9885 120.9 79.2545 120.816 79.5905 120.816C79.8331 120.816 80.0198 120.867 80.1505 120.97C80.0758 121.194 80.0385 121.404 80.0385 121.6C80.0385 121.899 80.1318 122.137 80.3185 122.314C80.5051 122.482 80.7571 122.566 81.0745 122.566C81.4198 122.566 81.6811 122.477 81.8585 122.3C82.0451 122.113 82.1385 121.843 82.1385 121.488C82.1385 121.124 82.0125 120.83 81.7605 120.606C81.5178 120.373 81.1398 120.116 80.6265 119.836C80.2158 119.603 79.8845 119.397 79.6325 119.22C79.3898 119.043 79.1798 118.819 79.0025 118.548C78.8251 118.268 78.7365 117.932 78.7365 117.54C78.7365 116.915 78.9885 116.434 79.4925 116.098C79.9965 115.753 80.6078 115.58 81.3265 115.58C81.9891 115.58 82.5305 115.701 82.9505 115.944C83.3798 116.177 83.5945 116.565 83.5945 117.106C83.5945 117.423 83.4918 117.666 83.2865 117.834C83.0905 118.002 82.8245 118.086 82.4885 118.086C82.2458 118.086 82.0591 118.035 81.9285 117.932C82.0031 117.708 82.0405 117.498 82.0405 117.302C82.0405 116.994 81.9611 116.756 81.8025 116.588C81.6531 116.411 81.4291 116.322 81.1305 116.322Z"
    fill="#E9BD43" />
  <path
    d="M23.8784 57.9619L25.7567 59.0413C25.9468 59.1505 26.1584 59.2169 26.3768 59.236C26.5951 59.255 26.815 59.2262 27.0211 59.1515C27.2272 59.0768 27.4145 58.9581 27.57 58.8036C27.7255 58.6491 27.8454 58.4625 27.9214 58.2569V58.2569C28.0032 58.0356 28.0318 57.7982 28.0051 57.5638C27.9784 57.3294 27.897 57.1046 27.7676 56.9074C27.6381 56.7102 27.4641 56.5461 27.2597 56.4284C27.0552 56.3107 26.826 56.2426 26.5904 56.2296L24.3158 56.1046L17.4639 54.0306L16.3593 49.8945L13.4707 51.5171L15.4569 56.2194L23.8784 57.9619Z"
    fill="#FFB8B8" />
  <path
    d="M14.9228 36.4941C14.4883 36.9867 14.5667 37.5792 14.8832 38.0602C15.1997 38.5413 15.7263 38.9415 16.1871 39.3659C16.4832 39.6386 16.7571 39.9279 16.8897 40.256C16.9628 40.4237 16.9867 40.6087 16.9586 40.7895C16.9306 40.9703 16.8518 41.1394 16.7314 41.2771C16.4296 41.6341 15.8674 41.8759 15.3189 42.0831C13.7504 42.6716 12.132 43.1173 10.4834 43.4147C11.8723 41.7919 12.5675 39.9642 12.4657 38.2037C12.4443 37.8343 12.3894 37.4614 12.5184 37.0911C12.6071 36.8688 12.7472 36.6708 12.9273 36.5132C13.1073 36.3556 13.3222 36.243 13.5543 36.1847C14.1064 36.0262 14.8335 36.183 14.9182 36.5447"
    fill="#2F2E41" />
  <path d="M3.02441 88.5738L5.01185 88.6603L8.93451 70.541L5.53032 70.6873L3.02441 88.5738Z" fill="#FFB8B8" />
  <path d="M22.8987 84.6839L21.2569 85.5479L10.9873 70.3113L14.2579 68.8711L22.8987 84.6839Z" fill="#FFB8B8" />
  <path
    d="M11.4513 42.1975C13.1875 42.1975 14.5949 40.79 14.5949 39.0538C14.5949 37.3176 13.1875 35.9102 11.4513 35.9102C9.71508 35.9102 8.30762 37.3176 8.30762 39.0538C8.30762 40.79 9.71508 42.1975 11.4513 42.1975Z"
    fill="#FFB8B8" />
  <path
    d="M9.851 40.7031C9.851 40.7031 8.72769 43.0361 7.17234 42.9497C7.17234 42.9497 4.23446 41.74 3.28397 45.0235L2.24707 47.6158L15.986 49.9488C15.986 49.9488 15.2083 45.1964 13.3937 45.1099C13.3937 45.1099 11.3199 44.9371 11.5792 44.1595C11.8384 43.3818 12.7889 41.5672 12.7889 41.5672L9.851 40.7031Z"
    fill="#FFB8B8" />
  <path
    d="M14.4301 52.6283L12.3564 57.1216L14.0654 64.3841L22.3892 80.0054C22.3892 80.0054 18.5558 83.4447 17.6002 83.9963C16.7713 84.4748 9.87049 71.5044 9.61849 68.8311C9.53533 67.9488 8.02215 85.8207 8.02215 85.8207C8.02215 85.8207 2.31758 84.8793 0.724609 84.5664C0.724609 84.5664 1.87228 76.4375 2.549 68.8311C3.07062 62.9679 2.59631 57.6542 5.5301 55.1342L5.27087 50.1225L12.1835 49.8633L14.4301 52.6283Z"
    fill="#2F2E41" />
  <path
    d="M3.69287 91.9061L6.86568 92.3668C7.11154 92.4584 7.3827 92.4552 7.62633 92.3578C7.86997 92.2604 8.06862 92.0758 8.18358 91.84V91.84C8.27697 91.6484 8.3102 91.433 8.27889 91.2222C8.24759 91.0114 8.15322 90.815 8.00819 90.6588L6.6615 89.2085L5.69226 87.1171C5.11259 86.525 4.71635 86.7344 4.49482 87.7072L2.94541 87.2206L2.53916 89.9514C2.47836 90.3601 2.55979 90.7773 2.7698 91.1331C2.97982 91.4889 3.30569 91.7618 3.69287 91.9061V91.9061Z"
    fill="#2F2E41" />
  <path
    d="M21.7784 89.049L24.9844 89.0378C25.2411 89.0923 25.5089 89.0492 25.7355 88.917C25.9622 88.7849 26.1315 88.5731 26.2105 88.3229V88.3229C26.2747 88.1196 26.2758 87.9017 26.2139 87.6978C26.1519 87.4939 26.0296 87.3135 25.8632 87.1803L24.3178 85.944L23.0513 84.0179C22.3909 83.5176 22.0297 83.783 21.9538 84.7778L20.3496 84.5245V87.2854C20.3496 87.6986 20.4915 88.0992 20.7516 88.4203C21.0117 88.7413 21.3742 88.9633 21.7784 89.049V89.049Z"
    fill="#2F2E41" />
  <path
    d="M9.86354 34.2218C9.32957 33.9885 8.69414 34.08 8.17861 34.3517C7.66308 34.6233 7.25117 35.0566 6.89067 35.5145C5.64934 37.0988 4.9255 39.0266 4.81736 41.0364C4.78912 41.5857 4.81561 42.1664 5.10163 42.6363C5.41594 43.1527 5.99124 43.4491 6.56108 43.6509C8.47157 44.3166 10.5676 44.2013 12.3935 43.3301C11.4334 42.5516 10.5451 41.6886 9.73914 40.7514C9.5881 40.5758 9.43019 40.3503 9.507 40.1317C9.55536 40.0254 9.63034 39.9333 9.7247 39.8645L11.5755 38.2571L11.529 38.9074C11.897 38.8859 12.2508 38.757 12.5464 38.5366C12.842 38.3163 13.0666 38.0141 13.1923 37.6675C13.1031 37.8476 13.2735 38.0688 13.4704 38.1094C13.6673 38.1499 13.8666 38.0687 14.0512 37.9892C14.4991 37.7965 14.9855 37.5671 15.1842 37.1219C15.2467 36.9649 15.2766 36.7969 15.2721 36.628C15.2676 36.4591 15.2288 36.2929 15.1579 36.1395C15.0142 35.8334 14.8092 35.5601 14.5556 35.3364C13.933 34.7617 13.1757 34.3533 12.3535 34.1489C11.5313 33.9444 10.6708 33.9507 9.85164 34.1669"
    fill="#2F2E41" />
  <path
    d="M9.23556 57.5127L10.6159 59.1824C10.7555 59.3513 10.9304 59.4878 11.1282 59.5822C11.326 59.6766 11.5421 59.7268 11.7612 59.7291C11.9804 59.7315 12.1975 59.686 12.3973 59.5959C12.5971 59.5057 12.7748 59.3731 12.9181 59.2072C13.0723 59.0286 13.1825 58.8164 13.2397 58.5875C13.2969 58.3586 13.2995 58.1195 13.2475 57.8894C13.1954 57.6593 13.09 57.4447 12.9399 57.2627C12.7897 57.0808 12.5989 56.9366 12.3829 56.8418L10.2967 55.9268L4.60777 51.581L5.0242 47.3203L1.75 47.8265L1.96042 52.9267L9.23556 57.5127Z"
    fill="#FFB8B8" />
  <path
    d="M17.8001 53.7512C17.8001 53.7512 16.4547 48.8236 15.7449 48.8248C15.035 48.8259 14.0845 48.7395 14.0845 48.7395C14.0845 48.7395 12.9612 45.456 7.17189 46.4929C1.38254 47.5298 3.88838 45.5424 2.24662 46.3201C0.604858 47.0978 0 52.5415 0 52.5415C0 52.5415 8.90005 49.6036 10.801 51.2454C11.8927 52.2001 13.0799 53.0399 14.3438 53.7512C14.3438 53.7512 13.4797 55.9114 17.8001 53.7512Z"
    fill="#2F2E41" />
  <path d="M48.6541 88.7773H13.7627V89.0054H48.6541V88.7773Z" fill="#3F3D56" />
  <path
    d="M75.4499 49.4389C87.1001 49.4389 96.5444 39.9946 96.5444 28.3445C96.5444 16.6943 87.1001 7.25 75.4499 7.25C63.7998 7.25 54.3555 16.6943 54.3555 28.3445C54.3555 39.9946 63.7998 49.4389 75.4499 49.4389Z"
    fill="#E6E6E6" />
  <path d="M71.4588 16.6016H36.5674V16.8296H71.4588V16.6016Z" fill="#3F3D56" />
  <path d="M105.096 22.8711H36.5674V23.0991H105.096V22.8711Z" fill="#3F3D56" />
  <path
    d="M84.0015 45.335C72.3071 45.335 62.793 35.8208 62.793 24.1265C62.793 12.4321 72.3071 2.91797 84.0015 2.91797C95.6958 2.91797 105.21 12.4321 105.21 24.1265C105.21 35.8208 95.6958 45.335 84.0015 45.335ZM84.0015 3.14602C72.4328 3.14602 63.021 12.5578 63.021 24.1265C63.021 35.6951 72.4328 45.1069 84.0015 45.1069C95.5701 45.1069 104.982 35.6951 104.982 24.1265C104.982 12.5578 95.5701 3.14602 84.0015 3.14602V3.14602Z"
    fill="#3F3D56" />
  <path
    d="M82.0453 6.09834C83.5831 6.09834 84.8298 4.85166 84.8298 3.31382C84.8298 1.77597 83.5831 0.529297 82.0453 0.529297C80.5074 0.529297 79.2607 1.77597 79.2607 3.31382C79.2607 4.85166 80.5074 6.09834 82.0453 6.09834Z"
    fill="#E9BD43" />
  <path
    d="M62.873 24.4355C63.8681 24.4355 64.6748 23.6289 64.6748 22.6338C64.6748 21.6387 63.8681 20.832 62.873 20.832C61.878 20.832 61.0713 21.6387 61.0713 22.6338C61.0713 23.6289 61.878 24.4355 62.873 24.4355Z"
    fill="#FF6584" />
  <path
    d="M105.885 26.7785C108.158 26.7785 110 24.9362 110 22.6637C110 20.3911 108.158 18.5488 105.885 18.5488C103.613 18.5488 101.771 20.3911 101.771 22.6637C101.771 24.9362 103.613 26.7785 105.885 26.7785Z"
    fill="#E9BD43" />
  <path
    d="M48.046 38.9004H35.5604V39.1284H48.046C48.6607 39.1284 49.2502 39.3726 49.6848 39.8073C50.1195 40.2419 50.3637 40.8315 50.3637 41.4462C50.3637 42.0609 50.1195 42.6504 49.6848 43.085C49.2502 43.5197 48.6607 43.7639 48.046 43.7639H29.1532C28.5385 43.7639 27.949 43.5197 27.5143 43.085C27.0797 42.6504 26.8355 42.0609 26.8355 41.4462C26.8355 40.8315 27.0797 40.2419 27.5143 39.8073C27.949 39.3726 28.5385 39.1284 29.1532 39.1284H29.8592V38.9004H29.1532C28.478 38.9004 27.8305 39.1686 27.3531 39.646C26.8756 40.1235 26.6074 40.771 26.6074 41.4462C26.6074 42.1214 26.8756 42.7689 27.3531 43.2463C27.8305 43.7237 28.478 43.9919 29.1532 43.9919H48.046C48.7211 43.9919 49.3687 43.7237 49.8461 43.2463C50.3235 42.7689 50.5917 42.1214 50.5917 41.4462C50.5917 40.771 50.3235 40.1235 49.8461 39.646C49.3687 39.1686 48.7211 38.9004 48.046 38.9004Z"
    fill="#3F3D56" />
  <path
    d="M48.046 46.7676H35.5604V46.9956H48.046C48.6607 46.9956 49.2502 47.2398 49.6848 47.6745C50.1195 48.1091 50.3637 48.6987 50.3637 49.3134C50.3637 49.9281 50.1195 50.5176 49.6848 50.9522C49.2502 51.3869 48.6607 51.6311 48.046 51.6311H29.1532C28.5385 51.6311 27.949 51.3869 27.5143 50.9522C27.0797 50.5176 26.8355 49.9281 26.8355 49.3134C26.8355 48.6987 27.0797 48.1091 27.5143 47.6745C27.949 47.2398 28.5385 46.9956 29.1532 46.9956H29.8592V46.7676H29.1532C28.478 46.7676 27.8305 47.0358 27.3531 47.5132C26.8756 47.9906 26.6074 48.6382 26.6074 49.3134C26.6074 49.9885 26.8756 50.6361 27.3531 51.1135C27.8305 51.5909 28.478 51.8591 29.1532 51.8591H48.046C48.7211 51.8591 49.3687 51.5909 49.8461 51.1135C50.3235 50.6361 50.5917 49.9885 50.5917 49.3134C50.5917 48.6382 50.3235 47.9906 49.8461 47.5132C49.3687 47.0358 48.7211 46.7676 48.046 46.7676Z"
    fill="#3F3D56" />
  <path
    d="M48.046 54.6348H35.5604V54.8628H48.046C48.6607 54.8628 49.2502 55.107 49.6848 55.5417C50.1195 55.9763 50.3637 56.5658 50.3637 57.1805C50.3637 57.7952 50.1195 58.3848 49.6848 58.8194C49.2502 59.2541 48.6607 59.4983 48.046 59.4983H29.1532C28.5385 59.4983 27.949 59.2541 27.5143 58.8194C27.0797 58.3848 26.8355 57.7952 26.8355 57.1805C26.8355 56.5658 27.0797 55.9763 27.5143 55.5417C27.949 55.107 28.5385 54.8628 29.1532 54.8628H29.8592V54.6348H29.1532C28.478 54.6348 27.8305 54.903 27.3531 55.3804C26.8756 55.8578 26.6074 56.5054 26.6074 57.1805C26.6074 57.8557 26.8756 58.5033 27.3531 58.9807C27.8305 59.4581 28.478 59.7263 29.1532 59.7263H48.046C48.7211 59.7263 49.3687 59.4581 49.8461 58.9807C50.3235 58.5033 50.5917 57.8557 50.5917 57.1805C50.5917 56.5054 50.3235 55.8578 49.8461 55.3804C49.3687 54.903 48.7211 54.6348 48.046 54.6348V54.6348Z"
    fill="#3F3D56" />
  <path
    d="M31.2683 38.297C31.0905 38.2999 30.9209 38.3727 30.7962 38.4995C30.6715 38.6263 30.6016 38.7971 30.6016 38.975C30.6016 39.1528 30.6715 39.3236 30.7962 39.4504C30.9209 39.5772 31.0905 39.65 31.2683 39.6529H34.2427C34.4222 39.6553 34.5953 39.5865 34.724 39.4615C34.8528 39.3365 34.9268 39.1655 34.9297 38.9861C34.9327 38.8066 34.8644 38.6333 34.7398 38.5041C34.6152 38.375 34.4444 38.3005 34.265 38.297C34.2576 38.2968 34.2501 38.2968 34.2427 38.297H31.2683Z"
    fill="#E9BD43" />
  <path
    d="M31.2683 46.2794C31.0905 46.2824 30.9209 46.3551 30.7962 46.4819C30.6715 46.6087 30.6016 46.7795 30.6016 46.9574C30.6016 47.1353 30.6715 47.306 30.7962 47.4328C30.9209 47.5597 31.0905 47.6324 31.2683 47.6354H34.2427C34.4222 47.6378 34.5953 47.5689 34.724 47.4439C34.8528 47.3189 34.9268 47.1479 34.9297 46.9685C34.9327 46.789 34.8644 46.6157 34.7398 46.4866C34.6152 46.3574 34.4444 46.2829 34.265 46.2794C34.2576 46.2793 34.2501 46.2793 34.2427 46.2794H31.2683Z"
    fill="#FF6584" />
  <path
    d="M31.2685 54.0313C31.0906 54.0343 30.921 54.107 30.7962 54.2338C30.6715 54.3607 30.6016 54.5314 30.6016 54.7093C30.6016 54.8872 30.6715 55.058 30.7962 55.1849C30.921 55.3117 31.0906 55.3844 31.2685 55.3873H34.2429C34.4226 55.3901 34.596 55.3214 34.7251 55.1963C34.8542 55.0713 34.9283 54.9001 34.9313 54.7205C34.9342 54.5408 34.8657 54.3673 34.7408 54.238C34.6159 54.1088 34.4448 54.0345 34.2652 54.0313C34.2577 54.0312 34.2503 54.0312 34.2429 54.0313H31.2685Z"
    fill="#3F3D56" />
  <path
    d="M30.0887 40.7677C29.9108 40.7706 29.7413 40.8434 29.6165 40.9702C29.4918 41.097 29.4219 41.2678 29.4219 41.4457C29.4219 41.6235 29.4918 41.7943 29.6165 41.9211C29.7413 42.048 29.9108 42.1207 30.0887 42.1236H47.0881C47.1772 42.1253 47.2659 42.1094 47.3489 42.0768C47.4319 42.0442 47.5077 41.9955 47.5718 41.9336C47.636 41.8716 47.6873 41.7976 47.7228 41.7158C47.7584 41.634 47.7774 41.546 47.7789 41.4568C47.7804 41.3676 47.7642 41.2791 47.7314 41.1961C47.6986 41.1132 47.6497 41.0376 47.5876 40.9735C47.5255 40.9095 47.4514 40.8584 47.3695 40.8231C47.2876 40.7877 47.1995 40.7689 47.1103 40.7677C47.1029 40.7675 47.0955 40.7675 47.0881 40.7677H30.0887Z"
    fill="#E6E6E6" />
  <path
    d="M30.0887 48.6349C29.9108 48.6378 29.7413 48.7105 29.6165 48.8374C29.4918 48.9642 29.4219 49.135 29.4219 49.3128C29.4219 49.4907 29.4918 49.6615 29.6165 49.7883C29.7413 49.9152 29.9108 49.9879 30.0887 49.9908H47.0881C47.1772 49.9925 47.2659 49.9766 47.3489 49.944C47.4319 49.9114 47.5077 49.8627 47.5718 49.8007C47.636 49.7388 47.6873 49.6648 47.7228 49.583C47.7584 49.5012 47.7774 49.4132 47.7789 49.324C47.7804 49.2348 47.7642 49.1462 47.7314 49.0633C47.6986 48.9804 47.6497 48.9047 47.5876 48.8407C47.5255 48.7767 47.4514 48.7256 47.3695 48.6903C47.2876 48.6549 47.1995 48.6361 47.1103 48.6349C47.1029 48.6347 47.0955 48.6347 47.0881 48.6349H30.0887Z"
    fill="#E6E6E6" />
  <path
    d="M30.0887 56.502C29.9108 56.505 29.7413 56.5777 29.6165 56.7046C29.4918 56.8314 29.4219 57.0022 29.4219 57.18C29.4219 57.3579 29.4918 57.5287 29.6165 57.6555C29.7413 57.7823 29.9108 57.8551 30.0887 57.858H47.0881C47.1772 57.8597 47.2659 57.8438 47.3489 57.8112C47.4319 57.7786 47.5077 57.7299 47.5718 57.6679C47.636 57.606 47.6873 57.532 47.7228 57.4502C47.7584 57.3684 47.7774 57.2804 47.7789 57.1912C47.7804 57.102 47.7642 57.0134 47.7314 56.9305C47.6986 56.8476 47.6497 56.7719 47.5876 56.7079C47.5255 56.6439 47.4514 56.5928 47.3695 56.5574C47.2876 56.5221 47.1995 56.5033 47.1103 56.502C47.1029 56.5019 47.0955 56.5019 47.0881 56.502H30.0887Z"
    fill="#E6E6E6" />
  <path
    d="M47.3599 81.9709C47.1827 80.8282 46.8369 79.7182 46.3339 78.6771L46.2606 78.5255L45.716 79.1293L46.1195 78.2298L46.0931 78.1776C45.737 77.4727 45.3424 76.788 44.911 76.1265L44.831 76.004L44.7242 76.1223L44.7989 75.9557L44.7615 75.8996C44.2272 75.0981 43.8167 74.5913 43.8126 74.5862L43.6966 74.4434L43.6219 74.6137C43.6082 74.6449 42.2514 77.7712 42.0717 80.8606L42.0689 80.9087L42.982 82.0125L42.0508 81.4279L42.0524 81.6401C42.0552 82.0032 42.0799 82.3658 42.1264 82.7259C42.1674 83.0357 42.2157 83.3381 42.2712 83.6332C42.3592 83.6359 42.4448 83.6626 42.5188 83.7104C42.4545 83.3807 42.399 83.0418 42.3524 82.6937C42.3164 82.4159 42.2938 82.1336 42.2847 81.8522L44.086 82.9831L42.3022 80.827C42.4646 78.215 43.4726 75.5834 43.7556 74.8889C43.9075 75.0859 44.194 75.4682 44.5368 75.979L43.9137 77.3681L44.802 76.3831C45.1871 76.9826 45.5419 77.6011 45.8649 78.2362L44.9054 80.3751L46.2027 78.9366C46.6558 79.911 46.9694 80.9443 47.1344 82.0061C47.3614 83.7212 47.3171 85.3687 47.0096 86.6453C46.715 87.8682 46.1958 88.6199 45.5851 88.7077C45.4594 88.7251 45.3315 88.7175 45.2088 88.6854C45.1103 88.7553 44.9919 88.7914 44.8712 88.7884H44.8379C45.0273 88.8935 45.2397 88.9506 45.4563 88.9545C45.5098 88.9545 45.5633 88.9506 45.6163 88.943C46.3343 88.8399 46.9077 88.0444 47.2308 86.7032C47.5452 85.3977 47.5913 83.718 47.3599 81.9709Z"
    fill="#3F3D56" />
  <path
    d="M45.35 88.8641C44.4108 88.8641 43.0567 88.3475 41.7135 87.407C41.5158 87.2674 41.3271 87.1157 41.1483 86.9526L40.9979 86.8152L41.5667 86.6514L40.8093 86.6236L40.7774 86.5901C39.3577 85.1033 38.4743 83.0033 38.4655 82.9823L38.3965 82.8164L38.576 82.8245C38.5939 82.8253 39.0206 82.8455 39.662 82.9364L39.702 82.9421V82.9418L39.8426 82.9632C40.3664 83.0428 40.8852 83.1518 41.3967 83.2898L41.4513 83.3046L41.622 83.7249L41.5961 83.3479L41.7526 83.3931C42.4947 83.6073 43.1995 83.934 43.8424 84.362C45.885 85.7923 47.0152 87.5799 46.4178 88.4331C46.2135 88.7247 45.8376 88.864 45.35 88.8641ZM41.4569 86.9203C41.5816 87.0259 41.7115 87.1265 41.8447 87.2204C43.7154 88.5304 45.7241 89.0258 46.2309 88.3024C46.7376 87.5788 45.5849 85.8605 43.7139 84.5504C43.1366 84.1664 42.5077 83.8663 41.846 83.6593L41.9472 85.1322L41.2827 83.4953C40.845 83.3792 40.3972 83.2836 39.949 83.2107L40.0224 84.2797L39.5651 83.1531C39.2107 83.1045 38.925 83.0781 38.7512 83.0646C38.9881 83.5848 39.7709 85.1913 40.9105 86.3991L43.0005 86.4756L41.4569 86.9203Z"
    fill="#3F3D56" />
</svg>